<svg width="17" height="16" viewBox="0 0 17 16" fill="none" xmlns="http://www.w3.org/2000/svg">
<path d="M14.384 6.91867L13.5013 6.66667V1.83333C13.5013 1.52391 13.3784 1.22717 13.1596 1.00838C12.9408 0.789583 12.6441 0.666667 12.3346 0.666667C12.0252 0.666667 11.7285 0.789583 11.5097 1.00838C11.2909 1.22717 11.168 1.52391 11.168 1.83333V1.16667C11.168 0.857247 11.0451 0.560501 10.8263 0.341709C10.6075 0.122916 10.3107 0 10.0013 0C9.69188 0 9.39514 0.122916 9.17634 0.341709C8.95755 0.560501 8.83464 0.857247 8.83464 1.16667V1.83333C8.83464 1.52391 8.71172 1.22717 8.49293 1.00838C8.27413 0.789583 7.97739 0.666667 7.66797 0.666667C7.35855 0.666667 7.0618 0.789583 6.84301 1.00838C6.62422 1.22717 6.5013 1.52391 6.5013 1.83333V10.1433C6.50126 10.2059 6.4836 10.2673 6.45033 10.3203C6.41706 10.3733 6.36953 10.4159 6.31318 10.4432C6.25683 10.4704 6.19393 10.4813 6.1317 10.4745C6.06947 10.4677 6.01042 10.4435 5.9613 10.4047L3.31597 8.306C3.12083 8.15118 2.886 8.05451 2.63842 8.0271C2.39084 7.99969 2.14055 8.04263 1.91627 8.15102C1.69199 8.2594 1.50282 8.42882 1.37046 8.63983C1.2381 8.85085 1.16792 9.09491 1.16797 9.344V9.81133L5.1713 14.574C5.54671 15.0206 6.01526 15.3796 6.5441 15.6259C7.07293 15.8723 7.64924 15.9999 8.23264 16H12.8346C13.6303 16 14.3933 15.6839 14.956 15.1213C15.5186 14.5587 15.8346 13.7956 15.8346 13V8.842C15.8347 8.40732 15.6931 7.98445 15.4314 7.63741C15.1696 7.29037 14.8019 7.03806 14.384 6.91867Z" fill="white"/>
<path opacity="0.1" d="M8.7513 7.33427C8.7734 7.33427 8.7946 7.32549 8.81023 7.30986C8.82586 7.29424 8.83464 7.27304 8.83464 7.25094V1.83427C8.83464 1.61694 8.66797 7.25094 8.66797 7.25094C8.66797 7.29694 8.7053 7.33427 8.7513 7.33427ZM11.0846 7.33427C11.1067 7.33427 11.1279 7.32549 11.1436 7.30986C11.1592 7.29424 11.168 7.27304 11.168 7.25094V1.16761C11.168 0.950272 11.0013 7.25094 11.0013 7.25094C11.0013 7.29694 11.0386 7.33427 11.0846 7.33427Z" fill="white"/>
<path opacity="0.2" d="M14.3827 6.91802L13.5 6.66602V6.83268L14.3827 7.08468C14.8006 7.20408 15.1683 7.45639 15.4301 7.80343C15.6918 8.15046 15.8334 8.57333 15.8333 9.00802V8.84135C15.8334 8.40667 15.6918 7.9838 15.4301 7.63676C15.1683 7.28972 14.8006 7.03741 14.3827 6.91802Z" fill="white"/>
<path opacity="0.05" d="M12.8346 15.8325H8.23264C7.64919 15.8324 7.07284 15.7046 6.54401 15.4581C6.01517 15.2117 5.54665 14.8525 5.1713 14.4059L1.16797 9.64453V9.8112L5.1713 14.5739C5.54678 15.0203 6.01535 15.3792 6.54418 15.6254C7.07301 15.8716 7.6493 15.9992 8.23264 15.9992H12.8346C13.6303 15.9992 14.3933 15.6831 14.956 15.1205C15.5186 14.5579 15.8346 13.7948 15.8346 12.9992V12.8325C15.8346 13.6282 15.5186 14.3912 14.956 14.9539C14.3933 15.5165 13.6303 15.8325 12.8346 15.8325Z" fill="white"/>
<path opacity="0.2" d="M2.51197 8.186C2.80397 8.19 3.0873 8.29067 3.31597 8.47267L5.96064 10.5713C6.00975 10.6103 6.06887 10.6347 6.1312 10.6416C6.19354 10.6485 6.25656 10.6377 6.31303 10.6104C6.3695 10.5831 6.41712 10.5405 6.45043 10.4873C6.48373 10.4342 6.50136 10.3727 6.5013 10.31V10.1433C6.50126 10.2059 6.4836 10.2673 6.45033 10.3203C6.41706 10.3733 6.36952 10.4159 6.31317 10.4432C6.25682 10.4704 6.19393 10.4813 6.1317 10.4745C6.06947 10.4677 6.01042 10.4435 5.9613 10.4047L3.31597 8.306C3.12083 8.15118 2.886 8.05451 2.63842 8.0271C2.39084 7.99969 2.14055 8.04263 1.91627 8.15101C1.69199 8.25939 1.50282 8.42881 1.37046 8.63983C1.2381 8.85085 1.16792 9.09491 1.16797 9.344V9.51067C1.16797 8.77133 1.77264 8.17533 2.51197 8.186ZM7.66797 0.666667C7.35855 0.666667 7.0618 0.789583 6.84301 1.00838C6.62422 1.22717 6.5013 1.52391 6.5013 1.83333V2C6.5013 1.69058 6.62422 1.39383 6.84301 1.17504C7.0618 0.95625 7.35855 0.833333 7.66797 0.833333C7.97739 0.833333 8.27413 0.95625 8.49293 1.17504C8.71172 1.39383 8.83463 1.69058 8.83463 2V1.83333C8.83463 1.52391 8.71172 1.22717 8.49293 1.00838C8.27413 0.789583 7.97739 0.666667 7.66797 0.666667ZM10.0013 0C9.69188 0 9.39514 0.122916 9.17634 0.341709C8.95755 0.560501 8.83463 0.857247 8.83463 1.16667V1.33333C8.83463 1.02391 8.95755 0.727168 9.17634 0.508375C9.39514 0.289583 9.69188 0.166667 10.0013 0.166667C10.3107 0.166667 10.6075 0.289583 10.8263 0.508375C11.0451 0.727168 11.168 1.02391 11.168 1.33333V1.16667C11.168 0.857247 11.0451 0.560501 10.8263 0.341709C10.6075 0.122916 10.3107 0 10.0013 0ZM12.3346 0.666667C12.0252 0.666667 11.7285 0.789583 11.5097 1.00838C11.2909 1.22717 11.168 1.52391 11.168 1.83333V2C11.168 1.69058 11.2909 1.39383 11.5097 1.17504C11.7285 0.95625 12.0252 0.833333 12.3346 0.833333C12.6441 0.833333 12.9408 0.95625 13.1596 1.17504C13.3784 1.39383 13.5013 1.69058 13.5013 2V1.83333C13.5013 1.52391 13.3784 1.22717 13.1596 1.00838C12.9408 0.789583 12.6441 0.666667 12.3346 0.666667Z" fill="white"/>
<path d="M14.384 6.91867L13.5013 6.66667V1.83333C13.5013 1.52391 13.3784 1.22717 13.1596 1.00838C12.9408 0.789583 12.6441 0.666667 12.3346 0.666667C12.0252 0.666667 11.7285 0.789583 11.5097 1.00838C11.2909 1.22717 11.168 1.52391 11.168 1.83333V1.16667C11.168 0.857247 11.0451 0.560501 10.8263 0.341709C10.6075 0.122916 10.3107 0 10.0013 0C9.69188 0 9.39514 0.122916 9.17634 0.341709C8.95755 0.560501 8.83464 0.857247 8.83464 1.16667V1.83333C8.83464 1.52391 8.71172 1.22717 8.49293 1.00838C8.27413 0.789583 7.97739 0.666667 7.66797 0.666667C7.35855 0.666667 7.0618 0.789583 6.84301 1.00838C6.62422 1.22717 6.5013 1.52391 6.5013 1.83333V10.1433C6.50126 10.2059 6.4836 10.2673 6.45033 10.3203C6.41706 10.3733 6.36953 10.4159 6.31318 10.4432C6.25683 10.4704 6.19393 10.4813 6.1317 10.4745C6.06947 10.4677 6.01042 10.4435 5.9613 10.4047L3.31597 8.306C3.12083 8.15118 2.886 8.05451 2.63842 8.0271C2.39084 7.99969 2.14055 8.04263 1.91627 8.15102C1.69199 8.2594 1.50282 8.42882 1.37046 8.63983C1.2381 8.85085 1.16792 9.09491 1.16797 9.344V9.81133L5.1713 14.574C5.54671 15.0206 6.01526 15.3796 6.5441 15.6259C7.07293 15.8723 7.64924 15.9999 8.23264 16H12.8346C13.6303 16 14.3933 15.6839 14.956 15.1213C15.5186 14.5587 15.8346 13.7956 15.8346 13V8.842C15.8347 8.40732 15.6931 7.98445 15.4314 7.63741C15.1696 7.29037 14.8019 7.03806 14.384 6.91867Z" fill="white"/>
</svg>
