<svg width="151" height="40" viewBox="0 0 151 40" fill="none" xmlns="http://www.w3.org/2000/svg">
<path d="M150.156 34.7911C150.049 35.0433 149.947 35.2978 149.833 35.5454C149.414 36.4784 148.797 37.306 148.025 37.9687C147.252 38.6314 146.345 39.1129 145.366 39.3783C143.335 39.9988 141.162 39.9599 139.153 39.267C136.966 38.5195 135.447 37.02 134.718 34.8116C133.799 32.0329 133.79 29.2133 134.848 26.4778C135.971 23.5673 138.189 21.9882 141.239 21.6043C142.627 21.4168 144.038 21.5488 145.369 21.9905C148.014 22.8811 149.492 24.7942 150.04 27.507C150.075 27.6887 150.118 27.8705 150.156 28.0523V31.8943C150.031 31.8943 149.905 31.9102 149.779 31.9102H139.023C139.115 32.4714 139.168 32.9985 139.288 33.5006C139.676 35.1546 140.606 36.0498 142.18 36.227C143.754 36.4043 145.207 35.7999 145.773 34.2027C145.836 34.0277 145.95 34.0277 146.092 34.0277C146.947 34.0277 147.805 34.0277 148.663 34.0277C149.159 34.0277 149.656 34.0277 150.152 34.0095L150.156 34.7911ZM145.472 28.6566C145.468 27.9188 145.31 27.1901 145.007 26.5187C144.798 26.0467 144.445 25.6543 144.001 25.3985C142.914 24.8101 141.803 24.7874 140.745 25.4303C139.566 26.146 139.211 27.3616 138.966 28.6566H145.472Z" fill="#CACACA"/>
<path d="M15.5401 39.4077H10.8692V37.397C10.7682 37.5083 10.7165 37.5605 10.6716 37.6242C9.40733 39.1941 7.7523 39.8485 5.77615 39.7826C4.62145 39.7852 3.48764 39.4711 2.49529 38.8738C1.14792 38.0172 0.519137 36.7381 0.411347 35.1749C0.328259 33.9775 0.45626 32.812 1.08503 31.7532C1.78342 30.5627 2.86357 29.8743 4.11438 29.4267C5.4492 28.9807 6.8474 28.7596 8.25308 28.7723C9.05027 28.7723 9.84748 28.7723 10.6739 28.7723C10.6873 27.9612 10.7278 27.1819 10.4134 26.4276C10.2999 26.1483 10.1231 25.9 9.89725 25.7026C9.67137 25.5053 9.40276 25.3645 9.11314 25.2916C8.4907 25.1129 7.83227 25.1067 7.20661 25.2734C6.79843 25.3631 6.42646 25.5752 6.13922 25.882C5.85199 26.1888 5.66287 26.5761 5.59651 26.9933C5.57406 27.1069 5.55383 27.2205 5.52689 27.3591H0.945807C1.00868 27.0024 1.04688 26.6571 1.12996 26.3208C1.57909 24.5032 2.65249 23.1672 4.35468 22.4447C5.61419 21.8902 6.97166 21.5994 8.34524 21.5901C9.71882 21.5807 11.0801 21.8529 12.3468 22.3902C14.2871 23.1809 15.2662 24.7668 15.4907 26.8366C15.5323 27.2677 15.5502 27.7008 15.5446 28.1339C15.5446 31.7691 15.5446 35.4044 15.5446 39.0396L15.5401 39.4077ZM10.7098 32.0123C9.89686 32.0123 9.13786 31.9918 8.4013 32.0123C7.89533 32.0278 7.39175 32.0893 6.89671 32.1963C6.07257 32.3826 5.40113 32.7938 5.22148 33.714C5.17408 34.0144 5.16126 34.3194 5.1833 34.6228C5.18439 34.9969 5.30666 35.3603 5.53135 35.6574C5.75605 35.9545 6.07078 36.1689 6.42738 36.2678C6.99703 36.4567 7.60467 36.4966 8.19367 36.3838C8.78268 36.2709 9.33386 36.009 9.79582 35.6225C10.0117 35.4667 10.1941 35.2682 10.332 35.0389C10.4698 34.8097 10.5601 34.5545 10.5975 34.2888C10.6649 33.5527 10.6649 32.7961 10.7098 32.0123Z" fill="#CACACA"/>
<path d="M70.3159 31.9163H59.0384C59.135 33.2137 59.3258 34.4519 60.269 35.4062C61.0235 36.1696 61.9869 36.3377 62.9997 36.2514C64.3134 36.1355 65.2723 35.4993 65.7685 34.2225C65.7897 34.1776 65.821 34.1386 65.8601 34.1086C65.8992 34.0785 65.9448 34.0584 65.9931 34.0498C67.4056 34.0498 68.8181 34.0498 70.2306 34.0498C70.2623 34.058 70.2932 34.0694 70.3227 34.0839C70.271 34.3111 70.2283 34.5383 70.1632 34.7655C69.8917 35.7692 69.3838 36.6915 68.683 37.4532C67.9821 38.2149 67.1092 38.7934 66.1391 39.1391C63.7707 40.0806 61.1353 40.0651 58.7779 39.096C57.8329 38.7366 56.9818 38.1629 56.29 37.4189C55.5983 36.6749 55.0842 35.7804 54.7874 34.8041C53.8892 32.0436 53.869 29.2444 54.911 26.5248C56.0338 23.5894 58.2569 21.9944 61.3334 21.6127C62.7208 21.4267 64.1317 21.5603 65.4609 22.0035C68.0187 22.8691 69.521 24.7004 70.0644 27.3314C70.2095 28.1737 70.2929 29.0258 70.3137 29.8806C70.3451 30.5372 70.3159 31.2052 70.3159 31.9163ZM65.5732 28.6492C65.5081 28.1948 65.4744 27.7881 65.3823 27.3882C65.1173 26.2363 64.5132 25.3684 63.3073 25.0798C62.1014 24.7913 61.0146 25.0207 60.1635 25.9886C59.5033 26.7339 59.2652 27.6654 59.1327 28.6537L65.5732 28.6492Z" fill="#CACACA"/>
<path d="M83.7139 39.4007V39.0281C83.7139 35.5807 83.7139 32.1332 83.7139 28.6858C83.7215 28.2721 83.693 27.8584 83.6285 27.4498C83.404 26.2184 82.6539 25.5845 81.3717 25.5209C79.4741 25.4232 78.1672 26.6001 78.1492 28.5177C78.1155 32.0166 78.1335 35.5132 78.129 39.0099V39.403H73.2852V22.0174H78.1245V24.5166C78.3491 24.1895 78.5152 23.9168 78.7128 23.6692C79.7032 22.4377 81.0213 21.8379 82.5551 21.6675C83.3989 21.5608 84.2552 21.6241 85.0747 21.8538C86.8712 22.3877 87.8974 23.6578 88.3084 25.4391C88.483 26.2259 88.5718 27.0297 88.5734 27.8361C88.5981 31.5895 88.5734 35.3338 88.5734 39.0962C88.5734 39.1917 88.5734 39.2893 88.5577 39.4007H83.7139Z" fill="#CACACA"/>
<path d="M114.092 22.0176H118.943V39.3986H114.187V36.8994C114.099 37.0198 114.054 37.0743 114.021 37.1266C113.053 38.7692 111.595 39.6053 109.736 39.7689C108.684 39.8872 107.62 39.7235 106.65 39.2941C105.043 38.5488 104.207 37.2083 103.886 35.5111C103.777 34.9307 103.721 34.3412 103.72 33.7503C103.704 29.9378 103.72 26.1231 103.72 22.3107C103.72 22.2243 103.72 22.1357 103.72 22.0266H108.573V22.4129C108.573 25.9103 108.573 29.4085 108.573 32.9074C108.574 33.2874 108.6 33.667 108.651 34.0434C108.876 35.6088 109.92 36.2155 111.393 36.0564C112.988 35.8838 113.971 34.7909 114.056 33.1664C114.088 32.5984 114.081 32.0304 114.081 31.4533C114.081 28.4391 114.081 25.4241 114.081 22.4084L114.092 22.0176Z" fill="#CACACA"/>
<path d="M34.0556 32.9732C33.876 36.6698 31.4305 39.2918 27.8038 39.7075C26.3783 39.8972 24.9293 39.7819 23.5506 39.369C21.2376 38.6374 19.623 37.1174 18.8348 34.809C17.8894 32.0258 17.8759 29.1971 18.9515 26.4502C20.0744 23.5557 22.2975 21.988 25.3358 21.6063C26.6844 21.4233 28.0563 21.5443 29.3533 21.9607C31.8774 22.7877 33.3505 24.5508 33.8445 27.1682C33.9007 27.4658 33.9343 27.7703 33.9792 28.0907C33.8804 28.0907 33.8063 28.1111 33.73 28.1111C32.3646 28.1111 31.0016 28.1111 29.6362 28.1111C29.4476 28.1111 29.351 28.0725 29.3308 27.8635C29.3057 27.6883 29.2605 27.5168 29.1961 27.3522C28.866 26.3526 28.2664 25.6141 27.1997 25.4006C26.0365 25.1734 25.0102 25.4596 24.2108 26.3798C23.6356 27.0704 23.2782 27.9196 23.1845 28.8177C22.9485 30.3275 22.9935 31.8686 23.317 33.3618C23.374 33.6005 23.449 33.8345 23.5416 34.0615C24.0918 35.4111 25.1405 36.1064 26.5754 36.0746C27.8756 36.0496 28.9042 35.2839 29.3892 33.9638C29.4903 33.6889 29.5374 33.3936 29.6295 33.1141C29.6542 33.0369 29.7553 32.9323 29.8204 32.9301C31.1969 32.9301 32.5713 32.9301 33.9456 32.9301C33.9844 32.9381 34.0216 32.9527 34.0556 32.9732Z" fill="#CACACA"/>
<path d="M51.9509 28.1001H47.4102C47.2934 27.7298 47.2058 27.3663 47.0644 27.0232C46.1661 24.8352 43.6016 25.0329 42.4855 26.0894C41.7933 26.7666 41.3464 27.6597 41.2168 28.625C40.9271 30.2387 40.9699 31.8955 41.3425 33.4917C41.3921 33.682 41.4544 33.8688 41.5289 34.0506C42.0791 35.4138 43.1525 36.1272 44.6077 36.0954C45.9214 36.0568 46.9633 35.248 47.4214 33.8984C47.5021 33.6871 47.56 33.4678 47.5943 33.244C47.6213 33.0168 47.7089 32.935 47.9447 32.9373C49.2224 32.9487 50.4979 32.9373 51.7757 32.9373C51.8543 32.9373 51.9307 32.9373 52.0811 32.9487C52.0003 33.444 51.9464 33.9279 51.8386 34.3982C51.1424 37.4223 48.9687 39.2876 45.872 39.6989C44.3803 39.92 42.8584 39.7957 41.4211 39.3353C39.153 38.581 37.5744 37.0633 36.8131 34.7913C35.8812 31.9967 35.8722 29.1612 36.9658 26.4052C38.0325 23.7129 40.076 22.1633 42.8965 21.6794C44.4887 21.3883 46.1287 21.5278 47.6505 22.0838C50.1049 22.9926 51.4501 24.8103 51.8745 27.389C51.9015 27.5435 51.9194 27.7003 51.9351 27.8571C51.9441 27.9207 51.9441 28.0002 51.9509 28.1001Z" fill="#CACACA"/>
<path d="M92.615 25.6151H90.6074V21.9935H92.606V21.112C92.606 20.4031 92.606 19.6919 92.606 18.9831C92.6085 18.9257 92.6242 18.8698 92.6519 18.8197C92.6796 18.7696 92.7185 18.7267 92.7655 18.6945C94.279 18.047 95.7993 17.4108 97.3174 16.7747C97.3645 16.7629 97.4126 16.7553 97.4611 16.752V21.9776H100.746V25.6129H97.4813C97.4813 25.7469 97.4678 25.8401 97.4678 25.9559C97.4678 28.5476 97.4678 31.1392 97.4678 33.7308C97.4633 34.0058 97.4858 34.2806 97.5352 34.551C97.5807 34.9033 97.7543 35.2257 98.0221 35.4555C98.2899 35.6852 98.6327 35.8059 98.9836 35.7938C99.2953 35.8082 99.6077 35.7976 99.9178 35.762C100.223 35.7257 100.522 35.6416 100.843 35.5734V39.3586C100.416 39.4404 99.9739 39.5449 99.527 39.604C98.3573 39.7793 97.1656 39.7331 96.0126 39.4677C94.1016 39.0133 92.9317 37.6864 92.6914 35.7052C92.6315 35.197 92.6007 34.6857 92.5993 34.1739C92.5993 31.4634 92.5993 28.7551 92.5993 26.0446L92.615 25.6151Z" fill="#CACACA"/>
<path d="M87.6909 15.6225V13.6844C87.6909 12.9165 87.6909 12.1463 87.6909 11.3783C87.6769 11.2885 87.6975 11.1967 87.7485 11.1219C87.7995 11.047 87.8769 10.9949 87.9649 10.9762C90.6282 9.98101 93.2892 8.98133 95.9481 7.97709C96.0536 7.93619 96.1569 7.88849 96.3208 7.81806C96.1704 7.74535 96.0828 7.69535 95.9885 7.659C93.3267 6.6275 90.6656 5.5998 88.0053 4.57587C87.9061 4.55349 87.8188 4.49455 87.7602 4.41054C87.7017 4.32653 87.6762 4.22347 87.6886 4.12146C87.7021 2.86049 87.6886 1.59951 87.6886 0.33853V0L89.036 0.543018C93.3776 2.31217 97.7191 4.08056 102.061 5.8482C102.167 5.87174 102.26 5.93478 102.323 6.02484C102.385 6.1149 102.412 6.2254 102.397 6.33442C102.375 7.35001 102.384 8.36562 102.397 9.37894C102.408 9.4653 102.388 9.55269 102.339 9.62467C102.291 9.69665 102.218 9.74824 102.135 9.76972C97.4144 11.6873 92.6986 13.6095 87.9873 15.5361C87.9154 15.5566 87.8279 15.5861 87.6909 15.6225Z" fill="#CACACA"/>
<path d="M132.602 21.8184V26.5896C132.036 26.6396 131.479 26.6737 130.933 26.7418C130.605 26.7813 130.281 26.8482 129.963 26.9418C128.275 27.4371 127.403 28.589 127.397 30.3703C127.397 33.2875 127.397 36.2026 127.397 39.1198V39.4902H122.553V22.0092H127.385V25.081C127.922 24.104 128.537 23.2111 129.487 22.6113C130.437 22.0115 131.479 21.8184 132.602 21.8184Z" fill="#CACACA"/>
</svg>
