<svg width="112" height="35" viewBox="0 0 112 35" fill="none" xmlns="http://www.w3.org/2000/svg">
<path d="M23.6289 3.63311C24.4204 1.62213 25.8328 0.483649 28.0106 0.426112C30.3021 0.364802 31.7108 1.6061 32.5946 3.72743C32.7018 3.51709 32.7689 3.39164 32.8314 3.26241C34.2177 0.379889 38.0279 -0.497315 40.5282 1.48631C41.5537 2.3022 42.0609 3.39541 42.1876 4.67915C42.2473 5.28659 42.2734 5.8997 42.2734 6.50997C42.2734 10.6332 42.2675 14.7557 42.2557 18.8777C42.2557 19.7766 42.0944 19.935 41.1873 19.936C40.255 19.936 39.3228 19.936 38.3905 19.936C37.7379 19.936 37.5328 19.7181 37.5328 19.0578C37.5328 15.515 37.5328 11.9722 37.5328 8.42945C37.5386 7.89699 37.5168 7.36459 37.4676 6.83444C37.3398 5.62333 36.815 5.04229 35.7895 4.91873C34.7062 4.78856 33.6508 5.34885 33.3432 6.36565C33.1251 7.10024 33.0111 7.86243 33.0048 8.62942C32.9675 12.0298 32.9833 15.432 32.9796 18.8333C32.9796 19.8115 32.8519 19.9407 31.8814 19.9407C30.9659 19.9407 30.0504 19.9407 29.134 19.9407C28.4814 19.9407 28.267 19.7237 28.266 19.0644C28.266 15.7565 28.2772 12.4495 28.266 9.14159C28.2767 8.31242 28.2268 7.48358 28.1169 6.66183C27.9407 5.50731 27.2983 4.9376 26.2831 4.87723C25.1644 4.8112 24.3803 5.30357 24.0643 6.40055C23.8723 7.06106 23.7698 7.74484 23.7594 8.43322C23.7277 11.9449 23.7408 15.4565 23.7371 18.9673C23.7371 19.7464 23.545 19.9407 22.7768 19.9416C21.7989 19.9416 20.819 19.9473 19.843 19.9416C19.2249 19.9416 19.0039 19.7124 19.0039 19.0842C19.0039 13.284 19.0039 7.48402 19.0039 1.68438C19.0039 1.02978 19.2146 0.816609 19.8737 0.812836C20.806 0.805919 21.7383 0.805919 22.6705 0.812836C23.297 0.812836 23.4956 1.02695 23.5012 1.67118C23.5068 2.31541 23.5012 2.97284 23.5012 3.62367L23.6289 3.63311Z" fill="#CACACA"/>
<path d="M10.8493 17.6641C10.3999 18.0593 10.0102 18.464 9.55715 18.796C7.32529 20.4259 4.90792 20.6749 2.44299 19.4959C0.75278 18.6875 0.0927335 17.0944 0.00976127 15.2853C-0.156183 11.6585 1.79972 9.20614 5.41694 8.50531C6.76967 8.2431 8.14756 8.1101 9.51334 7.91768L10.1202 7.83279C10.1202 7.20554 10.1836 6.58961 10.1072 5.99066C9.91142 4.44281 8.71811 3.66842 7.12392 4.00421C6.02384 4.2353 5.29015 4.86443 5.0114 5.99537C4.86877 6.57546 4.65341 6.70185 4.07913 6.63488C3.15432 6.52735 2.22857 6.43303 1.30282 6.32927C0.635315 6.25382 0.46378 6.00858 0.606418 5.35774C1.11264 3.10059 2.49706 1.62914 4.62544 0.866066C6.64282 0.133605 8.83429 0.0479737 10.9015 0.620827C13.5575 1.3358 14.8972 3.0289 14.9643 5.80861C15.024 8.25253 15.0063 10.7002 14.982 13.146C14.9699 14.3109 15.2776 15.3372 15.9964 16.2427C16.0896 16.3653 16.1828 16.4926 16.2695 16.62C16.5846 17.0972 16.5557 17.3349 16.1269 17.7122C15.3661 18.3819 14.6029 19.0485 13.8372 19.7119C13.3086 20.1684 13.0345 20.1835 12.5516 19.7119C12.0855 19.2516 11.679 18.7394 11.2558 18.2423C11.1094 18.065 10.991 17.866 10.8493 17.6641ZM10.1566 10.5899C9.49749 10.6436 8.89524 10.6587 8.30232 10.7464C5.97816 11.0926 4.86969 12.3631 5.02818 14.4996C5.09157 15.3532 5.40109 16.1031 6.22894 16.4804C7.0568 16.8576 7.86695 16.685 8.59412 16.1521C9.17772 15.7239 9.53758 15.1278 9.79862 14.46C10.2759 13.2403 10.1342 11.966 10.1566 10.5936V10.5899Z" fill="#CACACA"/>
<path d="M56.1576 17.6632C55.6915 18.0669 55.2831 18.4687 54.8291 18.8158C52.8602 20.325 50.6553 20.524 48.3825 19.793C46.6885 19.2469 45.7824 17.916 45.4169 16.1767C44.8408 13.4309 45.8905 10.7389 48.2053 9.47027C49.1283 8.96376 50.1818 8.64778 51.2138 8.41103C52.3577 8.14881 53.5445 8.07523 54.7126 7.9196C54.941 7.88941 55.1713 7.86206 55.5116 7.81962C55.4444 7.01221 55.4668 6.20386 55.2925 5.44078C55.0324 4.29664 53.7878 3.71561 52.4341 3.99764C51.3322 4.22684 50.605 4.86352 50.3141 5.98503C50.1556 6.59436 49.9729 6.69622 49.3408 6.6236C48.416 6.51795 47.4903 6.42458 46.5655 6.32082C45.966 6.25385 45.7814 5.99446 45.9036 5.40871C46.3315 3.35623 47.5071 1.89045 49.4042 1.07833C51.7946 0.0549162 54.2604 -0.0365752 56.7244 0.785925C59.002 1.54617 60.2149 3.22701 60.2568 5.65395C60.2988 8.11485 60.3016 10.5767 60.2792 13.0376C60.268 14.2638 60.571 15.3561 61.3448 16.3078C61.4643 16.4519 61.5704 16.607 61.6617 16.7709C61.8305 17.0765 61.8249 17.3661 61.5405 17.6142C60.7071 18.3423 59.8811 19.0799 59.0402 19.7987C58.616 20.1609 58.3009 20.159 57.8963 19.7478C57.4171 19.2601 56.9827 18.7291 56.538 18.2084C56.402 18.0334 56.275 17.8515 56.1576 17.6632ZM55.4519 10.5154C54.4609 10.6767 53.5417 10.7361 52.6756 10.987C50.811 11.5237 49.9627 13.0876 50.4008 14.9967C50.6954 16.2814 51.789 16.9379 53.0522 16.5794C53.8987 16.3399 54.4506 15.7456 54.8627 14.9948C55.6057 13.6318 55.4342 12.1491 55.4519 10.5154Z" fill="#CACACA"/>
<path d="M101.993 3.95369C102.164 3.60564 102.323 3.25193 102.508 2.91613C103.627 0.84951 105.358 0.155291 107.694 0.524095C109.727 0.845738 111.125 2.37472 111.391 4.56113C111.526 5.7428 111.594 6.93134 111.595 8.1209C111.62 11.7571 111.605 15.3942 111.604 19.0303C111.604 19.7274 111.408 19.9311 110.729 19.9349C109.734 19.9387 108.74 19.9387 107.745 19.9349C107.093 19.9349 106.879 19.7198 106.879 19.0615C106.879 15.7545 106.896 12.4466 106.873 9.13959C106.872 8.23303 106.798 7.32805 106.653 6.43345C106.506 5.56285 105.97 4.96013 105.047 4.84128C104.141 4.72432 103.431 5.09784 102.942 5.85337C102.365 6.74661 102.187 7.77096 102.182 8.81512C102.163 12.1381 102.168 15.4611 102.164 18.7842C102.164 19.801 102.028 19.9368 101 19.9368C100.099 19.9368 99.1993 19.9368 98.2959 19.9368C97.6434 19.9368 97.4336 19.7151 97.4336 19.0596C97.4336 13.2593 97.4336 7.45938 97.4336 1.65975C97.4336 1.02684 97.6387 0.810836 98.268 0.810836C99.2002 0.80329 100.133 0.80329 101.065 0.810836C101.702 0.810836 101.898 1.01929 101.904 1.65314C101.904 2.41905 101.904 3.18401 101.904 3.94898L101.993 3.95369Z" fill="#CACACA"/>
<path d="M94.8301 11.2172C94.8087 13.097 94.2362 15.5561 92.5395 17.6434C89.4183 21.4786 83.5291 21.1249 80.8768 16.9473C79.7842 15.2278 79.3236 13.3055 79.2043 11.2964C79.0803 9.21093 79.2975 7.16317 80.1105 5.21916C81.1891 2.64979 82.9903 0.929332 85.7973 0.511479C89.2691 -0.00541279 92.2085 1.64336 93.7076 4.8928C94.4507 6.49819 94.8254 8.36296 94.8301 11.2172ZM89.8564 10.4456L89.7054 10.4334C89.7054 9.83818 89.7679 9.23545 89.6914 8.65064C89.5572 7.61309 89.4052 6.57553 89.132 5.57193C88.8747 4.61832 88.1466 4.12784 87.1575 4.07219C86.1684 4.01654 85.4281 4.42684 84.9946 5.31065C84.7596 5.78533 84.5896 6.2902 84.4893 6.81134C84.1407 8.68837 84.2255 10.5843 84.3514 12.4755C84.4213 13.5243 84.5928 14.5638 85.1279 15.4938C85.9763 16.9671 87.8744 17.0426 88.8085 15.6211C89.0994 15.1954 89.3009 14.7139 89.4006 14.2063C89.6057 12.9584 89.711 11.6973 89.8564 10.4456Z" fill="#CACACA"/>
<path d="M46.1732 34.1522C35.5043 34.0372 26.7763 31.1924 19.0292 25.3802C18.0596 24.652 17.1544 23.8351 16.2212 23.0579C16.1139 22.9683 15.9694 22.8796 15.9312 22.7608C15.8706 22.5721 15.8156 22.3241 15.8949 22.1741C15.9489 22.0713 16.2678 22.0166 16.4113 22.0741C16.7804 22.2386 17.1382 22.4277 17.4825 22.6401C22.9829 25.7188 28.8376 27.7873 35.0092 28.9494C37.7354 29.4558 40.4921 29.776 43.2608 29.9077C45.8777 30.029 48.4998 29.9637 51.1077 29.7124C56.9511 29.1666 62.6794 27.7302 68.0984 25.4518C68.1702 25.4217 68.241 25.3915 68.3147 25.3651C68.8694 25.167 69.3243 25.2868 69.5453 25.6905C69.7466 26.0574 69.6189 26.4158 69.1118 26.795C67.2062 28.2174 65.1412 29.3644 62.9811 30.334C59.3781 31.9528 55.5704 33.0575 51.6671 33.6165C49.5051 33.9268 47.3208 34.0447 46.1732 34.1522Z" fill="#CACACA"/>
<path d="M71.0812 4.59711H70.5218C68.8301 4.59711 67.138 4.59711 65.4456 4.59711C64.7138 4.59711 64.5329 4.41601 64.5292 3.68877C64.5255 2.96154 64.5217 2.24657 64.5292 1.525C64.5367 0.959055 64.7315 0.770408 65.2946 0.770408C68.9895 0.766635 72.6844 0.766635 76.3793 0.770408C76.9387 0.770408 77.14 0.97226 77.1466 1.525C77.155 2.16734 77.2212 2.82195 77.1251 3.45014C77.0354 3.93636 76.8427 4.39715 76.5602 4.80085C75.2214 6.78164 73.8454 8.73508 72.4833 10.6989C71.8168 11.6582 71.153 12.6193 70.4435 13.6456C71.1036 13.6833 71.6974 13.7069 72.2894 13.7531C73.8257 13.8585 75.3253 14.2755 76.6991 14.9793C77.2584 15.2726 77.5176 15.7009 77.5027 16.3357C77.484 17.1035 77.5027 17.8722 77.4962 18.64C77.4897 19.3531 77.1018 19.5917 76.4623 19.2899C72.5999 17.4628 68.7384 17.4572 64.8797 19.3059C64.2626 19.6021 63.8915 19.3748 63.885 18.6758C63.8757 17.7665 63.885 16.8573 63.885 15.948C63.8893 15.3328 64.0868 14.7349 64.449 14.2407C66.5622 11.1991 68.6669 8.15342 70.7633 5.10363C70.8584 4.9612 70.9432 4.81783 71.0812 4.59711Z" fill="#CACACA"/>
<path d="M68.9467 22.9356C67.4066 23.0695 65.9737 23.2006 64.539 23.3129C64.3525 23.327 64.1539 23.2308 63.9609 23.1865C64.0663 22.9978 64.125 22.7394 64.2845 22.6205C65.2745 21.8867 66.4016 21.45 67.5931 21.184C69.522 20.7529 71.4639 20.6775 73.4021 21.0953C74.7613 21.3887 74.9869 21.7103 74.8331 23.2233C74.5609 25.8643 73.7144 28.2875 72.0503 30.3777C71.7478 30.7565 71.409 31.1041 71.0388 31.4153C70.8756 31.553 70.6034 31.5596 70.3806 31.6256C70.3806 31.4068 70.3284 31.1691 70.3936 30.9719C70.912 29.3986 71.4807 27.8423 71.9701 26.2558C72.1472 25.6832 72.1957 25.0579 72.2181 24.4532C72.2433 23.7751 71.9785 23.3912 71.3315 23.2544C70.5195 23.0846 69.6804 23.029 68.9467 22.9356Z" fill="#CACACA"/>
</svg>
