<svg width="360" height="800" viewBox="0 0 360 800" fill="none" xmlns="http://www.w3.org/2000/svg">
<mask id="mask0_1256_7801" style="mask-type:alpha" maskUnits="userSpaceOnUse" x="0" y="0" width="361" height="800">
<rect width="361" height="800" fill="url(#paint0_linear_1256_7801)"/>
</mask>
<g mask="url(#mask0_1256_7801)">
<rect width="361" height="800" fill="url(#paint1_linear_1256_7801)"/>
<path d="M388.5 681.5C388.5 796.376 295.598 889.5 181 889.5C66.402 889.5 -26.5 796.376 -26.5 681.5C-26.5 566.624 66.402 473.5 181 473.5C295.598 473.5 388.5 566.624 388.5 681.5Z" stroke="#173440" stroke-opacity="0.4"/>
<circle cx="180.5" cy="680.5" r="122" stroke="#173440" stroke-opacity="0.5"/>
<circle cx="181" cy="681" r="324.672" stroke="#183440" stroke-opacity="0.3" stroke-width="2.65516"/>
<path d="M594.672 681.5C594.672 910.243 409.464 1095.67 181 1095.67C-47.4635 1095.67 -232.672 910.243 -232.672 681.5C-232.672 452.757 -47.4635 267.328 181 267.328C409.464 267.328 594.672 452.757 594.672 681.5Z" stroke="#183440" stroke-opacity="0.25" stroke-width="2.65516"/>
<circle cx="180.5" cy="681.5" r="504.172" stroke="#183440" stroke-opacity="0.2" stroke-width="2.65516"/>
</g>
<defs>
<linearGradient id="paint0_linear_1256_7801" x1="79.5815" y1="-18.123" x2="545.906" y2="558.244" gradientUnits="userSpaceOnUse">
<stop stop-color="#0D2129"/>
<stop offset="0.5" stop-color="#161C1F"/>
<stop offset="1" stop-color="#133948"/>
</linearGradient>
<linearGradient id="paint1_linear_1256_7801" x1="79.5815" y1="-18.123" x2="545.906" y2="558.244" gradientUnits="userSpaceOnUse">
<stop stop-color="#0D2129"/>
<stop offset="0.5" stop-color="#161C1F"/>
<stop offset="1" stop-color="#133948"/>
</linearGradient>
</defs>
</svg>
