<svg width="45" height="45" viewBox="0 0 45 45" fill="none" xmlns="http://www.w3.org/2000/svg">
<path d="M33.5714 20.5332L21.3877 36.3933C21.1563 36.6983 20.7904 36.8693 20.4251 36.8693C20.2913 36.8693 20.1574 36.8449 20.0355 36.8085C19.5358 36.6376 19.2068 36.1741 19.2068 35.6493V24.6692H11.8965C11.4212 24.6692 10.9947 24.4005 10.7876 23.9615C10.5931 23.5344 10.6538 23.0346 10.9584 22.6682L23.1421 8.02812C23.4711 7.63793 24.0071 7.49138 24.4943 7.66236C24.9821 7.83332 25.2986 8.29679 25.2986 8.8091V18.5692H32.6089C33.0717 18.5692 33.4983 18.8372 33.7053 19.2524C33.9123 19.667 33.8516 20.1674 33.5714 20.5332Z" fill="url(#paint0_linear_1233_7874)"/>
<defs>
<linearGradient id="paint0_linear_1233_7874" x1="15.5937" y1="15.5702" x2="28.91" y2="28.8865" gradientUnits="userSpaceOnUse">
<stop stop-color="#6EFFFC"/>
<stop offset="1" stop-color="#4975ED"/>
</linearGradient>
</defs>
</svg>
