<svg width="161" height="38" viewBox="0 0 161 38" fill="none" xmlns="http://www.w3.org/2000/svg">
<path d="M20.2225 25.6292C22.6692 25.0713 24.4385 23.6765 25.4227 21.3807C25.8003 20.5313 25.9998 19.6125 26.0089 18.6817C26.0179 17.7508 25.8362 16.8282 25.4753 15.9716C24.5768 13.7399 22.9484 12.3311 20.6676 11.6867C20.2916 11.5807 20.1976 11.4078 20.2612 11.0591C20.6114 9.10261 20.9561 7.14988 21.2952 5.20087C21.5606 3.65728 21.8205 2.11273 22.0748 0.56728C22.1301 0.243685 22.2573 0.0735206 22.6443 0.15163C24.1844 0.456793 25.6774 0.967128 27.0843 1.6692C29.4806 2.83624 31.5979 4.51311 33.2908 6.58451C34.8488 8.4706 36.0172 10.6521 36.7272 13.0006C37.4301 15.3343 37.6945 17.78 37.5068 20.2118C37.3281 22.4342 36.759 24.6067 35.826 26.6279C34.876 28.7101 33.5375 30.5882 31.8836 32.1597C30.1419 33.8112 28.2233 35.1921 25.9646 36.0234C24.9417 36.4 23.8911 36.704 22.8461 37.0164C22.2932 37.1838 22.1771 37.089 22.0776 36.5143C21.6979 34.3273 21.3155 32.1402 20.9303 29.9531C20.698 28.6337 20.4575 27.3169 20.2253 25.9975C20.215 25.875 20.2141 25.7519 20.2225 25.6292Z" fill="#CACACA"/>
<path d="M15.5669 37.061C7.82603 35.9451 0.480469 28.7814 0.204009 19.2827C-0.108392 8.40322 8.05273 1.19203 15.5863 0.115234C15.6499 0.461147 15.7162 0.809881 15.777 1.15858C16.1899 3.4907 16.6009 5.82375 17.01 8.15773C17.1943 9.16943 17.3722 10.183 17.5436 11.1984C17.5851 11.4355 17.5436 11.5666 17.2672 11.6392C14.8205 12.2585 13.1009 13.7956 12.2411 16.15C11.3454 18.5993 11.749 20.937 13.3469 23.032C14.3352 24.2954 15.721 25.1811 17.2754 25.5426C17.5519 25.6151 17.5878 25.7463 17.5519 25.9834C17.2119 27.8441 16.8691 29.7048 16.5428 31.5626C16.2498 33.2364 15.9899 34.9102 15.7135 36.584C15.6665 36.7485 15.6139 36.8908 15.5669 37.061Z" fill="#CACACA"/>
<path d="M85.6697 18.5666C85.6697 15.604 85.6697 12.6415 85.6697 9.67888C85.6697 9.23254 85.7775 9.09028 86.2226 9.09586C88.5366 9.12655 90.8506 9.09586 93.1646 9.13213C94.9108 9.17398 96.6048 9.74088 98.0297 10.7602C99.4546 11.7795 100.545 13.2049 101.163 14.8536C102.445 18.3797 102.058 21.7161 99.7416 24.7121C98.4793 26.368 96.6398 27.4771 94.5967 27.8142C93.7926 27.9389 92.98 27.9995 92.1666 27.9955C90.1788 28.0206 88.1911 27.9955 86.2033 28.015C85.7693 28.015 85.6504 27.8839 85.6504 27.4571C85.667 24.4945 85.6504 21.532 85.6504 18.5694L85.6697 18.5666ZM91.6938 13.1408V13.2022C91.1741 13.2022 90.6543 13.2217 90.1373 13.2022C89.7752 13.1826 89.6812 13.3277 89.6839 13.668C89.6839 16.9468 89.6839 20.2236 89.6839 23.4987C89.6839 23.8195 89.7614 23.9534 90.1097 23.945C91.0884 23.9227 92.067 23.9729 93.0457 23.945C94.9809 23.8669 96.4683 23.0133 97.3115 21.2195C97.9408 19.8645 98.0607 18.3248 97.6488 16.8872C97.1677 15.0517 96.0425 13.8187 94.2124 13.3835C93.3968 13.1715 92.5315 13.2078 91.6938 13.138V13.1408Z" fill="#CACACA"/>
<path d="M59.3971 13.3624L55.9884 15.3513C55.4023 14.8353 54.9102 14.2355 54.2854 13.884C52.5271 12.8798 50.6914 12.9272 48.9303 13.884C47.2246 14.813 46.5307 16.417 46.4422 18.3139C46.3814 19.798 46.7187 21.1817 47.7167 22.3087C49.099 23.8457 50.8656 24.1805 52.798 23.8485C53.4287 23.7482 54.0292 23.5067 54.5554 23.1418C55.0816 22.7768 55.5202 22.2977 55.8391 21.7396L59.3474 23.7872C57.9457 26.4122 54.5342 28.51 50.2242 27.9214C48.1352 27.6616 46.2018 26.6737 44.7581 25.1283C43.3144 23.5829 42.4511 21.5772 42.3174 19.4577C41.9746 14.7153 44.565 10.7959 48.911 9.50709C52.9418 8.32429 57.5891 10.0176 59.3971 13.3624Z" fill="#CACACA"/>
<path d="M70.5018 15.4057V13.8659H71.5662C72.3514 13.8659 73.1393 13.891 73.9216 13.8659C74.364 13.8463 74.4995 13.9663 74.4995 14.4238C74.4801 18.5831 74.4995 22.7452 74.4995 26.9045C74.4995 28.0511 74.4994 28.0511 73.3687 28.0511H70.5267V26.5809C69.8798 26.9603 69.3103 27.4011 68.6661 27.6494C65.7992 28.7652 62.4485 27.4011 61.0579 24.5501C59.7254 21.8135 59.8443 19.1075 61.5418 16.5495C63.289 13.9161 66.9714 13.0596 69.5287 14.6553C69.8494 14.8562 70.1314 15.1184 70.5018 15.4057ZM67.3806 17.6932C65.4786 17.6681 64.2124 18.9513 64.193 20.9264C64.1736 22.7982 65.426 24.1791 67.1677 24.2014C69.1499 24.2265 70.4852 22.9768 70.5046 21.0547C70.5378 19.0601 69.2937 17.7211 67.3806 17.6932Z" fill="#CACACA"/>
<path d="M132.367 9.14258H136.174V15.369C136.376 15.1877 136.481 15.09 136.58 15.0091C139.085 12.6435 143.669 14.0077 144.446 17.3692C144.595 18.0226 144.673 18.6905 144.678 19.361C144.703 22.1004 144.678 24.837 144.695 27.5764C144.695 27.9446 144.595 28.0729 144.219 28.0645C143.113 28.0422 142.029 28.0645 140.885 28.0645C140.885 27.847 140.849 27.6601 140.849 27.4732C140.849 24.9904 140.849 22.5076 140.849 20.0221C140.854 19.6194 140.792 19.2187 140.667 18.8365C140.307 17.8211 139.417 17.3496 138.236 17.4807C137.75 17.515 137.29 17.7196 136.937 18.0593C136.583 18.399 136.359 18.8524 136.301 19.3414C136.241 19.7544 136.209 20.171 136.204 20.5884C136.204 22.8926 136.188 25.1968 136.204 27.501C136.204 27.9613 136.08 28.0897 135.629 28.059C134.695 28.0227 133.761 28.0339 132.826 28.059C132.467 28.059 132.334 27.9669 132.334 27.5792C132.345 21.6094 132.345 15.6396 132.334 9.66979C132.345 9.51078 132.359 9.34343 132.367 9.14258Z" fill="#CACACA"/>
<path d="M122.28 22.3824V28.0091C122.109 28.0286 122.004 28.0509 121.88 28.0509C120.857 28.0509 119.834 28.0509 118.811 28.0509C118.568 28.0509 118.424 28.0202 118.424 27.7189C118.424 21.5818 118.424 15.4446 118.424 9.30746C118.43 9.25377 118.44 9.2006 118.454 9.14844H122.272V19.3557L122.372 19.378L124.528 16.209C124.995 15.5199 125.449 14.8142 125.935 14.1391C125.989 14.0639 126.058 14.0004 126.137 13.9525C126.215 13.9046 126.303 13.8731 126.394 13.8601C127.713 13.8378 129.034 13.8462 130.353 13.8462C130.435 13.8583 130.515 13.8779 130.594 13.9048C130.245 14.4292 129.927 14.923 129.596 15.4084C128.445 17.0821 127.301 18.7838 126.132 20.4576C125.935 20.7365 126.076 20.8955 126.203 21.088L130.461 27.546C130.541 27.6687 130.613 27.7942 130.737 27.9812C130.574 28.0035 130.461 28.0286 130.361 28.0314C129.159 28.0314 127.959 28.0481 126.767 28.0314C126.657 28.0219 126.55 27.9904 126.453 27.9387C126.355 27.887 126.268 27.8161 126.198 27.7301C125.009 26.1066 123.845 24.4662 122.673 22.8343C122.582 22.7144 122.474 22.6 122.28 22.3824Z" fill="#CACACA"/>
<path d="M107.294 22.5635C107.701 23.6487 108.45 24.1285 109.42 24.3265C110.383 24.5485 111.392 24.4272 112.276 23.9834C112.422 23.9194 112.586 23.9105 112.738 23.9583C113.824 24.3516 114.905 24.7617 115.986 25.1718C116.048 25.2072 116.105 25.2492 116.158 25.2973C115.738 25.9526 115.179 26.5053 114.521 26.9153C111.756 28.7258 107.427 28.338 105.055 26.0393C103.523 24.5581 102.946 22.6918 103.034 20.5856C103.134 18.3205 104.027 16.4319 105.901 15.1264C109.642 12.5264 115.558 13.8403 116.683 19.2578C116.871 20.1644 116.788 21.1268 116.818 22.0641C116.818 22.4296 116.658 22.5718 116.266 22.5718C113.476 22.5551 110.687 22.5718 107.9 22.5718L107.294 22.5635ZM112.824 19.4949C112.508 18.1001 111.281 17.3413 109.636 17.4613C108.425 17.5477 107.333 18.4683 107.247 19.4949H112.824Z" fill="#CACACA"/>
<path d="M160.336 20.968C160.386 24.946 157.187 27.8584 153.66 28.009C152.707 28.0681 151.752 27.9296 150.855 27.6021C149.957 27.2746 149.135 26.765 148.44 26.1047C147.746 25.4445 147.192 24.6476 146.814 23.7632C146.436 22.8788 146.241 21.9256 146.242 20.9625C146.215 16.9761 149.355 13.8712 153.35 13.8657C154.275 13.8554 155.192 14.0325 156.048 14.3865C156.903 14.7405 157.68 15.2641 158.331 15.9264C158.983 16.5887 159.496 17.3761 159.84 18.2421C160.185 19.1081 160.353 20.0351 160.336 20.968ZM153.336 24.0868C155.128 24.0617 156.377 22.7311 156.358 20.876C156.366 20.4674 156.293 20.0613 156.142 19.6821C155.991 19.3029 155.766 18.9583 155.48 18.6689C155.194 18.3796 154.853 18.1514 154.477 17.9981C154.102 17.8448 153.7 17.7695 153.295 17.7767C151.503 17.7767 150.254 19.1464 150.254 21.0294C150.243 21.4385 150.315 21.8454 150.467 22.2249C150.619 22.6044 150.846 22.9483 151.136 23.2352C151.425 23.522 151.769 23.7457 152.148 23.8922C152.527 24.0387 152.931 24.105 153.336 24.0868Z" fill="#CACACA"/>
<path d="M80.2008 16.173C80.7288 15.0069 81.6577 14.3542 82.841 14.025C84.0712 13.6874 84.1044 13.7098 84.1044 14.9679C84.1044 15.9554 84.1044 16.9438 84.1044 17.9332C84.1044 18.0922 84.0878 18.2512 84.0077 18.2847C83.2598 18.4 82.5207 18.5678 81.796 18.7869C80.6155 19.2248 80.1178 20.2068 80.1068 21.4314C80.0846 23.4641 80.0846 25.4996 80.1068 27.5379C80.1068 27.9535 79.9962 28.0707 79.587 28.0595C78.5475 28.0289 77.5081 28.04 76.4713 28.0595C76.1617 28.0595 76.0566 27.9647 76.0566 27.6495C76.0566 23.2065 76.0566 18.7608 76.0566 14.3123C76.0566 14.0333 76.1036 13.8688 76.4409 13.8743C77.5246 13.8883 78.6083 13.8743 79.6893 13.8743C80.0045 13.8743 80.104 13.9887 80.0957 14.2956C80.0791 14.9149 80.0957 15.5369 80.0957 16.1562L80.2008 16.173Z" fill="#CACACA"/>
</svg>
