<svg width="487" height="472" viewBox="0 0 487 472" fill="none" xmlns="http://www.w3.org/2000/svg">
<path d="M322.915 235.113C322.915 277.401 287.424 311.798 243.497 311.798C199.57 311.798 164.079 277.401 164.079 235.113C164.079 192.826 199.57 158.428 243.497 158.428C287.424 158.428 322.915 192.826 322.915 235.113Z" stroke="#183440" stroke-opacity="0.35" stroke-width="4.06"/>
<path d="M406.006 235.113C406.006 321.476 333.56 391.604 244.048 391.604C154.536 391.604 82.0907 321.476 82.0907 235.113C82.0907 148.75 154.536 78.622 244.048 78.622C333.56 78.622 406.006 148.75 406.006 235.113Z" stroke="#183440" stroke-opacity="0.35" stroke-width="4.06426"/>
<path d="M484.72 235.661C484.72 364.595 376.785 469.227 243.501 469.227C110.218 469.227 2.28213 364.595 2.28213 235.661C2.28213 106.727 110.218 2.09463 243.501 2.09463C376.785 2.09463 484.72 106.727 484.72 235.661Z" stroke="#183440" stroke-opacity="0.2" stroke-width="4.06426"/>
</svg>
