<svg width="25" height="24" viewBox="0 0 25 24" fill="none" xmlns="http://www.w3.org/2000/svg">
<path fill-rule="evenodd" clip-rule="evenodd" d="M18.0448 20.9999C17.8863 20.9999 17.7269 20.9629 17.5805 20.8869L12.4671 18.2229L7.35468 20.8869C7.01572 21.0619 6.60657 21.0319 6.29971 20.8079C5.99084 20.5839 5.8374 20.2049 5.90259 19.8299L6.87633 14.2019L2.74469 10.2169C2.46992 9.95192 2.37064 9.55392 2.48797 9.18992C2.6053 8.82792 2.91918 8.56292 3.29825 8.50892L9.01435 7.68092L11.5696 2.55492C11.9085 1.87492 13.0267 1.87492 13.3656 2.55492L15.9208 7.68092L21.6369 8.50892C22.016 8.56292 22.3299 8.82792 22.4472 9.18992C22.5645 9.55392 22.4652 9.95192 22.1905 10.2169L18.0588 14.2019L19.0326 19.8299C19.0978 20.2049 18.9433 20.5839 18.6355 20.8079C18.461 20.9359 18.2534 20.9999 18.0448 20.9999" fill="#231F20"/>
<mask id="mask0_1496_5962" style="mask-type:luminance" maskUnits="userSpaceOnUse" x="2" y="2" width="21" height="19">
<path fill-rule="evenodd" clip-rule="evenodd" d="M18.0448 20.9999C17.8863 20.9999 17.7269 20.9629 17.5805 20.8869L12.4671 18.2229L7.35468 20.8869C7.01572 21.0619 6.60657 21.0319 6.29971 20.8079C5.99084 20.5839 5.8374 20.2049 5.90259 19.8299L6.87633 14.2019L2.74469 10.2169C2.46992 9.95192 2.37064 9.55392 2.48797 9.18992C2.6053 8.82792 2.91918 8.56292 3.29825 8.50892L9.01435 7.68092L11.5696 2.55492C11.9085 1.87492 13.0267 1.87492 13.3656 2.55492L15.9208 7.68092L21.6369 8.50892C22.016 8.56292 22.3299 8.82792 22.4472 9.18992C22.5645 9.55392 22.4652 9.95192 22.1905 10.2169L18.0588 14.2019L19.0326 19.8299C19.0978 20.2049 18.9433 20.5839 18.6355 20.8079C18.461 20.9359 18.2534 20.9999 18.0448 20.9999" fill="white"/>
</mask>
<g mask="url(#mask0_1496_5962)">
<rect x="0.433594" width="24.0678" height="24" fill="#6C6B64"/>
</g>
</svg>
