<svg width="28" height="28" viewBox="0 0 28 28" fill="none" xmlns="http://www.w3.org/2000/svg">
<path d="M25.6673 18.889C25.6673 23.1357 23.1357 25.6673 18.889 25.6673H17.5007C16.859 25.6673 16.334 25.1423 16.334 24.5007V17.769C16.334 17.454 16.5906 17.1857 16.9056 17.1857L18.959 17.1507C19.1223 17.139 19.2623 17.0223 19.2973 16.859L19.7057 14.6307C19.7407 14.4207 19.5773 14.2223 19.3556 14.2223L16.8706 14.2573C16.544 14.2573 16.2873 14.0007 16.2757 13.6857L16.229 10.8273C16.229 10.6406 16.3806 10.4773 16.579 10.4773L19.379 10.4307C19.5773 10.4307 19.729 10.279 19.729 10.0807L19.6823 7.28064C19.6823 7.08231 19.5307 6.93065 19.3323 6.93065L16.1823 6.97733C14.2456 7.01233 12.7057 8.59898 12.7407 10.5356L12.799 13.744C12.8107 14.0706 12.554 14.3273 12.2273 14.339L10.8273 14.3623C10.629 14.3623 10.4773 14.514 10.4773 14.7123L10.5123 16.929C10.5123 17.1273 10.664 17.279 10.8623 17.279L12.2623 17.2557C12.589 17.2557 12.8456 17.5123 12.8573 17.8273L12.9623 24.4773C12.974 25.1307 12.449 25.6673 11.7956 25.6673H9.11231C4.86565 25.6673 2.33398 23.1356 2.33398 18.8773V9.11231C2.33398 4.86565 4.86565 2.33398 9.11231 2.33398H18.889C23.1357 2.33398 25.6673 4.86565 25.6673 9.11231V18.889Z" fill="white"/>
</svg>
