<svg width="34" height="34" viewBox="0 0 34 34" fill="none" xmlns="http://www.w3.org/2000/svg">
<path d="M30.8385 19.1084C30.7992 18.9715 30.7167 18.8511 30.6033 18.765C30.4899 18.679 30.3517 18.6319 30.2093 18.6309C30.0943 18.6356 29.9818 18.6659 29.88 18.7196C29.7284 18.7995 29.4595 19.2458 29.6195 19.8165C29.6624 19.9704 29.8587 20.0857 30.0176 20.1217C30.1908 20.1683 30.3755 20.1443 30.531 20.0547C30.6791 19.9654 30.7883 19.8238 30.8371 19.6579C30.8855 19.478 30.886 19.2885 30.8385 19.1084Z" fill="url(#paint0_linear_1233_7908)"/>
<path d="M24.579 4.85738C24.7972 5.13126 25.0379 5.41953 25.3368 5.60762C25.6946 5.83287 26.2463 5.45321 26.0882 5.03176C25.8456 4.38459 25.1576 3.76926 24.4747 3.61311C24.2564 3.56312 23.9839 3.76578 24.0775 4.00879C24.2019 4.31485 24.3709 4.60082 24.579 4.85738Z" fill="url(#paint1_linear_1233_7908)"/>
<path d="M23.5779 28.7536C22.8836 28.4165 22.1527 28.4435 21.3954 28.3807C20.5623 28.3115 19.9893 27.8362 19.2508 27.509C18.5491 27.2117 17.805 27.0264 17.0458 26.9596C16.571 26.9092 15.541 26.9566 15.0068 26.9867C14.9374 26.9906 14.8698 27.0108 14.8096 27.0458C14.7495 27.0807 14.6984 27.1294 14.6606 27.1878C14.6228 27.2462 14.5994 27.3127 14.5922 27.382C14.585 27.4512 14.5943 27.5211 14.6193 27.586C14.7679 27.9693 15.2199 28.4525 16.2868 28.7571C17.2911 29.0439 17.6409 30.3077 18.638 30.6924C19.5612 31.0486 22.0035 30.791 23.1972 30.1637C23.9277 29.7799 24.6186 29.2588 23.5779 28.7536Z" fill="url(#paint2_linear_1233_7908)"/>
<path d="M28.3831 21.3602C28.0783 21.8315 27.472 22.3139 27.1176 22.4288C26.9535 22.4819 26.5158 22.6204 26.353 22.4867C26.1717 22.3378 26.4717 21.8822 26.561 21.7243C26.8778 21.167 27.3175 20.6923 27.6902 20.1733C28.0649 19.6388 28.3731 19.0606 28.608 18.4515C29.5788 16.0184 29.8221 13.0278 29.1264 10.4932C28.7834 9.24386 28.0855 8.04002 26.9945 7.2809C26.7039 7.07823 26.0057 6.99929 26.2488 7.68188C26.4611 8.27849 26.7385 9.13915 26.3755 9.72157C26.0842 10.1891 25.5772 10.2317 25.156 9.9031C24.2297 9.18093 24.0308 7.81265 23.3744 6.88406C21.8486 4.72654 19.0991 4.1585 16.6092 4.51461C16.3181 4.55621 15.1677 4.75839 14.8836 4.82179C13.6834 5.0897 12.585 5.26872 10.5255 5.23127C9.71421 5.21689 8.88174 5.30134 8.11141 5.57156C7.42564 5.80142 6.81083 6.20445 6.32651 6.74161C6.06594 7.03654 5.83789 7.36061 5.55619 7.63691C5.27448 7.91321 5.03939 8.1513 4.48003 8.22455C4.44146 8.21129 4.40001 8.20874 4.3601 8.21717C4.32019 8.2256 4.28332 8.24469 4.2534 8.27242C4.22349 8.30015 4.20165 8.33547 4.19022 8.37462C4.17879 8.41378 4.17819 8.4553 4.18848 8.49477C4.34907 8.99593 4.84 9.13934 5.31858 9.18142C5.59788 9.20603 5.89522 9.17485 6.16534 9.26567C6.56508 9.4001 6.55678 9.73855 6.44994 10.0612C6.08321 10.5753 4.4589 13.1512 4.06109 15.3431C3.80612 16.748 3.61716 18.1719 3.70575 19.5967C3.73895 20.1306 3.97935 22.3392 4.64516 23.7634C4.7656 24.021 5.18791 24.0751 5.37494 23.8572C6.26774 22.8165 7.54752 24.7269 7.77538 25.4622C8.09752 26.5019 7.96665 27.6366 8.46502 28.6288C8.99909 29.692 10.1327 30.0161 11.2115 30.2534C12.5462 30.5468 13.9104 30.7787 15.2562 30.4152C15.7693 30.2767 15.6958 29.6117 15.3153 29.4434C15.2712 29.3945 15.2164 29.3564 15.1552 29.332C15.094 29.3076 15.0281 29.2975 14.9624 29.3026C12.8155 29.3751 11.8708 27.4839 11.2191 25.7511C10.8833 24.8328 10.4688 23.9452 9.98009 23.0984C9.27848 21.9078 9.29701 20.2535 9.44466 19.7848C9.64733 19.1425 10.0066 18.4604 10.5607 18.0523C10.5485 18.1547 10.5397 18.2572 10.533 18.3598C10.1448 19.5792 10.5795 21.0644 11.274 22.0685C11.3206 22.1421 11.3873 22.2008 11.4661 22.2377C11.545 22.2747 11.6328 22.2884 11.7191 22.2771C11.8055 22.2659 11.8868 22.2302 11.9536 22.1743C12.0204 22.1184 12.0698 22.0445 12.096 21.9615C12.2703 21.4983 12.2546 21.0179 12.2174 20.5321C12.1805 20.0485 12.1188 19.5422 12.4091 19.1199C12.6712 18.7383 13.0776 18.4733 13.3992 18.146C13.7331 17.7887 14.0155 17.3864 14.238 16.9509C14.6904 16.1199 15.1496 15.2432 16.085 14.873C16.331 14.7775 16.5945 14.7356 16.858 14.7499C17.0016 14.7575 17.1398 14.8068 17.2557 14.8919C17.3716 14.977 17.4601 15.0941 17.5103 15.2288C17.5606 15.3635 17.5703 15.51 17.5385 15.6501C17.5066 15.7903 17.4344 15.9182 17.3309 16.0179C16.0698 17.2526 15.375 18.9896 15.298 20.7653C15.2447 21.9973 15.5597 23.1063 16.4233 24.0092C16.8448 24.4341 17.3087 24.8146 17.8078 25.1449C18.819 25.8388 20.3482 26.1968 21.0283 26.317C22.1902 26.5339 23.3871 26.4723 24.5206 26.1371C25.6835 25.7786 26.6671 25.0858 27.5674 24.2855C28.3781 23.5645 29.0836 22.6821 29.1121 21.5549C29.1254 21.0277 28.5633 21.0813 28.3831 21.3602Z" fill="url(#paint3_linear_1233_7908)"/>
<path d="M6.59363 19.0305C6.28297 19.3806 5.95456 20.3053 6.53235 20.7649C6.91124 21.0662 7.43952 20.7259 7.56671 20.2905C7.64847 19.9624 7.6527 19.6198 7.57907 19.2898C7.50109 18.8675 6.87562 18.7125 6.59363 19.0305ZM8.37371 16.2167C8.979 15.8886 9.34612 15.3132 9.73446 14.7659C10.1138 14.2097 10.5216 13.6735 10.9562 13.1594C11.3816 12.6515 11.8862 12.2158 12.4506 11.869C13.0983 11.4909 13.8345 11.3009 14.4854 10.9275C14.9385 10.6676 14.6363 9.95178 14.1304 10.0879C13.6876 10.209 13.2166 10.1746 12.7961 9.99058C12.3988 9.8298 12.0288 9.67751 11.5897 9.70424C10.7134 9.75771 10.0294 10.3458 9.52736 11.0167C8.49174 12.4009 7.47262 14.2438 7.47175 15.9869C7.47185 16.4001 7.94097 16.4513 8.37371 16.2167ZM25.2864 19.8871C25.5166 18.8595 25.5165 17.6709 25.2716 16.9233C24.9574 15.9642 24.3355 15.3102 23.6225 14.6254C22.9057 13.9327 22.2701 13.1607 21.7278 12.3242C21.4443 11.8899 20.7279 10.6293 20.5559 10.5186C20.3099 10.2108 19.8168 10.4825 19.89 10.8735C20.239 12.7443 21.52 14.2824 21.7544 16.1862C21.8153 16.6708 21.8356 17.1596 21.8152 17.6476C21.7984 18.0207 21.8138 18.5473 21.501 18.8142C21.3702 18.9233 21.2068 18.9859 21.0366 18.9923C20.8663 18.9986 20.6987 18.9484 20.5601 18.8494C20.3574 18.6881 20.3024 18.4832 20.2643 18.2656C20.2666 18.2626 20.3994 17.2678 19.6674 17.6549C18.6217 18.2078 18.2272 19.676 18.4113 20.8246C18.4974 21.362 18.88 23.378 21.6713 23.423C22.4182 23.435 23.3448 22.8766 23.7385 22.5671C24.5628 21.9187 25.0592 20.9017 25.2864 19.8871ZM24.9151 13.6633C24.9991 13.7071 25.0948 13.723 25.1885 13.7087C25.2821 13.6944 25.3687 13.6506 25.4358 13.5838C25.5029 13.5169 25.5469 13.4304 25.5615 13.3368C25.5761 13.2432 25.5605 13.1474 25.517 13.0633C24.9419 11.8752 24.3952 11.3502 23.8503 11.2364C23.6039 11.1849 23.4064 11.2631 23.3802 11.5053C23.3416 11.8645 23.6813 12.4486 23.8986 12.7239C24.171 13.069 24.5153 13.467 24.9151 13.6633Z" fill="white"/>
<path d="M26.7769 29.6758C27.3261 29.6353 27.7449 29.2433 27.7122 28.8002C27.6796 28.3571 27.2078 28.0307 26.6586 28.0712C26.1093 28.1117 25.6905 28.5037 25.7232 28.9468C25.7559 29.3899 26.2276 29.7163 26.7769 29.6758Z" fill="url(#paint4_linear_1233_7908)"/>
<path d="M5.62999 27.296C6.08495 27.2624 6.42544 26.8511 6.3905 26.3772C6.35555 25.9033 5.95841 25.5463 5.50346 25.5799C5.0485 25.6134 4.70801 26.0248 4.74295 26.4987C4.77789 26.9725 5.17503 27.3295 5.62999 27.296Z" fill="url(#paint5_linear_1233_7908)"/>
<defs>
<linearGradient id="paint0_linear_1233_7908" x1="30.2218" y1="5.45471" x2="30.2218" y2="29.6146" gradientUnits="userSpaceOnUse">
<stop stop-color="#FF5582"/>
<stop offset="1" stop-color="#FFCB76"/>
</linearGradient>
<linearGradient id="paint1_linear_1233_7908" x1="25.0873" y1="5.45331" x2="25.0873" y2="29.6131" gradientUnits="userSpaceOnUse">
<stop stop-color="#FF5582"/>
<stop offset="1" stop-color="#FFCB76"/>
</linearGradient>
<linearGradient id="paint2_linear_1233_7908" x1="19.3484" y1="5.45353" x2="19.3484" y2="29.6134" gradientUnits="userSpaceOnUse">
<stop stop-color="#FF5582"/>
<stop offset="1" stop-color="#FFCB76"/>
</linearGradient>
<linearGradient id="paint3_linear_1233_7908" x1="16.6039" y1="5.45334" x2="16.6039" y2="29.6132" gradientUnits="userSpaceOnUse">
<stop stop-color="#FF5582"/>
<stop offset="1" stop-color="#FFCB76"/>
</linearGradient>
<linearGradient id="paint4_linear_1233_7908" x1="26.7179" y1="5.4547" x2="26.7179" y2="29.6145" gradientUnits="userSpaceOnUse">
<stop stop-color="#FF5582"/>
<stop offset="1" stop-color="#FFCB76"/>
</linearGradient>
<linearGradient id="paint5_linear_1233_7908" x1="5.56695" y1="5.45347" x2="5.56695" y2="29.6133" gradientUnits="userSpaceOnUse">
<stop stop-color="#FF5582"/>
<stop offset="1" stop-color="#FFCB76"/>
</linearGradient>
</defs>
</svg>
