<svg width="17" height="17" viewBox="0 0 17 17" fill="none" xmlns="http://www.w3.org/2000/svg">
<g clip-path="url(#clip0_1256_9562)">
<path d="M13.9563 7.79857L13.0792 7.54817V2.74552C13.0792 2.43807 12.9571 2.1432 12.7397 1.9258C12.5223 1.7084 12.2274 1.58626 11.92 1.58626C11.6125 1.58626 11.3177 1.7084 11.1003 1.9258C10.8829 2.1432 10.7607 2.43807 10.7607 2.74552V2.08309C10.7607 1.77563 10.6386 1.48077 10.4212 1.26337C10.2038 1.04596 9.90892 0.923828 9.60147 0.923828C9.29401 0.923828 8.99915 1.04596 8.78175 1.26337C8.56434 1.48077 8.44221 1.77563 8.44221 2.08309V2.74552C8.44221 2.43807 8.32007 2.1432 8.10267 1.9258C7.88527 1.7084 7.5904 1.58626 7.28295 1.58626C6.97549 1.58626 6.68063 1.7084 6.46323 1.9258C6.24583 2.1432 6.12369 2.43807 6.12369 2.74552V11.0028C6.12365 11.065 6.1061 11.1259 6.07304 11.1786C6.03998 11.2313 5.99275 11.2736 5.93676 11.3007C5.88076 11.3278 5.81827 11.3386 5.75644 11.3318C5.6946 11.325 5.63592 11.301 5.58712 11.2624L2.95858 9.17709C2.76469 9.02325 2.53134 8.9272 2.28534 8.89996C2.03933 8.87272 1.79063 8.9154 1.56777 9.02309C1.34492 9.13078 1.15694 9.29913 1.02542 9.5088C0.893902 9.71848 0.824167 9.96099 0.824219 10.2085V10.6729L4.80213 15.4053C5.17516 15.849 5.64074 16.2058 6.16621 16.4505C6.69169 16.6953 7.26434 16.8222 7.84403 16.8222H12.4168C13.2074 16.8222 13.9656 16.5082 14.5247 15.9491C15.0837 15.3901 15.3978 14.6319 15.3978 13.8413V9.70969C15.3978 9.27776 15.2572 8.85758 14.9971 8.51275C14.737 8.16791 14.3716 7.9172 13.9563 7.79857Z" fill="white"/>
<path opacity="0.1" d="M8.36015 8.21305C8.38211 8.21305 8.40317 8.20433 8.4187 8.1888C8.43423 8.17327 8.44295 8.15221 8.44295 8.13025V2.74797C8.44295 2.53202 8.27734 8.13025 8.27734 8.13025C8.27734 8.17596 8.31444 8.21305 8.36015 8.21305ZM10.6787 8.21305C10.7006 8.21305 10.7217 8.20433 10.7372 8.1888C10.7527 8.17327 10.7615 8.15221 10.7615 8.13025V2.08554C10.7615 1.86959 10.5959 8.13025 10.5959 8.13025C10.5959 8.17596 10.633 8.21305 10.6787 8.21305Z" fill="white"/>
<path opacity="0.2" d="M13.9552 7.79923L13.0781 7.54883V7.71444L13.9552 7.96484C14.3705 8.08347 14.7359 8.33418 14.9959 8.67902C15.256 9.02385 15.3967 9.44403 15.3966 9.87596V9.71035C15.3967 9.27843 15.256 8.85824 14.9959 8.51341C14.7359 8.16857 14.3705 7.91786 13.9552 7.79923Z" fill="white"/>
<path opacity="0.05" d="M12.4168 16.6565H7.84403C7.26429 16.6564 6.6916 16.5294 6.16612 16.2845C5.64065 16.0396 5.1751 15.6828 4.80213 15.2389L0.824219 10.5078V10.6734L4.80213 15.4058C5.17523 15.8494 5.64083 16.2061 6.1663 16.4507C6.69177 16.6954 7.2644 16.8221 7.84403 16.8221H12.4168C13.2074 16.8221 13.9656 16.5081 14.5247 15.949C15.0837 15.39 15.3978 14.6318 15.3978 13.8412V13.6756C15.3978 14.4662 15.0837 15.2244 14.5247 15.7834C13.9656 16.3425 13.2074 16.6565 12.4168 16.6565Z" fill="white"/>
<path opacity="0.2" d="M2.15969 9.05785C2.44983 9.06183 2.73137 9.16185 2.95858 9.3427L5.58646 11.428C5.63525 11.4668 5.694 11.491 5.75594 11.4979C5.81788 11.5048 5.8805 11.494 5.93661 11.4669C5.99272 11.4398 6.04004 11.3974 6.07314 11.3446C6.10623 11.2918 6.12375 11.2307 6.12369 11.1684V11.0028C6.12365 11.065 6.1061 11.1259 6.07304 11.1786C6.03998 11.2313 5.99275 11.2736 5.93676 11.3007C5.88076 11.3278 5.81827 11.3386 5.75644 11.3318C5.6946 11.325 5.63592 11.301 5.58712 11.2624L2.95858 9.17709C2.76468 9.02325 2.53134 8.9272 2.28534 8.89996C2.03933 8.87272 1.79063 8.9154 1.56777 9.02309C1.34492 9.13078 1.15694 9.29913 1.02542 9.5088C0.893902 9.71848 0.824167 9.96099 0.824219 10.2085V10.3741C0.824219 9.63947 1.42505 9.04725 2.15969 9.05785ZM7.28295 1.58626C6.97549 1.58626 6.68063 1.7084 6.46323 1.9258C6.24582 2.1432 6.12369 2.43807 6.12369 2.74552V2.91113C6.12369 2.60367 6.24582 2.30881 6.46323 2.09141C6.68063 1.87401 6.97549 1.75187 7.28295 1.75187C7.5904 1.75187 7.88527 1.87401 8.10267 2.09141C8.32007 2.30881 8.44221 2.60367 8.44221 2.91113V2.74552C8.44221 2.43807 8.32007 2.1432 8.10267 1.9258C7.88527 1.7084 7.5904 1.58626 7.28295 1.58626ZM9.60147 0.923828C9.29401 0.923828 8.99915 1.04596 8.78175 1.26337C8.56434 1.48077 8.44221 1.77563 8.44221 2.08309V2.2487C8.44221 1.94124 8.56434 1.64638 8.78175 1.42898C8.99915 1.21157 9.29401 1.08944 9.60147 1.08944C9.90892 1.08944 10.2038 1.21157 10.4212 1.42898C10.6386 1.64638 10.7607 1.94124 10.7607 2.2487V2.08309C10.7607 1.77563 10.6386 1.48077 10.4212 1.26337C10.2038 1.04596 9.90892 0.923828 9.60147 0.923828ZM11.92 1.58626C11.6125 1.58626 11.3177 1.7084 11.1003 1.9258C10.8829 2.1432 10.7607 2.43807 10.7607 2.74552V2.91113C10.7607 2.60367 10.8829 2.30881 11.1003 2.09141C11.3177 1.87401 11.6125 1.75187 11.92 1.75187C12.2274 1.75187 12.5223 1.87401 12.7397 2.09141C12.9571 2.30881 13.0792 2.60367 13.0792 2.91113V2.74552C13.0792 2.43807 12.9571 2.1432 12.7397 1.9258C12.5223 1.7084 12.2274 1.58626 11.92 1.58626Z" fill="white"/>
<path d="M13.9563 7.79857L13.0792 7.54817V2.74552C13.0792 2.43807 12.9571 2.1432 12.7397 1.9258C12.5223 1.7084 12.2274 1.58626 11.92 1.58626C11.6125 1.58626 11.3177 1.7084 11.1003 1.9258C10.8829 2.1432 10.7607 2.43807 10.7607 2.74552V2.08309C10.7607 1.77563 10.6386 1.48077 10.4212 1.26337C10.2038 1.04596 9.90892 0.923828 9.60147 0.923828C9.29401 0.923828 8.99915 1.04596 8.78175 1.26337C8.56434 1.48077 8.44221 1.77563 8.44221 2.08309V2.74552C8.44221 2.43807 8.32007 2.1432 8.10267 1.9258C7.88527 1.7084 7.5904 1.58626 7.28295 1.58626C6.97549 1.58626 6.68063 1.7084 6.46323 1.9258C6.24583 2.1432 6.12369 2.43807 6.12369 2.74552V11.0028C6.12365 11.065 6.1061 11.1259 6.07304 11.1786C6.03998 11.2313 5.99275 11.2736 5.93676 11.3007C5.88076 11.3278 5.81827 11.3386 5.75644 11.3318C5.6946 11.325 5.63592 11.301 5.58712 11.2624L2.95858 9.17709C2.76469 9.02325 2.53134 8.9272 2.28534 8.89996C2.03933 8.87272 1.79063 8.9154 1.56777 9.02309C1.34492 9.13078 1.15694 9.29913 1.02542 9.5088C0.893902 9.71848 0.824167 9.96099 0.824219 10.2085V10.6729L4.80213 15.4053C5.17516 15.849 5.64074 16.2058 6.16621 16.4505C6.69169 16.6953 7.26434 16.8222 7.84403 16.8222H12.4168C13.2074 16.8222 13.9656 16.5082 14.5247 15.9491C15.0837 15.3901 15.3978 14.6319 15.3978 13.8413V9.70969C15.3978 9.27777 15.2572 8.85758 14.9971 8.51275C14.737 8.16791 14.3716 7.9172 13.9563 7.79857Z" fill="white"/>
<path d="M13 4.19922C13 3.53691 13.5369 3 14.1992 3C14.8615 3 15.3984 3.53691 15.3984 4.19922V11L13 11.0283V4.19922Z" fill="white"/>
</g>
<defs>
<clipPath id="clip0_1256_9562">
<rect width="15.8984" height="15.8984" fill="white" transform="translate(0.160156 0.923828)"/>
</clipPath>
</defs>
</svg>
