<svg width="25" height="24" viewBox="0 0 25 24" fill="none" xmlns="http://www.w3.org/2000/svg">
<path fill-rule="evenodd" clip-rule="evenodd" d="M17.9628 20.9999C17.8043 20.9999 17.6449 20.9629 17.4985 20.8869L12.385 18.2229L7.27265 20.8869C6.93369 21.0619 6.52454 21.0319 6.21767 20.8079C5.9088 20.5839 5.75537 20.2049 5.82056 19.8299L6.7943 14.2019L2.66266 10.2169C2.38789 9.95192 2.28861 9.55392 2.40594 9.18992C2.52327 8.82792 2.83715 8.56292 3.21622 8.50892L8.93232 7.68092L11.4875 2.55492C11.8265 1.87492 12.9446 1.87492 13.2836 2.55492L15.8388 7.68092L21.5549 8.50892C21.9339 8.56292 22.2478 8.82792 22.3652 9.18992C22.4825 9.55392 22.3832 9.95192 22.1084 10.2169L17.9768 14.2019L18.9505 19.8299C19.0157 20.2049 18.8613 20.5839 18.5534 20.8079C18.3789 20.9359 18.1713 20.9999 17.9628 20.9999" fill="#231F20"/>
<mask id="mask0_1496_5961" style="mask-type:luminance" maskUnits="userSpaceOnUse" x="2" y="2" width="21" height="19">
<path fill-rule="evenodd" clip-rule="evenodd" d="M17.9628 20.9999C17.8043 20.9999 17.6449 20.9629 17.4985 20.8869L12.385 18.2229L7.27265 20.8869C6.93369 21.0619 6.52454 21.0319 6.21767 20.8079C5.9088 20.5839 5.75537 20.2049 5.82056 19.8299L6.7943 14.2019L2.66266 10.2169C2.38789 9.95192 2.28861 9.55392 2.40594 9.18992C2.52327 8.82792 2.83715 8.56292 3.21622 8.50892L8.93232 7.68092L11.4875 2.55492C11.8265 1.87492 12.9446 1.87492 13.2836 2.55492L15.8388 7.68092L21.5549 8.50892C21.9339 8.56292 22.2478 8.82792 22.3652 9.18992C22.4825 9.55392 22.3832 9.95192 22.1084 10.2169L17.9768 14.2019L18.9505 19.8299C19.0157 20.2049 18.8613 20.5839 18.5534 20.8079C18.3789 20.9359 18.1713 20.9999 17.9628 20.9999" fill="white"/>
</mask>
<g mask="url(#mask0_1496_5961)">
<rect x="0.351562" width="24.0678" height="24" fill="#FCCE0D"/>
</g>
</svg>
