<svg width="12" height="10" viewBox="0 0 12 10" fill="none" xmlns="http://www.w3.org/2000/svg">
<path d="M11.1375 1.36568V7.86403C11.1375 8.39417 10.7058 8.88059 10.1756 8.94617L10.0062 8.96804C9.10986 9.08828 7.84735 9.45992 6.83079 9.88622C6.47554 10.0338 6.08203 9.76598 6.08203 9.37794V1.77558C6.08203 1.57336 6.1968 1.38754 6.37716 1.28916C7.37733 0.748088 8.89124 0.267134 9.91874 0.179688H9.95153C10.6074 0.179688 11.1375 0.70983 11.1375 1.36568Z" fill="white"/>
<path d="M4.96505 1.28916C3.96487 0.748088 2.45096 0.267134 1.42347 0.179688H1.38521C0.729362 0.179688 0.199219 0.70983 0.199219 1.36568V7.86403C0.199219 8.39417 0.630985 8.88059 1.16113 8.94617L1.33056 8.96804C2.22688 9.08828 3.48939 9.45992 4.50595 9.88622C4.86121 10.0338 5.25472 9.76598 5.25472 9.37794V1.77558C5.25472 1.5679 5.14541 1.38754 4.96505 1.28916ZM1.8443 2.94517H3.07402C3.2981 2.94517 3.48392 3.131 3.48392 3.35508C3.48392 3.58462 3.2981 3.76498 3.07402 3.76498H1.8443C1.62022 3.76498 1.4344 3.58462 1.4344 3.35508C1.4344 3.131 1.62022 2.94517 1.8443 2.94517ZM3.48392 5.4046H1.8443C1.62022 5.4046 1.4344 5.22425 1.4344 4.9947C1.4344 4.77062 1.62022 4.5848 1.8443 4.5848H3.48392C3.708 4.5848 3.89382 4.77062 3.89382 4.9947C3.89382 5.22425 3.708 5.4046 3.48392 5.4046Z" fill="white"/>
</svg>
