<svg width="12" height="12" viewBox="0 0 12 12" fill="none" xmlns="http://www.w3.org/2000/svg">
<path d="M6.01564 0.583984C3.00235 0.583984 0.546875 3.03946 0.546875 6.05274C0.546875 9.06603 3.00235 11.5215 6.01564 11.5215C9.02893 11.5215 11.4844 9.06603 11.4844 6.05274C11.4844 3.03946 9.02893 0.583984 6.01564 0.583984ZM8.39455 8.00509C8.31799 8.13634 8.18127 8.20743 8.03908 8.20743C7.96799 8.20743 7.8969 8.19103 7.83127 8.14728L6.13595 7.13556C5.71486 6.88399 5.40314 6.33165 5.40314 5.84493V3.60274C5.40314 3.37852 5.58908 3.19258 5.8133 3.19258C6.03752 3.19258 6.22345 3.37852 6.22345 3.60274V5.84493C6.22345 6.04181 6.38752 6.33165 6.55705 6.43009L8.25237 7.44181C8.44924 7.55665 8.51487 7.80821 8.39455 8.00509Z" fill="white"/>
</svg>
