<svg width="17" height="16" viewBox="0 0 17 16" fill="none" xmlns="http://www.w3.org/2000/svg">
<g clip-path="url(#clip0_1444_5827)">
<path d="M14.384 6.91867L10.534 5.81867C10.3356 5.76203 10.1267 5.75221 9.92385 5.78999C9.721 5.82776 9.52969 5.91211 9.36497 6.03638C9.20024 6.16064 9.06661 6.32145 8.97459 6.50613C8.88256 6.69081 8.83465 6.89433 8.83464 7.10067V1.16667C8.83464 0.857247 8.71172 0.560501 8.49293 0.341709C8.27413 0.122916 7.97739 0 7.66797 0C7.35855 0 7.0618 0.122916 6.84301 0.341709C6.62422 0.560501 6.5013 0.857247 6.5013 1.16667V10.1433C6.50126 10.2059 6.4836 10.2673 6.45033 10.3203C6.41706 10.3733 6.36953 10.4159 6.31318 10.4432C6.25683 10.4704 6.19393 10.4813 6.1317 10.4745C6.06947 10.4677 6.01042 10.4435 5.9613 10.4047L3.31597 8.306C3.12083 8.15118 2.886 8.05452 2.63842 8.0271C2.39084 7.99969 2.14055 8.04263 1.91627 8.15102C1.69199 8.2594 1.50282 8.42882 1.37046 8.63983C1.2381 8.85085 1.16792 9.09491 1.16797 9.344V9.81133L5.1713 14.574C5.54671 15.0206 6.01526 15.3796 6.5441 15.6259C7.07293 15.8723 7.64924 15.9999 8.23264 16H12.8346C13.6303 16 14.3933 15.6839 14.956 15.1213C15.5186 14.5587 15.8346 13.7956 15.8346 13V8.842C15.8347 8.40732 15.6931 7.98445 15.4314 7.63741C15.1696 7.29037 14.8019 7.03806 14.384 6.91867Z" fill="white"/>
<path opacity="0.2" d="M14.3814 6.9188L10.5314 5.8188C10.333 5.76216 10.1241 5.75234 9.92125 5.79012C9.7184 5.82789 9.52708 5.91224 9.36236 6.0365C9.19764 6.16077 9.06401 6.32157 8.97198 6.50626C8.87996 6.69094 8.83205 6.89446 8.83203 7.1008V7.26746C8.83202 7.06105 8.87993 6.85745 8.972 6.67271C9.06406 6.48796 9.19776 6.32711 9.36256 6.20283C9.52737 6.07855 9.71878 5.99423 9.92171 5.95651C10.1247 5.91879 10.3336 5.9287 10.532 5.98546L14.3814 7.08546C14.7993 7.20486 15.167 7.45717 15.4288 7.80421C15.6905 8.15124 15.8321 8.57411 15.832 9.0088V8.84213C15.8321 8.40745 15.6905 7.98458 15.4288 7.63754C15.167 7.2905 14.7993 7.03819 14.3814 6.9188Z" fill="white"/>
<path opacity="0.05" d="M12.8346 15.8325H8.23264C7.64919 15.8324 7.07284 15.7046 6.54401 15.4582C6.01517 15.2117 5.54665 14.8525 5.1713 14.4059L1.16797 9.64453V9.8112L5.1713 14.5739C5.54678 15.0203 6.01535 15.3792 6.54418 15.6254C7.07301 15.8716 7.6493 15.9992 8.23264 15.9992H12.8346C13.6303 15.9992 14.3933 15.6831 14.956 15.1205C15.5186 14.5579 15.8346 13.7948 15.8346 12.9992V12.8325C15.8346 13.6282 15.5186 14.3912 14.956 14.9539C14.3933 15.5165 13.6303 15.8325 12.8346 15.8325Z" fill="white"/>
<path opacity="0.2" d="M2.51197 8.186C2.80397 8.19 3.0873 8.29067 3.31597 8.47267L5.96064 10.5713C6.00975 10.6103 6.06887 10.6347 6.1312 10.6416C6.19354 10.6485 6.25656 10.6377 6.31303 10.6104C6.3695 10.5831 6.41712 10.5405 6.45043 10.4873C6.48373 10.4342 6.50136 10.3727 6.5013 10.31V10.1433C6.50126 10.2059 6.4836 10.2673 6.45033 10.3203C6.41706 10.3733 6.36952 10.4159 6.31317 10.4432C6.25683 10.4704 6.19393 10.4813 6.1317 10.4745C6.06947 10.4677 6.01042 10.4435 5.9613 10.4047L3.31597 8.306C3.12083 8.15118 2.886 8.05451 2.63842 8.0271C2.39084 7.99969 2.14055 8.04263 1.91627 8.15101C1.69199 8.25939 1.50282 8.42882 1.37046 8.63983C1.2381 8.85085 1.16792 9.09491 1.16797 9.344V9.51067C1.16797 8.77133 1.77264 8.17533 2.51197 8.186ZM7.66797 0C7.35855 0 7.0618 0.122916 6.84301 0.341709C6.62422 0.560501 6.5013 0.857247 6.5013 1.16667V1.33333C6.5013 1.02391 6.62422 0.727168 6.84301 0.508375C7.0618 0.289583 7.35855 0.166667 7.66797 0.166667C7.97739 0.166667 8.27413 0.289583 8.49293 0.508375C8.71172 0.727168 8.83463 1.02391 8.83463 1.33333V1.16667C8.83463 0.857247 8.71172 0.560501 8.49293 0.341709C8.27413 0.122916 7.97739 0 7.66797 0Z" fill="white"/>
<path d="M14.384 6.91867L10.534 5.81867C10.3356 5.76203 10.1267 5.75221 9.92385 5.78999C9.721 5.82776 9.52969 5.91211 9.36497 6.03638C9.20024 6.16064 9.06661 6.32145 8.97459 6.50613C8.88256 6.69081 8.83465 6.89433 8.83464 7.10067V1.16667C8.83464 0.857247 8.71172 0.560501 8.49293 0.341709C8.27413 0.122916 7.97739 0 7.66797 0C7.35855 0 7.0618 0.122916 6.84301 0.341709C6.62422 0.560501 6.5013 0.857247 6.5013 1.16667V10.1433C6.50126 10.2059 6.4836 10.2673 6.45033 10.3203C6.41706 10.3733 6.36953 10.4159 6.31318 10.4432C6.25683 10.4704 6.19393 10.4813 6.1317 10.4745C6.06947 10.4677 6.01042 10.4435 5.9613 10.4047L3.31597 8.306C3.12083 8.15118 2.886 8.05452 2.63842 8.0271C2.39084 7.99969 2.14055 8.04263 1.91627 8.15102C1.69199 8.2594 1.50282 8.42882 1.37046 8.63983C1.2381 8.85085 1.16792 9.09491 1.16797 9.344V9.81133L5.1713 14.574C5.54671 15.0206 6.01526 15.3796 6.5441 15.6259C7.07293 15.8723 7.64924 15.9999 8.23264 16H12.8346C13.6303 16 14.3933 15.6839 14.956 15.1213C15.5186 14.5587 15.8346 13.7956 15.8346 13V8.842C15.8347 8.40732 15.6931 7.98445 15.4314 7.63741C15.1696 7.29037 14.8019 7.03806 14.384 6.91867Z" fill="white"/>
</g>
<defs>
<clipPath id="clip0_1444_5827">
<rect width="16" height="16" fill="white" transform="translate(0.5)"/>
</clipPath>
</defs>
</svg>
