<svg width="49" height="21" viewBox="0 0 49 21" fill="none" xmlns="http://www.w3.org/2000/svg">
<g clip-path="url(#clip0_1237_5784)">
<path fill-rule="evenodd" clip-rule="evenodd" d="M0.689829 2.67314L0.689453 2.64949V0.756602H2.50279V14.6401L2.50354 14.6834V16.5566H0.689453V14.6637L0.689829 14.6401V2.67314Z" fill="#3781C2"/>
<path fill-rule="evenodd" clip-rule="evenodd" d="M19.1287 10.8019C19.1752 13.6735 20.8808 15.9699 22.9385 15.9315C24.9957 15.893 26.6255 13.534 26.579 10.6624C26.532 7.79038 24.8264 5.4939 22.7688 5.53277C20.7115 5.57125 19.0817 7.93025 19.1287 10.8019ZM34.1428 7.32988C34.1901 7.4393 34.0778 7.16636 34.0778 7.16636L34.1428 7.32988ZM35.3786 19.2183C35.4617 19.07 35.5775 18.8432 35.7153 18.5598L35.3786 19.2183ZM35.4852 6.33915C35.5071 6.40287 35.5325 6.46941 35.561 6.53954L36.1716 8.1062L35.4852 6.33915ZM27.8871 14.2257C29.0079 15.2918 30.0171 15.8429 31.3076 15.8429C32.6284 15.8533 33.8027 15.1764 33.8027 13.8735C33.8027 12.7861 32.8827 12.1501 31.2391 11.4219C29.8463 10.7902 28.8098 10.3474 28.268 9.43318C28.3342 9.83036 28.3688 10.2408 28.3688 10.6608C28.3688 14.1873 25.928 17.0464 22.9169 17.0464C19.9058 17.0464 17.465 14.1873 17.465 10.6608C17.465 8.53463 18.3522 6.65136 19.7162 5.49069H16.0268V14.6393L16.0272 14.6758V16.5559H14.3885V14.7371C14.3897 14.7051 14.3901 14.6726 14.3901 14.6393V5.49069H12.9453V4.33924H14.4112C14.6005 2.01631 15.9737 0.702543 17.8747 0.702543C19.1075 0.702543 19.7843 0.837208 20.1752 1.02678V2.60145C20.169 2.71888 20.169 2.79062 20.169 2.79062C20.1521 2.78862 20.1117 2.78782 20.1117 2.78782C19.5184 2.2143 18.9332 1.78746 17.5662 1.78906C16.4773 1.78906 15.7571 2.71608 16.0087 4.33924H22.1416C22.3952 4.29716 22.6537 4.27512 22.9169 4.27512C25.1011 4.27512 26.9857 5.77965 27.8556 7.95269C27.8475 7.83206 27.8437 7.70622 27.8437 7.57476C27.8437 5.30753 29.9379 4.34325 32.1132 4.34806C32.1963 4.34766 32.2779 4.34806 32.3579 4.35006C33.1236 4.33724 34.2144 4.59895 34.8804 4.78251L36.1716 8.1062L38.0169 12.8226L38.2335 13.5801L38.4747 12.8226L40.8082 6.76879C41.2388 5.10193 42.9428 4.38052 44.825 4.38453C45.7607 4.38012 46.4518 4.49835 47.2805 4.80375V6.63453C46.2602 5.85741 45.5295 5.40572 44.3718 5.40572C43.3541 5.40572 42.131 5.87785 42.131 7.44731C42.1114 8.62682 42.7866 8.84243 44.7681 9.87284C46.3967 10.6139 47.8992 11.4319 47.908 13.3264C47.908 16.485 44.9385 17.032 43.493 17.0368C42.2026 17.0368 41.0198 16.703 40.3619 16.1295V14.0442L40.4677 14.136C41.6416 15.2846 42.6789 15.8798 44.0194 15.8798C45.3406 15.8902 46.5145 15.2129 46.5145 13.9099C46.5145 12.8226 45.5945 12.1866 43.9509 11.4583C42.3799 10.7458 41.3492 10.2736 40.9279 9.09332C40.2873 10.7305 37.3074 18.3354 36.606 19.9609H34.9992L35.7264 18.5382C36.1293 17.7069 36.7152 16.4028 37.2358 15.1552L34.1428 7.32988C34.122 7.28219 34.0712 7.16195 33.9677 6.91547C33.7303 6.34876 33.5095 5.82535 32.8416 5.56163C32.4838 5.43539 32.1029 5.36925 31.66 5.36925C30.6423 5.36925 29.3407 5.84138 29.3407 7.41084C29.3211 8.59034 30.0744 8.80596 32.0563 9.83597C33.6849 10.5774 35.1874 11.3954 35.1962 13.2899C35.1962 16.4485 32.2263 16.9952 30.7808 17.0004C29.6335 17.0004 28.5708 16.7362 27.8871 16.2745V14.2257Z" fill="#3781C2"/>
<path fill-rule="evenodd" clip-rule="evenodd" d="M5.88662 4.45623L5.90663 5.83812L5.90548 5.9311L5.92316 5.9307C5.94432 5.87299 5.97281 5.82409 5.99974 5.78762C6.66574 5.03936 7.50527 4.29591 9.50059 4.29591C11.4105 4.29591 12.6467 5.99643 12.6963 7.06692L12.6982 14.6385V14.6762V16.555H11.0615V14.2974L11.0611 7.85165C11.0611 6.51704 9.94343 5.55196 8.57525 5.55196C7.43793 5.55196 5.97819 6.62445 5.92971 7.71017V14.6405L5.93049 14.6914V16.5566H4.29297V6.04733L4.29337 4.45623H5.88662Z" fill="#3781C2"/>
</g>
<defs>
<clipPath id="clip0_1237_5784">
<rect width="48" height="20" fill="white" transform="translate(0.273438 0.330078)"/>
</clipPath>
</defs>
</svg>
