<svg width="104" height="39" viewBox="0 0 104 39" fill="none" xmlns="http://www.w3.org/2000/svg">
<path d="M100.684 1.02611e-09C99.8552 0.00594566 99.0625 0.34314 98.4786 0.93804C97.8948 1.53294 97.5671 2.33728 97.5671 3.17562C97.5729 4.01005 97.9032 4.80862 98.4864 5.39867C99.0697 5.98872 99.8591 6.32281 100.684 6.32871C101.51 6.32871 102.303 5.99651 102.888 5.40519C103.472 4.81387 103.801 4.01187 103.801 3.17562C103.804 2.75966 103.725 2.34722 103.57 1.96206C103.414 1.57691 103.185 1.22665 102.896 0.931469C102.606 0.636288 102.261 0.402014 101.882 0.24215C101.502 0.0822854 101.095 -1.06106e-05 100.684 1.02611e-09ZM100.684 0.450442C101.392 0.450442 102.072 0.735183 102.573 1.24203C103.074 1.74887 103.355 2.4363 103.355 3.15309C103.355 3.86987 103.074 4.55731 102.573 5.06415C102.072 5.571 101.392 5.85574 100.684 5.85574C99.9753 5.85574 99.2958 5.571 98.7948 5.06415C98.2938 4.55731 98.0124 3.86987 98.0124 3.15309C98.0124 2.4363 98.2938 1.74887 98.7948 1.24203C99.2958 0.735183 99.9753 0.450442 100.684 0.450442ZM35.2316 0.684674C31.3401 0.684674 28.5528 3.27472 28.1432 7.86472H25.1422V10.1485H28.1031C28.1031 17.4321 28.1031 24.7293 28.1031 32.0084H31.4648C31.4648 24.7203 31.4648 17.4336 31.4648 10.1485H39.0341C37.5655 11.3976 36.3897 12.9614 35.5919 14.7267C34.7942 16.492 34.3943 18.4146 34.4213 20.3555C34.4213 27.3238 39.4259 32.9678 45.5838 32.9678C51.7416 32.9678 56.7463 27.3238 56.7463 20.3555C56.7465 19.5417 56.678 18.7295 56.5415 17.9276C57.6457 19.7294 59.774 20.6302 62.6281 21.8554C65.9898 23.2969 67.8732 24.5581 67.8732 26.7022C67.8732 29.2742 65.4688 30.6165 62.7616 30.594C60.1213 30.594 58.0598 29.5039 55.7578 27.4004V31.4544C57.1648 32.3552 59.3199 32.8913 61.6797 32.8913C64.6362 32.8913 70.7272 31.7967 70.7272 25.5581C70.7272 21.8149 67.6105 20.2068 64.3022 18.7429C60.2415 16.7069 58.6921 16.279 58.7321 13.9502C58.7321 10.8466 61.4036 9.8962 63.4874 9.8962C64.3084 9.88667 65.1254 10.0145 65.9052 10.2746C67.2721 10.7971 67.7218 11.8241 68.2115 12.9457C70.4912 18.351 72.6641 23.7968 74.8903 29.2292C73.9167 31.4814 72.8778 33.7081 71.7736 35.9092V35.9498L71.0835 37.2515L70.3043 38.72H73.5991C75.0373 35.5083 81.1373 20.4861 82.4508 17.2474C83.3146 19.5807 85.4117 20.5176 88.6309 21.923C91.997 23.3644 93.8804 24.6257 93.8804 26.7653C93.8804 29.3418 91.476 30.6751 88.7734 30.6526C86.0707 30.63 83.9068 29.4769 81.5024 27.2112L81.2886 27.031V31.1481C82.6244 32.2877 85.0466 32.9498 87.6958 32.9498C90.6523 32.9498 96.7345 31.8598 96.7345 25.6256C96.7345 21.8825 93.6444 20.2609 90.3095 18.8014C86.2532 16.7654 84.8641 16.3375 84.9041 14.0042C84.9041 10.9052 87.4064 9.97278 89.4857 9.97278C91.8634 9.97278 93.3595 10.8737 95.4521 12.4007V8.79714C93.8396 8.20423 92.1316 7.9216 90.4163 7.96382C86.5693 7.96382 83.0875 9.3827 82.2014 12.6754L77.4283 24.6347L76.9252 26.1391L76.4799 24.6347C74.3071 19.3465 72.1832 14.0313 70.0549 8.75658C68.688 8.38722 66.4617 7.8557 64.8944 7.90075H64.3957C59.9432 7.90075 55.6465 9.79261 55.6465 14.27C55.6465 14.5358 55.6465 14.7745 55.6732 15.0132C53.8922 10.725 50.0363 7.7566 45.5615 7.7566C45.0309 7.75285 44.5009 7.79201 43.9764 7.87372H31.4203C30.9038 4.66658 32.3865 2.84229 34.6127 2.84229C37.4089 2.84229 38.6201 3.68462 39.8222 4.81072H39.9424C39.9424 3.73867 39.9424 2.49094 39.9424 1.33781C39.181 0.977459 37.7918 0.70719 35.2673 0.70719L35.2316 0.684674ZM0.0566406 0.792775V32.0084H3.77449V0.792775H0.0566406ZM99.4906 1.40087V4.74316H100.092V3.39183H100.8L101.316 4.74316H101.98L101.378 3.30174C101.551 3.25181 101.702 3.14379 101.805 2.99554C101.909 2.84729 101.959 2.66768 101.948 2.48644C101.948 1.50898 101.227 1.40087 100.613 1.40087H99.4906ZM100.092 1.97744H100.76C101.116 1.97744 101.316 2.12609 101.316 2.42788C101.316 2.72968 101.089 2.87832 100.809 2.87832H100.092V1.97744ZM18.0939 7.78814C14.0064 7.78814 12.3056 9.25658 10.9253 10.734C10.861 10.8204 10.81 10.9161 10.7739 11.0178H10.7338V10.8286L10.6937 8.10345H7.43446V32.0084H10.7828V14.5493C10.8807 12.4052 13.8684 10.2881 16.1971 10.2881C18.9977 10.2881 21.2863 12.1935 21.2863 14.8331V32.0309H24.6391V13.2745C24.5411 11.1619 22.0076 7.80616 18.0983 7.80616L18.0939 7.78814ZM45.2543 10.2205C49.4664 10.1484 52.9661 14.6844 53.0596 20.36C53.1531 26.0355 49.8182 30.6886 45.6016 30.7697C41.3851 30.8508 37.8987 26.3058 37.8052 20.6347C37.7117 14.9637 41.0467 10.3016 45.2543 10.225V10.2205Z" fill="#CACACA"/>
</svg>
