<svg width="28" height="28" viewBox="0 0 28 28" fill="none" xmlns="http://www.w3.org/2000/svg">
<path d="M18.889 2.33398H9.11232C4.86565 2.33398 2.33398 4.86565 2.33398 9.11232V18.8773C2.33398 23.1357 4.86565 25.6673 9.11232 25.6673H18.8773C23.124 25.6673 25.6556 23.1357 25.6556 18.889V9.11232C25.6673 4.86565 23.1357 2.33398 18.889 2.33398ZM14.0007 18.5273C11.504 18.5273 9.47398 16.4973 9.47398 14.0007C9.47398 11.504 11.504 9.47398 14.0007 9.47398C16.4973 9.47398 18.5273 11.504 18.5273 14.0007C18.5273 16.4973 16.4973 18.5273 14.0007 18.5273ZM20.9073 8.02732C20.849 8.16732 20.7673 8.29565 20.6623 8.41232C20.5456 8.51732 20.4173 8.59898 20.2773 8.65732C20.1373 8.71565 19.9857 8.75065 19.834 8.75065C19.519 8.75065 19.2273 8.63398 19.0057 8.41232C18.9007 8.29565 18.819 8.16732 18.7607 8.02732C18.7023 7.88732 18.6673 7.73565 18.6673 7.58398C18.6673 7.43232 18.7023 7.28065 18.7607 7.14065C18.819 6.98898 18.9007 6.87232 19.0057 6.75565C19.274 6.48732 19.6823 6.35898 20.0557 6.44065C20.1373 6.45232 20.2073 6.47565 20.2773 6.51065C20.3473 6.53398 20.4173 6.56898 20.4873 6.61565C20.5457 6.65065 20.604 6.70898 20.6623 6.75565C20.7673 6.87232 20.849 6.98898 20.9073 7.14065C20.9657 7.28065 21.0007 7.43232 21.0007 7.58398C21.0007 7.73565 20.9657 7.88732 20.9073 8.02732Z" fill="white"/>
</svg>
