<svg width="27" height="27" viewBox="0 0 27 27" fill="none" xmlns="http://www.w3.org/2000/svg">
<path d="M14.2235 22.9793H9.8466V9.84855H14.2235V12.037C15.1565 10.85 16.5713 10.1424 18.0806 10.1079C20.795 10.123 22.9852 12.3318 22.9773 15.0461V22.9793H18.6004V15.5932C18.4254 14.3706 17.3768 13.4634 16.1417 13.4661C15.6014 13.4831 15.0915 13.7197 14.7295 14.1211C14.3675 14.5225 14.1848 15.0541 14.2235 15.5932V22.9793ZM7.65815 22.9793H3.28125V9.84855H7.65815V22.9793ZM5.4697 7.6601C4.26105 7.6601 3.28125 6.6803 3.28125 5.47165C3.28125 4.26301 4.26105 3.2832 5.4697 3.2832C6.67835 3.2832 7.65815 4.26301 7.65815 5.47165C7.65815 6.05207 7.42758 6.60871 7.01717 7.01912C6.60675 7.42953 6.05011 7.6601 5.4697 7.6601Z" fill="#0077B5"/>
</svg>
