<svg width="276" height="435" viewBox="0 0 276 435" fill="none" xmlns="http://www.w3.org/2000/svg">
<path d="M0 15.1463C0 6.78122 6.78123 0 15.1463 0H260.854C269.219 0 276 6.78123 276 15.1463V419.854C276 428.219 269.219 435 260.854 435H15.1463C6.78122 435 0 428.219 0 419.854V15.1463Z" fill="#173441"/>
<rect x="29" y="90.0879" width="116.122" height="10.0975" rx="5.04876" fill="#1F3E4B"/>
<rect x="168.682" y="90.0879" width="77.4146" height="24.4023" rx="6.73169" fill="#244836" fill-opacity="0.16"/>
<path d="M185.276 105.446C183.256 105.446 181.691 103.8 181.691 101.66C181.691 99.5292 183.256 97.8934 185.276 97.8934C187.093 97.8934 188.547 99.1051 188.82 100.892H187.638C187.436 99.7211 186.487 98.8931 185.286 98.8931C183.852 98.8931 182.842 100.054 182.842 101.66C182.842 103.286 183.852 104.447 185.286 104.447C186.487 104.447 187.436 103.609 187.638 102.437H188.82C188.547 104.235 187.093 105.446 185.276 105.446ZM192.135 105.396C190.62 105.396 189.51 104.204 189.51 102.619C189.51 101.034 190.62 99.8422 192.135 99.8422C193.65 99.8422 194.76 101.034 194.76 102.619C194.76 104.204 193.65 105.396 192.135 105.396ZM192.135 104.497C193.014 104.497 193.71 103.79 193.71 102.619C193.71 101.448 193.014 100.751 192.135 100.751C191.257 100.751 190.57 101.448 190.57 102.619C190.57 103.79 191.257 104.497 192.135 104.497ZM196.82 105.295H195.8V99.9432H196.749V100.832C197.113 100.216 197.688 99.8422 198.425 99.8422C199.213 99.8422 199.809 100.246 200.051 100.953C200.425 100.266 201.041 99.8422 201.859 99.8422C202.959 99.8422 203.666 100.559 203.666 101.831V105.295H202.646V102.155C202.646 101.266 202.252 100.741 201.505 100.741C200.808 100.741 200.243 101.327 200.243 102.225V105.295H199.223V102.155C199.223 101.266 198.829 100.741 198.082 100.741C197.375 100.741 196.82 101.327 196.82 102.225V105.295ZM210.139 102.619C210.139 104.235 209.21 105.396 207.776 105.396C207.049 105.396 206.433 105.032 206.05 104.386V107.244H205.03V99.9432H205.979V100.923C206.363 100.236 207.019 99.8422 207.776 99.8422C209.2 99.8422 210.139 101.003 210.139 102.619ZM209.079 102.619C209.079 101.417 208.443 100.741 207.564 100.741C206.716 100.741 206.05 101.417 206.05 102.619C206.05 103.8 206.706 104.487 207.564 104.487C208.443 104.487 209.079 103.821 209.079 102.619ZM212.203 105.295H211.173V98.0449H212.203V105.295ZM215.82 105.396C214.275 105.396 213.235 104.275 213.235 102.589C213.235 101.003 214.315 99.8422 215.79 99.8422C217.385 99.8422 218.445 101.135 218.264 102.872H214.275C214.356 103.962 214.901 104.598 215.8 104.598C216.557 104.598 217.082 104.184 217.254 103.487H218.264C218.001 104.679 217.082 105.396 215.82 105.396ZM215.769 100.61C214.952 100.61 214.396 101.195 214.285 102.195H217.183C217.133 101.205 216.597 100.61 215.769 100.61ZM222.347 104.305V105.204C222.034 105.345 221.762 105.396 221.438 105.396C220.449 105.396 219.762 104.861 219.762 103.679V100.812H218.581V99.9432H219.762V98.3579H220.782V99.9432H222.398V100.812H220.782V103.447C220.782 104.184 221.136 104.447 221.681 104.447C221.923 104.447 222.135 104.406 222.347 104.305ZM225.424 105.396C223.88 105.396 222.839 104.275 222.839 102.589C222.839 101.003 223.92 99.8422 225.394 99.8422C226.99 99.8422 228.05 101.135 227.868 102.872H223.88C223.96 103.962 224.506 104.598 225.404 104.598C226.162 104.598 226.687 104.184 226.858 103.487H227.868C227.605 104.679 226.687 105.396 225.424 105.396ZM225.374 100.61C224.556 100.61 224.001 101.195 223.89 102.195H226.788C226.737 101.205 226.202 100.61 225.374 100.61ZM228.47 102.619C228.47 100.993 229.399 99.8422 230.843 99.8422C231.56 99.8422 232.186 100.206 232.56 100.862V98.0449H233.579V105.295H232.63V104.336C232.246 105.012 231.6 105.396 230.843 105.396C229.399 105.396 228.47 104.225 228.47 102.619ZM229.53 102.619C229.53 103.811 230.156 104.487 231.045 104.487C231.913 104.487 232.56 103.78 232.56 102.599C232.56 101.397 231.893 100.741 231.045 100.741C230.156 100.741 229.53 101.407 229.53 102.619Z" fill="#4AC975"/>
<rect x="29" y="106.078" width="90.0366" height="10.0975" rx="5.04876" fill="#1F3E4B"/>
<rect x="29" y="36" width="116.122" height="10.0975" rx="5.04876" fill="#1F3E4B"/>
<rect x="168.682" y="36" width="77.4146" height="24.4023" rx="6.73169" fill="#244836" fill-opacity="0.16"/>
<path d="M185.276 51.3585C183.256 51.3585 181.691 49.7126 181.691 47.5719C181.691 45.4413 183.256 43.8055 185.276 43.8055C187.093 43.8055 188.547 45.0172 188.82 46.8045H187.638C187.436 45.6332 186.487 44.8052 185.286 44.8052C183.852 44.8052 182.842 45.9664 182.842 47.5719C182.842 49.1976 183.852 50.3588 185.286 50.3588C186.487 50.3588 187.436 49.5207 187.638 48.3494H188.82C188.547 50.1468 187.093 51.3585 185.276 51.3585ZM192.135 51.308C190.62 51.308 189.51 50.1165 189.51 48.5312C189.51 46.9459 190.62 45.7544 192.135 45.7544C193.65 45.7544 194.76 46.9459 194.76 48.5312C194.76 50.1165 193.65 51.308 192.135 51.308ZM192.135 50.4093C193.014 50.4093 193.71 49.7025 193.71 48.5312C193.71 47.3599 193.014 46.6631 192.135 46.6631C191.257 46.6631 190.57 47.3599 190.57 48.5312C190.57 49.7025 191.257 50.4093 192.135 50.4093ZM196.82 51.207H195.8V45.8553H196.749V46.7439C197.113 46.128 197.688 45.7544 198.425 45.7544C199.213 45.7544 199.809 46.1583 200.051 46.8651C200.425 46.1785 201.041 45.7544 201.859 45.7544C202.959 45.7544 203.666 46.4713 203.666 47.7436V51.207H202.646V48.0667C202.646 47.1781 202.252 46.653 201.505 46.653C200.808 46.653 200.243 47.2387 200.243 48.1374V51.207H199.223V48.0667C199.223 47.1781 198.829 46.653 198.082 46.653C197.375 46.653 196.82 47.2387 196.82 48.1374V51.207ZM210.139 48.5312C210.139 50.1468 209.21 51.308 207.776 51.308C207.049 51.308 206.433 50.9445 206.05 50.2983V53.1559H205.03V45.8553H205.979V46.8348C206.363 46.1482 207.019 45.7544 207.776 45.7544C209.2 45.7544 210.139 46.9156 210.139 48.5312ZM209.079 48.5312C209.079 47.3296 208.443 46.653 207.564 46.653C206.716 46.653 206.05 47.3296 206.05 48.5312C206.05 49.7126 206.706 50.3992 207.564 50.3992C208.443 50.3992 209.079 49.7328 209.079 48.5312ZM212.203 51.207H211.173V43.957H212.203V51.207ZM215.82 51.308C214.275 51.308 213.235 50.1872 213.235 48.5009C213.235 46.9156 214.315 45.7544 215.79 45.7544C217.385 45.7544 218.445 47.0468 218.264 48.7836H214.275C214.356 49.8742 214.901 50.5103 215.8 50.5103C216.557 50.5103 217.082 50.0963 217.254 49.3996H218.264C218.001 50.5911 217.082 51.308 215.82 51.308ZM215.769 46.5218C214.952 46.5218 214.396 47.1074 214.285 48.1071H217.183C217.133 47.1175 216.597 46.5218 215.769 46.5218ZM222.347 50.2175V51.1162C222.034 51.2575 221.762 51.308 221.438 51.308C220.449 51.308 219.762 50.7728 219.762 49.5914V46.7237H218.581V45.8553H219.762V44.27H220.782V45.8553H222.398V46.7237H220.782V49.3592C220.782 50.0963 221.136 50.3588 221.681 50.3588C221.923 50.3588 222.135 50.3184 222.347 50.2175ZM225.424 51.308C223.88 51.308 222.839 50.1872 222.839 48.5009C222.839 46.9156 223.92 45.7544 225.394 45.7544C226.99 45.7544 228.05 47.0468 227.868 48.7836H223.88C223.96 49.8742 224.506 50.5103 225.404 50.5103C226.162 50.5103 226.687 50.0963 226.858 49.3996H227.868C227.605 50.5911 226.687 51.308 225.424 51.308ZM225.374 46.5218C224.556 46.5218 224.001 47.1074 223.89 48.1071H226.788C226.737 47.1175 226.202 46.5218 225.374 46.5218ZM228.47 48.5312C228.47 46.9055 229.399 45.7544 230.843 45.7544C231.56 45.7544 232.186 46.1179 232.56 46.7742V43.957H233.579V51.207H232.63V50.2478C232.246 50.9243 231.6 51.308 230.843 51.308C229.399 51.308 228.47 50.1367 228.47 48.5312ZM229.53 48.5312C229.53 49.7227 230.156 50.3992 231.045 50.3992C231.913 50.3992 232.56 49.6924 232.56 48.511C232.56 47.3094 231.893 46.653 231.045 46.653C230.156 46.653 229.53 47.3195 229.53 48.5312Z" fill="#4AC975"/>
<rect x="29" y="51.9902" width="90.0366" height="10.0975" rx="5.04876" fill="#1F3E4B"/>
<rect x="29" y="144.176" width="116.122" height="10.0975" rx="5.04876" fill="#1F3E4B"/>
<rect x="191.4" y="144.176" width="54.6951" height="24.4023" rx="6.73169" fill="#464139"/>
<path d="M209.797 159.383L209.141 157.585H206.011L205.344 159.383H204.223L207 152.133H208.222L210.979 159.383H209.797ZM207.586 153.344L206.344 156.687H208.808L207.586 153.344ZM213.702 159.494C212.238 159.494 211.208 158.343 211.208 156.707C211.208 155.091 212.258 153.93 213.702 153.93C215.025 153.93 215.984 154.809 216.176 156.202H215.105C214.994 155.344 214.459 154.829 213.712 154.829C212.833 154.829 212.258 155.576 212.258 156.707C212.258 157.848 212.833 158.585 213.712 158.585C214.469 158.585 214.994 158.08 215.116 157.212H216.176C215.994 158.625 215.045 159.494 213.702 159.494ZM220.221 158.393V159.292C219.908 159.433 219.636 159.484 219.313 159.484C218.323 159.484 217.637 158.949 217.637 157.767V154.9H216.455V154.031H217.637V152.446H218.656V154.031H220.272V154.9H218.656V157.535C218.656 158.272 219.01 158.535 219.555 158.535C219.797 158.535 220.009 158.494 220.221 158.393ZM222.487 152.789C222.487 153.173 222.184 153.466 221.75 153.466C221.316 153.466 221.003 153.173 221.003 152.789C221.003 152.395 221.316 152.113 221.75 152.113C222.184 152.113 222.487 152.395 222.487 152.789ZM222.265 159.383H221.245V154.031H222.265V159.383ZM228.124 154.031L226.114 159.383H225.004L222.994 154.031H224.095L225.579 158.211L227.084 154.031H228.124ZM230.882 159.484C229.337 159.484 228.297 158.363 228.297 156.677C228.297 155.091 229.377 153.93 230.851 153.93C232.447 153.93 233.507 155.223 233.325 156.959H229.337C229.418 158.05 229.963 158.686 230.861 158.686C231.619 158.686 232.144 158.272 232.316 157.575H233.325C233.063 158.767 232.144 159.484 230.882 159.484ZM230.831 154.698C230.013 154.698 229.458 155.283 229.347 156.283H232.245C232.194 155.293 231.659 154.698 230.831 154.698Z" fill="#FFD53F"/>
<rect x="29" y="160.162" width="90.0366" height="10.0975" rx="5.04876" fill="#1F3E4B"/>
<rect x="29" y="198.26" width="116.122" height="10.0975" rx="5.04876" fill="#1F3E4B"/>
<rect x="174.572" y="198.26" width="71.5244" height="24.4023" rx="6.73169" fill="#1F3D4A"/>
<path d="M193.118 206.217V210.862C193.118 212.528 192.048 213.618 190.311 213.618C188.574 213.618 187.514 212.528 187.514 210.862V206.217H188.625V210.892C188.625 211.942 189.241 212.619 190.311 212.619C191.392 212.619 192.007 211.942 192.007 210.892V206.217H193.118ZM199.692 210.791C199.692 212.407 198.763 213.568 197.329 213.568C196.602 213.568 195.986 213.204 195.603 212.558V215.416H194.583V208.115H195.532V209.095C195.916 208.408 196.572 208.014 197.329 208.014C198.753 208.014 199.692 209.175 199.692 210.791ZM198.632 210.791C198.632 209.589 197.996 208.913 197.117 208.913C196.269 208.913 195.603 209.589 195.603 210.791C195.603 211.972 196.259 212.659 197.117 212.659C197.996 212.659 198.632 211.993 198.632 210.791ZM202.837 213.578C201.372 213.578 200.343 212.427 200.343 210.791C200.343 209.175 201.393 208.014 202.837 208.014C204.159 208.014 205.119 208.893 205.31 210.286H204.24C204.129 209.428 203.594 208.913 202.847 208.913C201.968 208.913 201.393 209.66 201.393 210.791C201.393 211.932 201.968 212.669 202.847 212.669C203.604 212.669 204.129 212.164 204.25 211.296H205.31C205.129 212.709 204.18 213.578 202.837 213.578ZM208.529 213.568C207.015 213.568 205.904 212.376 205.904 210.791C205.904 209.206 207.015 208.014 208.529 208.014C210.044 208.014 211.155 209.206 211.155 210.791C211.155 212.376 210.044 213.568 208.529 213.568ZM208.529 212.669C209.408 212.669 210.105 211.962 210.105 210.791C210.105 209.62 209.408 208.923 208.529 208.923C207.651 208.923 206.964 209.62 206.964 210.791C206.964 211.962 207.651 212.669 208.529 212.669ZM213.214 213.467H212.194V208.115H213.144V209.004C213.507 208.388 214.083 208.014 214.82 208.014C215.607 208.014 216.203 208.418 216.445 209.125C216.819 208.438 217.435 208.014 218.253 208.014C219.354 208.014 220.06 208.731 220.06 210.003V213.467H219.041V210.326C219.041 209.438 218.647 208.913 217.9 208.913C217.203 208.913 216.637 209.498 216.637 210.397V213.467H215.617V210.326C215.617 209.438 215.224 208.913 214.476 208.913C213.77 208.913 213.214 209.498 213.214 210.397V213.467ZM222.666 206.873C222.666 207.257 222.363 207.55 221.929 207.55C221.495 207.55 221.182 207.257 221.182 206.873C221.182 206.479 221.495 206.197 221.929 206.197C222.363 206.197 222.666 206.479 222.666 206.873ZM222.444 213.467H221.424V208.115H222.444V213.467ZM224.88 210.448V213.467H223.86V208.115H224.809V209.004C225.173 208.408 225.778 208.014 226.515 208.014C227.616 208.014 228.343 208.721 228.343 210.003V213.467H227.323V210.347C227.323 209.428 226.919 208.913 226.162 208.913C225.465 208.913 224.88 209.498 224.88 210.448ZM231.838 215.527C230.435 215.527 229.526 214.779 229.465 213.568H230.455C230.515 214.315 231 214.719 231.828 214.719C232.747 214.719 233.232 214.224 233.232 213.305V212.336C232.929 212.982 232.323 213.356 231.596 213.356C230.263 213.356 229.314 212.255 229.314 210.68C229.314 209.084 230.223 208.014 231.566 208.014C232.333 208.014 232.939 208.388 233.302 209.064V208.115H234.251V213.285C234.251 214.689 233.353 215.527 231.838 215.527ZM230.344 210.68C230.344 211.791 230.889 212.467 231.778 212.467C232.646 212.467 233.232 211.77 233.232 210.71C233.232 209.599 232.656 208.893 231.778 208.893C230.899 208.893 230.344 209.579 230.344 210.68Z" fill="#4280FF"/>
<rect x="29" y="214.246" width="90.0366" height="10.0975" rx="5.04876" fill="#1F3E4B"/>
<rect x="29" y="252.344" width="116.122" height="10.0975" rx="5.04876" fill="#1F3E4B"/>
<rect x="174.572" y="252.344" width="71.5244" height="24.4023" rx="6.73169" fill="#1F3D4A"/>
<path d="M193.118 260.301V264.946C193.118 266.612 192.048 267.702 190.311 267.702C188.574 267.702 187.514 266.612 187.514 264.946V260.301H188.625V264.976C188.625 266.026 189.241 266.703 190.311 266.703C191.392 266.703 192.007 266.026 192.007 264.976V260.301H193.118ZM199.692 264.875C199.692 266.491 198.763 267.652 197.329 267.652C196.602 267.652 195.986 267.288 195.603 266.642V269.5H194.583V262.199H195.532V263.179C195.916 262.492 196.572 262.098 197.329 262.098C198.753 262.098 199.692 263.259 199.692 264.875ZM198.632 264.875C198.632 263.673 197.996 262.997 197.117 262.997C196.269 262.997 195.603 263.673 195.603 264.875C195.603 266.056 196.259 266.743 197.117 266.743C197.996 266.743 198.632 266.077 198.632 264.875ZM202.837 267.662C201.372 267.662 200.343 266.511 200.343 264.875C200.343 263.259 201.393 262.098 202.837 262.098C204.159 262.098 205.119 262.977 205.31 264.37H204.24C204.129 263.512 203.594 262.997 202.847 262.997C201.968 262.997 201.393 263.744 201.393 264.875C201.393 266.016 201.968 266.753 202.847 266.753C203.604 266.753 204.129 266.248 204.25 265.38H205.31C205.129 266.793 204.18 267.662 202.837 267.662ZM208.529 267.652C207.015 267.652 205.904 266.46 205.904 264.875C205.904 263.29 207.015 262.098 208.529 262.098C210.044 262.098 211.155 263.29 211.155 264.875C211.155 266.46 210.044 267.652 208.529 267.652ZM208.529 266.753C209.408 266.753 210.105 266.046 210.105 264.875C210.105 263.704 209.408 263.007 208.529 263.007C207.651 263.007 206.964 263.704 206.964 264.875C206.964 266.046 207.651 266.753 208.529 266.753ZM213.214 267.551H212.194V262.199H213.144V263.088C213.507 262.472 214.083 262.098 214.82 262.098C215.607 262.098 216.203 262.502 216.445 263.209C216.819 262.522 217.435 262.098 218.253 262.098C219.354 262.098 220.06 262.815 220.06 264.087V267.551H219.041V264.41C219.041 263.522 218.647 262.997 217.9 262.997C217.203 262.997 216.637 263.582 216.637 264.481V267.551H215.617V264.41C215.617 263.522 215.224 262.997 214.476 262.997C213.77 262.997 213.214 263.582 213.214 264.481V267.551ZM222.666 260.957C222.666 261.341 222.363 261.634 221.929 261.634C221.495 261.634 221.182 261.341 221.182 260.957C221.182 260.563 221.495 260.281 221.929 260.281C222.363 260.281 222.666 260.563 222.666 260.957ZM222.444 267.551H221.424V262.199H222.444V267.551ZM224.88 264.532V267.551H223.86V262.199H224.809V263.088C225.173 262.492 225.778 262.098 226.515 262.098C227.616 262.098 228.343 262.805 228.343 264.087V267.551H227.323V264.431C227.323 263.512 226.919 262.997 226.162 262.997C225.465 262.997 224.88 263.582 224.88 264.532ZM231.838 269.611C230.435 269.611 229.526 268.863 229.465 267.652H230.455C230.515 268.399 231 268.803 231.828 268.803C232.747 268.803 233.232 268.308 233.232 267.389V266.42C232.929 267.066 232.323 267.44 231.596 267.44C230.263 267.44 229.314 266.339 229.314 264.764C229.314 263.168 230.223 262.098 231.566 262.098C232.333 262.098 232.939 262.472 233.302 263.148V262.199H234.251V267.369C234.251 268.773 233.353 269.611 231.838 269.611ZM230.344 264.764C230.344 265.875 230.889 266.551 231.778 266.551C232.646 266.551 233.232 265.854 233.232 264.794C233.232 263.683 232.656 262.977 231.778 262.977C230.899 262.977 230.344 263.663 230.344 264.764Z" fill="#4280FF"/>
<rect x="29" y="268.332" width="90.0366" height="10.0975" rx="5.04876" fill="#1F3E4B"/>
<rect x="29" y="306.43" width="116.122" height="10.0975" rx="5.04876" fill="#1F3E4B"/>
<rect x="174.572" y="306.43" width="71.5244" height="24.4023" rx="6.73169" fill="#1F3D4A"/>
<path d="M193.118 314.387V319.032C193.118 320.698 192.048 321.788 190.311 321.788C188.574 321.788 187.514 320.698 187.514 319.032V314.387H188.625V319.062C188.625 320.112 189.241 320.789 190.311 320.789C191.392 320.789 192.007 320.112 192.007 319.062V314.387H193.118ZM199.692 318.961C199.692 320.576 198.763 321.738 197.329 321.738C196.602 321.738 195.986 321.374 195.603 320.728V323.586H194.583V316.285H195.532V317.264C195.916 316.578 196.572 316.184 197.329 316.184C198.753 316.184 199.692 317.345 199.692 318.961ZM198.632 318.961C198.632 317.759 197.996 317.083 197.117 317.083C196.269 317.083 195.603 317.759 195.603 318.961C195.603 320.142 196.259 320.829 197.117 320.829C197.996 320.829 198.632 320.162 198.632 318.961ZM202.837 321.748C201.372 321.748 200.343 320.597 200.343 318.961C200.343 317.345 201.393 316.184 202.837 316.184C204.159 316.184 205.119 317.063 205.31 318.456H204.24C204.129 317.598 203.594 317.083 202.847 317.083C201.968 317.083 201.393 317.83 201.393 318.961C201.393 320.102 201.968 320.839 202.847 320.839C203.604 320.839 204.129 320.334 204.25 319.466H205.31C205.129 320.879 204.18 321.748 202.837 321.748ZM208.529 321.738C207.015 321.738 205.904 320.546 205.904 318.961C205.904 317.376 207.015 316.184 208.529 316.184C210.044 316.184 211.155 317.376 211.155 318.961C211.155 320.546 210.044 321.738 208.529 321.738ZM208.529 320.839C209.408 320.839 210.105 320.132 210.105 318.961C210.105 317.79 209.408 317.093 208.529 317.093C207.651 317.093 206.964 317.79 206.964 318.961C206.964 320.132 207.651 320.839 208.529 320.839ZM213.214 321.637H212.194V316.285H213.144V317.174C213.507 316.558 214.083 316.184 214.82 316.184C215.607 316.184 216.203 316.588 216.445 317.295C216.819 316.608 217.435 316.184 218.253 316.184C219.354 316.184 220.06 316.901 220.06 318.173V321.637H219.041V318.496C219.041 317.608 218.647 317.083 217.9 317.083C217.203 317.083 216.637 317.668 216.637 318.567V321.637H215.617V318.496C215.617 317.608 215.224 317.083 214.476 317.083C213.77 317.083 213.214 317.668 213.214 318.567V321.637ZM222.666 315.043C222.666 315.427 222.363 315.72 221.929 315.72C221.495 315.72 221.182 315.427 221.182 315.043C221.182 314.649 221.495 314.366 221.929 314.366C222.363 314.366 222.666 314.649 222.666 315.043ZM222.444 321.637H221.424V316.285H222.444V321.637ZM224.88 318.618V321.637H223.86V316.285H224.809V317.174C225.173 316.578 225.778 316.184 226.515 316.184C227.616 316.184 228.343 316.891 228.343 318.173V321.637H227.323V318.517C227.323 317.598 226.919 317.083 226.162 317.083C225.465 317.083 224.88 317.668 224.88 318.618ZM231.838 323.697C230.435 323.697 229.526 322.949 229.465 321.738H230.455C230.515 322.485 231 322.889 231.828 322.889C232.747 322.889 233.232 322.394 233.232 321.475V320.506C232.929 321.152 232.323 321.526 231.596 321.526C230.263 321.526 229.314 320.425 229.314 318.85C229.314 317.254 230.223 316.184 231.566 316.184C232.333 316.184 232.939 316.558 233.302 317.234V316.285H234.251V321.455C234.251 322.859 233.353 323.697 231.838 323.697ZM230.344 318.85C230.344 319.961 230.889 320.637 231.778 320.637C232.646 320.637 233.232 319.94 233.232 318.88C233.232 317.769 232.656 317.063 231.778 317.063C230.899 317.063 230.344 317.749 230.344 318.85Z" fill="#4280FF"/>
<rect x="29" y="322.418" width="90.0366" height="10.0975" rx="5.04876" fill="#1F3E4B"/>
<rect x="29" y="361" width="116.122" height="10.0975" rx="5.04876" fill="#1F3E4B"/>
<rect x="174.572" y="361" width="71.5244" height="24.4023" rx="6.73169" fill="#1F3D4A"/>
<path d="M193.118 368.957V373.602C193.118 375.268 192.048 376.358 190.311 376.358C188.574 376.358 187.514 375.268 187.514 373.602V368.957H188.625V373.632C188.625 374.682 189.241 375.359 190.311 375.359C191.392 375.359 192.007 374.682 192.007 373.632V368.957H193.118ZM199.692 373.531C199.692 375.147 198.763 376.308 197.329 376.308C196.602 376.308 195.986 375.944 195.603 375.298V378.156H194.583V370.855H195.532V371.835C195.916 371.148 196.572 370.754 197.329 370.754C198.753 370.754 199.692 371.916 199.692 373.531ZM198.632 373.531C198.632 372.33 197.996 371.653 197.117 371.653C196.269 371.653 195.603 372.33 195.603 373.531C195.603 374.713 196.259 375.399 197.117 375.399C197.996 375.399 198.632 374.733 198.632 373.531ZM202.837 376.318C201.372 376.318 200.343 375.167 200.343 373.531C200.343 371.916 201.393 370.754 202.837 370.754C204.159 370.754 205.119 371.633 205.31 373.026H204.24C204.129 372.168 203.594 371.653 202.847 371.653C201.968 371.653 201.393 372.4 201.393 373.531C201.393 374.672 201.968 375.409 202.847 375.409C203.604 375.409 204.129 374.904 204.25 374.036H205.31C205.129 375.45 204.18 376.318 202.837 376.318ZM208.529 376.308C207.015 376.308 205.904 375.116 205.904 373.531C205.904 371.946 207.015 370.754 208.529 370.754C210.044 370.754 211.155 371.946 211.155 373.531C211.155 375.116 210.044 376.308 208.529 376.308ZM208.529 375.409C209.408 375.409 210.105 374.702 210.105 373.531C210.105 372.36 209.408 371.663 208.529 371.663C207.651 371.663 206.964 372.36 206.964 373.531C206.964 374.702 207.651 375.409 208.529 375.409ZM213.214 376.207H212.194V370.855H213.144V371.744C213.507 371.128 214.083 370.754 214.82 370.754C215.607 370.754 216.203 371.158 216.445 371.865C216.819 371.178 217.435 370.754 218.253 370.754C219.354 370.754 220.06 371.471 220.06 372.744V376.207H219.041V373.067C219.041 372.178 218.647 371.653 217.9 371.653C217.203 371.653 216.637 372.239 216.637 373.137V376.207H215.617V373.067C215.617 372.178 215.224 371.653 214.476 371.653C213.77 371.653 213.214 372.239 213.214 373.137V376.207ZM222.666 369.613C222.666 369.997 222.363 370.29 221.929 370.29C221.495 370.29 221.182 369.997 221.182 369.613C221.182 369.22 221.495 368.937 221.929 368.937C222.363 368.937 222.666 369.22 222.666 369.613ZM222.444 376.207H221.424V370.855H222.444V376.207ZM224.88 373.188V376.207H223.86V370.855H224.809V371.744C225.173 371.148 225.778 370.754 226.515 370.754C227.616 370.754 228.343 371.461 228.343 372.744V376.207H227.323V373.087C227.323 372.168 226.919 371.653 226.162 371.653C225.465 371.653 224.88 372.239 224.88 373.188ZM231.838 378.267C230.435 378.267 229.526 377.52 229.465 376.308H230.455C230.515 377.055 231 377.459 231.828 377.459C232.747 377.459 233.232 376.964 233.232 376.045V375.076C232.929 375.722 232.323 376.096 231.596 376.096C230.263 376.096 229.314 374.995 229.314 373.42C229.314 371.825 230.223 370.754 231.566 370.754C232.333 370.754 232.939 371.128 233.302 371.805V370.855H234.251V376.025C234.251 377.429 233.353 378.267 231.838 378.267ZM230.344 373.42C230.344 374.531 230.889 375.207 231.778 375.207C232.646 375.207 233.232 374.511 233.232 373.45C233.232 372.34 232.656 371.633 231.778 371.633C230.899 371.633 230.344 372.319 230.344 373.42Z" fill="#4280FF"/>
<rect x="29" y="376.988" width="90.0366" height="10.0975" rx="5.04876" fill="#1F3E4B"/>
</svg>
