<svg width="96" height="27" viewBox="0 0 96 27" fill="none" xmlns="http://www.w3.org/2000/svg">
<path d="M10.8008 21H6.50781V1.09375H10.8008V21ZM16.8438 4.56641H0.546875V1.09375H16.8438V4.56641ZM21.9297 21H17.8008V6.20703H21.6836L21.9297 9.61133V21ZM26.25 10.0898C26.0495 10.0625 25.8125 10.0397 25.5391 10.0215C25.2656 9.99414 25.0195 9.98047 24.8008 9.98047C24.0807 9.98047 23.4883 10.0944 23.0234 10.3223C22.5586 10.541 22.2122 10.8691 21.9844 11.3066C21.7565 11.7441 21.6335 12.2865 21.6152 12.9336L20.8086 12.5781C20.8086 11.293 20.9727 10.1491 21.3008 9.14648C21.6289 8.14388 22.112 7.36003 22.75 6.79492C23.388 6.2207 24.1628 5.93359 25.0742 5.93359C25.2839 5.93359 25.5026 5.94727 25.7305 5.97461C25.9674 6.00195 26.1589 6.04753 26.3047 6.11133L26.25 10.0898ZM35.9434 11.1426C35.9434 10.4772 35.7793 9.94857 35.4512 9.55664C35.123 9.16471 34.599 8.96875 33.8789 8.96875C33.4688 8.96875 33.1133 9.03711 32.8125 9.17383C32.5117 9.31055 32.2839 9.50651 32.1289 9.76172C31.974 10.0078 31.8965 10.3132 31.8965 10.6777H27.7676C27.7676 9.80273 28.0273 9.00977 28.5469 8.29883C29.0664 7.57878 29.8001 7.00456 30.748 6.57617C31.696 6.14779 32.8125 5.93359 34.0977 5.93359C35.2461 5.93359 36.2715 6.12956 37.1738 6.52148C38.0762 6.9043 38.7871 7.48307 39.3066 8.25781C39.8262 9.03255 40.0859 10.0033 40.0859 11.1699V17.3496C40.0859 18.2246 40.1361 18.9173 40.2363 19.4277C40.3457 19.9382 40.4961 20.3848 40.6875 20.7676V21H36.5312C36.3307 20.5807 36.1803 20.0566 36.0801 19.4277C35.9889 18.7988 35.9434 18.1608 35.9434 17.5137V11.1426ZM36.5039 14.3281H34.3984C33.3958 14.3281 32.6712 14.5469 32.2246 14.9844C31.778 15.4128 31.5547 15.9323 31.5547 16.543C31.5547 17.0078 31.7188 17.3906 32.0469 17.6914C32.375 17.9922 32.8171 18.1426 33.373 18.1426C33.9473 18.1426 34.4395 18.0332 34.8496 17.8145C35.2689 17.5866 35.5879 17.3177 35.8066 17.0078C36.0345 16.6888 36.1439 16.3971 36.1348 16.1328L37.2012 17.9102C37.0553 18.2747 36.8594 18.653 36.6133 19.0449C36.3763 19.4368 36.071 19.8014 35.6973 20.1387C35.3236 20.4759 34.8678 20.7493 34.3301 20.959C33.8014 21.1686 33.1771 21.2734 32.457 21.2734C31.5273 21.2734 30.6797 21.0866 29.9141 20.7129C29.1484 20.3301 28.5423 19.806 28.0957 19.1406C27.6491 18.4661 27.4258 17.696 27.4258 16.8301C27.4258 15.2806 28 14.082 29.1484 13.2344C30.2969 12.3776 32.0059 11.9492 34.2754 11.9492H36.4766L36.5039 14.3281ZM47.3867 21H43.2441V6.20703H47.3867V21ZM42.998 2.39258C42.998 1.77279 43.2077 1.26693 43.627 0.875C44.0462 0.473958 44.6068 0.273438 45.3086 0.273438C46.0104 0.273438 46.5664 0.473958 46.9766 0.875C47.3958 1.26693 47.6055 1.77279 47.6055 2.39258C47.6055 3.00326 47.3958 3.50911 46.9766 3.91016C46.5664 4.3112 46.0104 4.51172 45.3086 4.51172C44.6068 4.51172 44.0462 4.3112 43.627 3.91016C43.2077 3.50911 42.998 3.00326 42.998 2.39258ZM54.5918 21H50.4629V6.20703H54.3457L54.5918 9.36523V21ZM52.8965 13.166C52.8965 11.6712 53.138 10.3861 53.6211 9.31055C54.1042 8.22591 54.7832 7.39193 55.6582 6.80859C56.5332 6.22526 57.5495 5.93359 58.707 5.93359C59.6367 5.93359 60.4479 6.11589 61.1406 6.48047C61.8424 6.84505 62.3893 7.44206 62.7812 8.27148C63.1823 9.0918 63.3828 10.2083 63.3828 11.6211V21H59.2402V11.5938C59.2402 10.9831 59.1491 10.5137 58.9668 10.1855C58.7936 9.84831 58.5384 9.61589 58.2012 9.48828C57.8639 9.35156 57.4492 9.2832 56.957 9.2832C56.4557 9.2832 56.0182 9.37891 55.6445 9.57031C55.2799 9.7526 54.9746 10.0169 54.7285 10.3633C54.4915 10.7096 54.3138 11.1198 54.1953 11.5938C54.0768 12.0586 54.0176 12.5645 54.0176 13.1113L52.8965 13.166ZM70.6289 21H66.4863V6.20703H70.6289V21ZM66.2402 2.39258C66.2402 1.77279 66.4499 1.26693 66.8691 0.875C67.2884 0.473958 67.849 0.273438 68.5508 0.273438C69.2526 0.273438 69.8086 0.473958 70.2188 0.875C70.638 1.26693 70.8477 1.77279 70.8477 2.39258C70.8477 3.00326 70.638 3.50911 70.2188 3.91016C69.8086 4.3112 69.2526 4.51172 68.5508 4.51172C67.849 4.51172 67.2884 4.3112 66.8691 3.91016C66.4499 3.50911 66.2402 3.00326 66.2402 2.39258ZM81.1973 9.21484H72.4609V6.20703H81.1973V9.21484ZM78.6953 2.55664V16.3789C78.6953 16.7799 78.7454 17.0898 78.8457 17.3086C78.9551 17.5273 79.1237 17.6777 79.3516 17.7598C79.5794 17.8418 79.862 17.8828 80.1992 17.8828C80.4453 17.8828 80.6641 17.8737 80.8555 17.8555C81.0469 17.8372 81.2109 17.8145 81.3477 17.7871L81.334 20.9043C80.9967 21.0228 80.6276 21.1139 80.2266 21.1777C79.8346 21.2415 79.3926 21.2734 78.9004 21.2734C78.0163 21.2734 77.2461 21.1276 76.5898 20.8359C75.9427 20.5352 75.4414 20.0612 75.0859 19.4141C74.7396 18.7578 74.5664 17.901 74.5664 16.8438V2.55664H78.6953ZM91.5605 6.20703H95.9766L90.0703 23.2148C89.9427 23.5794 89.7695 23.9759 89.5508 24.4043C89.332 24.8418 89.0404 25.2565 88.6758 25.6484C88.3203 26.0404 87.8646 26.3594 87.3086 26.6055C86.7617 26.8516 86.0918 26.9746 85.2988 26.9746C85.0436 26.9746 84.8203 26.9655 84.6289 26.9473C84.4466 26.929 84.2689 26.8971 84.0957 26.8516C83.9225 26.8151 83.7266 26.7695 83.5078 26.7148V23.5977C83.6081 23.5977 83.7083 23.5977 83.8086 23.5977C83.918 23.6068 84.0182 23.6113 84.1094 23.6113C84.8841 23.6113 85.4492 23.4928 85.8047 23.2559C86.1602 23.0189 86.429 22.6406 86.6113 22.1211L87.6914 19.291L91.5605 6.20703ZM89.373 16.666L89.9336 21.2188L87.1445 21.4102L81.8535 6.20703H86.2969L89.373 16.666Z" fill="#48BF84"/>
</svg>
