<svg width="336" height="203" viewBox="0 0 336 203" fill="none" xmlns="http://www.w3.org/2000/svg">
<rect width="336" height="202.363" rx="20" fill="#173441"/>
<ellipse cx="263.453" cy="137.455" rx="35.6364" ry="35.6362" fill="#FF4B4B"/>
<path d="M274.75 145.259C274.75 145.675 274.658 146.102 274.461 146.518C274.265 146.933 274.011 147.326 273.676 147.696C273.11 148.319 272.487 148.77 271.782 149.058C271.089 149.347 270.327 149.497 269.519 149.497C268.341 149.497 267.082 149.22 265.754 148.654C264.426 148.088 263.086 147.326 261.77 146.367C261.1 145.871 260.442 145.363 259.807 144.808L263.571 141.044C263.583 141.044 263.583 141.044 263.594 141.055C264.195 141.563 264.692 141.91 265.084 142.118C265.142 142.141 265.211 142.175 265.292 142.21C265.384 142.245 265.477 142.256 265.581 142.256C265.777 142.256 265.927 142.187 266.054 142.06L266.932 141.194C267.221 140.905 267.498 140.686 267.763 140.547C268.029 140.386 268.295 140.305 268.583 140.305C268.803 140.305 269.034 140.351 269.288 140.455C269.542 140.559 269.807 140.709 270.096 140.905L273.93 143.619C274.23 143.827 274.438 144.069 274.565 144.358C274.681 144.647 274.75 144.936 274.75 145.259Z" fill="white"/>
<path d="M261.77 139.379L258.006 143.143C257.994 143.143 257.994 143.143 257.983 143.132C256.793 141.931 255.719 140.672 254.749 139.355C253.814 138.062 253.063 136.757 252.509 135.475C252.497 135.452 252.497 135.441 252.486 135.418C251.931 134.101 251.654 132.842 251.654 131.641C251.654 130.856 251.793 130.105 252.07 129.413C252.301 128.824 252.647 128.269 253.121 127.773C253.202 127.68 253.294 127.576 253.398 127.484C253.583 127.299 253.768 127.138 253.964 127.01C253.975 127.01 253.975 127.01 253.975 127.01C254.553 126.595 255.165 126.398 255.812 126.398C256.135 126.398 256.458 126.468 256.747 126.606C257.024 126.733 257.267 126.918 257.463 127.184C257.486 127.207 257.498 127.23 257.521 127.253L260.2 131.029C260.408 131.318 260.558 131.584 260.662 131.838C260.766 132.08 260.824 132.323 260.824 132.542C260.824 132.819 260.743 133.096 260.581 133.362C260.431 133.628 260.211 133.905 259.934 134.182L259.057 135.094C258.93 135.221 258.872 135.371 258.872 135.556C258.872 135.649 258.883 135.729 258.907 135.822C258.941 135.914 258.976 135.983 258.999 136.053C259.207 136.434 259.565 136.93 260.073 137.531C260.593 138.131 261.147 138.743 261.747 139.355C261.759 139.367 261.759 139.367 261.77 139.379Z" fill="white"/>
<path d="M274.483 126.662C274.137 126.316 273.571 126.316 273.224 126.662L251.918 147.98C251.572 148.327 251.572 148.892 251.918 149.239C252.091 149.401 252.311 149.493 252.542 149.493C252.773 149.493 252.992 149.401 253.165 149.227L274.483 127.909C274.841 127.563 274.841 127.009 274.483 126.662Z" fill="white"/>
<g filter="url(#filter0_b_1247_5579)">
<ellipse cx="168" cy="137.455" rx="35.6364" ry="35.6362" fill="#1F3E4B"/>
</g>
<path d="M177.643 133.9C177.128 133.9 176.719 134.309 176.719 134.824V136.909C176.719 141.582 172.917 145.383 168.245 145.383C163.573 145.383 159.772 141.582 159.772 136.909V134.811C159.772 134.296 159.362 133.887 158.848 133.887C158.333 133.887 157.924 134.296 157.924 134.811V136.896C157.924 142.268 162.055 146.689 167.321 147.165V149.976C167.321 150.491 167.73 150.9 168.245 150.9C168.76 150.9 169.169 150.491 169.169 149.976V147.165C174.422 146.703 178.566 142.268 178.566 136.896V134.811C178.553 134.309 178.144 133.9 177.643 133.9Z" fill="white"/>
<path d="M168.248 124.504C165.027 124.504 162.414 127.117 162.414 130.338V137.095C162.414 140.316 165.027 142.929 168.248 142.929C171.468 142.929 174.082 140.316 174.082 137.095V130.338C174.082 127.117 171.468 124.504 168.248 124.504ZM169.977 133.677C169.884 134.02 169.581 134.244 169.238 134.244C169.172 134.244 169.106 134.231 169.04 134.218C168.525 134.073 167.984 134.073 167.469 134.218C167.047 134.337 166.638 134.086 166.532 133.677C166.413 133.268 166.664 132.845 167.073 132.74C167.852 132.529 168.67 132.529 169.449 132.74C169.845 132.845 170.082 133.268 169.977 133.677ZM170.676 131.116C170.558 131.433 170.267 131.618 169.95 131.618C169.858 131.618 169.779 131.605 169.687 131.578C168.763 131.235 167.733 131.235 166.809 131.578C166.413 131.724 165.964 131.512 165.819 131.116C165.674 130.72 165.885 130.272 166.281 130.14C167.548 129.678 168.947 129.678 170.214 130.14C170.61 130.285 170.822 130.72 170.676 131.116Z" fill="white"/>
<g filter="url(#filter1_b_1247_5579)">
<ellipse cx="72.5426" cy="137.455" rx="35.6364" ry="35.6362" fill="#1F3E4B"/>
</g>
<g clip-path="url(#clip0_1247_5579)">
<path d="M62.6687 137.995L62.6109 138.055L62.1484 137.87V131.047C62.1484 130.731 62.2418 130.433 62.4019 130.182C62.4331 130.133 62.4664 130.084 62.5042 130.039C62.542 129.99 62.582 129.946 62.6221 129.906L62.6265 129.902C62.7466 129.781 62.8889 129.677 63.0467 129.599L63.0534 129.597L63.1312 129.559L63.1401 129.555C63.3314 129.472 63.5448 129.426 63.765 129.426H63.7738C64.2208 129.426 64.6277 129.608 64.9212 129.902C65.0413 130.022 65.1458 130.164 65.2236 130.32L65.228 130.328L65.2636 130.406L65.2658 130.413C65.3481 130.604 65.3948 130.818 65.3948 131.038V131.04V131.049V136.598V136.85L65.1435 136.865C64.4587 136.908 63.8272 137.128 63.2936 137.481C63.1868 137.552 63.0845 137.628 62.9867 137.708C62.8955 137.784 62.7999 137.868 62.7065 137.964L62.6687 137.995ZM76.7393 142.626L77.0128 142.728L77.1307 142.815C77.1507 142.842 77.1751 142.864 77.204 142.884L77.2396 142.904V142.906C77.2774 142.924 77.3174 142.933 77.3597 142.933H77.3663C77.4064 142.933 77.4419 142.926 77.4753 142.913L77.502 142.9L77.5287 142.884L77.5376 142.88L77.5465 142.875C77.6665 142.806 77.8266 142.686 78.0023 142.542C78.1802 142.393 78.3825 142.21 78.5826 142.024C78.974 141.654 79.4187 141.21 79.5966 141.034L79.6055 141.025C80.168 140.463 80.7417 140.203 81.2464 140.169C81.3487 140.163 81.451 140.165 81.5466 140.176C81.6444 140.187 81.74 140.207 81.8312 140.236H81.8334L81.8446 140.24H81.8468C82.0269 140.298 82.1937 140.389 82.3404 140.507L82.3471 140.514L82.416 140.574L82.4293 140.585L82.4938 140.65L82.5049 140.663L82.5072 140.665L82.5094 140.67C82.6339 140.807 82.734 140.97 82.8074 141.15L82.8118 141.156L82.8452 141.25L82.8496 141.27L82.8763 141.365L82.8785 141.377L82.8807 141.39C83.0075 141.919 82.903 142.562 82.4627 143.206C82.3804 143.329 82.2826 143.453 82.1759 143.573C82.0691 143.693 81.9491 143.816 81.8157 143.933L81.7979 143.949L81.7756 143.969L81.7601 143.985L81.7512 143.994L76.299 149.508L76.11 149.714L76.0967 149.701C75.7965 149.974 75.503 150.21 75.2051 150.412C74.8493 150.653 74.4891 150.846 74.1155 150.993C73.7398 151.142 73.3462 151.248 72.9304 151.317C72.5146 151.384 72.0765 151.417 71.6096 151.417H68.0742C66.8957 151.417 65.7995 151.071 64.8812 150.477C64.7055 150.364 64.5321 150.237 64.3653 150.101C64.1963 149.963 64.0384 149.821 63.8939 149.674L63.8895 149.67C63.4425 149.216 63.0645 148.687 62.7777 148.107C62.7221 147.991 62.6687 147.876 62.6198 147.76C62.3174 147.04 62.1507 146.25 62.1484 145.423V145.416V140.754C62.1484 140.325 62.2285 139.911 62.3708 139.533V139.531C62.3975 139.462 62.4286 139.389 62.462 139.315C62.4953 139.244 62.5309 139.173 62.5687 139.104L62.5709 139.1L62.5776 139.089L62.582 139.08C62.7199 138.864 62.8844 138.662 63.069 138.482L63.0734 138.477L63.1757 138.382L63.1846 138.375L63.2913 138.284L63.3002 138.275L63.3047 138.27C63.5404 138.081 63.8028 137.921 64.0851 137.801C64.1496 137.775 64.2119 137.748 64.2541 137.735C64.601 137.608 64.9768 137.539 65.3681 137.539H65.377H65.5193L65.5838 137.548L65.6438 137.563L65.6905 137.568H69.5306H69.5551H69.5728H69.5973H73.4374H73.4485H73.464H73.4752H73.7598C74.3245 137.568 74.8582 137.712 75.3274 137.966C75.4207 138.017 75.5097 138.07 75.592 138.126H75.5942C75.6742 138.179 75.7587 138.242 75.841 138.308L75.8432 138.31L75.8477 138.315C76.2524 138.646 76.5814 139.073 76.7927 139.56C76.8371 139.66 76.8749 139.758 76.9039 139.851C76.9372 139.951 76.9639 140.054 76.9883 140.156V140.158L76.9906 140.174L76.995 140.198C76.9972 140.216 76.9995 140.234 77.0039 140.247L77.0061 140.254L77.015 140.278L77.0195 140.292L77.0462 140.372L77.0595 140.516V140.525L77.0639 140.583V140.592L77.0684 140.694V140.701V140.756V140.758V141.743V142.113L76.7171 141.997C76.1701 141.817 75.6476 141.695 75.1539 141.628C75.0427 141.612 74.936 141.601 74.8382 141.59C74.7381 141.581 74.6336 141.572 74.5291 141.568L74.3023 141.561C73.6686 141.552 73.0838 141.643 72.5657 141.821C72.4523 141.861 72.3456 141.901 72.25 141.944C72.1499 141.988 72.0499 142.035 71.9565 142.086L71.7986 142.177C71.3028 142.475 70.8914 142.875 70.5779 143.364C70.5134 143.467 70.4534 143.564 70.4044 143.66C70.3511 143.76 70.3022 143.869 70.2532 143.98L70.251 143.987C70.0998 144.347 69.9909 144.743 69.9286 145.172C69.9153 145.27 69.9019 145.365 69.8953 145.457C69.8886 145.532 69.8797 145.612 69.8775 145.692L70.4689 145.699C70.4867 145.399 70.5312 145.112 70.5957 144.845C70.6157 144.763 70.6357 144.685 70.6557 144.616C70.6757 144.549 70.7002 144.474 70.7291 144.398L70.8002 144.216C70.9981 143.742 71.285 143.34 71.6452 143.02C71.7163 142.957 71.7919 142.897 71.8653 142.842C71.9476 142.782 72.0254 142.728 72.101 142.684L72.1055 142.682L72.1121 142.677C72.4901 142.45 72.9304 142.293 73.424 142.213C73.5241 142.197 73.633 142.181 73.7442 142.173C73.8532 142.161 73.9666 142.157 74.0755 142.153H74.0822H74.3001H74.3045C74.8159 142.159 75.3696 142.239 75.9588 142.39C76.0945 142.424 76.2212 142.462 76.3413 142.499C76.4792 142.542 76.6103 142.586 76.7349 142.628L76.7393 142.626ZM72.8748 136.856H70.1643H69.8975V136.59V125.717C69.8975 125.27 70.0798 124.863 70.3733 124.57C70.4934 124.45 70.6357 124.345 70.7913 124.267L70.798 124.265L70.8758 124.227L70.8847 124.223C71.076 124.141 71.2872 124.094 71.5095 124.094V124.092H71.5184V124.094C71.9654 124.094 72.3723 124.276 72.6658 124.57C72.7859 124.69 72.8881 124.832 72.9682 124.988L72.9726 124.995L73.0082 125.072L73.0127 125.081C73.0949 125.272 73.1416 125.484 73.1416 125.706V125.708V125.717V136.587V136.854H72.8748V136.856ZM74.0733 136.867L74.0244 136.863L73.7753 136.843V136.596V128.321C73.7753 127.874 73.9577 127.467 74.2512 127.173C74.3712 127.053 74.5135 126.951 74.6714 126.871L74.6803 126.867L74.7581 126.831L74.7648 126.827C74.956 126.744 75.1673 126.698 75.3896 126.698H75.3985C75.7143 126.698 76.0122 126.791 76.2635 126.951L76.2657 126.953C76.3146 126.982 76.3613 127.018 76.4058 127.053L76.408 127.056C76.4547 127.091 76.4992 127.131 76.5392 127.171L76.5436 127.176C76.6637 127.296 76.7682 127.438 76.846 127.594L76.8483 127.6L76.8861 127.678L76.8905 127.687C76.9728 127.878 77.0195 128.092 77.0195 128.312V128.321V137.859L76.5592 138.046L76.5147 138.001C76.0567 137.543 75.4852 137.197 74.8493 137.012C74.7226 136.974 74.5914 136.943 74.4646 136.921C74.3423 136.896 74.2089 136.879 74.0733 136.867ZM68.9703 136.856H66.2598H65.9907V136.59V131.047V128.294C65.9907 127.978 66.0841 127.678 66.2442 127.427C66.2753 127.376 66.3109 127.327 66.3465 127.282C66.3843 127.233 66.4243 127.189 66.4621 127.151L66.4666 127.147C66.5866 127.027 66.7289 126.924 66.8868 126.844L66.8935 126.842L66.9713 126.807L66.9802 126.802C67.1714 126.72 67.3827 126.673 67.605 126.673H67.6139C68.0608 126.673 68.4677 126.855 68.7612 127.149C68.8813 127.269 68.9836 127.411 69.0636 127.567L69.0659 127.574L69.1037 127.651L69.1081 127.66C69.1904 127.852 69.2371 128.065 69.2371 128.285V128.294V136.587V136.854H68.9703V136.856Z" fill="white"/>
</g>
<line x1="168.635" y1="76.3613" x2="168.635" y2="29.2706" stroke="#2E3740" stroke-width="1.27272"/>
<line x1="46.5593" y1="63.655" x2="46.5593" y2="43.2561" stroke="#535C69" stroke-width="2.54545" stroke-linecap="round"/>
<line x1="57.4812" y1="72.5456" x2="57.4812" y2="34.364" stroke="white" stroke-opacity="0.35" stroke-width="2.54545" stroke-linecap="round"/>
<line x1="68.407" y1="67.4558" x2="68.407" y2="39.4559" stroke="white" stroke-width="2.54545" stroke-linecap="round"/>
<line x1="79.3308" y1="71.2742" x2="79.3308" y2="35.638" stroke="white" stroke-width="2.54545" stroke-linecap="round"/>
<line x1="90.2546" y1="63.6374" x2="90.2546" y2="42.0012" stroke="white" stroke-width="2.54545" stroke-linecap="round"/>
<line x1="101.178" y1="61.0906" x2="101.178" y2="44.5452" stroke="white" stroke-opacity="0.35" stroke-width="2.54545" stroke-linecap="round"/>
<line x1="112.104" y1="68.7292" x2="112.104" y2="36.9112" stroke="#535C69" stroke-width="2.54545" stroke-linecap="round"/>
<line x1="35.6335" y1="59.8191" x2="35.6335" y2="47.0919" stroke="#535C69" stroke-width="2.54545" stroke-linecap="round"/>
<line x1="123.026" y1="59.8191" x2="123.026" y2="47.0919" stroke="#535C69" stroke-width="2.54545" stroke-linecap="round"/>
<line x1="221.35" y1="63.655" x2="221.35" y2="43.2561" stroke="#535C69" stroke-width="2.54545" stroke-linecap="round"/>
<line x1="232.272" y1="72.5456" x2="232.272" y2="34.364" stroke="white" stroke-opacity="0.35" stroke-width="2.54545" stroke-linecap="round"/>
<line x1="243.198" y1="67.4558" x2="243.198" y2="39.4559" stroke="white" stroke-width="2.54545" stroke-linecap="round"/>
<line x1="254.122" y1="71.2742" x2="254.122" y2="35.638" stroke="white" stroke-width="2.54545" stroke-linecap="round"/>
<line x1="265.046" y1="63.6374" x2="265.046" y2="42.0012" stroke="white" stroke-width="2.54545" stroke-linecap="round"/>
<line x1="275.969" y1="61.0906" x2="275.969" y2="44.5452" stroke="white" stroke-opacity="0.35" stroke-width="2.54545" stroke-linecap="round"/>
<line x1="286.895" y1="68.7292" x2="286.895" y2="36.9112" stroke="#535C69" stroke-width="2.54545" stroke-linecap="round"/>
<line x1="210.425" y1="59.8191" x2="210.425" y2="47.0919" stroke="#535C69" stroke-width="2.54545" stroke-linecap="round"/>
<line x1="297.817" y1="59.8191" x2="297.817" y2="47.0919" stroke="#535C69" stroke-width="2.54545" stroke-linecap="round"/>
<defs>
<filter id="filter0_b_1247_5579" x="101.818" y="71.273" width="132.364" height="132.362" filterUnits="userSpaceOnUse" color-interpolation-filters="sRGB">
<feFlood flood-opacity="0" result="BackgroundImageFix"/>
<feGaussianBlur in="BackgroundImageFix" stdDeviation="15.2727"/>
<feComposite in2="SourceAlpha" operator="in" result="effect1_backgroundBlur_1247_5579"/>
<feBlend mode="normal" in="SourceGraphic" in2="effect1_backgroundBlur_1247_5579" result="shape"/>
</filter>
<filter id="filter1_b_1247_5579" x="6.36087" y="71.273" width="132.364" height="132.362" filterUnits="userSpaceOnUse" color-interpolation-filters="sRGB">
<feFlood flood-opacity="0" result="BackgroundImageFix"/>
<feGaussianBlur in="BackgroundImageFix" stdDeviation="15.2727"/>
<feComposite in2="SourceAlpha" operator="in" result="effect1_backgroundBlur_1247_5579"/>
<feBlend mode="normal" in="SourceGraphic" in2="effect1_backgroundBlur_1247_5579" result="shape"/>
</filter>
<clipPath id="clip0_1247_5579">
<rect width="20.7879" height="27.3212" fill="white" transform="translate(62.1484 124.09)"/>
</clipPath>
</defs>
</svg>
