<svg width="129" height="26" viewBox="0 0 129 26" fill="none" xmlns="http://www.w3.org/2000/svg">
<g clip-path="url(#clip0_1222_7666)">
<path d="M47.3457 0.800781H52.235L60.5486 15.4626L68.8621 0.800781H73.6456V24.893H69.6565V6.42813L62.3667 19.2142H58.6246L51.3348 6.42813V24.893H47.3457V0.800781Z" fill="white"/>
<path d="M86.513 25.3229C84.6655 25.3229 83.0416 24.9242 81.6414 24.1269C80.241 23.3295 79.1495 22.2253 78.3671 20.8142C77.5845 19.403 77.1932 17.7854 77.1934 15.9614C77.1934 14.1144 77.5758 12.4795 78.3407 11.0568C79.1055 9.63446 80.1675 8.52161 81.5267 7.71825C82.8859 6.91541 84.448 6.51388 86.213 6.51367C87.9662 6.51367 89.4754 6.91805 90.7405 7.72682C92.0053 8.53581 92.979 9.66875 93.6617 11.1256C94.344 12.5827 94.6853 14.2922 94.6854 16.2539V17.3207H81.1472C81.3943 18.7894 82.0033 19.9453 82.9741 20.7883C83.9449 21.6315 85.1716 22.0531 86.6543 22.0531C87.8427 22.0531 88.8664 21.881 89.7255 21.5368C90.5844 21.1926 91.3905 20.6707 92.1438 19.9709L94.2618 22.5005C92.1553 24.3822 89.5723 25.323 86.513 25.3229ZM89.4255 11.0309C88.5899 10.1993 87.4955 9.7834 86.1424 9.78325C84.8244 9.78325 83.7212 10.2078 82.8329 11.0568C81.9443 11.9058 81.3824 13.0473 81.1472 14.4814H90.8552C90.7375 13.0128 90.2609 11.8627 89.4255 11.0309Z" fill="white"/>
<path d="M99.523 10.1291H95.8516V6.94548H99.523V1.67969H103.371V6.94548H108.949V10.1291H103.371V18.2C103.371 19.5421 103.606 20.5 104.077 21.0737C104.547 21.6476 105.353 21.9344 106.495 21.9341C107.001 21.9341 107.43 21.9141 107.784 21.8739C108.137 21.8339 108.525 21.7794 108.949 21.7104V24.8596C108.465 24.9959 107.973 25.0994 107.475 25.1695C106.905 25.2512 106.33 25.2915 105.754 25.2899C101.6 25.2899 99.5228 23.0757 99.523 18.6474V10.1291Z" fill="white"/>
<path d="M129.001 24.8926H125.224V22.3801C124.553 23.321 123.7 24.0466 122.664 24.5569C121.629 25.0673 120.452 25.3226 119.134 25.3229C117.51 25.3229 116.072 24.9184 114.818 24.1095C113.565 23.3007 112.58 22.188 111.862 20.7711C111.144 19.3542 110.785 17.7338 110.785 15.9097C110.785 14.0741 111.15 12.4507 111.88 11.0395C112.609 9.62852 113.618 8.52146 114.907 7.71825C116.195 6.91541 117.675 6.51388 119.346 6.51367C120.605 6.51367 121.735 6.75175 122.735 7.22793C123.722 7.69328 124.576 8.38754 125.224 9.24985V6.94398H129.001V24.8926ZM125.153 13.2251C124.741 12.2041 124.091 11.3981 123.203 10.8072C122.314 10.2164 121.287 9.92104 120.123 9.92104C118.475 9.92104 117.163 10.4602 116.186 11.5386C115.21 12.617 114.721 14.074 114.721 15.9097C114.721 17.7569 115.192 19.2197 116.133 20.2979C117.075 21.3764 118.351 21.9156 119.964 21.9155C121.152 21.9155 122.211 21.6172 123.141 21.0206C124.07 20.4243 124.741 19.6212 125.153 18.6114L125.153 13.2251Z" fill="white"/>
<path d="M4.22652 16.7107C4.22652 18.1673 4.55447 19.2857 4.9831 19.9623C5.5451 20.8485 6.38332 21.224 7.23788 21.224C8.34009 21.224 9.34842 20.9573 11.2916 18.3371C12.8483 16.237 14.6826 13.2892 15.9168 11.4411L18.0069 8.31023C19.4588 6.13583 21.1394 3.71864 23.0662 2.08021C24.6393 0.742937 26.3361 0 28.0439 0C30.911 0 33.642 1.61985 35.7322 4.65792C38.0196 7.98519 39.13 12.1761 39.13 16.5011C39.13 19.0721 38.6102 20.9613 37.7257 22.4538C36.8711 23.8972 35.2056 25.3393 32.4038 25.3393V21.224C34.8028 21.224 35.4015 19.0748 35.4015 16.6151C35.4015 13.1101 34.5633 9.22031 32.7167 6.44095C31.4063 4.46953 29.7081 3.26491 27.8398 3.26491C25.819 3.26491 24.1929 4.75078 22.3654 7.40013C21.3939 8.80772 20.3964 10.5231 19.2765 12.4587L18.0437 14.588C15.5671 18.8691 14.9398 19.8442 13.7015 21.4535C11.5311 24.2713 9.67772 25.3393 7.23788 25.3393C4.34354 25.3393 2.51331 24.1174 1.3798 22.276C0.454489 20.7756 0 18.8068 0 16.5634L4.22652 16.7107Z" fill="#0081FB"/>
<path d="M3.33203 4.94844C5.26975 2.03642 8.06611 0 11.2734 0C13.1309 0 14.9774 0.535977 16.9056 2.07093C19.0148 3.74916 21.2628 6.51261 24.0673 11.067L25.0729 12.7015C27.5005 16.6443 28.8816 18.6728 29.6899 19.6293C30.7296 20.8578 31.4576 21.224 32.4033 21.224C34.8023 21.224 35.401 19.0748 35.401 16.6151L39.1295 16.5011C39.1295 19.0721 38.6097 20.9613 37.7252 22.4538C36.8707 23.8972 35.2051 25.3393 32.4033 25.3393C30.6615 25.3393 29.1184 24.9705 27.412 23.401C26.1003 22.1964 24.5667 20.0565 23.3869 18.1328L19.8775 12.4176C18.1167 9.54932 16.5015 7.41073 15.5666 6.44227C14.561 5.40085 13.2683 4.14317 11.2054 4.14317C9.53573 4.14317 8.11782 5.28543 6.93124 7.03265L3.33203 4.94844Z" fill="url(#paint0_linear_1222_7666)"/>
<path d="M11.2059 4.14317C9.5362 4.14317 8.11829 5.28543 6.93171 7.03265C5.25389 9.50157 4.22652 13.1791 4.22652 16.7107C4.22652 18.1673 4.55447 19.2857 4.9831 19.9623L1.3798 22.276C0.454489 20.7756 0 18.8068 0 16.5634C0 12.4839 1.14848 8.23194 3.3325 4.94844C5.27022 2.03642 8.06658 0 11.2739 0L11.2059 4.14317Z" fill="url(#paint1_linear_1222_7666)"/>
</g>
<defs>
<linearGradient id="paint0_linear_1222_7666" x1="8.30016" y1="15.522" x2="35.2396" y2="16.9175" gradientUnits="userSpaceOnUse">
<stop stop-color="#0064E1"/>
<stop offset="0.4" stop-color="#0064E1"/>
<stop offset="0.83" stop-color="#0073EE"/>
<stop offset="1" stop-color="#0082FB"/>
</linearGradient>
<linearGradient id="paint1_linear_1222_7666" x1="6.12341" y1="18.4406" x2="6.12341" y2="8.75599" gradientUnits="userSpaceOnUse">
<stop stop-color="#0082FB"/>
<stop offset="1" stop-color="#0064E0"/>
</linearGradient>
<clipPath id="clip0_1222_7666">
<rect width="129" height="25.3393" fill="white"/>
</clipPath>
</defs>
</svg>
