<svg width="188" height="40" viewBox="0 0 188 40" fill="none" xmlns="http://www.w3.org/2000/svg">
<g clip-path="url(#clip0_1216_6371)">
<path d="M78.1856 8.00043V32.0004H74.0091V13.1671H73.9534L66.4913 32.0004H63.7069L56.0778 13.1671H56.0221V32.0004H52.1797V8.00043H58.1939L65.0991 25.7782H65.2105L72.5055 8.00043H78.1856ZM81.6382 9.83377C81.6382 9.1671 81.861 8.61155 82.3621 8.1671C82.8633 7.72266 83.4202 7.50043 84.0885 7.50043C84.8124 7.50043 85.4249 7.72266 85.8704 8.1671C86.3159 8.61155 86.5944 9.1671 86.5944 9.83377C86.5944 10.5004 86.3716 11.056 85.8704 11.5004C85.3693 11.9449 84.8124 12.1671 84.0885 12.1671C83.3645 12.1671 82.8076 11.9449 82.3621 11.5004C81.9167 11.0004 81.6382 10.4449 81.6382 9.83377ZM86.1489 14.7782V32.0004H82.0837V14.7782H86.1489ZM98.4558 29.056C99.0683 29.056 99.7366 28.9449 100.46 28.6115C101.184 28.3338 101.853 27.9449 102.465 27.5004V31.2782C101.797 31.6671 101.073 31.9449 100.238 32.1115C99.4024 32.2782 98.5114 32.3893 97.5091 32.3893C94.9475 32.3893 92.887 31.6115 91.3278 30.0004C89.7129 28.3893 88.9332 26.3338 88.9332 23.8893C88.9332 21.1115 89.7686 18.8338 91.3835 17.056C92.9984 15.2782 95.2816 14.3893 98.2887 14.3893C99.0683 14.3893 99.8479 14.5004 100.572 14.6671C101.351 14.8338 101.964 15.1115 102.41 15.3338V19.2227C101.797 18.7782 101.129 18.3893 100.516 18.1671C99.8479 17.9449 99.1797 17.7782 98.5114 17.7782C96.8965 17.7782 95.6157 18.2782 94.6133 19.3338C93.611 20.3893 93.1655 21.7782 93.1655 23.556C93.1655 25.2782 93.6666 26.6671 94.6133 27.6115C95.56 28.556 96.8408 29.056 98.4558 29.056ZM113.992 14.5004C114.327 14.5004 114.605 14.5004 114.883 14.556C115.162 14.6115 115.385 14.6671 115.552 14.7227V18.8338C115.329 18.6671 115.051 18.5004 114.605 18.3893C114.16 18.2782 113.714 18.1671 113.101 18.1671C112.099 18.1671 111.264 18.6115 110.596 19.4449C109.927 20.2782 109.538 21.556 109.538 23.3338V32.0004H105.472V14.7782H109.538V17.5004H109.593C109.983 16.556 110.54 15.8338 111.264 15.2782C112.043 14.7782 112.934 14.5004 113.992 14.5004ZM115.774 23.6671C115.774 20.8338 116.61 18.556 118.169 16.8893C119.784 15.2227 122.011 14.3893 124.851 14.3893C127.524 14.3893 129.641 15.1671 131.144 16.7782C132.648 18.3893 133.427 20.556 133.427 23.2782C133.427 26.056 132.592 28.2782 131.033 29.9449C129.418 31.6115 127.246 32.4449 124.462 32.4449C121.789 32.4449 119.673 31.6671 118.113 30.1115C116.554 28.5004 115.774 26.3338 115.774 23.6671ZM120.007 23.5004C120.007 25.2782 120.397 26.6671 121.232 27.6115C122.067 28.556 123.237 29.056 124.74 29.056C126.188 29.056 127.357 28.6115 128.137 27.6115C128.917 26.6671 129.306 25.2782 129.306 23.3893C129.306 21.556 128.917 20.1671 128.137 19.1671C127.357 18.2227 126.188 17.7227 124.796 17.7227C123.292 17.7227 122.178 18.2227 121.343 19.2227C120.397 20.2782 120.007 21.6671 120.007 23.5004ZM139.497 19.3338C139.497 19.8893 139.664 20.3893 140.054 20.7227C140.444 21.056 141.224 21.4449 142.504 21.9449C144.119 22.6115 145.289 23.3338 145.901 24.1115C146.569 24.9449 146.904 25.8893 146.904 27.056C146.904 28.6671 146.291 29.9449 145.01 30.9449C143.785 31.9449 142.059 32.3893 139.943 32.3893C139.219 32.3893 138.439 32.2782 137.548 32.1115C136.657 31.9449 135.933 31.7227 135.321 31.4449V27.4449C136.045 27.9449 136.88 28.3893 137.715 28.6671C138.551 28.9449 139.33 29.1115 140.054 29.1115C140.945 29.1115 141.669 29.0004 142.059 28.7227C142.504 28.4449 142.727 28.056 142.727 27.4449C142.727 26.8893 142.504 26.4449 142.059 26.0004C141.613 25.6115 140.722 25.1671 139.497 24.6671C137.994 24.056 136.936 23.3338 136.323 22.556C135.71 21.7782 135.376 20.7782 135.376 19.556C135.376 18.0004 135.989 16.7227 137.214 15.7227C138.439 14.7227 140.054 14.2227 142.003 14.2227C142.616 14.2227 143.284 14.2782 144.008 14.4449C144.732 14.6115 145.4 14.7782 145.901 14.9449V18.8893C145.344 18.556 144.732 18.2227 144.008 17.9449C143.284 17.6671 142.56 17.556 141.892 17.556C141.112 17.556 140.5 17.7227 140.11 18.0004C139.72 18.3893 139.497 18.7782 139.497 19.3338ZM148.63 23.6671C148.63 20.8338 149.465 18.556 151.024 16.8893C152.639 15.2227 154.867 14.3893 157.707 14.3893C160.38 14.3893 162.496 15.1671 164 16.7782C165.503 18.3893 166.283 20.556 166.283 23.2782C166.283 26.056 165.447 28.2782 163.888 29.9449C162.273 31.6115 160.101 32.4449 157.317 32.4449C154.644 32.4449 152.528 31.6671 150.969 30.1115C149.465 28.5004 148.63 26.3338 148.63 23.6671ZM152.862 23.5004C152.862 25.2782 153.252 26.6671 154.087 27.6115C154.923 28.556 156.092 29.056 157.596 29.056C159.043 29.056 160.213 28.6115 160.992 27.6115C161.772 26.6671 162.162 25.2782 162.162 23.3893C162.162 21.556 161.772 20.1671 160.992 19.1671C160.213 18.2227 159.043 17.7227 157.651 17.7227C156.148 17.7227 155.034 18.2227 154.199 19.2227C153.308 20.2782 152.862 21.6671 152.862 23.5004ZM179.815 18.1115H173.745V32.0004H169.624V18.1115H166.728V14.7782H169.624V12.3893C169.624 10.6115 170.237 9.11155 171.406 7.94488C172.575 6.77821 174.079 6.22266 175.917 6.22266C176.418 6.22266 176.863 6.27821 177.253 6.27821C177.643 6.27821 177.977 6.38932 178.256 6.50043V10.0004C178.144 9.94488 177.866 9.83377 177.532 9.72266C177.197 9.61155 176.808 9.55599 176.362 9.55599C175.527 9.55599 174.859 9.83377 174.413 10.3338C173.968 10.8338 173.745 11.6671 173.745 12.6671V14.7227H179.815V10.8338L183.88 9.61155V14.7227H188.001V18.056H183.88V26.1115C183.88 27.1671 184.103 27.8893 184.437 28.3338C184.827 28.7782 185.439 29.0004 186.274 29.0004C186.497 29.0004 186.776 28.9449 187.11 28.8338C187.444 28.7227 187.722 28.6115 187.945 28.4449V31.7782C187.667 31.9449 187.277 32.056 186.664 32.1671C186.052 32.2782 185.495 32.3338 184.882 32.3338C183.156 32.3338 181.875 31.8893 181.04 31.0004C180.205 30.1115 179.759 28.7227 179.759 26.8893L179.815 18.1115Z" fill="white"/>
<path d="M19.045 0H0V19H19.045V0Z" fill="#F25022"/>
<path d="M40.0939 0H21.0488V19H40.0939V0Z" fill="#7FBA00"/>
<path d="M19.045 21H0V40H19.045V21Z" fill="#00A4EF"/>
<path d="M40.0939 21H21.0488V40H40.0939V21Z" fill="#FFB900"/>
</g>
<defs>
<clipPath id="clip0_1216_6371">
<rect width="188" height="40" fill="white"/>
</clipPath>
</defs>
</svg>
