<svg width="133" height="38" viewBox="0 0 133 38" fill="none" xmlns="http://www.w3.org/2000/svg">
<path d="M40.6822 16.5815C40.6517 16.6742 40.6161 16.7669 40.5906 16.8612C40.2158 18.2443 39.8614 19.636 39.4645 21.0122C38.713 23.628 37.7906 26.1904 36.7034 28.6825C36.0444 30.2201 35.2757 31.7072 34.4036 33.132C33.7031 34.2542 32.9297 35.3198 31.9494 36.2121C31.5992 36.5338 31.2231 36.8254 30.825 37.0838C29.3155 38.0482 27.7501 37.9676 26.3153 36.8934C26.0032 36.6681 25.7699 36.3485 25.6487 35.9805C25.1377 34.5864 24.9115 33.1019 24.9839 31.6168C25.0724 30.1259 25.2806 28.6447 25.6063 27.1879C26.1474 24.7856 26.953 22.4827 27.7705 20.1748C28.0045 19.509 28.2453 18.8449 28.4845 18.1808C28.4969 18.1133 28.5229 18.049 28.5608 17.9921C29.0069 17.5373 29.1375 16.9179 29.3817 16.3619C31.1964 12.2436 33.3113 8.28488 35.891 4.59385C36.6847 3.4596 37.5073 2.33737 38.5351 1.40217C38.9527 1.03707 39.3904 0.696191 39.8461 0.381169C40.0354 0.244143 40.2553 0.156743 40.4862 0.126797C40.717 0.0968506 40.9517 0.125293 41.169 0.209573C41.6364 0.380665 42.0641 0.646984 42.4257 0.992051C43.127 1.61945 43.7749 2.30539 44.3626 3.04262C45.699 4.75018 46.9109 6.55383 47.9887 8.43932C49.458 10.9379 50.7826 13.5208 51.9557 16.1749C53.456 19.5045 54.6818 22.9539 55.6208 26.4878C55.9402 27.6524 56.157 28.8434 56.2687 30.0467C56.3509 31.0809 56.373 32.1191 56.3348 33.156C56.3044 34.1986 56.0176 35.2172 55.5004 36.1195C54.9101 37.1336 54.018 37.6415 52.8715 37.7273C52.0235 37.7908 51.2807 37.4905 50.5768 37.0512C49.6745 36.4628 48.8808 35.7195 48.2312 34.8548C47.1814 33.5181 46.352 32.0423 45.5922 30.5254C44.39 28.0885 43.3767 25.5607 42.5614 22.9649C41.9356 21.0156 41.3844 19.0439 40.8908 17.0551C40.8518 16.8938 40.7942 16.736 40.745 16.5764L40.6822 16.5815Z" fill="#CACACA"/>
<path d="M16.4557 16.5815C16.4251 16.6742 16.3895 16.7669 16.3641 16.8612C15.9893 18.2443 15.6348 19.636 15.2362 21.0122C14.4862 23.6285 13.5638 26.191 12.4751 28.6825C11.8174 30.2207 11.0488 31.7079 10.1753 33.132C9.50211 34.2682 8.67681 35.3047 7.72288 36.2121C7.37238 36.5342 6.99564 36.8258 6.5967 37.0838C5.08894 38.0482 3.52181 37.9676 2.08867 36.8934C1.77661 36.6681 1.54325 36.3485 1.42215 35.9805C0.911118 34.5864 0.684957 33.1019 0.757321 31.6168C0.845008 30.1258 1.05317 28.6445 1.37975 27.1879C1.92078 24.7856 2.72638 22.4827 3.54217 20.1748C3.77792 19.509 4.01874 18.8449 4.25619 18.1808C4.26996 18.1134 4.29644 18.0493 4.3342 17.9921C4.78025 17.5373 4.91086 16.9179 5.15508 16.3619C6.96982 12.2436 9.08478 8.28488 11.6627 4.59385C12.4565 3.4596 13.279 2.33737 14.3085 1.40217C14.7258 1.03749 15.163 0.696624 15.6178 0.381169C15.8071 0.244143 16.027 0.156743 16.2579 0.126797C16.4888 0.0968506 16.7234 0.125293 16.9407 0.209573C17.4088 0.380234 17.8372 0.64659 18.1991 0.992051C18.9004 1.61945 19.5483 2.30539 20.136 3.04262C21.4719 4.7506 22.6837 6.55421 23.7621 8.43932C25.2315 10.9375 26.5556 13.5205 27.7274 16.1749C29.2292 19.5039 30.4551 22.9534 31.3925 26.4878C31.7133 27.6521 31.9307 28.8432 32.0421 30.0467C32.1234 31.081 32.1455 32.1191 32.1082 33.156C32.078 34.1989 31.7906 35.2176 31.2721 36.1195C30.6818 37.1336 29.7897 37.6415 28.6449 37.7273C27.7969 37.7908 27.0541 37.4905 26.3485 37.0512C25.4464 36.4632 24.6531 35.7198 24.0047 34.8548C22.9548 33.5181 22.1255 32.0423 21.3656 30.5254C20.1621 28.0888 19.1482 25.561 18.3331 22.9649C17.7073 21.0156 17.1561 19.0439 16.6643 17.0551C16.6236 16.8938 16.5659 16.736 16.5167 16.5764L16.4557 16.5815Z" fill="#CACACA"/>
<path d="M83.8118 25.4687H81.0371C80.6979 21.9081 80.569 18.3527 80.1738 14.8092C78.722 18.296 77.7434 21.9476 76.4426 25.4876H73.8545C73.8036 25.3624 73.751 25.2508 73.7137 25.1359C73.1133 23.3169 72.535 21.4929 71.9142 19.6825C71.4054 18.1879 70.8423 16.7122 70.3013 15.2296C70.2527 15.099 70.1833 14.9773 70.0961 14.8693C69.7569 18.3956 69.628 21.9373 69.2888 25.4687H66.8499C66.8364 25.3911 66.8284 25.3125 66.8262 25.2337C67.0314 20.2934 67.5538 15.3772 67.8828 10.4112C68.032 10.3958 68.1626 10.3735 68.2932 10.3717C69.2407 10.3557 70.1882 10.3431 71.1357 10.334C71.5055 10.334 71.5156 10.334 71.6344 10.6858C72.1601 12.2301 72.6927 13.7659 73.1981 15.3188C73.8273 17.2459 74.4311 19.1798 75.1994 21.057C75.2503 21.1823 75.3079 21.3058 75.3978 21.51C75.4724 21.323 75.5267 21.2046 75.5674 21.0828C76.1169 19.432 76.6665 17.7807 77.216 16.1288C77.822 14.2984 78.4258 12.4681 79.0273 10.6377C79.0833 10.4661 79.1477 10.3511 79.3529 10.3529C80.4367 10.3632 81.5188 10.3649 82.6025 10.3717C82.6436 10.3815 82.6834 10.3958 82.7212 10.4146C83.0893 15.4081 83.5811 20.4255 83.8118 25.4687Z" fill="#CACACA"/>
<path d="M124.045 15.4481C124.988 15.1035 125.965 14.8618 126.959 14.7274C127.997 14.5818 129.053 14.633 130.073 14.8784C130.532 14.98 130.957 15.2032 131.303 15.5252C131.65 15.8471 131.906 16.2563 132.045 16.711C132.167 17.0631 132.232 17.4328 132.237 17.8058C132.247 20.2579 132.237 22.71 132.221 25.1621C132.221 25.2582 132.204 25.3543 132.194 25.4693H130.076L129.811 24.3145C129.689 24.3934 129.591 24.4535 129.498 24.5221C128.707 25.123 127.785 25.5221 126.809 25.6855C126.186 25.7855 125.547 25.7132 124.961 25.4762C124.036 25.0935 123.553 24.3471 123.367 23.3827C123.221 22.6943 123.299 21.9766 123.59 21.337C123.88 20.6973 124.368 20.1701 124.979 19.8341C125.726 19.4229 126.536 19.141 127.374 19.0001C128.063 18.8663 128.753 18.7513 129.443 18.6226C129.53 18.6023 129.615 18.5759 129.698 18.5437C129.673 18.1932 129.591 17.8494 129.455 17.5261C129.391 17.3709 129.291 17.2332 129.164 17.1238C129.038 17.0145 128.888 16.9366 128.726 16.8964C128.095 16.7162 127.429 16.7026 126.791 16.8569C126.097 17.0285 125.415 17.2327 124.728 17.4249L124.325 17.5364C124.23 16.8209 124.14 16.1534 124.045 15.4481ZM129.611 20.1824C129.196 20.2562 128.819 20.3094 128.448 20.3918C128.121 20.4494 127.8 20.5402 127.491 20.6629C127.134 20.8248 126.793 21.0219 126.474 21.2515C126.304 21.3779 126.165 21.542 126.068 21.7312C125.971 21.9204 125.918 22.1297 125.914 22.3428C125.861 23.0292 126.223 23.544 126.893 23.6641C127.158 23.713 127.43 23.713 127.695 23.6641C128.39 23.5337 128.957 23.1236 129.53 22.7358C129.655 22.6517 129.645 22.5282 129.645 22.4029C129.645 21.756 129.645 21.1073 129.645 20.4604C129.638 20.3781 129.625 20.306 129.611 20.1807V20.1824Z" fill="#CACACA"/>
<path d="M95.3993 14.8609C95.1822 15.5336 95.0041 16.1273 94.7989 16.7107C94.0577 18.8093 93.3047 20.9028 92.5602 22.998C92.1599 24.1219 91.7698 25.2493 91.373 26.3716C91.17 26.9473 90.8922 27.4932 90.547 27.9948C90.3033 28.3713 89.9844 28.6919 89.6108 28.9361C89.2372 29.1802 88.8171 29.3424 88.3778 29.4122C87.7114 29.5172 87.0319 29.5004 86.3714 29.3625C86.2595 28.6761 86.1492 28.0103 86.0322 27.2844C86.2018 27.2844 86.3392 27.2844 86.4697 27.2844C86.8259 27.2707 87.1838 27.2724 87.5382 27.2364C87.9121 27.1891 88.2614 27.0228 88.5357 26.7616C88.8101 26.5003 88.9953 26.1576 89.0647 25.783C89.0935 25.5386 89.0662 25.2908 88.985 25.0588C88.5779 23.8851 88.137 22.72 87.7214 21.5514C86.9729 19.4843 86.2261 17.416 85.481 15.3465C85.4606 15.2882 85.4488 15.2264 85.4199 15.1217C86.3063 14.9243 87.2093 14.8122 88.1166 14.7871C88.8979 17.2043 89.6769 19.6141 90.4537 22.0164H90.5402C90.6674 21.6612 90.8048 21.3095 90.9184 20.9491C91.5154 19.0524 92.1096 17.1546 92.7009 15.2556C92.8061 14.9124 92.8044 14.9124 93.1555 14.9124C93.7457 14.8986 94.3427 14.8884 94.9278 14.8781L95.3993 14.8609Z" fill="#CACACA"/>
<path d="M97.153 14.8921H99.2866L99.5987 16.2546C99.7683 16.1242 99.8988 16.0212 100.035 15.9114C100.745 15.364 101.493 14.8818 102.384 14.7102C102.953 14.591 103.542 14.6063 104.105 14.7548C104.613 14.8972 105.066 15.1923 105.404 15.6011C105.743 16.0099 105.95 16.5131 105.999 17.0439C106.045 17.6256 106.055 18.2125 106.057 18.7976C106.057 20.8894 106.057 22.9828 106.047 25.0746C106.047 25.1964 106.032 25.3166 106.023 25.4676H103.557C103.537 25.1776 103.498 24.8721 103.496 24.5684C103.496 23.1733 103.496 21.7782 103.496 20.3832C103.496 19.6367 103.467 18.8903 103.43 18.1438C103.428 17.8981 103.346 17.6599 103.196 17.4667C103.046 17.2735 102.836 17.1362 102.601 17.0765C102.226 16.9349 101.812 16.9466 101.446 17.1091C101.057 17.2933 100.683 17.5079 100.328 17.7509C100.133 17.8844 99.9759 18.067 99.8718 18.2806C99.7677 18.4942 99.7204 18.7315 99.7344 18.9692C99.7445 20.9752 99.7344 22.9811 99.7344 24.9854V25.459H97.1801C97.0987 25.205 97.0801 15.5476 97.153 14.8921Z" fill="#CACACA"/>
<path d="M109.188 17.0945L107.785 16.9229V14.9341L109.201 14.7831C109.22 13.7004 109.237 12.6245 109.256 11.5056L111.767 11.1367C111.84 12.3774 111.81 13.5785 111.815 14.8072L113.898 14.9015C114.059 15.5768 114.182 16.2609 114.266 16.9504C113.458 17.0173 112.668 17.0431 111.862 17.0533C111.846 17.121 111.835 17.1899 111.828 17.2593C111.828 18.7785 111.828 20.2971 111.828 21.8151C111.833 22.0144 111.849 22.2132 111.876 22.4106C111.935 22.9082 112.168 23.1656 112.658 23.2686C112.887 23.3132 113.121 23.3235 113.353 23.3509L114.003 23.4247C114.145 24.1248 114.24 24.8198 114.315 25.5439C113.27 25.6606 112.28 25.7687 111.272 25.5182C110.16 25.2368 109.485 24.5298 109.334 23.387C109.25 22.6326 109.21 21.8741 109.213 21.115C109.196 19.9465 109.213 18.7762 109.213 17.6059C109.215 17.4412 109.198 17.2799 109.188 17.0945Z" fill="#CACACA"/>
<path d="M118.819 16.7211L119.261 16.2749C119.718 15.7844 120.244 15.3661 120.824 15.0343C121.233 14.7962 121.694 14.663 122.167 14.6465C122.398 15.4754 122.526 16.3303 122.548 17.1913L121.973 17.3628C121.163 17.5996 120.384 17.9017 119.743 18.4782C119.58 18.6288 119.428 18.7917 119.289 18.9656C119.047 19.2522 118.919 19.6187 118.927 19.9951C118.927 21.6751 118.927 23.3567 118.927 25.0383C118.927 25.1722 118.927 25.306 118.927 25.4759C118.034 25.5154 117.182 25.4982 116.322 25.4759V14.897H118.527C118.617 15.4873 118.71 16.0604 118.819 16.7211Z" fill="#CACACA"/>
</svg>
