<svg width="17" height="16" viewBox="0 0 17 16" fill="none" xmlns="http://www.w3.org/2000/svg">
<g clip-path="url(#clip0_1444_5834)">
<path d="M12.5366 6.84686L9.2033 5.59686L9.81797 1.54153C9.84583 1.36865 9.83914 1.19197 9.79829 1.0217C9.75744 0.851423 9.68324 0.690939 9.57997 0.549526C9.47736 0.407646 9.34763 0.287517 9.1983 0.196087C9.04897 0.104657 8.88299 0.0437399 8.70997 0.016859C8.53699 -0.010984 8.36021 -0.00428745 8.18983 0.0365621C8.01945 0.0774117 7.85885 0.151605 7.7173 0.254859C7.57431 0.358573 7.45343 0.489759 7.36174 0.640745C7.27005 0.79173 7.20939 0.959483 7.1833 1.13419L6.81197 3.95419L6.4853 1.79219C6.42938 1.44331 6.2376 1.13077 5.9519 0.922889C5.66619 0.71501 5.30979 0.628711 4.96064 0.682859C4.78735 0.709726 4.62111 0.770697 4.47154 0.862244C4.32198 0.953791 4.19206 1.0741 4.0893 1.21619C3.87997 1.50419 3.79597 1.85619 3.8493 2.19553C3.8493 2.19553 4.39864 7.18619 4.44797 8.24886L4.04664 8.65019C3.76806 8.92877 3.54708 9.25949 3.39632 9.62347C3.24556 9.98745 3.16797 10.3776 3.16797 10.7715V11.9475C3.16797 13.0695 3.60464 14.1709 4.4453 14.9142C5.23731 15.614 6.25776 16.0002 7.31464 16.0002H10.8346C11.2286 16.0002 11.6187 15.9226 11.9827 15.7718C12.3467 15.6211 12.6774 15.4001 12.956 15.1215C13.2345 14.8429 13.4555 14.5122 13.6063 14.1482C13.757 13.7843 13.8346 13.3942 13.8346 13.0002V8.71886C13.8346 8.3117 13.7103 7.91424 13.4784 7.57961C13.2464 7.24498 12.9179 6.98911 12.5366 6.84619V6.84686Z" fill="white"/>
<path opacity="0.2" d="M4.08762 1.38286C4.19037 1.24076 4.32029 1.12046 4.46986 1.02891C4.61942 0.937364 4.78566 0.876392 4.95895 0.849526C5.308 0.795569 5.66423 0.881959 5.94978 1.08982C6.23534 1.29768 6.42702 1.61011 6.48295 1.95886L6.80962 4.12086L7.18162 1.30086C7.20787 1.12611 7.2686 0.958322 7.36027 0.80725C7.45194 0.656178 7.57273 0.524836 7.71562 0.420859C7.85721 0.317721 8.01784 0.243647 8.18821 0.202912C8.35859 0.162177 8.53535 0.155588 8.70828 0.183526C9.05895 0.238859 9.36828 0.428192 9.57828 0.716192C9.72495 0.918192 9.81295 1.15219 9.83162 1.39486C9.84627 1.09241 9.75686 0.794067 9.57828 0.549526C9.47567 0.407646 9.34595 0.287517 9.19661 0.196087C9.04728 0.104657 8.88131 0.0437399 8.70828 0.016859C8.5353 -0.010984 8.35852 -0.00428745 8.18814 0.0365621C8.01776 0.0774117 7.85716 0.151605 7.71562 0.254859C7.57262 0.358573 7.45175 0.489759 7.36006 0.640745C7.26837 0.79173 7.2077 0.959483 7.18162 1.13419L6.81028 3.95419L6.48362 1.79219C6.4277 1.44331 6.23592 1.13077 5.95021 0.922889C5.6645 0.71501 5.30811 0.628711 4.95895 0.682859C4.78566 0.709726 4.61942 0.770697 4.46986 0.862244C4.32029 0.953791 4.19037 1.0741 4.08762 1.21619C3.90628 1.46553 3.81895 1.76286 3.83362 2.05886C3.85295 1.81953 3.94028 1.58553 4.08762 1.38286Z" fill="white"/>
<path opacity="0.05" d="M10.8346 15.8329H7.31464C6.28025 15.8328 5.28001 15.4627 4.49464 14.7896C4.07836 14.4333 3.74421 13.9911 3.51519 13.4934C3.28616 12.9956 3.16771 12.4542 3.16797 11.9062V12.0729C3.16797 13.1829 3.6513 14.2342 4.49464 14.9562C5.28001 15.6294 6.28025 15.9995 7.31464 15.9996H10.8346C11.2286 15.9996 11.6187 15.922 11.9827 15.7712C12.3467 15.6205 12.6774 15.3995 12.956 15.1209C13.2345 14.8423 13.4555 14.5116 13.6063 14.1476C13.757 13.7837 13.8346 13.3935 13.8346 12.9996V12.8329C13.8346 13.2269 13.757 13.617 13.6063 13.981C13.4555 14.3449 13.2345 14.6757 12.956 14.9542C12.6774 15.2328 12.3467 15.4538 11.9827 15.6046C11.6187 15.7553 11.2286 15.8329 10.8346 15.8329Z" fill="white"/>
<path opacity="0.2" d="M12.5366 6.84618L9.19922 5.60352V5.77018L12.5366 7.01285C12.9178 7.15576 13.2464 7.41163 13.4783 7.74627C13.7102 8.0809 13.8345 8.47836 13.8346 8.88552V8.71885C13.8345 8.31169 13.7102 7.91423 13.4783 7.5796C13.2464 7.24497 12.9178 6.9891 12.5366 6.84618Z" fill="white"/>
<path opacity="0.1" d="M6.79427 7.33392C6.81637 7.33392 6.83757 7.32514 6.8532 7.30951C6.86882 7.29388 6.8776 7.27268 6.8776 7.25058L6.83227 3.78125L6.8096 3.95458L6.71094 7.25058C6.71094 7.29725 6.74827 7.33392 6.79427 7.33392Z" fill="white"/>
<path d="M12.5366 6.84686L9.2033 5.59686L9.81797 1.54153C9.84583 1.36865 9.83914 1.19197 9.79829 1.0217C9.75744 0.851423 9.68324 0.690939 9.57997 0.549526C9.47736 0.407646 9.34763 0.287517 9.1983 0.196087C9.04897 0.104657 8.88299 0.0437399 8.70997 0.016859C8.53699 -0.010984 8.36021 -0.00428745 8.18983 0.0365621C8.01945 0.0774117 7.85885 0.151605 7.7173 0.254859C7.57431 0.358573 7.45343 0.489759 7.36174 0.640745C7.27005 0.79173 7.20939 0.959483 7.1833 1.13419L6.81197 3.95419L6.4853 1.79219C6.42938 1.44331 6.2376 1.13077 5.9519 0.922889C5.66619 0.71501 5.30979 0.628711 4.96064 0.682859C4.78735 0.709726 4.62111 0.770697 4.47154 0.862244C4.32198 0.953791 4.19206 1.0741 4.0893 1.21619C3.87997 1.50419 3.79597 1.85619 3.8493 2.19553C3.8493 2.19553 4.39864 7.18619 4.44797 8.24886L4.04664 8.65019C3.76806 8.92877 3.54708 9.25949 3.39632 9.62347C3.24556 9.98745 3.16797 10.3776 3.16797 10.7715V11.9475C3.16797 13.0695 3.60464 14.1709 4.4453 14.9142C5.23731 15.614 6.25776 16.0002 7.31464 16.0002H10.8346C11.2286 16.0002 11.6187 15.9226 11.9827 15.7718C12.3467 15.6211 12.6774 15.4001 12.956 15.1215C13.2345 14.8429 13.4555 14.5122 13.6063 14.1482C13.757 13.7843 13.8346 13.3942 13.8346 13.0002V8.71886C13.8346 8.3117 13.7103 7.91424 13.4784 7.57961C13.2464 7.24498 12.9179 6.98911 12.5366 6.84619V6.84686Z" fill="white"/>
<g opacity="0.1">
<path d="M4.49823 11.9162L4.4449 8.24818L4.04356 8.64952C3.97617 8.7168 3.91209 8.78733 3.85156 8.86085L4.33156 11.9162C4.33156 11.9383 4.34034 11.9595 4.35597 11.9751C4.3716 11.9907 4.39279 11.9995 4.4149 11.9995C4.437 11.9995 4.45819 11.9907 4.47382 11.9751C4.48945 11.9595 4.49823 11.9383 4.49823 11.9162ZM4.4369 8.11752V8.10352L4.43623 8.10418L4.4369 8.11752Z" fill="white"/>
<path opacity="0.4" d="M4.49823 11.9162L4.4449 8.24818L4.04356 8.64952C3.97617 8.7168 3.91209 8.78733 3.85156 8.86085L4.33156 11.9162C4.33156 11.9383 4.34034 11.9595 4.35597 11.9751C4.3716 11.9907 4.39279 11.9995 4.4149 11.9995C4.437 11.9995 4.45819 11.9907 4.47382 11.9751C4.48945 11.9595 4.49823 11.9383 4.49823 11.9162ZM4.4369 8.11752V8.10352L4.43623 8.10418L4.4369 8.11752Z" fill="white"/>
</g>
</g>
<defs>
<clipPath id="clip0_1444_5834">
<rect width="16" height="16" fill="white" transform="translate(0.5)"/>
</clipPath>
</defs>
</svg>
