<svg width="36" height="36" viewBox="0 0 36 36" fill="none" xmlns="http://www.w3.org/2000/svg">
<path fill-rule="evenodd" clip-rule="evenodd" d="M16.434 27.0042C15.9735 27.0042 15.5085 26.9052 15.075 26.7012C14.103 26.2422 13.5 25.3317 13.5 24.3222V11.6832C13.5 10.6737 14.103 9.76316 15.075 9.30416C16.173 8.78666 17.475 8.93816 18.3885 9.69266L26.037 16.0137C26.6505 16.5177 27 17.2437 27 18.0027C27 18.7617 26.6505 19.4877 26.037 19.9917L18.3885 26.3112C17.8365 26.7687 17.1405 27.0042 16.434 27.0042" fill="white"/>
<mask id="mask0_1497_5963" style="mask-type:luminance" maskUnits="userSpaceOnUse" x="13" y="9" width="14" height="19">
<path fill-rule="evenodd" clip-rule="evenodd" d="M16.434 27.0042C15.9735 27.0042 15.5085 26.9052 15.075 26.7012C14.103 26.2422 13.5 25.3317 13.5 24.3222V11.6832C13.5 10.6737 14.103 9.76316 15.075 9.30416C16.173 8.78666 17.475 8.93816 18.3885 9.69266L26.037 16.0137C26.6505 16.5177 27 17.2437 27 18.0027C27 18.7617 26.6505 19.4877 26.037 19.9917L18.3885 26.3112C17.8365 26.7687 17.1405 27.0042 16.434 27.0042" fill="white"/>
</mask>
<g mask="url(#mask0_1497_5963)">
</g>
</svg>
