<svg width="145" height="208" viewBox="0 0 145 208" fill="none" xmlns="http://www.w3.org/2000/svg">
<rect width="145" height="208" rx="18" fill="#122C37"/>
<path d="M28.028 46V37.36H30.782C30.854 37.36 30.996 37.362 31.208 37.366C31.424 37.37 31.632 37.384 31.832 37.408C32.516 37.496 33.094 37.74 33.566 38.14C34.042 38.536 34.402 39.042 34.646 39.658C34.89 40.274 35.012 40.948 35.012 41.68C35.012 42.412 34.89 43.086 34.646 43.702C34.402 44.318 34.042 44.826 33.566 45.226C33.094 45.622 32.516 45.864 31.832 45.952C31.636 45.976 31.43 45.99 31.214 45.994C30.998 45.998 30.854 46 30.782 46H28.028ZM29.498 44.638H30.782C30.902 44.638 31.054 44.634 31.238 44.626C31.426 44.618 31.592 44.6 31.736 44.572C32.144 44.496 32.476 44.314 32.732 44.026C32.988 43.738 33.176 43.388 33.296 42.976C33.42 42.564 33.482 42.132 33.482 41.68C33.482 41.212 33.42 40.772 33.296 40.36C33.172 39.948 32.98 39.602 32.72 39.322C32.464 39.042 32.136 38.864 31.736 38.788C31.592 38.756 31.426 38.738 31.238 38.734C31.054 38.726 30.902 38.722 30.782 38.722H29.498V44.638ZM39.6164 46.18C38.9604 46.18 38.3844 46.038 37.8884 45.754C37.3924 45.47 37.0044 45.076 36.7244 44.572C36.4484 44.068 36.3104 43.488 36.3104 42.832C36.3104 42.124 36.4464 41.51 36.7184 40.99C36.9904 40.466 37.3684 40.06 37.8524 39.772C38.3364 39.484 38.8964 39.34 39.5324 39.34C40.2044 39.34 40.7744 39.498 41.2424 39.814C41.7144 40.126 42.0644 40.568 42.2924 41.14C42.5204 41.712 42.6064 42.386 42.5504 43.162H41.1164V42.634C41.1124 41.93 40.9884 41.416 40.7444 41.092C40.5004 40.768 40.1164 40.606 39.5924 40.606C39.0004 40.606 38.5604 40.79 38.2724 41.158C37.9844 41.522 37.8404 42.056 37.8404 42.76C37.8404 43.416 37.9844 43.924 38.2724 44.284C38.5604 44.644 38.9804 44.824 39.5324 44.824C39.8884 44.824 40.1944 44.746 40.4504 44.59C40.7104 44.43 40.9104 44.2 41.0504 43.9L42.4784 44.332C42.2304 44.916 41.8464 45.37 41.3264 45.694C40.8104 46.018 40.2404 46.18 39.6164 46.18ZM37.3844 43.162V42.07H41.8424V43.162H37.3844ZM44.6931 46V39.418C44.6931 39.254 44.6991 39.074 44.7111 38.878C44.7231 38.678 44.7571 38.48 44.8131 38.284C44.8691 38.088 44.9711 37.91 45.1191 37.75C45.3031 37.546 45.5011 37.406 45.7131 37.33C45.9291 37.25 46.1411 37.206 46.3491 37.198C46.5571 37.186 46.7391 37.18 46.8951 37.18H47.7051V38.356H46.9551C46.6791 38.356 46.4731 38.426 46.3371 38.566C46.2051 38.702 46.1391 38.882 46.1391 39.106V46H44.6931ZM43.6491 40.654V39.52H47.7051V40.654H43.6491ZM48.9651 38.536V37.21H50.4111V38.536H48.9651ZM48.9651 46V39.52H50.4111V46H48.9651ZM56.9371 46V42.88C56.9371 42.676 56.9231 42.45 56.8951 42.202C56.8671 41.954 56.8011 41.716 56.6971 41.488C56.5971 41.256 56.4451 41.066 56.2411 40.918C56.0411 40.77 55.7691 40.696 55.4251 40.696C55.2411 40.696 55.0591 40.726 54.8791 40.786C54.6991 40.846 54.5351 40.95 54.3871 41.098C54.2431 41.242 54.1271 41.442 54.0391 41.698C53.9511 41.95 53.9071 42.274 53.9071 42.67L53.0491 42.304C53.0491 41.752 53.1551 41.252 53.3671 40.804C53.5831 40.356 53.8991 40 54.3151 39.736C54.7311 39.468 55.2431 39.334 55.8511 39.334C56.3311 39.334 56.7271 39.414 57.0391 39.574C57.3511 39.734 57.5991 39.938 57.7831 40.186C57.9671 40.434 58.1031 40.698 58.1911 40.978C58.2791 41.258 58.3351 41.524 58.3591 41.776C58.3871 42.024 58.4011 42.226 58.4011 42.382V46H56.9371ZM52.4431 46V39.52H53.7331V41.53H53.9071V46H52.4431ZM63.0473 46.18C62.3913 46.18 61.8153 46.038 61.3193 45.754C60.8233 45.47 60.4353 45.076 60.1553 44.572C59.8793 44.068 59.7413 43.488 59.7413 42.832C59.7413 42.124 59.8773 41.51 60.1493 40.99C60.4213 40.466 60.7993 40.06 61.2833 39.772C61.7673 39.484 62.3273 39.34 62.9633 39.34C63.6353 39.34 64.2053 39.498 64.6733 39.814C65.1453 40.126 65.4953 40.568 65.7233 41.14C65.9513 41.712 66.0373 42.386 65.9813 43.162H64.5473V42.634C64.5433 41.93 64.4193 41.416 64.1753 41.092C63.9313 40.768 63.5473 40.606 63.0233 40.606C62.4313 40.606 61.9913 40.79 61.7033 41.158C61.4153 41.522 61.2713 42.056 61.2713 42.76C61.2713 43.416 61.4153 43.924 61.7033 44.284C61.9913 44.644 62.4113 44.824 62.9633 44.824C63.3193 44.824 63.6253 44.746 63.8813 44.59C64.1413 44.43 64.3413 44.2 64.4813 43.9L65.9093 44.332C65.6613 44.916 65.2773 45.37 64.7573 45.694C64.2413 46.018 63.6713 46.18 63.0473 46.18ZM60.8153 43.162V42.07H65.2733V43.162H60.8153ZM70.2024 46V37.36H73.7724C73.8564 37.36 73.9644 37.364 74.0964 37.372C74.2284 37.376 74.3504 37.388 74.4624 37.408C74.9624 37.484 75.3744 37.65 75.6984 37.906C76.0264 38.162 76.2684 38.486 76.4244 38.878C76.5844 39.266 76.6644 39.698 76.6644 40.174C76.6644 40.646 76.5844 41.078 76.4244 41.47C76.2644 41.858 76.0204 42.18 75.6924 42.436C75.3684 42.692 74.9584 42.858 74.4624 42.934C74.3504 42.95 74.2264 42.962 74.0904 42.97C73.9584 42.978 73.8524 42.982 73.7724 42.982H71.6484V46H70.2024ZM71.6484 41.632H73.7124C73.7924 41.632 73.8824 41.628 73.9824 41.62C74.0824 41.612 74.1744 41.596 74.2584 41.572C74.4984 41.512 74.6864 41.406 74.8224 41.254C74.9624 41.102 75.0604 40.93 75.1164 40.738C75.1764 40.546 75.2064 40.358 75.2064 40.174C75.2064 39.99 75.1764 39.802 75.1164 39.61C75.0604 39.414 74.9624 39.24 74.8224 39.088C74.6864 38.936 74.4984 38.83 74.2584 38.77C74.1744 38.746 74.0824 38.732 73.9824 38.728C73.8824 38.72 73.7924 38.716 73.7124 38.716H71.6484V41.632ZM78.1065 46V39.52H79.3845V41.098L79.2285 40.894C79.3085 40.678 79.4145 40.482 79.5465 40.306C79.6825 40.126 79.8445 39.978 80.0325 39.862C80.1925 39.754 80.3685 39.67 80.5605 39.61C80.7565 39.546 80.9565 39.508 81.1605 39.496C81.3645 39.48 81.5625 39.488 81.7545 39.52V40.87C81.5625 40.814 81.3405 40.796 81.0885 40.816C80.8405 40.836 80.6165 40.906 80.4165 41.026C80.2165 41.134 80.0525 41.272 79.9245 41.44C79.8005 41.608 79.7085 41.8 79.6485 42.016C79.5885 42.228 79.5585 42.458 79.5585 42.706V46H78.1065ZM85.8843 46.18C85.2363 46.18 84.6703 46.034 84.1863 45.742C83.7023 45.45 83.3263 45.048 83.0583 44.536C82.7943 44.02 82.6623 43.428 82.6623 42.76C82.6623 42.08 82.7983 41.484 83.0703 40.972C83.3423 40.46 83.7203 40.06 84.2043 39.772C84.6883 39.484 85.2483 39.34 85.8843 39.34C86.5363 39.34 87.1043 39.486 87.5883 39.778C88.0723 40.07 88.4483 40.474 88.7163 40.99C88.9843 41.502 89.1183 42.092 89.1183 42.76C89.1183 43.432 88.9823 44.026 88.7103 44.542C88.4423 45.054 88.0663 45.456 87.5823 45.748C87.0983 46.036 86.5323 46.18 85.8843 46.18ZM85.8843 44.824C86.4603 44.824 86.8883 44.632 87.1683 44.248C87.4483 43.864 87.5883 43.368 87.5883 42.76C87.5883 42.132 87.4463 41.632 87.1623 41.26C86.8783 40.884 86.4523 40.696 85.8843 40.696C85.4963 40.696 85.1763 40.784 84.9243 40.96C84.6763 41.132 84.4923 41.374 84.3723 41.686C84.2523 41.994 84.1923 42.352 84.1923 42.76C84.1923 43.388 84.3343 43.89 84.6183 44.266C84.9063 44.638 85.3283 44.824 85.8843 44.824ZM93.2782 46.18C92.6822 46.18 92.1622 46.03 91.7182 45.73C91.2742 45.43 90.9302 45.022 90.6862 44.506C90.4422 43.99 90.3202 43.408 90.3202 42.76C90.3202 42.104 90.4422 41.52 90.6862 41.008C90.9342 40.492 91.2842 40.086 91.7362 39.79C92.1882 39.49 92.7202 39.34 93.3322 39.34C93.9482 39.34 94.4642 39.49 94.8802 39.79C95.3002 40.086 95.6182 40.492 95.8342 41.008C96.0502 41.524 96.1582 42.108 96.1582 42.76C96.1582 43.404 96.0502 43.986 95.8342 44.506C95.6182 45.022 95.2962 45.43 94.8682 45.73C94.4402 46.03 93.9102 46.18 93.2782 46.18ZM93.5002 44.884C93.8882 44.884 94.2002 44.796 94.4362 44.62C94.6762 44.44 94.8502 44.19 94.9582 43.87C95.0702 43.55 95.1262 43.18 95.1262 42.76C95.1262 42.336 95.0702 41.966 94.9582 41.65C94.8502 41.33 94.6802 41.082 94.4482 40.906C94.2162 40.726 93.9162 40.636 93.5482 40.636C93.1602 40.636 92.8402 40.732 92.5882 40.924C92.3362 41.112 92.1502 41.368 92.0302 41.692C91.9102 42.012 91.8502 42.368 91.8502 42.76C91.8502 43.156 91.9082 43.516 92.0242 43.84C92.1442 44.16 92.3262 44.414 92.5702 44.602C92.8142 44.79 93.1242 44.884 93.5002 44.884ZM95.1262 46V41.452H94.9462V37.36H96.4042V46H95.1262ZM100.756 46.186C100.276 46.186 99.8805 46.106 99.5685 45.946C99.2565 45.786 99.0085 45.582 98.8245 45.334C98.6405 45.086 98.5045 44.822 98.4165 44.542C98.3285 44.262 98.2705 43.998 98.2425 43.75C98.2185 43.498 98.2065 43.294 98.2065 43.138V39.52H99.6705V42.64C99.6705 42.84 99.6845 43.066 99.7125 43.318C99.7405 43.566 99.8045 43.806 99.9045 44.038C100.008 44.266 100.16 44.454 100.36 44.602C100.564 44.75 100.838 44.824 101.182 44.824C101.366 44.824 101.548 44.794 101.728 44.734C101.908 44.674 102.07 44.572 102.214 44.428C102.362 44.28 102.48 44.078 102.568 43.822C102.656 43.566 102.7 43.242 102.7 42.85L103.558 43.216C103.558 43.768 103.45 44.268 103.234 44.716C103.022 45.164 102.708 45.522 102.292 45.79C101.876 46.054 101.364 46.186 100.756 46.186ZM102.874 46V43.99H102.7V39.52H104.152V46H102.874ZM108.892 46.18C108.224 46.18 107.654 46.032 107.182 45.736C106.71 45.436 106.348 45.028 106.096 44.512C105.848 43.996 105.722 43.412 105.718 42.76C105.722 42.096 105.852 41.508 106.108 40.996C106.368 40.48 106.736 40.076 107.212 39.784C107.688 39.488 108.254 39.34 108.91 39.34C109.646 39.34 110.268 39.526 110.776 39.898C111.288 40.266 111.622 40.77 111.778 41.41L110.338 41.8C110.226 41.452 110.04 41.182 109.78 40.99C109.52 40.794 109.224 40.696 108.892 40.696C108.516 40.696 108.206 40.786 107.962 40.966C107.718 41.142 107.538 41.386 107.422 41.698C107.306 42.01 107.248 42.364 107.248 42.76C107.248 43.376 107.386 43.874 107.662 44.254C107.938 44.634 108.348 44.824 108.892 44.824C109.276 44.824 109.578 44.736 109.798 44.56C110.022 44.384 110.19 44.13 110.302 43.798L111.778 44.128C111.578 44.788 111.228 45.296 110.728 45.652C110.228 46.004 109.616 46.18 108.892 46.18ZM117.019 46C116.591 46.08 116.171 46.114 115.759 46.102C115.351 46.094 114.985 46.02 114.661 45.88C114.337 45.736 114.091 45.51 113.923 45.202C113.775 44.922 113.697 44.636 113.689 44.344C113.681 44.052 113.677 43.722 113.677 43.354V37.72H115.117V43.27C115.117 43.53 115.119 43.758 115.123 43.954C115.131 44.15 115.173 44.31 115.249 44.434C115.393 44.674 115.623 44.808 115.939 44.836C116.255 44.864 116.615 44.848 117.019 44.788V46ZM112.501 40.654V39.52H117.019V40.654H112.501ZM50.2859 62.18C49.6539 62.18 49.0839 62.07 48.5759 61.85C48.0719 61.63 47.6559 61.316 47.3279 60.908C47.0039 60.496 46.7979 60.008 46.7099 59.444L48.2099 59.216C48.3379 59.728 48.5999 60.124 48.9959 60.404C49.3959 60.684 49.8559 60.824 50.3759 60.824C50.6839 60.824 50.9739 60.776 51.2459 60.68C51.5179 60.584 51.7379 60.444 51.9059 60.26C52.0779 60.076 52.1639 59.85 52.1639 59.582C52.1639 59.462 52.1439 59.352 52.1039 59.252C52.0639 59.148 52.0039 59.056 51.9239 58.976C51.8479 58.896 51.7479 58.824 51.6239 58.76C51.5039 58.692 51.3639 58.634 51.2039 58.586L48.9719 57.926C48.7799 57.87 48.5719 57.796 48.3479 57.704C48.1279 57.608 47.9179 57.478 47.7179 57.314C47.5219 57.146 47.3599 56.934 47.2319 56.678C47.1079 56.418 47.0459 56.098 47.0459 55.718C47.0459 55.162 47.1859 54.696 47.4659 54.32C47.7499 53.94 48.1299 53.656 48.6059 53.468C49.0859 53.28 49.6179 53.188 50.2019 53.192C50.7939 53.196 51.3219 53.298 51.7859 53.498C52.2499 53.694 52.6379 53.98 52.9499 54.356C53.2619 54.732 53.4819 55.186 53.6099 55.718L52.0559 55.988C51.9919 55.684 51.8679 55.426 51.6839 55.214C51.5039 54.998 51.2819 54.834 51.0179 54.722C50.7579 54.61 50.4799 54.55 50.1839 54.542C49.8959 54.538 49.6279 54.582 49.3799 54.674C49.1359 54.762 48.9379 54.89 48.7859 55.058C48.6379 55.226 48.5639 55.422 48.5639 55.646C48.5639 55.858 48.6279 56.032 48.7559 56.168C48.8839 56.3 49.0419 56.406 49.2299 56.486C49.4219 56.562 49.6159 56.626 49.8119 56.678L51.3599 57.11C51.5719 57.166 51.8099 57.242 52.0739 57.338C52.3379 57.434 52.5919 57.568 52.8359 57.74C53.0799 57.912 53.2799 58.138 53.4359 58.418C53.5959 58.698 53.6759 59.054 53.6759 59.486C53.6759 59.934 53.5819 60.328 53.3939 60.668C53.2099 61.004 52.9599 61.284 52.6439 61.508C52.3279 61.732 51.9659 61.9 51.5579 62.012C51.1539 62.124 50.7299 62.18 50.2859 62.18ZM59.0126 62C58.5846 62.08 58.1646 62.114 57.7526 62.102C57.3446 62.094 56.9786 62.02 56.6546 61.88C56.3306 61.736 56.0846 61.51 55.9166 61.202C55.7686 60.922 55.6906 60.636 55.6826 60.344C55.6746 60.052 55.6706 59.722 55.6706 59.354V53.72H57.1106V59.27C57.1106 59.53 57.1126 59.758 57.1166 59.954C57.1246 60.15 57.1666 60.31 57.2426 60.434C57.3866 60.674 57.6166 60.808 57.9326 60.836C58.2486 60.864 58.6086 60.848 59.0126 60.788V62ZM54.4946 56.654V55.52H59.0126V56.654H54.4946ZM60.646 62V55.52H61.924V57.098L61.768 56.894C61.848 56.678 61.954 56.482 62.086 56.306C62.222 56.126 62.384 55.978 62.572 55.862C62.732 55.754 62.908 55.67 63.1 55.61C63.296 55.546 63.496 55.508 63.7 55.496C63.904 55.48 64.102 55.488 64.294 55.52V56.87C64.102 56.814 63.88 56.796 63.628 56.816C63.38 56.836 63.156 56.906 62.956 57.026C62.756 57.134 62.592 57.272 62.464 57.44C62.34 57.608 62.248 57.8 62.188 58.016C62.128 58.228 62.098 58.458 62.098 58.706V62H60.646ZM67.3386 62.18C66.8706 62.18 66.4746 62.092 66.1506 61.916C65.8266 61.736 65.5806 61.498 65.4126 61.202C65.2486 60.906 65.1666 60.58 65.1666 60.224C65.1666 59.912 65.2186 59.632 65.3226 59.384C65.4266 59.132 65.5866 58.916 65.8026 58.736C66.0186 58.552 66.2986 58.402 66.6426 58.286C66.9026 58.202 67.2066 58.126 67.5546 58.058C67.9066 57.99 68.2866 57.928 68.6946 57.872C69.1066 57.812 69.5366 57.748 69.9846 57.68L69.4686 57.974C69.4726 57.526 69.3726 57.196 69.1686 56.984C68.9646 56.772 68.6206 56.666 68.1366 56.666C67.8446 56.666 67.5626 56.734 67.2906 56.87C67.0186 57.006 66.8286 57.24 66.7206 57.572L65.4006 57.158C65.5606 56.61 65.8646 56.17 66.3126 55.838C66.7646 55.506 67.3726 55.34 68.1366 55.34C68.7126 55.34 69.2186 55.434 69.6546 55.622C70.0946 55.81 70.4206 56.118 70.6326 56.546C70.7486 56.774 70.8186 57.008 70.8426 57.248C70.8666 57.484 70.8786 57.742 70.8786 58.022V62H69.6126V60.596L69.8226 60.824C69.5306 61.292 69.1886 61.636 68.7966 61.856C68.4086 62.072 67.9226 62.18 67.3386 62.18ZM67.6266 61.028C67.9546 61.028 68.2346 60.97 68.4666 60.854C68.6986 60.738 68.8826 60.596 69.0186 60.428C69.1586 60.26 69.2526 60.102 69.3006 59.954C69.3766 59.77 69.4186 59.56 69.4266 59.324C69.4386 59.084 69.4446 58.89 69.4446 58.742L69.8886 58.874C69.4526 58.942 69.0786 59.002 68.7666 59.054C68.4546 59.106 68.1866 59.156 67.9626 59.204C67.7386 59.248 67.5406 59.298 67.3686 59.354C67.2006 59.414 67.0586 59.484 66.9426 59.564C66.8266 59.644 66.7366 59.736 66.6726 59.84C66.6126 59.944 66.5826 60.066 66.5826 60.206C66.5826 60.366 66.6226 60.508 66.7026 60.632C66.7826 60.752 66.8986 60.848 67.0506 60.92C67.2066 60.992 67.3986 61.028 67.6266 61.028ZM76.4787 62C76.0507 62.08 75.6307 62.114 75.2187 62.102C74.8107 62.094 74.4447 62.02 74.1207 61.88C73.7967 61.736 73.5507 61.51 73.3827 61.202C73.2347 60.922 73.1567 60.636 73.1487 60.344C73.1407 60.052 73.1367 59.722 73.1367 59.354V53.72H74.5767V59.27C74.5767 59.53 74.5787 59.758 74.5827 59.954C74.5907 60.15 74.6327 60.31 74.7087 60.434C74.8527 60.674 75.0827 60.808 75.3987 60.836C75.7147 60.864 76.0747 60.848 76.4787 60.788V62ZM71.9607 56.654V55.52H76.4787V56.654H71.9607ZM80.73 62.18C80.074 62.18 79.498 62.038 79.002 61.754C78.506 61.47 78.118 61.076 77.838 60.572C77.562 60.068 77.424 59.488 77.424 58.832C77.424 58.124 77.56 57.51 77.832 56.99C78.104 56.466 78.482 56.06 78.966 55.772C79.45 55.484 80.01 55.34 80.646 55.34C81.318 55.34 81.888 55.498 82.356 55.814C82.828 56.126 83.178 56.568 83.406 57.14C83.634 57.712 83.72 58.386 83.664 59.162H82.23V58.634C82.226 57.93 82.102 57.416 81.858 57.092C81.614 56.768 81.23 56.606 80.706 56.606C80.114 56.606 79.674 56.79 79.386 57.158C79.098 57.522 78.954 58.056 78.954 58.76C78.954 59.416 79.098 59.924 79.386 60.284C79.674 60.644 80.094 60.824 80.646 60.824C81.002 60.824 81.308 60.746 81.564 60.59C81.824 60.43 82.024 60.2 82.164 59.9L83.592 60.332C83.344 60.916 82.96 61.37 82.44 61.694C81.924 62.018 81.354 62.18 80.73 62.18ZM78.498 59.162V58.07H82.956V59.162H78.498ZM87.9667 65.06C87.6067 65.06 87.2607 65.004 86.9287 64.892C86.6007 64.78 86.3047 64.618 86.0407 64.406C85.7767 64.198 85.5607 63.946 85.3927 63.65L86.7247 62.99C86.8487 63.226 87.0227 63.4 87.2467 63.512C87.4747 63.628 87.7167 63.686 87.9727 63.686C88.2727 63.686 88.5407 63.632 88.7767 63.524C89.0127 63.42 89.1947 63.264 89.3227 63.056C89.4547 62.852 89.5167 62.596 89.5087 62.288V60.446H89.6887V55.52H90.9547V62.312C90.9547 62.476 90.9467 62.632 90.9307 62.78C90.9187 62.932 90.8967 63.08 90.8647 63.224C90.7687 63.644 90.5847 63.988 90.3127 64.256C90.0407 64.528 89.7027 64.73 89.2987 64.862C88.8987 64.994 88.4547 65.06 87.9667 65.06ZM87.8407 62.18C87.2447 62.18 86.7247 62.03 86.2807 61.73C85.8367 61.43 85.4927 61.022 85.2487 60.506C85.0047 59.99 84.8827 59.408 84.8827 58.76C84.8827 58.104 85.0047 57.52 85.2487 57.008C85.4967 56.492 85.8467 56.086 86.2987 55.79C86.7507 55.49 87.2827 55.34 87.8947 55.34C88.5107 55.34 89.0267 55.49 89.4427 55.79C89.8627 56.086 90.1807 56.492 90.3967 57.008C90.6127 57.524 90.7207 58.108 90.7207 58.76C90.7207 59.404 90.6127 59.986 90.3967 60.506C90.1807 61.022 89.8587 61.43 89.4307 61.73C89.0027 62.03 88.4727 62.18 87.8407 62.18ZM88.0627 60.884C88.4507 60.884 88.7627 60.796 88.9987 60.62C89.2387 60.44 89.4127 60.19 89.5207 59.87C89.6327 59.55 89.6887 59.18 89.6887 58.76C89.6887 58.336 89.6327 57.966 89.5207 57.65C89.4127 57.33 89.2427 57.082 89.0107 56.906C88.7787 56.726 88.4787 56.636 88.1107 56.636C87.7227 56.636 87.4027 56.732 87.1507 56.924C86.8987 57.112 86.7127 57.368 86.5927 57.692C86.4727 58.012 86.4127 58.368 86.4127 58.76C86.4127 59.156 86.4707 59.516 86.5867 59.84C86.7067 60.16 86.8887 60.414 87.1327 60.602C87.3767 60.79 87.6867 60.884 88.0627 60.884ZM93.7293 64.88L94.9773 61.454L95.0013 62.462L92.1753 55.52H93.6813L95.6853 60.656H95.3013L97.2513 55.52H98.6973L95.0853 64.88H93.7293Z" fill="white"/>
<path d="M115.5 94L108.332 103.052L104.076 92.3182L115.5 94ZM36.3333 181C36.3333 183.946 33.9455 186.333 31 186.333C28.0545 186.333 25.6667 183.946 25.6667 181C25.6667 178.054 28.0545 175.667 31 175.667C33.9455 175.667 36.3333 178.054 36.3333 181ZM105.036 99.7516C102.578 101.051 100.334 102.403 98.2782 103.8L97.1539 102.146C99.2734 100.705 101.581 99.3153 104.101 97.9834L105.036 99.7516ZM92.0981 108.608C90.062 110.425 88.2643 112.299 86.6616 114.216L85.1272 112.933C86.7912 110.943 88.6564 108.999 90.7664 107.116L92.0981 108.608ZM82.0963 120.561C80.6942 122.831 79.4812 125.142 78.3948 127.477L76.5814 126.634C77.6951 124.24 78.9446 121.857 80.3948 119.51L82.0963 120.561ZM75.368 134.764C74.4258 137.264 73.5566 139.761 72.6794 142.249L70.7932 141.584C71.6666 139.107 72.5448 136.585 73.4964 134.059L75.368 134.764ZM69.905 149.764C68.908 152.267 67.822 154.727 66.5635 157.112L64.7947 156.178C66.0105 153.875 67.0674 151.483 68.0469 149.024L69.905 149.764ZM62.2136 163.972C60.613 166.065 58.7829 168.061 56.652 169.933L55.3318 168.431C57.3586 166.65 59.0997 164.752 60.6248 162.757L62.2136 163.972ZM50.0557 174.708C47.8787 176.005 45.4745 177.207 42.8087 178.304L42.0477 176.454C44.6291 175.392 46.9449 174.233 49.0322 172.99L50.0557 174.708ZM35.1755 180.938C33.9092 181.302 32.5956 181.647 31.2326 181.973L30.7674 180.027C32.1026 179.708 33.3872 179.371 34.6236 179.016L35.1755 180.938Z" fill="#BDC5D1"/>
<circle cx="105" cy="156" r="14" fill="#EAF6EC" fill-opacity="0.1"/>
<path fill-rule="evenodd" clip-rule="evenodd" d="M108.078 159.098L105.438 156.478L108.078 153.858C108.322 153.617 108.321 153.226 108.078 152.985C107.835 152.744 107.442 152.744 107.198 152.985L104.558 155.605L101.919 152.985C101.676 152.744 101.282 152.744 101.039 152.985C100.795 153.226 100.796 153.617 101.039 153.858L103.678 156.478L101.038 159.098C100.795 159.339 100.796 159.73 101.038 159.971C101.281 160.212 101.675 160.212 101.918 159.971L104.558 157.351L107.198 159.971C107.441 160.212 107.835 160.213 108.078 159.971C108.321 159.73 108.321 159.339 108.078 159.098Z" fill="#231F20"/>
<mask id="mask0_1247_5979" style="mask-type:luminance" maskUnits="userSpaceOnUse" x="100" y="152" width="9" height="9">
<path fill-rule="evenodd" clip-rule="evenodd" d="M108.078 159.098L105.438 156.478L108.078 153.858C108.322 153.617 108.321 153.226 108.078 152.985C107.835 152.744 107.442 152.744 107.198 152.985L104.558 155.605L101.919 152.985C101.676 152.744 101.282 152.744 101.039 152.985C100.795 153.226 100.796 153.617 101.039 153.858L103.678 156.478L101.038 159.098C100.795 159.339 100.796 159.73 101.038 159.971C101.281 160.212 101.675 160.212 101.918 159.971L104.558 157.351L107.198 159.971C107.441 160.212 107.835 160.213 108.078 159.971C108.321 159.73 108.321 159.339 108.078 159.098Z" fill="white"/>
</mask>
<g mask="url(#mask0_1247_5979)">
<rect width="14.8764" height="14.8764" transform="matrix(0.709789 0.704415 -0.709839 0.704364 104.559 146)" fill="#48BF84"/>
</g>
<circle cx="31" cy="142" r="14" fill="#E9F9FF" fill-opacity="0.1"/>
<path fill-rule="evenodd" clip-rule="evenodd" d="M34.0781 145.098L31.4383 142.478L34.0783 139.858C34.3216 139.617 34.3211 139.226 34.0783 138.985C33.8354 138.744 33.4417 138.744 33.1983 138.985L30.5584 141.605L27.9186 138.985C27.6757 138.744 27.282 138.744 27.0386 138.985C26.7953 139.226 26.7958 139.617 27.0386 139.858L29.6784 142.478L27.0384 145.098C26.7951 145.339 26.7955 145.73 27.0384 145.971C27.2813 146.212 27.675 146.212 27.9184 145.971L30.5583 143.351L33.1981 145.971C33.4409 146.212 33.8347 146.213 34.078 145.971C34.3214 145.73 34.3209 145.339 34.0781 145.098Z" fill="#231F20"/>
<mask id="mask1_1247_5979" style="mask-type:luminance" maskUnits="userSpaceOnUse" x="26" y="138" width="9" height="9">
<path fill-rule="evenodd" clip-rule="evenodd" d="M34.0781 145.098L31.4383 142.478L34.0783 139.858C34.3216 139.617 34.3211 139.226 34.0783 138.985C33.8354 138.744 33.4417 138.744 33.1983 138.985L30.5584 141.605L27.9186 138.985C27.6757 138.744 27.282 138.744 27.0386 138.985C26.7953 139.226 26.7958 139.617 27.0386 139.858L29.6784 142.478L27.0384 145.098C26.7951 145.339 26.7955 145.73 27.0384 145.971C27.2813 146.212 27.675 146.212 27.9184 145.971L30.5583 143.351L33.1981 145.971C33.4409 146.212 33.8347 146.213 34.078 145.971C34.3214 145.73 34.3209 145.339 34.0781 145.098Z" fill="white"/>
</mask>
<g mask="url(#mask1_1247_5979)">
<rect width="14.8764" height="14.8764" transform="matrix(0.709789 0.704415 -0.709839 0.704364 30.5586 132)" fill="#0071CE"/>
</g>
<circle cx="56" cy="95" r="14" fill="#FFEFF3" fill-opacity="0.1"/>
<path fill-rule="evenodd" clip-rule="evenodd" d="M59.0781 98.0979L56.4383 95.4781L59.0783 92.8585C59.3216 92.617 59.3211 92.2263 59.0783 91.9852C58.8354 91.7442 58.4417 91.7438 58.1983 91.9852L55.5584 94.6048L52.9186 91.985C52.6757 91.744 52.282 91.7435 52.0386 91.985C51.7953 92.2264 51.7958 92.6172 52.0386 92.8582L54.6784 95.478L52.0384 98.0976C51.7951 98.339 51.7955 98.7298 52.0384 98.9708C52.2813 99.2119 52.675 99.2123 52.9184 98.9709L55.5583 96.3513L58.1981 98.9711C58.4409 99.2121 58.8347 99.2125 59.078 98.9711C59.3214 98.7296 59.3209 98.3389 59.0781 98.0979Z" fill="#231F20"/>
<mask id="mask2_1247_5979" style="mask-type:luminance" maskUnits="userSpaceOnUse" x="51" y="91" width="9" height="9">
<path fill-rule="evenodd" clip-rule="evenodd" d="M59.0781 98.0979L56.4383 95.4781L59.0783 92.8585C59.3216 92.617 59.3211 92.2263 59.0783 91.9852C58.8354 91.7442 58.4417 91.7438 58.1983 91.9852L55.5584 94.6048L52.9186 91.985C52.6757 91.744 52.282 91.7435 52.0386 91.985C51.7953 92.2264 51.7958 92.6172 52.0386 92.8582L54.6784 95.478L52.0384 98.0976C51.7951 98.339 51.7955 98.7298 52.0384 98.9708C52.2813 99.2119 52.675 99.2123 52.9184 98.9709L55.5583 96.3513L58.1981 98.9711C58.4409 99.2121 58.8347 99.2125 59.078 98.9711C59.3214 98.7296 59.3209 98.3389 59.0781 98.0979Z" fill="white"/>
</mask>
<g mask="url(#mask2_1247_5979)">
<rect width="14.8764" height="14.8764" transform="matrix(0.709789 0.704415 -0.709839 0.704364 55.5586 85)" fill="#FF5582"/>
</g>
</svg>
