<svg width="61" height="11" viewBox="0 0 61 11" fill="none" xmlns="http://www.w3.org/2000/svg">
<g clip-path="url(#clip0_1237_5803)">
<mask id="mask0_1237_5803" style="mask-type:luminance" maskUnits="userSpaceOnUse" x="-4" y="-5" width="70" height="21">
<path d="M-3.79883 -4.67148H65.3955V15.3301H-3.79883V-4.67148Z" fill="white"/>
</mask>
<g mask="url(#mask0_1237_5803)">
<path d="M57.7627 4.72219V6.08347H58.6419V7.43409C58.6446 7.55478 58.6386 7.68494 58.6195 7.78909C58.5846 8.04102 58.3646 8.46997 57.7406 8.46997C57.1203 8.46997 56.9043 8.04102 56.8668 7.78909C56.8511 7.68494 56.8444 7.55478 56.8444 7.43409V3.16818C56.8444 3.01729 56.8537 2.85213 56.8831 2.72712C56.9258 2.49976 57.1109 2.0514 57.736 2.0514C58.3921 2.0514 58.5558 2.52409 58.5934 2.72712C58.6181 2.8616 58.6195 3.08716 58.6195 3.08716V3.60516H60.7797V3.29894C60.7797 3.29894 60.7895 2.97941 60.7633 2.68122C60.6009 0.930298 59.2752 0.37634 57.755 0.37634C56.2321 0.37634 54.9332 0.935452 54.744 2.68122C54.7269 2.84086 54.7008 3.12803 54.7008 3.29894V7.22315C54.7008 7.39405 54.7059 7.52637 54.735 7.83871C54.876 9.54145 56.2321 10.145 57.749 10.145C59.2752 10.145 60.622 9.54145 60.7654 7.83871C60.7908 7.52637 60.7935 7.39405 60.7969 7.22315V4.72219H57.7627ZM42.8679 0.62743H40.6986V7.53248C40.702 7.65282 40.6986 7.78801 40.6795 7.88713C40.6343 8.11892 40.4537 8.56501 39.8552 8.56501C39.2645 8.56501 39.0792 8.11892 39.0373 7.88713C39.0156 7.78801 39.0129 7.65282 39.0156 7.53248V0.62743H36.847V7.31819C36.8442 7.49066 36.8567 7.84302 36.866 7.93531C37.0157 9.6788 38.2785 10.2449 39.8552 10.2449C41.4351 10.2449 42.6971 9.6788 42.8495 7.93531C42.8615 7.84302 42.8773 7.49066 42.8679 7.31819V0.62743ZM22.9358 0.62743L21.8537 7.92356L20.7722 0.62743H17.273L17.0874 9.96129H19.2312L19.2892 1.32066L20.7642 9.96129H22.9392L24.4156 1.32066L24.4738 9.96129H26.623L26.4311 0.62743H22.9358ZM9.97993 0.62743L8.39104 9.96129H10.7081L11.9054 1.32066L13.074 9.96129H15.3749L13.7927 0.62743H9.97993ZM50.4493 8.14229L48.4293 0.62743H45.2463V9.86397H47.3519L47.2297 2.10869L49.399 9.86397H52.4518V0.62743H50.3323L50.4493 8.14229ZM30.9723 3.0566C30.9342 2.87227 30.9452 2.67643 30.9649 2.57407C31.0263 2.27528 31.2108 1.9494 31.7423 1.9494C32.2377 1.9494 32.5282 2.28547 32.5282 2.78981V3.36054H34.6429V2.70998C34.6429 0.698862 32.9859 0.382932 31.7863 0.382932C30.2754 0.382932 29.0415 0.924904 28.8161 2.43816C28.7565 2.84997 28.7418 3.21552 28.8366 3.68199C29.204 5.56882 32.2226 6.11619 32.6608 7.30944C32.7381 7.53548 32.716 7.82373 32.6765 7.99356C32.6109 8.30409 32.4189 8.61643 31.8498 8.61643C31.3161 8.61643 30.9948 8.28252 30.9948 7.77926L30.9941 6.88348H28.718V7.59553C28.718 9.65879 30.2031 10.2813 31.8027 10.2813C33.3346 10.2813 34.5999 9.71164 34.8029 8.16746C34.8997 7.36961 34.8267 6.84993 34.7878 6.65421C34.4332 4.71895 31.2158 4.13683 30.9723 3.0566ZM3.07678 3.03371C3.03525 2.84554 3.04494 2.64694 3.06807 2.54339C3.12667 2.24604 3.31225 1.9144 3.85315 1.9144C4.35484 1.9144 4.65024 2.25371 4.65024 2.76212V3.33981H6.78971V2.6841C6.78971 0.653679 5.10743 0.330076 3.89468 0.330076C2.37111 0.330076 1.12619 0.880439 0.898424 2.4046C0.836085 2.82301 0.825398 3.19107 0.915492 3.66269C1.28689 5.57098 4.33535 6.12278 4.77888 7.33029C4.86193 7.55478 4.83682 7.84302 4.79562 8.01944C4.72524 8.33322 4.53173 8.64999 3.9579 8.64999C3.42207 8.64999 3.10156 8.31033 3.10156 7.80011L3.09858 6.90194H0.796875V7.61566C0.796875 9.70253 2.30304 10.3301 3.91505 10.3301C5.46484 10.3301 6.7375 9.75539 6.94512 8.19335C7.04832 7.38818 6.9709 6.86419 6.93609 6.66547C6.57406 4.70649 3.32096 4.12628 3.07678 3.03371Z" fill="#1428A0"/>
</g>
</g>
<defs>
<clipPath id="clip0_1237_5803">
<rect width="60" height="10" fill="white" transform="translate(0.796875 0.330078)"/>
</clipPath>
</defs>
</svg>
