<svg width="145" height="228" viewBox="0 0 145 228" fill="none" xmlns="http://www.w3.org/2000/svg">
<rect width="145" height="228" rx="18" fill="#122C37"/>
<path d="M30.8777 182V173.36H33.6317C33.7037 173.36 33.8457 173.362 34.0577 173.366C34.2737 173.37 34.4817 173.384 34.6817 173.408C35.3657 173.496 35.9437 173.74 36.4157 174.14C36.8917 174.536 37.2517 175.042 37.4957 175.658C37.7397 176.274 37.8617 176.948 37.8617 177.68C37.8617 178.412 37.7397 179.086 37.4957 179.702C37.2517 180.318 36.8917 180.826 36.4157 181.226C35.9437 181.622 35.3657 181.864 34.6817 181.952C34.4857 181.976 34.2797 181.99 34.0637 181.994C33.8477 181.998 33.7037 182 33.6317 182H30.8777ZM32.3477 180.638H33.6317C33.7517 180.638 33.9037 180.634 34.0877 180.626C34.2757 180.618 34.4417 180.6 34.5857 180.572C34.9937 180.496 35.3257 180.314 35.5817 180.026C35.8377 179.738 36.0257 179.388 36.1457 178.976C36.2697 178.564 36.3317 178.132 36.3317 177.68C36.3317 177.212 36.2697 176.772 36.1457 176.36C36.0217 175.948 35.8297 175.602 35.5697 175.322C35.3137 175.042 34.9857 174.864 34.5857 174.788C34.4417 174.756 34.2757 174.738 34.0877 174.734C33.9037 174.726 33.7517 174.722 33.6317 174.722H32.3477V180.638ZM42.466 182.18C41.81 182.18 41.234 182.038 40.738 181.754C40.242 181.47 39.854 181.076 39.574 180.572C39.298 180.068 39.16 179.488 39.16 178.832C39.16 178.124 39.296 177.51 39.568 176.99C39.84 176.466 40.218 176.06 40.702 175.772C41.186 175.484 41.746 175.34 42.382 175.34C43.054 175.34 43.624 175.498 44.092 175.814C44.564 176.126 44.914 176.568 45.142 177.14C45.37 177.712 45.456 178.386 45.4 179.162H43.966V178.634C43.962 177.93 43.838 177.416 43.594 177.092C43.35 176.768 42.966 176.606 42.442 176.606C41.85 176.606 41.41 176.79 41.122 177.158C40.834 177.522 40.69 178.056 40.69 178.76C40.69 179.416 40.834 179.924 41.122 180.284C41.41 180.644 41.83 180.824 42.382 180.824C42.738 180.824 43.044 180.746 43.3 180.59C43.56 180.43 43.76 180.2 43.9 179.9L45.328 180.332C45.08 180.916 44.696 181.37 44.176 181.694C43.66 182.018 43.09 182.18 42.466 182.18ZM40.234 179.162V178.07H44.692V179.162H40.234ZM49.4807 182.18C48.6807 182.18 48.0307 182 47.5307 181.64C47.0307 181.28 46.7267 180.774 46.6187 180.122L48.0947 179.894C48.1707 180.214 48.3387 180.466 48.5987 180.65C48.8587 180.834 49.1867 180.926 49.5827 180.926C49.9307 180.926 50.1987 180.858 50.3867 180.722C50.5787 180.582 50.6747 180.392 50.6747 180.152C50.6747 180.004 50.6387 179.886 50.5667 179.798C50.4987 179.706 50.3467 179.618 50.1107 179.534C49.8747 179.45 49.5127 179.344 49.0247 179.216C48.4807 179.072 48.0487 178.918 47.7287 178.754C47.4087 178.586 47.1787 178.388 47.0387 178.16C46.8987 177.932 46.8287 177.656 46.8287 177.332C46.8287 176.928 46.9347 176.576 47.1467 176.276C47.3587 175.976 47.6547 175.746 48.0347 175.586C48.4147 175.422 48.8627 175.34 49.3787 175.34C49.8827 175.34 50.3287 175.418 50.7167 175.574C51.1087 175.73 51.4247 175.952 51.6647 176.24C51.9047 176.528 52.0527 176.866 52.1087 177.254L50.6327 177.518C50.5967 177.242 50.4707 177.024 50.2547 176.864C50.0427 176.704 49.7587 176.614 49.4027 176.594C49.0627 176.574 48.7887 176.626 48.5807 176.75C48.3727 176.87 48.2687 177.04 48.2687 177.26C48.2687 177.384 48.3107 177.49 48.3947 177.578C48.4787 177.666 48.6467 177.754 48.8987 177.842C49.1547 177.93 49.5347 178.038 50.0387 178.166C50.5547 178.298 50.9667 178.45 51.2747 178.622C51.5867 178.79 51.8107 178.992 51.9467 179.228C52.0867 179.464 52.1567 179.75 52.1567 180.086C52.1567 180.738 51.9187 181.25 51.4427 181.622C50.9707 181.994 50.3167 182.18 49.4807 182.18ZM53.8309 174.536V173.21H55.2769V174.536H53.8309ZM53.8309 182V175.52H55.2769V182H53.8309ZM60.0382 185.06C59.6782 185.06 59.3322 185.004 59.0002 184.892C58.6722 184.78 58.3762 184.618 58.1122 184.406C57.8482 184.198 57.6322 183.946 57.4642 183.65L58.7962 182.99C58.9202 183.226 59.0942 183.4 59.3182 183.512C59.5462 183.628 59.7882 183.686 60.0442 183.686C60.3442 183.686 60.6122 183.632 60.8482 183.524C61.0842 183.42 61.2662 183.264 61.3942 183.056C61.5262 182.852 61.5882 182.596 61.5802 182.288V180.446H61.7602V175.52H63.0262V182.312C63.0262 182.476 63.0182 182.632 63.0022 182.78C62.9902 182.932 62.9682 183.08 62.9362 183.224C62.8402 183.644 62.6562 183.988 62.3842 184.256C62.1122 184.528 61.7742 184.73 61.3702 184.862C60.9702 184.994 60.5262 185.06 60.0382 185.06ZM59.9122 182.18C59.3162 182.18 58.7962 182.03 58.3522 181.73C57.9082 181.43 57.5642 181.022 57.3202 180.506C57.0762 179.99 56.9542 179.408 56.9542 178.76C56.9542 178.104 57.0762 177.52 57.3202 177.008C57.5682 176.492 57.9182 176.086 58.3702 175.79C58.8222 175.49 59.3542 175.34 59.9662 175.34C60.5822 175.34 61.0982 175.49 61.5142 175.79C61.9342 176.086 62.2522 176.492 62.4682 177.008C62.6842 177.524 62.7922 178.108 62.7922 178.76C62.7922 179.404 62.6842 179.986 62.4682 180.506C62.2522 181.022 61.9302 181.43 61.5022 181.73C61.0742 182.03 60.5442 182.18 59.9122 182.18ZM60.1342 180.884C60.5222 180.884 60.8342 180.796 61.0702 180.62C61.3102 180.44 61.4842 180.19 61.5922 179.87C61.7042 179.55 61.7602 179.18 61.7602 178.76C61.7602 178.336 61.7042 177.966 61.5922 177.65C61.4842 177.33 61.3142 177.082 61.0822 176.906C60.8502 176.726 60.5502 176.636 60.1822 176.636C59.7942 176.636 59.4742 176.732 59.2222 176.924C58.9702 177.112 58.7842 177.368 58.6642 177.692C58.5442 178.012 58.4842 178.368 58.4842 178.76C58.4842 179.156 58.5422 179.516 58.6582 179.84C58.7782 180.16 58.9602 180.414 59.2042 180.602C59.4482 180.79 59.7582 180.884 60.1342 180.884ZM69.4307 182V178.88C69.4307 178.676 69.4167 178.45 69.3887 178.202C69.3607 177.954 69.2947 177.716 69.1907 177.488C69.0907 177.256 68.9387 177.066 68.7347 176.918C68.5347 176.77 68.2627 176.696 67.9187 176.696C67.7347 176.696 67.5527 176.726 67.3727 176.786C67.1927 176.846 67.0287 176.95 66.8807 177.098C66.7367 177.242 66.6207 177.442 66.5327 177.698C66.4447 177.95 66.4007 178.274 66.4007 178.67L65.5427 178.304C65.5427 177.752 65.6487 177.252 65.8607 176.804C66.0767 176.356 66.3927 176 66.8087 175.736C67.2247 175.468 67.7367 175.334 68.3447 175.334C68.8247 175.334 69.2207 175.414 69.5327 175.574C69.8447 175.734 70.0927 175.938 70.2767 176.186C70.4607 176.434 70.5967 176.698 70.6847 176.978C70.7727 177.258 70.8287 177.524 70.8527 177.776C70.8807 178.024 70.8947 178.226 70.8947 178.382V182H69.4307ZM64.9367 182V175.52H66.2267V177.53H66.4007V182H64.9367ZM78.5408 182.18C77.9088 182.18 77.3388 182.07 76.8308 181.85C76.3268 181.63 75.9108 181.316 75.5828 180.908C75.2588 180.496 75.0528 180.008 74.9648 179.444L76.4648 179.216C76.5928 179.728 76.8548 180.124 77.2508 180.404C77.6508 180.684 78.1108 180.824 78.6308 180.824C78.9388 180.824 79.2288 180.776 79.5008 180.68C79.7728 180.584 79.9928 180.444 80.1608 180.26C80.3328 180.076 80.4188 179.85 80.4188 179.582C80.4188 179.462 80.3988 179.352 80.3588 179.252C80.3188 179.148 80.2588 179.056 80.1788 178.976C80.1028 178.896 80.0028 178.824 79.8788 178.76C79.7588 178.692 79.6188 178.634 79.4588 178.586L77.2268 177.926C77.0348 177.87 76.8268 177.796 76.6028 177.704C76.3828 177.608 76.1728 177.478 75.9728 177.314C75.7768 177.146 75.6148 176.934 75.4868 176.678C75.3628 176.418 75.3008 176.098 75.3008 175.718C75.3008 175.162 75.4408 174.696 75.7208 174.32C76.0048 173.94 76.3848 173.656 76.8608 173.468C77.3408 173.28 77.8728 173.188 78.4568 173.192C79.0488 173.196 79.5768 173.298 80.0408 173.498C80.5048 173.694 80.8928 173.98 81.2048 174.356C81.5168 174.732 81.7368 175.186 81.8648 175.718L80.3108 175.988C80.2468 175.684 80.1228 175.426 79.9388 175.214C79.7588 174.998 79.5368 174.834 79.2728 174.722C79.0128 174.61 78.7348 174.55 78.4388 174.542C78.1508 174.538 77.8828 174.582 77.6348 174.674C77.3908 174.762 77.1928 174.89 77.0408 175.058C76.8928 175.226 76.8188 175.422 76.8188 175.646C76.8188 175.858 76.8828 176.032 77.0108 176.168C77.1388 176.3 77.2968 176.406 77.4848 176.486C77.6768 176.562 77.8708 176.626 78.0668 176.678L79.6148 177.11C79.8268 177.166 80.0648 177.242 80.3288 177.338C80.5928 177.434 80.8468 177.568 81.0908 177.74C81.3348 177.912 81.5348 178.138 81.6908 178.418C81.8508 178.698 81.9308 179.054 81.9308 179.486C81.9308 179.934 81.8368 180.328 81.6488 180.668C81.4648 181.004 81.2148 181.284 80.8988 181.508C80.5828 181.732 80.2208 181.9 79.8128 182.012C79.4088 182.124 78.9848 182.18 78.5408 182.18ZM83.5895 174.536V173.21H85.0355V174.536H83.5895ZM83.5895 182V175.52H85.0355V182H83.5895ZM94.8548 182V178.064C94.8548 177.62 94.7448 177.274 94.5248 177.026C94.3048 176.774 94.0068 176.648 93.6308 176.648C93.3988 176.648 93.1908 176.702 93.0068 176.81C92.8228 176.914 92.6768 177.07 92.5688 177.278C92.4608 177.482 92.4068 177.726 92.4068 178.01L91.7648 177.632C91.7608 177.184 91.8608 176.79 92.0648 176.45C92.2728 176.106 92.5528 175.838 92.9048 175.646C93.2568 175.454 93.6488 175.358 94.0808 175.358C94.7968 175.358 95.3448 175.574 95.7248 176.006C96.1088 176.434 96.3008 176.998 96.3008 177.698V182H94.8548ZM87.0608 182V175.52H88.3388V177.53H88.5188V182H87.0608ZM90.9668 182V178.082C90.9668 177.63 90.8568 177.278 90.6368 177.026C90.4168 176.774 90.1168 176.648 89.7368 176.648C89.3688 176.648 89.0728 176.774 88.8488 177.026C88.6288 177.278 88.5188 177.606 88.5188 178.01L87.8708 177.578C87.8708 177.158 87.9748 176.78 88.1828 176.444C88.3908 176.108 88.6708 175.844 89.0228 175.652C89.3788 175.456 89.7768 175.358 90.2168 175.358C90.7008 175.358 91.1048 175.462 91.4288 175.67C91.7568 175.874 92.0008 176.154 92.1608 176.51C92.3248 176.862 92.4068 177.26 92.4068 177.704V182H90.9668ZM101.22 182.18C100.588 182.18 100.058 182.03 99.6298 181.73C99.2018 181.43 98.8798 181.022 98.6638 180.506C98.4478 179.986 98.3398 179.404 98.3398 178.76C98.3398 178.108 98.4478 177.524 98.6638 177.008C98.8798 176.492 99.1958 176.086 99.6118 175.79C100.032 175.49 100.55 175.34 101.166 175.34C101.778 175.34 102.308 175.49 102.756 175.79C103.208 176.086 103.558 176.492 103.806 177.008C104.054 177.52 104.178 178.104 104.178 178.76C104.178 179.408 104.056 179.99 103.812 180.506C103.568 181.022 103.224 181.43 102.78 181.73C102.336 182.03 101.816 182.18 101.22 182.18ZM98.0938 184.88V175.52H99.3718V180.068H99.5518V184.88H98.0938ZM100.998 180.884C101.374 180.884 101.684 180.79 101.928 180.602C102.172 180.414 102.352 180.16 102.468 179.84C102.588 179.516 102.648 179.156 102.648 178.76C102.648 178.368 102.588 178.012 102.468 177.692C102.348 177.368 102.162 177.112 101.91 176.924C101.658 176.732 101.338 176.636 100.95 176.636C100.582 176.636 100.282 176.726 100.05 176.906C99.8178 177.082 99.6458 177.33 99.5338 177.65C99.4258 177.966 99.3718 178.336 99.3718 178.76C99.3718 179.18 99.4258 179.55 99.5338 179.87C99.6458 180.19 99.8198 180.44 100.056 180.62C100.296 180.796 100.61 180.884 100.998 180.884ZM105.86 182V173.18H107.306V182H105.86ZM112.29 182.18C111.634 182.18 111.058 182.038 110.562 181.754C110.066 181.47 109.678 181.076 109.398 180.572C109.122 180.068 108.984 179.488 108.984 178.832C108.984 178.124 109.12 177.51 109.392 176.99C109.664 176.466 110.042 176.06 110.526 175.772C111.01 175.484 111.57 175.34 112.206 175.34C112.878 175.34 113.448 175.498 113.916 175.814C114.388 176.126 114.738 176.568 114.966 177.14C115.194 177.712 115.28 178.386 115.224 179.162H113.79V178.634C113.786 177.93 113.662 177.416 113.418 177.092C113.174 176.768 112.79 176.606 112.266 176.606C111.674 176.606 111.234 176.79 110.946 177.158C110.658 177.522 110.514 178.056 110.514 178.76C110.514 179.416 110.658 179.924 110.946 180.284C111.234 180.644 111.654 180.824 112.206 180.824C112.562 180.824 112.868 180.746 113.124 180.59C113.384 180.43 113.584 180.2 113.724 179.9L115.152 180.332C114.904 180.916 114.52 181.37 114 181.694C113.484 182.018 112.914 182.18 112.29 182.18ZM110.058 179.162V178.07H114.516V179.162H110.058ZM31.138 198.18C30.45 198.18 29.844 198.04 29.32 197.76C28.8 197.48 28.392 197.086 28.096 196.578C27.804 196.07 27.658 195.474 27.658 194.79V189.372L29.122 189.36V194.754C29.122 195.078 29.176 195.368 29.284 195.624C29.396 195.88 29.546 196.098 29.734 196.278C29.922 196.454 30.138 196.588 30.382 196.68C30.626 196.772 30.878 196.818 31.138 196.818C31.406 196.818 31.66 196.772 31.9 196.68C32.144 196.584 32.36 196.448 32.548 196.272C32.736 196.092 32.884 195.874 32.992 195.618C33.1 195.362 33.154 195.074 33.154 194.754V189.36H34.618V194.79C34.618 195.474 34.47 196.07 34.174 196.578C33.882 197.086 33.474 197.48 32.95 197.76C32.43 198.04 31.826 198.18 31.138 198.18ZM39.0368 198.18C38.2368 198.18 37.5868 198 37.0868 197.64C36.5868 197.28 36.2828 196.774 36.1748 196.122L37.6508 195.894C37.7268 196.214 37.8948 196.466 38.1548 196.65C38.4148 196.834 38.7428 196.926 39.1388 196.926C39.4868 196.926 39.7548 196.858 39.9428 196.722C40.1348 196.582 40.2308 196.392 40.2308 196.152C40.2308 196.004 40.1948 195.886 40.1228 195.798C40.0548 195.706 39.9028 195.618 39.6668 195.534C39.4308 195.45 39.0688 195.344 38.5808 195.216C38.0368 195.072 37.6048 194.918 37.2848 194.754C36.9648 194.586 36.7348 194.388 36.5948 194.16C36.4548 193.932 36.3848 193.656 36.3848 193.332C36.3848 192.928 36.4908 192.576 36.7028 192.276C36.9148 191.976 37.2108 191.746 37.5908 191.586C37.9708 191.422 38.4188 191.34 38.9348 191.34C39.4388 191.34 39.8848 191.418 40.2728 191.574C40.6648 191.73 40.9808 191.952 41.2208 192.24C41.4608 192.528 41.6088 192.866 41.6648 193.254L40.1888 193.518C40.1528 193.242 40.0268 193.024 39.8108 192.864C39.5988 192.704 39.3148 192.614 38.9588 192.594C38.6188 192.574 38.3448 192.626 38.1368 192.75C37.9288 192.87 37.8248 193.04 37.8248 193.26C37.8248 193.384 37.8668 193.49 37.9508 193.578C38.0348 193.666 38.2028 193.754 38.4548 193.842C38.7108 193.93 39.0908 194.038 39.5948 194.166C40.1108 194.298 40.5228 194.45 40.8308 194.622C41.1428 194.79 41.3668 194.992 41.5028 195.228C41.6428 195.464 41.7128 195.75 41.7128 196.086C41.7128 196.738 41.4748 197.25 40.9988 197.622C40.5268 197.994 39.8728 198.18 39.0368 198.18ZM46.213 198.18C45.557 198.18 44.981 198.038 44.485 197.754C43.989 197.47 43.601 197.076 43.321 196.572C43.045 196.068 42.907 195.488 42.907 194.832C42.907 194.124 43.043 193.51 43.315 192.99C43.587 192.466 43.965 192.06 44.449 191.772C44.933 191.484 45.493 191.34 46.129 191.34C46.801 191.34 47.371 191.498 47.839 191.814C48.311 192.126 48.661 192.568 48.889 193.14C49.117 193.712 49.203 194.386 49.147 195.162H47.713V194.634C47.709 193.93 47.585 193.416 47.341 193.092C47.097 192.768 46.713 192.606 46.189 192.606C45.597 192.606 45.157 192.79 44.869 193.158C44.581 193.522 44.437 194.056 44.437 194.76C44.437 195.416 44.581 195.924 44.869 196.284C45.157 196.644 45.577 196.824 46.129 196.824C46.485 196.824 46.791 196.746 47.047 196.59C47.307 196.43 47.507 196.2 47.647 195.9L49.075 196.332C48.827 196.916 48.443 197.37 47.923 197.694C47.407 198.018 46.837 198.18 46.213 198.18ZM43.981 195.162V194.07H48.439V195.162H43.981ZM50.7257 198V191.52H52.0037V193.098L51.8477 192.894C51.9277 192.678 52.0337 192.482 52.1657 192.306C52.3017 192.126 52.4637 191.978 52.6517 191.862C52.8117 191.754 52.9877 191.67 53.1797 191.61C53.3757 191.546 53.5757 191.508 53.7797 191.496C53.9837 191.48 54.1817 191.488 54.3737 191.52V192.87C54.1817 192.814 53.9597 192.796 53.7077 192.816C53.4597 192.836 53.2357 192.906 53.0357 193.026C52.8357 193.134 52.6717 193.272 52.5437 193.44C52.4197 193.608 52.3277 193.8 52.2677 194.016C52.2077 194.228 52.1777 194.458 52.1777 194.706V198H50.7257ZM58.521 198V189.36H59.967V198H58.521ZM66.4863 198V194.88C66.4863 194.676 66.4723 194.45 66.4443 194.202C66.4163 193.954 66.3503 193.716 66.2463 193.488C66.1463 193.256 65.9943 193.066 65.7903 192.918C65.5903 192.77 65.3183 192.696 64.9743 192.696C64.7903 192.696 64.6083 192.726 64.4283 192.786C64.2483 192.846 64.0843 192.95 63.9363 193.098C63.7923 193.242 63.6763 193.442 63.5883 193.698C63.5003 193.95 63.4563 194.274 63.4563 194.67L62.5983 194.304C62.5983 193.752 62.7043 193.252 62.9163 192.804C63.1323 192.356 63.4483 192 63.8643 191.736C64.2803 191.468 64.7923 191.334 65.4003 191.334C65.8803 191.334 66.2763 191.414 66.5883 191.574C66.9003 191.734 67.1483 191.938 67.3323 192.186C67.5163 192.434 67.6523 192.698 67.7403 192.978C67.8283 193.258 67.8843 193.524 67.9083 193.776C67.9363 194.024 67.9503 194.226 67.9503 194.382V198H66.4863ZM61.9923 198V191.52H63.2823V193.53H63.4563V198H61.9923ZM73.554 198C73.126 198.08 72.706 198.114 72.294 198.102C71.886 198.094 71.52 198.02 71.196 197.88C70.872 197.736 70.626 197.51 70.458 197.202C70.31 196.922 70.232 196.636 70.224 196.344C70.216 196.052 70.212 195.722 70.212 195.354V189.72H71.652V195.27C71.652 195.53 71.654 195.758 71.658 195.954C71.666 196.15 71.708 196.31 71.784 196.434C71.928 196.674 72.158 196.808 72.474 196.836C72.79 196.864 73.15 196.848 73.554 196.788V198ZM69.036 192.654V191.52H73.554V192.654H69.036ZM77.8053 198.18C77.1493 198.18 76.5733 198.038 76.0773 197.754C75.5813 197.47 75.1933 197.076 74.9133 196.572C74.6373 196.068 74.4993 195.488 74.4993 194.832C74.4993 194.124 74.6353 193.51 74.9073 192.99C75.1793 192.466 75.5573 192.06 76.0413 191.772C76.5253 191.484 77.0853 191.34 77.7213 191.34C78.3933 191.34 78.9633 191.498 79.4313 191.814C79.9033 192.126 80.2533 192.568 80.4813 193.14C80.7093 193.712 80.7953 194.386 80.7393 195.162H79.3053V194.634C79.3013 193.93 79.1773 193.416 78.9333 193.092C78.6893 192.768 78.3053 192.606 77.7813 192.606C77.1893 192.606 76.7493 192.79 76.4613 193.158C76.1733 193.522 76.0293 194.056 76.0293 194.76C76.0293 195.416 76.1733 195.924 76.4613 196.284C76.7493 196.644 77.1693 196.824 77.7213 196.824C78.0773 196.824 78.3833 196.746 78.6393 196.59C78.8993 196.43 79.0993 196.2 79.2393 195.9L80.6673 196.332C80.4193 196.916 80.0353 197.37 79.5153 197.694C78.9993 198.018 78.4293 198.18 77.8053 198.18ZM75.5733 195.162V194.07H80.0313V195.162H75.5733ZM82.318 198V191.52H83.596V193.098L83.44 192.894C83.52 192.678 83.626 192.482 83.758 192.306C83.894 192.126 84.056 191.978 84.244 191.862C84.404 191.754 84.58 191.67 84.772 191.61C84.968 191.546 85.168 191.508 85.372 191.496C85.576 191.48 85.774 191.488 85.966 191.52V192.87C85.774 192.814 85.552 192.796 85.3 192.816C85.052 192.836 84.828 192.906 84.628 193.026C84.428 193.134 84.264 193.272 84.136 193.44C84.012 193.608 83.92 193.8 83.86 194.016C83.8 194.228 83.77 194.458 83.77 194.706V198H82.318ZM87.915 198V191.418C87.915 191.254 87.921 191.074 87.933 190.878C87.945 190.678 87.979 190.48 88.035 190.284C88.091 190.088 88.193 189.91 88.341 189.75C88.525 189.546 88.723 189.406 88.935 189.33C89.151 189.25 89.363 189.206 89.571 189.198C89.779 189.186 89.961 189.18 90.117 189.18H90.927V190.356H90.177C89.901 190.356 89.695 190.426 89.559 190.566C89.427 190.702 89.361 190.882 89.361 191.106V198H87.915ZM86.871 192.654V191.52H90.927V192.654H86.871ZM93.7624 198.18C93.2944 198.18 92.8984 198.092 92.5744 197.916C92.2504 197.736 92.0044 197.498 91.8364 197.202C91.6724 196.906 91.5904 196.58 91.5904 196.224C91.5904 195.912 91.6424 195.632 91.7464 195.384C91.8504 195.132 92.0104 194.916 92.2264 194.736C92.4424 194.552 92.7224 194.402 93.0664 194.286C93.3264 194.202 93.6304 194.126 93.9784 194.058C94.3304 193.99 94.7104 193.928 95.1184 193.872C95.5304 193.812 95.9604 193.748 96.4084 193.68L95.8924 193.974C95.8964 193.526 95.7964 193.196 95.5924 192.984C95.3884 192.772 95.0444 192.666 94.5604 192.666C94.2684 192.666 93.9864 192.734 93.7144 192.87C93.4424 193.006 93.2524 193.24 93.1444 193.572L91.8244 193.158C91.9844 192.61 92.2884 192.17 92.7364 191.838C93.1884 191.506 93.7964 191.34 94.5604 191.34C95.1364 191.34 95.6424 191.434 96.0784 191.622C96.5184 191.81 96.8444 192.118 97.0564 192.546C97.1724 192.774 97.2424 193.008 97.2664 193.248C97.2904 193.484 97.3024 193.742 97.3024 194.022V198H96.0364V196.596L96.2464 196.824C95.9544 197.292 95.6124 197.636 95.2204 197.856C94.8324 198.072 94.3464 198.18 93.7624 198.18ZM94.0504 197.028C94.3784 197.028 94.6584 196.97 94.8904 196.854C95.1224 196.738 95.3064 196.596 95.4424 196.428C95.5824 196.26 95.6764 196.102 95.7244 195.954C95.8004 195.77 95.8424 195.56 95.8504 195.324C95.8624 195.084 95.8684 194.89 95.8684 194.742L96.3124 194.874C95.8764 194.942 95.5024 195.002 95.1904 195.054C94.8784 195.106 94.6104 195.156 94.3864 195.204C94.1624 195.248 93.9644 195.298 93.7924 195.354C93.6244 195.414 93.4824 195.484 93.3664 195.564C93.2504 195.644 93.1604 195.736 93.0964 195.84C93.0364 195.944 93.0064 196.066 93.0064 196.206C93.0064 196.366 93.0464 196.508 93.1264 196.632C93.2064 196.752 93.3224 196.848 93.4744 196.92C93.6304 196.992 93.8224 197.028 94.0504 197.028ZM101.918 198.18C101.25 198.18 100.68 198.032 100.208 197.736C99.7365 197.436 99.3745 197.028 99.1225 196.512C98.8745 195.996 98.7485 195.412 98.7445 194.76C98.7485 194.096 98.8785 193.508 99.1345 192.996C99.3945 192.48 99.7625 192.076 100.238 191.784C100.714 191.488 101.28 191.34 101.936 191.34C102.672 191.34 103.294 191.526 103.802 191.898C104.314 192.266 104.648 192.77 104.804 193.41L103.364 193.8C103.252 193.452 103.066 193.182 102.806 192.99C102.546 192.794 102.25 192.696 101.918 192.696C101.542 192.696 101.232 192.786 100.988 192.966C100.744 193.142 100.564 193.386 100.448 193.698C100.332 194.01 100.274 194.364 100.274 194.76C100.274 195.376 100.412 195.874 100.688 196.254C100.964 196.634 101.374 196.824 101.918 196.824C102.302 196.824 102.604 196.736 102.824 196.56C103.048 196.384 103.216 196.13 103.328 195.798L104.804 196.128C104.604 196.788 104.254 197.296 103.754 197.652C103.254 198.004 102.642 198.18 101.918 198.18ZM109.017 198.18C108.361 198.18 107.785 198.038 107.289 197.754C106.793 197.47 106.405 197.076 106.125 196.572C105.849 196.068 105.711 195.488 105.711 194.832C105.711 194.124 105.847 193.51 106.119 192.99C106.391 192.466 106.769 192.06 107.253 191.772C107.737 191.484 108.297 191.34 108.933 191.34C109.605 191.34 110.175 191.498 110.643 191.814C111.115 192.126 111.465 192.568 111.693 193.14C111.921 193.712 112.007 194.386 111.951 195.162H110.517V194.634C110.513 193.93 110.389 193.416 110.145 193.092C109.901 192.768 109.517 192.606 108.993 192.606C108.401 192.606 107.961 192.79 107.673 193.158C107.385 193.522 107.241 194.056 107.241 194.76C107.241 195.416 107.385 195.924 107.673 196.284C107.961 196.644 108.381 196.824 108.933 196.824C109.289 196.824 109.595 196.746 109.851 196.59C110.111 196.43 110.311 196.2 110.451 195.9L111.879 196.332C111.631 196.916 111.247 197.37 110.727 197.694C110.211 198.018 109.641 198.18 109.017 198.18ZM106.785 195.162V194.07H111.243V195.162H106.785ZM116.032 198.18C115.232 198.18 114.582 198 114.082 197.64C113.582 197.28 113.278 196.774 113.17 196.122L114.646 195.894C114.722 196.214 114.89 196.466 115.15 196.65C115.41 196.834 115.738 196.926 116.134 196.926C116.482 196.926 116.75 196.858 116.938 196.722C117.13 196.582 117.226 196.392 117.226 196.152C117.226 196.004 117.19 195.886 117.118 195.798C117.05 195.706 116.898 195.618 116.662 195.534C116.426 195.45 116.064 195.344 115.576 195.216C115.032 195.072 114.6 194.918 114.28 194.754C113.96 194.586 113.73 194.388 113.59 194.16C113.45 193.932 113.38 193.656 113.38 193.332C113.38 192.928 113.486 192.576 113.698 192.276C113.91 191.976 114.206 191.746 114.586 191.586C114.966 191.422 115.414 191.34 115.93 191.34C116.434 191.34 116.88 191.418 117.268 191.574C117.66 191.73 117.976 191.952 118.216 192.24C118.456 192.528 118.604 192.866 118.66 193.254L117.184 193.518C117.148 193.242 117.022 193.024 116.806 192.864C116.594 192.704 116.31 192.614 115.954 192.594C115.614 192.574 115.34 192.626 115.132 192.75C114.924 192.87 114.82 193.04 114.82 193.26C114.82 193.384 114.862 193.49 114.946 193.578C115.03 193.666 115.198 193.754 115.45 193.842C115.706 193.93 116.086 194.038 116.59 194.166C117.106 194.298 117.518 194.45 117.826 194.622C118.138 194.79 118.362 194.992 118.498 195.228C118.638 195.464 118.708 195.75 118.708 196.086C118.708 196.738 118.47 197.25 117.994 197.622C117.522 197.994 116.868 198.18 116.032 198.18Z" fill="white"/>
<rect x="11" y="14" width="124" height="148.648" rx="11.3761" fill="#1F3E4B"/>
<circle cx="39.0618" cy="42.0618" r="16.685" stroke="#2A4A57" stroke-width="4.55046"/>
<mask id="path-5-inside-1_1247_5942" fill="white">
<path d="M55.7479 42.0618C57.0039 42.0618 58.0361 43.0836 57.8858 44.3305C57.6513 46.2764 57.1159 48.1788 56.2948 49.9685C55.1566 52.4491 53.4964 54.6547 51.4276 56.4346C49.3587 58.2146 46.93 59.5269 44.3074 60.282C42.4151 60.8268 40.4541 61.0722 38.495 61.0136C37.2396 60.976 36.3834 59.8028 36.5709 58.5609C36.7584 57.319 37.9205 56.4833 39.1765 56.4733C40.4834 56.4629 41.7863 56.2747 43.049 55.9112C45.0425 55.3373 46.8886 54.3397 48.4612 52.9868C50.0338 51.6338 51.2957 49.9573 52.1608 48.0718C52.7087 46.8775 53.0893 45.6173 53.2947 44.3266C53.492 43.0862 54.4919 42.0618 55.7479 42.0618Z"/>
</mask>
<path d="M55.7479 42.0618C57.0039 42.0618 58.0361 43.0836 57.8858 44.3305C57.6513 46.2764 57.1159 48.1788 56.2948 49.9685C55.1566 52.4491 53.4964 54.6547 51.4276 56.4346C49.3587 58.2146 46.93 59.5269 44.3074 60.282C42.4151 60.8268 40.4541 61.0722 38.495 61.0136C37.2396 60.976 36.3834 59.8028 36.5709 58.5609C36.7584 57.319 37.9205 56.4833 39.1765 56.4733C40.4834 56.4629 41.7863 56.2747 43.049 55.9112C45.0425 55.3373 46.8886 54.3397 48.4612 52.9868C50.0338 51.6338 51.2957 49.9573 52.1608 48.0718C52.7087 46.8775 53.0893 45.6173 53.2947 44.3266C53.492 43.0862 54.4919 42.0618 55.7479 42.0618Z" stroke="#FFB900" stroke-width="8.34251" mask="url(#path-5-inside-1_1247_5942)"/>
<path d="M28.96 44.99V43.94L32.04 41.195C32.28 40.9817 32.4466 40.78 32.54 40.59C32.6333 40.4 32.68 40.2167 32.68 40.04C32.68 39.8 32.6283 39.5867 32.525 39.4C32.4216 39.21 32.2783 39.06 32.095 38.95C31.915 38.84 31.7066 38.785 31.47 38.785C31.22 38.785 30.9983 38.8433 30.805 38.96C30.615 39.0733 30.4666 39.225 30.36 39.415C30.2533 39.605 30.2033 39.81 30.21 40.03H28.97C28.97 39.55 29.0766 39.1317 29.29 38.775C29.5066 38.4183 29.8033 38.1417 30.18 37.945C30.56 37.7483 30.9983 37.65 31.495 37.65C31.955 37.65 32.3683 37.7533 32.735 37.96C33.1016 38.1633 33.39 38.4467 33.6 38.81C33.81 39.17 33.915 39.585 33.915 40.055C33.915 40.3983 33.8683 40.6867 33.775 40.92C33.6816 41.1533 33.5416 41.3683 33.355 41.565C33.1716 41.7617 32.9433 41.98 32.67 42.22L30.485 44.155L30.375 43.855H33.915V44.99H28.96ZM37.472 45.15C36.9953 45.15 36.572 45.0533 36.202 44.86C35.832 44.6667 35.542 44.3983 35.332 44.055C35.122 43.7117 35.017 43.3183 35.017 42.875C35.017 42.4783 35.1087 42.11 35.292 41.77C35.4753 41.43 35.7437 41.1583 36.097 40.955L36.072 41.34C35.7953 41.13 35.5803 40.8883 35.427 40.615C35.277 40.3383 35.202 40.0283 35.202 39.685C35.202 39.2717 35.2987 38.9133 35.492 38.61C35.6887 38.3067 35.957 38.0717 36.297 37.905C36.637 37.735 37.0287 37.65 37.472 37.65C37.9153 37.65 38.307 37.735 38.647 37.905C38.9903 38.0717 39.2587 38.3067 39.452 38.61C39.6487 38.9133 39.747 39.2717 39.747 39.685C39.747 40.0283 39.6737 40.3367 39.527 40.61C39.3837 40.8833 39.1653 41.13 38.872 41.35L38.867 40.96C39.2137 41.1567 39.4787 41.4267 39.662 41.77C39.8487 42.11 39.942 42.4783 39.942 42.875C39.942 43.3183 39.8353 43.7117 39.622 44.055C39.412 44.3983 39.1203 44.6667 38.747 44.86C38.377 45.0533 37.952 45.15 37.472 45.15ZM37.472 44.015C37.8253 44.015 38.112 43.9183 38.332 43.725C38.5553 43.5317 38.667 43.2483 38.667 42.875C38.667 42.5017 38.557 42.2183 38.337 42.025C38.117 41.8283 37.8287 41.73 37.472 41.73C37.1187 41.73 36.8337 41.8283 36.617 42.025C36.4003 42.2183 36.292 42.5017 36.292 42.875C36.292 43.2483 36.4003 43.5317 36.617 43.725C36.8337 43.9183 37.1187 44.015 37.472 44.015ZM37.472 40.585C37.7687 40.585 38.0087 40.5117 38.192 40.365C38.3787 40.215 38.472 39.9883 38.472 39.685C38.472 39.3817 38.3787 39.1567 38.192 39.01C38.0087 38.86 37.7687 38.785 37.472 38.785C37.1787 38.785 36.9387 38.86 36.752 39.01C36.5687 39.1567 36.477 39.3817 36.477 39.685C36.477 39.9883 36.5687 40.215 36.752 40.365C36.9387 40.5117 37.1787 40.585 37.472 40.585Z" fill="white"/>
<path d="M43.7313 45L43.2513 44.52L48.5393 39.24L49.0193 39.72L43.7313 45ZM47.8193 45.12C47.5553 45.12 47.3139 45.056 47.0953 44.928C46.8793 44.7973 46.7059 44.624 46.5753 44.408C46.4446 44.1893 46.3793 43.9467 46.3793 43.68C46.3793 43.4187 46.4459 43.1787 46.5793 42.96C46.7126 42.7413 46.8886 42.5667 47.1073 42.436C47.3259 42.3053 47.5633 42.24 47.8193 42.24C48.0833 42.24 48.3246 42.3053 48.5433 42.436C48.7619 42.564 48.9353 42.7373 49.0633 42.956C49.1939 43.172 49.2593 43.4133 49.2593 43.68C49.2593 43.9467 49.1939 44.1893 49.0633 44.408C48.9353 44.624 48.7619 44.7973 48.5433 44.928C48.3246 45.056 48.0833 45.12 47.8193 45.12ZM47.8193 44.492C47.9659 44.492 48.1006 44.4547 48.2233 44.38C48.3486 44.3053 48.4473 44.2067 48.5193 44.084C48.5939 43.9613 48.6313 43.8267 48.6313 43.68C48.6313 43.5333 48.5939 43.3987 48.5193 43.276C48.4473 43.1507 48.3486 43.052 48.2233 42.98C48.1006 42.9053 47.9659 42.868 47.8193 42.868C47.6726 42.868 47.5379 42.9053 47.4153 42.98C47.2926 43.052 47.1939 43.1507 47.1193 43.276C47.0446 43.3987 47.0073 43.5333 47.0073 43.68C47.0073 43.8267 47.0446 43.9613 47.1193 44.084C47.1939 44.2067 47.2926 44.3053 47.4153 44.38C47.5379 44.4547 47.6726 44.492 47.8193 44.492ZM44.4513 42C44.1873 42 43.9459 41.936 43.7273 41.808C43.5086 41.6773 43.3339 41.504 43.2033 41.288C43.0753 41.0693 43.0113 40.8267 43.0113 40.56C43.0113 40.2987 43.0779 40.0587 43.2113 39.84C43.3446 39.6213 43.5206 39.4467 43.7393 39.316C43.9579 39.1853 44.1953 39.12 44.4513 39.12C44.7153 39.12 44.9553 39.1853 45.1713 39.316C45.3899 39.444 45.5646 39.6173 45.6953 39.836C45.8259 40.052 45.8913 40.2933 45.8913 40.56C45.8913 40.8267 45.8259 41.0693 45.6953 41.288C45.5646 41.504 45.3899 41.6773 45.1713 41.808C44.9553 41.936 44.7153 42 44.4513 42ZM44.4513 41.372C44.5979 41.372 44.7326 41.3347 44.8553 41.26C44.9806 41.1853 45.0793 41.0867 45.1513 40.964C45.2259 40.8413 45.2633 40.7067 45.2633 40.56C45.2633 40.4133 45.2259 40.2787 45.1513 40.156C45.0793 40.0307 44.9806 39.932 44.8553 39.86C44.7326 39.7853 44.5979 39.748 44.4513 39.748C44.3046 39.748 44.1699 39.7853 44.0473 39.86C43.9246 39.932 43.8259 40.0307 43.7513 40.156C43.6766 40.2787 43.6393 40.4133 43.6393 40.56C43.6393 40.7067 43.6766 40.8413 43.7513 40.964C43.8259 41.0867 43.9246 41.1853 44.0473 41.26C44.1699 41.3347 44.3046 41.372 44.4513 41.372Z" fill="white"/>
<rect x="65.2266" y="31.0645" width="49.2966" height="3.79205" rx="1.89602" fill="#2A4A57"/>
<rect x="65.2266" y="40.166" width="27.3027" height="3.79205" rx="1.89602" fill="#2A4A57"/>
<rect x="65.2266" y="49.2656" width="60.6728" height="3.79205" rx="1.89602" fill="#2A4A57"/>
<rect x="20.1016" y="77.3262" width="49.2966" height="3.79205" rx="1.89602" fill="#2A4A57"/>
<rect x="20.1016" y="86.4277" width="27.3027" height="3.79205" rx="1.89602" fill="#2A4A57"/>
<rect x="20.1016" y="95.5273" width="60.6728" height="3.79205" rx="1.89602" fill="#2A4A57"/>
<circle cx="106.941" cy="88.3235" r="16.685" stroke="#2A4A57" stroke-width="4.55046"/>
<mask id="path-15-inside-2_1247_5942" fill="white">
<path d="M123.627 88.3235C124.883 88.3235 125.915 89.3454 125.765 90.5923C125.309 94.3776 123.718 97.957 121.177 100.846C118.133 104.307 113.931 106.541 109.359 107.129C104.787 107.717 100.158 106.619 96.3364 104.041C92.5151 101.463 89.764 97.5809 88.5975 93.1213C87.4311 88.6616 87.9293 83.9298 89.9989 79.8108C92.0685 75.6919 95.5678 72.468 99.8422 70.7422C104.117 69.0164 108.873 68.9069 113.223 70.4342C116.853 71.7091 119.992 74.0515 122.243 77.1287C122.985 78.1424 122.585 79.5388 121.49 80.1538C120.395 80.7687 119.021 80.365 118.242 79.3801C116.56 77.2547 114.302 75.6338 111.716 74.7256C108.41 73.5647 104.794 73.6479 101.545 74.9597C98.296 76.2715 95.6362 78.7221 94.063 81.8529C92.4899 84.9838 92.1112 88.5805 92.9978 91.9704C93.8844 95.3602 95.9756 98.3109 98.8803 100.271C101.785 102.23 105.304 103.065 108.779 102.618C112.254 102.171 115.448 100.473 117.762 97.8421C119.572 95.784 120.748 93.265 121.174 90.5883C121.371 89.3479 122.371 88.3235 123.627 88.3235Z"/>
</mask>
<path d="M123.627 88.3235C124.883 88.3235 125.915 89.3454 125.765 90.5923C125.309 94.3776 123.718 97.957 121.177 100.846C118.133 104.307 113.931 106.541 109.359 107.129C104.787 107.717 100.158 106.619 96.3364 104.041C92.5151 101.463 89.764 97.5809 88.5975 93.1213C87.4311 88.6616 87.9293 83.9298 89.9989 79.8108C92.0685 75.6919 95.5678 72.468 99.8422 70.7422C104.117 69.0164 108.873 68.9069 113.223 70.4342C116.853 71.7091 119.992 74.0515 122.243 77.1287C122.985 78.1424 122.585 79.5388 121.49 80.1538C120.395 80.7687 119.021 80.365 118.242 79.3801C116.56 77.2547 114.302 75.6338 111.716 74.7256C108.41 73.5647 104.794 73.6479 101.545 74.9597C98.296 76.2715 95.6362 78.7221 94.063 81.8529C92.4899 84.9838 92.1112 88.5805 92.9978 91.9704C93.8844 95.3602 95.9756 98.3109 98.8803 100.271C101.785 102.23 105.304 103.065 108.779 102.618C112.254 102.171 115.448 100.473 117.762 97.8421C119.572 95.784 120.748 93.265 121.174 90.5883C121.371 89.3479 122.371 88.3235 123.627 88.3235Z" stroke="#48BF84" stroke-width="8.34251" mask="url(#path-15-inside-2_1247_5942)"/>
<path d="M100.227 83.66C100.697 83.66 101.12 83.7717 101.497 83.995C101.874 84.215 102.17 84.5217 102.387 84.915C102.607 85.305 102.717 85.755 102.717 86.265V88.46C102.717 89.0033 102.607 89.4783 102.387 89.885C102.17 90.2883 101.865 90.6 101.472 90.82C101.079 91.04 100.619 91.15 100.092 91.15C99.7288 91.15 99.3855 91.0883 99.0621 90.965C98.7388 90.8383 98.4488 90.645 98.1921 90.385L99.0571 89.54C99.1871 89.69 99.3421 89.8083 99.5221 89.895C99.7055 89.9783 99.8955 90.02 100.092 90.02C100.372 90.02 100.617 89.955 100.827 89.825C101.037 89.6917 101.2 89.52 101.317 89.31C101.434 89.0967 101.492 88.8683 101.492 88.625V87.43L101.707 87.67C101.504 87.91 101.257 88.0983 100.967 88.235C100.677 88.3683 100.372 88.435 100.052 88.435C99.6021 88.435 99.2021 88.3317 98.8521 88.125C98.5055 87.9183 98.2321 87.6383 98.0321 87.285C97.8355 86.9283 97.7371 86.525 97.7371 86.075C97.7371 85.625 97.8505 85.2183 98.0771 84.855C98.3038 84.4883 98.6055 84.1983 98.9821 83.985C99.3621 83.7683 99.7771 83.66 100.227 83.66ZM100.227 84.81C99.9938 84.81 99.7805 84.8667 99.5871 84.98C99.3938 85.0933 99.2405 85.2467 99.1271 85.44C99.0138 85.63 98.9571 85.8417 98.9571 86.075C98.9571 86.3083 99.0121 86.5217 99.1221 86.715C99.2355 86.9083 99.3871 87.0617 99.5771 87.175C99.7705 87.2883 99.9838 87.345 100.217 87.345C100.45 87.345 100.664 87.2883 100.857 87.175C101.05 87.0617 101.204 86.9083 101.317 86.715C101.434 86.5217 101.492 86.3083 101.492 86.075C101.492 85.8483 101.435 85.64 101.322 85.45C101.209 85.2567 101.055 85.1017 100.862 84.985C100.672 84.8683 100.46 84.81 100.227 84.81ZM105.363 91V85.115L104.013 85.94V84.61L105.363 83.8H106.593V91H105.363Z" fill="white"/>
<path d="M110.2 91L109.72 90.52L115.008 85.24L115.488 85.72L110.2 91ZM114.288 91.12C114.024 91.12 113.783 91.056 113.564 90.928C113.348 90.7973 113.175 90.624 113.044 90.408C112.913 90.1893 112.848 89.9467 112.848 89.68C112.848 89.4187 112.915 89.1787 113.048 88.96C113.181 88.7413 113.357 88.5667 113.576 88.436C113.795 88.3053 114.032 88.24 114.288 88.24C114.552 88.24 114.793 88.3053 115.012 88.436C115.231 88.564 115.404 88.7373 115.532 88.956C115.663 89.172 115.728 89.4133 115.728 89.68C115.728 89.9467 115.663 90.1893 115.532 90.408C115.404 90.624 115.231 90.7973 115.012 90.928C114.793 91.056 114.552 91.12 114.288 91.12ZM114.288 90.492C114.435 90.492 114.569 90.4547 114.692 90.38C114.817 90.3053 114.916 90.2067 114.988 90.084C115.063 89.9613 115.1 89.8267 115.1 89.68C115.1 89.5333 115.063 89.3987 114.988 89.276C114.916 89.1507 114.817 89.052 114.692 88.98C114.569 88.9053 114.435 88.868 114.288 88.868C114.141 88.868 114.007 88.9053 113.884 88.98C113.761 89.052 113.663 89.1507 113.588 89.276C113.513 89.3987 113.476 89.5333 113.476 89.68C113.476 89.8267 113.513 89.9613 113.588 90.084C113.663 90.2067 113.761 90.3053 113.884 90.38C114.007 90.4547 114.141 90.492 114.288 90.492ZM110.92 88C110.656 88 110.415 87.936 110.196 87.808C109.977 87.6773 109.803 87.504 109.672 87.288C109.544 87.0693 109.48 86.8267 109.48 86.56C109.48 86.2987 109.547 86.0587 109.68 85.84C109.813 85.6213 109.989 85.4467 110.208 85.316C110.427 85.1853 110.664 85.12 110.92 85.12C111.184 85.12 111.424 85.1853 111.64 85.316C111.859 85.444 112.033 85.6173 112.164 85.836C112.295 86.052 112.36 86.2933 112.36 86.56C112.36 86.8267 112.295 87.0693 112.164 87.288C112.033 87.504 111.859 87.6773 111.64 87.808C111.424 87.936 111.184 88 110.92 88ZM110.92 87.372C111.067 87.372 111.201 87.3347 111.324 87.26C111.449 87.1853 111.548 87.0867 111.62 86.964C111.695 86.8413 111.732 86.7067 111.732 86.56C111.732 86.4133 111.695 86.2787 111.62 86.156C111.548 86.0307 111.449 85.932 111.324 85.86C111.201 85.7853 111.067 85.748 110.92 85.748C110.773 85.748 110.639 85.7853 110.516 85.86C110.393 85.932 110.295 86.0307 110.22 86.156C110.145 86.2787 110.108 86.4133 110.108 86.56C110.108 86.7067 110.145 86.8413 110.22 86.964C110.295 87.0867 110.393 87.1853 110.516 87.26C110.639 87.3347 110.773 87.372 110.92 87.372Z" fill="white"/>
<circle cx="39.0618" cy="134.587" r="16.685" stroke="#2A4A57" stroke-width="4.55046"/>
<mask id="path-19-inside-3_1247_5942" fill="white">
<path d="M55.7479 134.587C57.0039 134.587 58.0361 135.609 57.8858 136.856C57.5959 139.261 56.8467 141.596 55.6714 143.731C54.1294 146.532 51.9041 148.898 49.2024 150.608C46.5007 152.318 43.4104 153.317 40.2189 153.512C37.0275 153.707 33.8385 153.092 30.9486 151.724C28.0587 150.356 25.5617 148.279 23.6899 145.687C21.8181 143.094 20.6323 140.071 20.2428 136.897C19.8533 133.724 20.2726 130.503 21.4619 127.535C22.3683 125.273 23.6995 123.213 25.3764 121.465C26.2457 120.558 27.6903 120.709 28.4863 121.68C29.2824 122.652 29.1237 124.075 28.2893 125.013C27.188 126.253 26.3048 127.677 25.6839 129.227C24.7799 131.483 24.4611 133.931 24.7572 136.343C25.0533 138.755 25.9547 141.054 27.3774 143.024C28.8002 144.994 30.6982 146.573 32.8948 147.613C35.0915 148.653 37.5155 149.121 39.9413 148.972C42.3672 148.824 44.7162 148.065 46.7698 146.765C48.8234 145.465 50.5149 143.667 51.687 141.538C52.4921 140.075 53.0341 138.489 53.2947 136.852C53.4921 135.612 54.4919 134.587 55.7479 134.587Z"/>
</mask>
<path d="M55.7479 134.587C57.0039 134.587 58.0361 135.609 57.8858 136.856C57.5959 139.261 56.8467 141.596 55.6714 143.731C54.1294 146.532 51.9041 148.898 49.2024 150.608C46.5007 152.318 43.4104 153.317 40.2189 153.512C37.0275 153.707 33.8385 153.092 30.9486 151.724C28.0587 150.356 25.5617 148.279 23.6899 145.687C21.8181 143.094 20.6323 140.071 20.2428 136.897C19.8533 133.724 20.2726 130.503 21.4619 127.535C22.3683 125.273 23.6995 123.213 25.3764 121.465C26.2457 120.558 27.6903 120.709 28.4863 121.68C29.2824 122.652 29.1237 124.075 28.2893 125.013C27.188 126.253 26.3048 127.677 25.6839 129.227C24.7799 131.483 24.4611 133.931 24.7572 136.343C25.0533 138.755 25.9547 141.054 27.3774 143.024C28.8002 144.994 30.6982 146.573 32.8948 147.613C35.0915 148.653 37.5155 149.121 39.9413 148.972C42.3672 148.824 44.7162 148.065 46.7698 146.765C48.8234 145.465 50.5149 143.667 51.687 141.538C52.4921 140.075 53.0341 138.489 53.2947 136.852C53.4921 135.612 54.4919 134.587 55.7479 134.587Z" stroke="#8749E8" stroke-width="8.34251" mask="url(#path-19-inside-3_1247_5942)"/>
<path d="M29.4205 139L31.9005 132.94H28.7555V131.8H33.1905V132.94L30.7205 139H29.4205ZM34.1875 138.99V137.94L37.2675 135.195C37.5075 134.982 37.6742 134.78 37.7675 134.59C37.8608 134.4 37.9075 134.217 37.9075 134.04C37.9075 133.8 37.8558 133.587 37.7525 133.4C37.6492 133.21 37.5058 133.06 37.3225 132.95C37.1425 132.84 36.9342 132.785 36.6975 132.785C36.4475 132.785 36.2258 132.843 36.0325 132.96C35.8425 133.073 35.6942 133.225 35.5875 133.415C35.4808 133.605 35.4308 133.81 35.4375 134.03H34.1975C34.1975 133.55 34.3042 133.132 34.5175 132.775C34.7342 132.418 35.0308 132.142 35.4075 131.945C35.7875 131.748 36.2258 131.65 36.7225 131.65C37.1825 131.65 37.5958 131.753 37.9625 131.96C38.3292 132.163 38.6175 132.447 38.8275 132.81C39.0375 133.17 39.1425 133.585 39.1425 134.055C39.1425 134.398 39.0958 134.687 39.0025 134.92C38.9092 135.153 38.7692 135.368 38.5825 135.565C38.3992 135.762 38.1708 135.98 37.8975 136.22L35.7125 138.155L35.6025 137.855H39.1425V138.99H34.1875Z" fill="white"/>
<path d="M42.2 138.5L41.72 138.02L47.008 132.74L47.488 133.22L42.2 138.5ZM46.288 138.62C46.024 138.62 45.7827 138.556 45.564 138.428C45.348 138.297 45.1747 138.124 45.044 137.908C44.9133 137.689 44.848 137.447 44.848 137.18C44.848 136.919 44.9147 136.679 45.048 136.46C45.1813 136.241 45.3573 136.067 45.576 135.936C45.7947 135.805 46.032 135.74 46.288 135.74C46.552 135.74 46.7933 135.805 47.012 135.936C47.2307 136.064 47.404 136.237 47.532 136.456C47.6627 136.672 47.728 136.913 47.728 137.18C47.728 137.447 47.6627 137.689 47.532 137.908C47.404 138.124 47.2307 138.297 47.012 138.428C46.7933 138.556 46.552 138.62 46.288 138.62ZM46.288 137.992C46.4347 137.992 46.5693 137.955 46.692 137.88C46.8173 137.805 46.916 137.707 46.988 137.584C47.0627 137.461 47.1 137.327 47.1 137.18C47.1 137.033 47.0627 136.899 46.988 136.776C46.916 136.651 46.8173 136.552 46.692 136.48C46.5693 136.405 46.4347 136.368 46.288 136.368C46.1413 136.368 46.0067 136.405 45.884 136.48C45.7613 136.552 45.6627 136.651 45.588 136.776C45.5133 136.899 45.476 137.033 45.476 137.18C45.476 137.327 45.5133 137.461 45.588 137.584C45.6627 137.707 45.7613 137.805 45.884 137.88C46.0067 137.955 46.1413 137.992 46.288 137.992ZM42.92 135.5C42.656 135.5 42.4147 135.436 42.196 135.308C41.9773 135.177 41.8027 135.004 41.672 134.788C41.544 134.569 41.48 134.327 41.48 134.06C41.48 133.799 41.5467 133.559 41.68 133.34C41.8133 133.121 41.9893 132.947 42.208 132.816C42.4267 132.685 42.664 132.62 42.92 132.62C43.184 132.62 43.424 132.685 43.64 132.816C43.8587 132.944 44.0333 133.117 44.164 133.336C44.2947 133.552 44.36 133.793 44.36 134.06C44.36 134.327 44.2947 134.569 44.164 134.788C44.0333 135.004 43.8587 135.177 43.64 135.308C43.424 135.436 43.184 135.5 42.92 135.5ZM42.92 134.872C43.0667 134.872 43.2013 134.835 43.324 134.76C43.4493 134.685 43.548 134.587 43.62 134.464C43.6947 134.341 43.732 134.207 43.732 134.06C43.732 133.913 43.6947 133.779 43.62 133.656C43.548 133.531 43.4493 133.432 43.324 133.36C43.2013 133.285 43.0667 133.248 42.92 133.248C42.7733 133.248 42.6387 133.285 42.516 133.36C42.3933 133.432 42.2947 133.531 42.22 133.656C42.1453 133.779 42.108 133.913 42.108 134.06C42.108 134.207 42.1453 134.341 42.22 134.464C42.2947 134.587 42.3933 134.685 42.516 134.76C42.6387 134.835 42.7733 134.872 42.92 134.872Z" fill="white"/>
<rect x="65.2266" y="123.59" width="49.2966" height="3.79205" rx="1.89602" fill="#2A4A57"/>
<rect x="65.2266" y="132.691" width="27.3027" height="3.79205" rx="1.89602" fill="#2A4A57"/>
<rect x="65.2266" y="141.791" width="60.6728" height="3.79205" rx="1.89602" fill="#2A4A57"/>
</svg>
