<svg width="24" height="30" viewBox="0 0 24 30" fill="none" xmlns="http://www.w3.org/2000/svg">
<path d="M23.4543 13.5332L11.2705 29.3933C11.0391 29.6983 10.6732 29.8693 10.308 29.8693C10.1741 29.8693 10.0403 29.8449 9.91829 29.8085C9.41857 29.6376 9.08959 29.1741 9.08959 28.6493V17.6692H1.77935C1.30402 17.6692 0.877464 17.4005 0.670439 16.9615C0.475904 16.5344 0.536585 16.0346 0.841173 15.6682L13.0249 1.02812C13.3539 0.637935 13.8899 0.491384 14.3771 0.662359C14.865 0.833323 15.1814 1.29679 15.1814 1.8091V11.5692H22.4917C22.9545 11.5692 23.3811 11.8372 23.5881 12.2524C23.7951 12.667 23.7344 13.1674 23.4543 13.5332Z" fill="url(#paint0_linear_1233_7844)"/>
<defs>
<linearGradient id="paint0_linear_1233_7844" x1="5.47651" y1="8.5702" x2="18.7928" y2="21.8865" gradientUnits="userSpaceOnUse">
<stop stop-color="#6EFFFC"/>
<stop offset="1" stop-color="#4975ED"/>
</linearGradient>
</defs>
</svg>
