<svg width="22" height="21" viewBox="0 0 22 21" fill="none" xmlns="http://www.w3.org/2000/svg">
<path d="M11.0773 17.3813L5.8949 20.4825C5.66596 20.6272 5.42661 20.6892 5.17686 20.6686C4.9271 20.6479 4.70857 20.5652 4.52125 20.4205C4.33393 20.2757 4.18824 20.0946 4.08418 19.8771C3.98011 19.6596 3.9593 19.4169 4.02174 19.149L5.39539 13.2877L0.806151 9.34918C0.598023 9.16311 0.46815 8.95099 0.416534 8.71282C0.364918 8.47464 0.38032 8.24226 0.462739 8.01567C0.54599 7.78825 0.670867 7.60217 0.83737 7.45745C1.00387 7.31273 1.23282 7.21969 1.5242 7.17834L7.58074 6.65114L9.92219 1.13101C10.0263 0.882911 10.1878 0.696839 10.4067 0.572791C10.6257 0.448743 10.8492 0.386719 11.0773 0.386719C11.3062 0.386719 11.5298 0.448743 11.7479 0.572791C11.966 0.696839 12.1275 0.882911 12.2324 1.13101L14.5739 6.65114L20.6304 7.17834C20.9218 7.21969 21.1507 7.31273 21.3172 7.45745C21.4837 7.60217 21.6086 7.78825 21.6919 8.01567C21.7751 8.24309 21.7909 8.47589 21.7393 8.71406C21.6877 8.95223 21.5574 9.16394 21.3485 9.34918L16.7592 13.2877L18.1329 19.149C18.1953 19.4177 18.1745 19.6609 18.0704 19.8784C17.9664 20.0959 17.8207 20.2766 17.6334 20.4205C17.446 20.5652 17.2275 20.6479 16.9778 20.6686C16.728 20.6892 16.4887 20.6272 16.2597 20.4825L11.0773 17.3813Z" fill="#FFB900"/>
</svg>
