<svg width="22" height="21" viewBox="0 0 22 21" fill="none" xmlns="http://www.w3.org/2000/svg">
<path d="M10.923 4.81986V14.5603L14.8566 16.9642L13.8264 12.4686L17.2917 9.47154L12.7337 9.06569L10.923 4.81986ZM10.923 17.4949L5.7406 20.6168C5.51166 20.7625 5.27231 20.825 5.02256 20.8041C4.7728 20.7833 4.55427 20.7001 4.36695 20.5544C4.17964 20.4087 4.03395 20.2264 3.92988 20.0074C3.82582 19.7885 3.805 19.5441 3.86744 19.2744L5.24109 13.374L0.651854 9.4091C0.443726 9.22178 0.313853 9.00824 0.262237 8.76848C0.210621 8.52872 0.226023 8.29478 0.308442 8.06667C0.391693 7.83773 0.516571 7.65041 0.683074 7.50472C0.849577 7.35903 1.07852 7.26537 1.3699 7.22375L7.42645 6.69302L9.76789 1.13598C9.87196 0.886228 10.0335 0.698912 10.2524 0.574035C10.4714 0.449157 10.6949 0.386719 10.923 0.386719C11.152 0.386719 11.3755 0.449157 11.5936 0.574035C11.8117 0.698912 11.9732 0.886228 12.0781 1.13598L14.4196 6.69302L20.4761 7.22375C20.7675 7.26537 20.9964 7.35903 21.1629 7.50472C21.3294 7.65041 21.4543 7.83773 21.5376 8.06667C21.6208 8.29561 21.6366 8.52996 21.585 8.76973C21.5334 9.00949 21.4031 9.22262 21.1942 9.4091L16.6049 13.374L17.9786 19.2744C18.041 19.545 18.0202 19.7897 17.9161 20.0087C17.8121 20.2276 17.6664 20.4095 17.4791 20.5544C17.2917 20.7001 17.0732 20.7833 16.8235 20.8041C16.5737 20.825 16.3344 20.7625 16.1054 20.6168L10.923 17.4949Z" fill="#FFB900"/>
</svg>
