<svg width="231" height="316" viewBox="0 0 231 316" fill="none" xmlns="http://www.w3.org/2000/svg">
<rect width="231" height="316" rx="18" fill="#122C37"/>
<path d="M49.2921 60V47.04H53.4231C53.5311 47.04 53.7441 47.043 54.0621 47.049C54.3861 47.055 54.6981 47.076 54.9981 47.112C56.0241 47.244 56.8911 47.61 57.5991 48.21C58.3131 48.804 58.8531 49.563 59.2191 50.487C59.5851 51.411 59.7681 52.422 59.7681 53.52C59.7681 54.618 59.5851 55.629 59.2191 56.553C58.8531 57.477 58.3131 58.239 57.5991 58.839C56.8911 59.433 56.0241 59.796 54.9981 59.928C54.7041 59.964 54.3951 59.985 54.0711 59.991C53.7471 59.997 53.5311 60 53.4231 60H49.2921ZM51.4971 57.957H53.4231C53.6031 57.957 53.8311 57.951 54.1071 57.939C54.3891 57.927 54.6381 57.9 54.8541 57.858C55.4661 57.744 55.9641 57.471 56.3481 57.039C56.7321 56.607 57.0141 56.082 57.1941 55.464C57.3801 54.846 57.4731 54.198 57.4731 53.52C57.4731 52.818 57.3801 52.158 57.1941 51.54C57.0081 50.922 56.7201 50.403 56.3301 49.983C55.9461 49.563 55.4541 49.296 54.8541 49.182C54.6381 49.134 54.3891 49.107 54.1071 49.101C53.8311 49.089 53.6031 49.083 53.4231 49.083H51.4971V57.957ZM66.6746 60.27C65.6906 60.27 64.8266 60.057 64.0826 59.631C63.3386 59.205 62.7566 58.614 62.3366 57.858C61.9226 57.102 61.7156 56.232 61.7156 55.248C61.7156 54.186 61.9196 53.265 62.3276 52.485C62.7356 51.699 63.3026 51.09 64.0286 50.658C64.7546 50.226 65.5946 50.01 66.5486 50.01C67.5566 50.01 68.4116 50.247 69.1136 50.721C69.8216 51.189 70.3466 51.852 70.6886 52.71C71.0306 53.568 71.1596 54.579 71.0756 55.743H68.9246V54.951C68.9186 53.895 68.7326 53.124 68.3666 52.638C68.0006 52.152 67.4246 51.909 66.6386 51.909C65.7506 51.909 65.0906 52.185 64.6586 52.737C64.2266 53.283 64.0106 54.084 64.0106 55.14C64.0106 56.124 64.2266 56.886 64.6586 57.426C65.0906 57.966 65.7206 58.236 66.5486 58.236C67.0826 58.236 67.5416 58.119 67.9256 57.885C68.3156 57.645 68.6156 57.3 68.8256 56.85L70.9676 57.498C70.5956 58.374 70.0196 59.055 69.2396 59.541C68.4656 60.027 67.6106 60.27 66.6746 60.27ZM63.3266 55.743V54.105H70.0136V55.743H63.3266ZM74.2897 60V50.127C74.2897 49.881 74.2987 49.611 74.3167 49.317C74.3347 49.017 74.3857 48.72 74.4697 48.426C74.5537 48.132 74.7067 47.865 74.9287 47.625C75.2047 47.319 75.5017 47.109 75.8197 46.995C76.1437 46.875 76.4617 46.809 76.7737 46.797C77.0857 46.779 77.3587 46.77 77.5927 46.77H78.8077V48.534H77.6827C77.2687 48.534 76.9597 48.639 76.7557 48.849C76.5577 49.053 76.4587 49.323 76.4587 49.659V60H74.2897ZM72.7237 51.981V50.28H78.8077V51.981H72.7237ZM80.6977 48.804V46.815H82.8667V48.804H80.6977ZM80.6977 60V50.28H82.8667V60H80.6977ZM92.6556 60V55.32C92.6556 55.014 92.6346 54.675 92.5926 54.303C92.5506 53.931 92.4516 53.574 92.2956 53.232C92.1456 52.884 91.9176 52.599 91.6116 52.377C91.3116 52.155 90.9036 52.044 90.3876 52.044C90.1116 52.044 89.8386 52.089 89.5686 52.179C89.2986 52.269 89.0526 52.425 88.8306 52.647C88.6146 52.863 88.4406 53.163 88.3086 53.547C88.1766 53.925 88.1106 54.411 88.1106 55.005L86.8236 54.456C86.8236 53.628 86.9826 52.878 87.3006 52.206C87.6246 51.534 88.0986 51 88.7226 50.604C89.3466 50.202 90.1146 50.001 91.0266 50.001C91.7466 50.001 92.3406 50.121 92.8086 50.361C93.2766 50.601 93.6486 50.907 93.9246 51.279C94.2006 51.651 94.4046 52.047 94.5366 52.467C94.6686 52.887 94.7526 53.286 94.7886 53.664C94.8306 54.036 94.8516 54.339 94.8516 54.573V60H92.6556ZM85.9146 60V50.28H87.8496V53.295H88.1106V60H85.9146ZM101.821 60.27C100.837 60.27 99.973 60.057 99.229 59.631C98.485 59.205 97.903 58.614 97.483 57.858C97.069 57.102 96.862 56.232 96.862 55.248C96.862 54.186 97.066 53.265 97.474 52.485C97.882 51.699 98.449 51.09 99.175 50.658C99.901 50.226 100.741 50.01 101.695 50.01C102.703 50.01 103.558 50.247 104.26 50.721C104.968 51.189 105.493 51.852 105.835 52.71C106.177 53.568 106.306 54.579 106.222 55.743H104.071V54.951C104.065 53.895 103.879 53.124 103.513 52.638C103.147 52.152 102.571 51.909 101.785 51.909C100.897 51.909 100.237 52.185 99.805 52.737C99.373 53.283 99.157 54.084 99.157 55.14C99.157 56.124 99.373 56.886 99.805 57.426C100.237 57.966 100.867 58.236 101.695 58.236C102.229 58.236 102.688 58.119 103.072 57.885C103.462 57.645 103.762 57.3 103.972 56.85L106.114 57.498C105.742 58.374 105.166 59.055 104.386 59.541C103.612 60.027 102.757 60.27 101.821 60.27ZM98.473 55.743V54.105H105.16V55.743H98.473ZM112.554 60V47.04H117.909C118.035 47.04 118.197 47.046 118.395 47.058C118.593 47.064 118.776 47.082 118.944 47.112C119.694 47.226 120.312 47.475 120.798 47.859C121.29 48.243 121.653 48.729 121.887 49.317C122.127 49.899 122.247 50.547 122.247 51.261C122.247 51.969 122.127 52.617 121.887 53.205C121.647 53.787 121.281 54.27 120.789 54.654C120.303 55.038 119.688 55.287 118.944 55.401C118.776 55.425 118.59 55.443 118.386 55.455C118.188 55.467 118.029 55.473 117.909 55.473H114.723V60H112.554ZM114.723 53.448H117.819C117.939 53.448 118.074 53.442 118.224 53.43C118.374 53.418 118.512 53.394 118.638 53.358C118.998 53.268 119.28 53.109 119.484 52.881C119.694 52.653 119.841 52.395 119.925 52.107C120.015 51.819 120.06 51.537 120.06 51.261C120.06 50.985 120.015 50.703 119.925 50.415C119.841 50.121 119.694 49.86 119.484 49.632C119.28 49.404 118.998 49.245 118.638 49.155C118.512 49.119 118.374 49.098 118.224 49.092C118.074 49.08 117.939 49.074 117.819 49.074H114.723V53.448ZM124.41 60V50.28H126.327V52.647L126.093 52.341C126.213 52.017 126.372 51.723 126.57 51.459C126.774 51.189 127.017 50.967 127.299 50.793C127.539 50.631 127.803 50.505 128.091 50.415C128.385 50.319 128.685 50.262 128.991 50.244C129.297 50.22 129.594 50.232 129.882 50.28V52.305C129.594 52.221 129.261 52.194 128.883 52.224C128.511 52.254 128.175 52.359 127.875 52.539C127.575 52.701 127.329 52.908 127.137 53.16C126.951 53.412 126.813 53.7 126.723 54.024C126.633 54.342 126.588 54.687 126.588 55.059V60H124.41ZM136.076 60.27C135.104 60.27 134.255 60.051 133.529 59.613C132.803 59.175 132.239 58.572 131.837 57.804C131.441 57.03 131.243 56.142 131.243 55.14C131.243 54.12 131.447 53.226 131.855 52.458C132.263 51.69 132.83 51.09 133.556 50.658C134.282 50.226 135.122 50.01 136.076 50.01C137.054 50.01 137.906 50.229 138.632 50.667C139.358 51.105 139.922 51.711 140.324 52.485C140.726 53.253 140.927 54.138 140.927 55.14C140.927 56.148 140.723 57.039 140.315 57.813C139.913 58.581 139.349 59.184 138.623 59.622C137.897 60.054 137.048 60.27 136.076 60.27ZM136.076 58.236C136.94 58.236 137.582 57.948 138.002 57.372C138.422 56.796 138.632 56.052 138.632 55.14C138.632 54.198 138.419 53.448 137.993 52.89C137.567 52.326 136.928 52.044 136.076 52.044C135.494 52.044 135.014 52.176 134.636 52.44C134.264 52.698 133.988 53.061 133.808 53.529C133.628 53.991 133.538 54.528 133.538 55.14C133.538 56.082 133.751 56.835 134.177 57.399C134.609 57.957 135.242 58.236 136.076 58.236ZM147.167 60.27C146.273 60.27 145.493 60.045 144.827 59.595C144.161 59.145 143.645 58.533 143.279 57.759C142.913 56.985 142.73 56.112 142.73 55.14C142.73 54.156 142.913 53.28 143.279 52.512C143.651 51.738 144.176 51.129 144.854 50.685C145.532 50.235 146.33 50.01 147.248 50.01C148.172 50.01 148.946 50.235 149.57 50.685C150.2 51.129 150.677 51.738 151.001 52.512C151.325 53.286 151.487 54.162 151.487 55.14C151.487 56.106 151.325 56.979 151.001 57.759C150.677 58.533 150.194 59.145 149.552 59.595C148.91 60.045 148.115 60.27 147.167 60.27ZM147.5 58.326C148.082 58.326 148.55 58.194 148.904 57.93C149.264 57.66 149.525 57.285 149.687 56.805C149.855 56.325 149.939 55.77 149.939 55.14C149.939 54.504 149.855 53.949 149.687 53.475C149.525 52.995 149.27 52.623 148.922 52.359C148.574 52.089 148.124 51.954 147.572 51.954C146.99 51.954 146.51 52.098 146.132 52.386C145.754 52.668 145.475 53.052 145.295 53.538C145.115 54.018 145.025 54.552 145.025 55.14C145.025 55.734 145.112 56.274 145.286 56.76C145.466 57.24 145.739 57.621 146.105 57.903C146.471 58.185 146.936 58.326 147.5 58.326ZM149.939 60V53.178H149.669V47.04H151.856V60H149.939ZM158.385 60.279C157.665 60.279 157.071 60.159 156.603 59.919C156.135 59.679 155.763 59.373 155.487 59.001C155.211 58.629 155.007 58.233 154.875 57.813C154.743 57.393 154.656 56.997 154.614 56.625C154.578 56.247 154.56 55.941 154.56 55.707V50.28H156.756V54.96C156.756 55.26 156.777 55.599 156.819 55.977C156.861 56.349 156.957 56.709 157.107 57.057C157.263 57.399 157.491 57.681 157.791 57.903C158.097 58.125 158.508 58.236 159.024 58.236C159.3 58.236 159.573 58.191 159.843 58.101C160.113 58.011 160.356 57.858 160.572 57.642C160.794 57.42 160.971 57.117 161.103 56.733C161.235 56.349 161.301 55.863 161.301 55.275L162.588 55.824C162.588 56.652 162.426 57.402 162.102 58.074C161.784 58.746 161.313 59.283 160.689 59.685C160.065 60.081 159.297 60.279 158.385 60.279ZM161.562 60V56.985H161.301V50.28H163.479V60H161.562ZM170.588 60.27C169.586 60.27 168.731 60.048 168.023 59.604C167.315 59.154 166.772 58.542 166.394 57.768C166.022 56.994 165.833 56.118 165.827 55.14C165.833 54.144 166.028 53.262 166.412 52.494C166.802 51.72 167.354 51.114 168.068 50.676C168.782 50.232 169.631 50.01 170.615 50.01C171.719 50.01 172.652 50.289 173.414 50.847C174.182 51.399 174.683 52.155 174.917 53.115L172.757 53.7C172.589 53.178 172.31 52.773 171.92 52.485C171.53 52.191 171.086 52.044 170.588 52.044C170.024 52.044 169.559 52.179 169.193 52.449C168.827 52.713 168.557 53.079 168.383 53.547C168.209 54.015 168.122 54.546 168.122 55.14C168.122 56.064 168.329 56.811 168.743 57.381C169.157 57.951 169.772 58.236 170.588 58.236C171.164 58.236 171.617 58.104 171.947 57.84C172.283 57.576 172.535 57.195 172.703 56.697L174.917 57.192C174.617 58.182 174.092 58.944 173.342 59.478C172.592 60.006 171.674 60.27 170.588 60.27ZM182.778 60C182.136 60.12 181.506 60.171 180.888 60.153C180.276 60.141 179.727 60.03 179.241 59.82C178.755 59.604 178.386 59.265 178.134 58.803C177.912 58.383 177.795 57.954 177.783 57.516C177.771 57.078 177.765 56.583 177.765 56.031V47.58H179.925V55.905C179.925 56.295 179.928 56.637 179.934 56.931C179.946 57.225 180.009 57.465 180.123 57.651C180.339 58.011 180.684 58.212 181.158 58.254C181.632 58.296 182.172 58.272 182.778 58.182V60ZM176.001 51.981V50.28H182.778V51.981H176.001ZM82.6788 85.27C81.7308 85.27 80.8758 85.105 80.1138 84.775C79.3578 84.445 78.7338 83.974 78.2418 83.362C77.7558 82.744 77.4468 82.012 77.3148 81.166L79.5648 80.824C79.7568 81.592 80.1498 82.186 80.7438 82.606C81.3438 83.026 82.0338 83.236 82.8138 83.236C83.2758 83.236 83.7108 83.164 84.1188 83.02C84.5268 82.876 84.8568 82.666 85.1088 82.39C85.3668 82.114 85.4958 81.775 85.4958 81.373C85.4958 81.193 85.4658 81.028 85.4058 80.878C85.3458 80.722 85.2558 80.584 85.1358 80.464C85.0218 80.344 84.8718 80.236 84.6858 80.14C84.5058 80.038 84.2958 79.951 84.0558 79.879L80.7078 78.889C80.4198 78.805 80.1078 78.694 79.7718 78.556C79.4418 78.412 79.1268 78.217 78.8268 77.971C78.5328 77.719 78.2898 77.401 78.0978 77.017C77.9118 76.627 77.8188 76.147 77.8188 75.577C77.8188 74.743 78.0288 74.044 78.4488 73.48C78.8748 72.91 79.4448 72.484 80.1588 72.202C80.8788 71.92 81.6768 71.782 82.5528 71.788C83.4408 71.794 84.2328 71.947 84.9288 72.247C85.6248 72.541 86.2068 72.97 86.6748 73.534C87.1428 74.098 87.4728 74.779 87.6648 75.577L85.3338 75.982C85.2378 75.526 85.0518 75.139 84.7758 74.821C84.5058 74.497 84.1728 74.251 83.7768 74.083C83.3868 73.915 82.9698 73.825 82.5258 73.813C82.0938 73.807 81.6918 73.873 81.3198 74.011C80.9538 74.143 80.6568 74.335 80.4288 74.587C80.2068 74.839 80.0958 75.133 80.0958 75.469C80.0958 75.787 80.1918 76.048 80.3838 76.252C80.5758 76.45 80.8128 76.609 81.0948 76.729C81.3828 76.843 81.6738 76.939 81.9678 77.017L84.2898 77.665C84.6078 77.749 84.9648 77.863 85.3608 78.007C85.7568 78.151 86.1378 78.352 86.5038 78.61C86.8698 78.868 87.1698 79.207 87.4038 79.627C87.6438 80.047 87.7638 80.581 87.7638 81.229C87.7638 81.901 87.6228 82.492 87.3408 83.002C87.0648 83.506 86.6898 83.926 86.2158 84.262C85.7418 84.598 85.1988 84.85 84.5868 85.018C83.9808 85.186 83.3448 85.27 82.6788 85.27ZM95.7689 85C95.1269 85.12 94.4969 85.171 93.8789 85.153C93.2669 85.141 92.7179 85.03 92.2319 84.82C91.7459 84.604 91.3769 84.265 91.1249 83.803C90.9029 83.383 90.7859 82.954 90.7739 82.516C90.7619 82.078 90.7559 81.583 90.7559 81.031V72.58H92.9159V80.905C92.9159 81.295 92.9189 81.637 92.9249 81.931C92.9369 82.225 92.9999 82.465 93.1139 82.651C93.3299 83.011 93.6749 83.212 94.1489 83.254C94.6229 83.296 95.1629 83.272 95.7689 83.182V85ZM88.9919 76.981V75.28H95.7689V76.981H88.9919ZM98.219 85V75.28H100.136V77.647L99.902 77.341C100.022 77.017 100.181 76.723 100.379 76.459C100.583 76.189 100.826 75.967 101.108 75.793C101.348 75.631 101.612 75.505 101.9 75.415C102.194 75.319 102.494 75.262 102.8 75.244C103.106 75.22 103.403 75.232 103.691 75.28V77.305C103.403 77.221 103.07 77.194 102.692 77.224C102.32 77.254 101.984 77.359 101.684 77.539C101.384 77.701 101.138 77.908 100.946 78.16C100.76 78.412 100.622 78.7 100.532 79.024C100.442 79.342 100.397 79.687 100.397 80.059V85H98.219ZM108.258 85.27C107.556 85.27 106.962 85.138 106.476 84.874C105.99 84.604 105.621 84.247 105.369 83.803C105.123 83.359 105 82.87 105 82.336C105 81.868 105.078 81.448 105.234 81.076C105.39 80.698 105.63 80.374 105.954 80.104C106.278 79.828 106.698 79.603 107.214 79.429C107.604 79.303 108.06 79.189 108.582 79.087C109.11 78.985 109.68 78.892 110.292 78.808C110.91 78.718 111.555 78.622 112.227 78.52L111.453 78.961C111.459 78.289 111.309 77.794 111.003 77.476C110.697 77.158 110.181 76.999 109.455 76.999C109.017 76.999 108.594 77.101 108.186 77.305C107.778 77.509 107.493 77.86 107.331 78.358L105.351 77.737C105.591 76.915 106.047 76.255 106.719 75.757C107.397 75.259 108.309 75.01 109.455 75.01C110.319 75.01 111.078 75.151 111.732 75.433C112.392 75.715 112.881 76.177 113.199 76.819C113.373 77.161 113.478 77.512 113.514 77.872C113.55 78.226 113.568 78.613 113.568 79.033V85H111.669V82.894L111.984 83.236C111.546 83.938 111.033 84.454 110.445 84.784C109.863 85.108 109.134 85.27 108.258 85.27ZM108.69 83.542C109.182 83.542 109.602 83.455 109.95 83.281C110.298 83.107 110.574 82.894 110.778 82.642C110.988 82.39 111.129 82.153 111.201 81.931C111.315 81.655 111.378 81.34 111.39 80.986C111.408 80.626 111.417 80.335 111.417 80.113L112.083 80.311C111.429 80.413 110.868 80.503 110.4 80.581C109.932 80.659 109.53 80.734 109.194 80.806C108.858 80.872 108.561 80.947 108.303 81.031C108.051 81.121 107.838 81.226 107.664 81.346C107.49 81.466 107.355 81.604 107.259 81.76C107.169 81.916 107.124 82.099 107.124 82.309C107.124 82.549 107.184 82.762 107.304 82.948C107.424 83.128 107.598 83.272 107.826 83.38C108.06 83.488 108.348 83.542 108.69 83.542ZM121.968 85C121.326 85.12 120.696 85.171 120.078 85.153C119.466 85.141 118.917 85.03 118.431 84.82C117.945 84.604 117.576 84.265 117.324 83.803C117.102 83.383 116.985 82.954 116.973 82.516C116.961 82.078 116.955 81.583 116.955 81.031V72.58H119.115V80.905C119.115 81.295 119.118 81.637 119.124 81.931C119.136 82.225 119.199 82.465 119.313 82.651C119.529 83.011 119.874 83.212 120.348 83.254C120.822 83.296 121.362 83.272 121.968 83.182V85ZM115.191 76.981V75.28H121.968V76.981H115.191ZM128.345 85.27C127.361 85.27 126.497 85.057 125.753 84.631C125.009 84.205 124.427 83.614 124.007 82.858C123.593 82.102 123.386 81.232 123.386 80.248C123.386 79.186 123.59 78.265 123.998 77.485C124.406 76.699 124.973 76.09 125.699 75.658C126.425 75.226 127.265 75.01 128.219 75.01C129.227 75.01 130.082 75.247 130.784 75.721C131.492 76.189 132.017 76.852 132.359 77.71C132.701 78.568 132.83 79.579 132.746 80.743H130.595V79.951C130.589 78.895 130.403 78.124 130.037 77.638C129.671 77.152 129.095 76.909 128.309 76.909C127.421 76.909 126.761 77.185 126.329 77.737C125.897 78.283 125.681 79.084 125.681 80.14C125.681 81.124 125.897 81.886 126.329 82.426C126.761 82.966 127.391 83.236 128.219 83.236C128.753 83.236 129.212 83.119 129.596 82.885C129.986 82.645 130.286 82.3 130.496 81.85L132.638 82.498C132.266 83.374 131.69 84.055 130.91 84.541C130.136 85.027 129.281 85.27 128.345 85.27ZM124.997 80.743V79.105H131.684V80.743H124.997ZM139.2 89.59C138.66 89.59 138.141 89.506 137.643 89.338C137.151 89.17 136.707 88.927 136.311 88.609C135.915 88.297 135.591 87.919 135.339 87.475L137.337 86.485C137.523 86.839 137.784 87.1 138.12 87.268C138.462 87.442 138.825 87.529 139.209 87.529C139.659 87.529 140.061 87.448 140.415 87.286C140.769 87.13 141.042 86.896 141.234 86.584C141.432 86.278 141.525 85.894 141.513 85.432V82.669H141.783V75.28H143.682V85.468C143.682 85.714 143.67 85.948 143.646 86.17C143.628 86.398 143.595 86.62 143.547 86.836C143.403 87.466 143.127 87.982 142.719 88.384C142.311 88.792 141.804 89.095 141.198 89.293C140.598 89.491 139.932 89.59 139.2 89.59ZM139.011 85.27C138.117 85.27 137.337 85.045 136.671 84.595C136.005 84.145 135.489 83.533 135.123 82.759C134.757 81.985 134.574 81.112 134.574 80.14C134.574 79.156 134.757 78.28 135.123 77.512C135.495 76.738 136.02 76.129 136.698 75.685C137.376 75.235 138.174 75.01 139.092 75.01C140.016 75.01 140.79 75.235 141.414 75.685C142.044 76.129 142.521 76.738 142.845 77.512C143.169 78.286 143.331 79.162 143.331 80.14C143.331 81.106 143.169 81.979 142.845 82.759C142.521 83.533 142.038 84.145 141.396 84.595C140.754 85.045 139.959 85.27 139.011 85.27ZM139.344 83.326C139.926 83.326 140.394 83.194 140.748 82.93C141.108 82.66 141.369 82.285 141.531 81.805C141.699 81.325 141.783 80.77 141.783 80.14C141.783 79.504 141.699 78.949 141.531 78.475C141.369 77.995 141.114 77.623 140.766 77.359C140.418 77.089 139.968 76.954 139.416 76.954C138.834 76.954 138.354 77.098 137.976 77.386C137.598 77.668 137.319 78.052 137.139 78.538C136.959 79.018 136.869 79.552 136.869 80.14C136.869 80.734 136.956 81.274 137.13 81.76C137.31 82.24 137.583 82.621 137.949 82.903C138.315 83.185 138.78 83.326 139.344 83.326ZM147.844 89.32L149.716 84.181L149.752 85.693L145.513 75.28H147.772L150.778 82.984H150.202L153.127 75.28H155.296L149.878 89.32H147.844Z" fill="white"/>
<path d="M192.373 134.902L180.847 149.457L174.005 132.198L192.373 134.902ZM65.0855 274.785C65.0855 279.521 61.2462 283.36 56.5103 283.36C51.7744 283.36 47.9351 279.521 47.9351 274.785C47.9351 270.049 51.7744 266.21 56.5103 266.21C61.2462 266.21 65.0855 270.049 65.0855 274.785ZM175.548 144.15C171.597 146.239 167.988 148.413 164.683 150.659L162.875 148C166.283 145.683 169.994 143.449 174.046 141.307L175.548 144.15ZM154.747 158.389C151.473 161.311 148.582 164.324 146.005 167.406L143.538 165.343C146.214 162.143 149.213 159.018 152.605 155.99L154.747 158.389ZM138.665 177.608C136.411 181.258 134.46 184.974 132.714 188.729L129.798 187.373C131.589 183.523 133.598 179.693 135.929 175.918L138.665 177.608ZM127.847 200.445C126.332 204.465 124.935 208.479 123.524 212.479L120.492 211.409C121.896 207.427 123.308 203.372 124.838 199.311L127.847 200.445ZM119.063 224.562C117.46 228.586 115.714 232.542 113.691 236.376L110.847 234.875C112.802 231.171 114.501 227.326 116.076 223.372L119.063 224.562ZM106.697 247.406C104.123 250.772 101.181 253.98 97.7546 256.991L95.632 254.575C98.8908 251.712 101.69 248.66 104.142 245.453L106.697 247.406ZM87.1489 264.669C83.6486 266.753 79.7831 268.686 75.4968 270.45L74.2732 267.476C78.4237 265.768 82.1472 263.905 85.5033 261.906L87.1489 264.669ZM63.2239 274.685C61.1878 275.27 59.0758 275.824 56.8843 276.348L56.1363 273.221C58.2831 272.708 60.3485 272.165 62.3365 271.594L63.2239 274.685Z" fill="#BDC5D1"/>
<circle cx="175.49" cy="234.588" r="22.5098" fill="#EAF6EC" fill-opacity="0.1"/>
<path fill-rule="evenodd" clip-rule="evenodd" d="M180.44 239.569L176.196 235.357L180.44 231.145C180.832 230.757 180.831 230.129 180.44 229.741C180.05 229.354 179.417 229.353 179.026 229.741L174.781 233.953L170.537 229.741C170.146 229.353 169.513 229.353 169.122 229.741C168.731 230.129 168.731 230.757 169.122 231.145L173.366 235.357L169.121 239.569C168.73 239.957 168.731 240.585 169.121 240.973C169.512 241.361 170.145 241.361 170.536 240.973L174.781 236.761L179.025 240.973C179.416 241.361 180.049 241.362 180.44 240.973C180.831 240.585 180.83 239.957 180.44 239.569Z" fill="#231F20"/>
<mask id="mask0_1216_6704" style="mask-type:luminance" maskUnits="userSpaceOnUse" x="168" y="229" width="13" height="13">
<path fill-rule="evenodd" clip-rule="evenodd" d="M180.44 239.569L176.196 235.357L180.44 231.145C180.832 230.757 180.831 230.129 180.44 229.741C180.05 229.354 179.417 229.353 179.026 229.741L174.781 233.953L170.537 229.741C170.146 229.353 169.513 229.353 169.122 229.741C168.731 230.129 168.731 230.757 169.122 231.145L173.366 235.357L169.121 239.569C168.73 239.957 168.731 240.585 169.121 240.973C169.512 241.361 170.145 241.361 170.536 240.973L174.781 236.761L179.025 240.973C179.416 241.361 180.049 241.362 180.44 240.973C180.831 240.585 180.83 239.957 180.44 239.569Z" fill="white"/>
</mask>
<g mask="url(#mask0_1216_6704)">
<rect width="23.9189" height="23.9189" transform="matrix(0.709789 0.704415 -0.709839 0.704364 174.781 218.51)" fill="#48BF84"/>
</g>
<circle cx="56.5098" cy="212.078" r="22.5098" fill="#E9F9FF" fill-opacity="0.1"/>
<path fill-rule="evenodd" clip-rule="evenodd" d="M61.4596 217.06L57.2152 212.847L61.4599 208.636C61.8511 208.247 61.8504 207.619 61.4599 207.232C61.0694 206.844 60.4363 206.843 60.0451 207.231L55.8004 211.443L51.5561 207.231C51.1656 206.844 50.5325 206.843 50.1413 207.231C49.75 207.619 49.7507 208.248 50.1412 208.635L54.3856 212.847L50.1409 217.059C49.7497 217.447 49.7504 218.076 50.1409 218.463C50.5313 218.851 51.1645 218.852 51.5557 218.463L55.8003 214.251L60.0447 218.464C60.4351 218.851 61.0683 218.852 61.4595 218.464C61.8507 218.075 61.85 217.447 61.4596 217.06Z" fill="#231F20"/>
<mask id="mask1_1216_6704" style="mask-type:luminance" maskUnits="userSpaceOnUse" x="49" y="206" width="13" height="13">
<path fill-rule="evenodd" clip-rule="evenodd" d="M61.4596 217.06L57.2152 212.847L61.4599 208.636C61.8511 208.247 61.8504 207.619 61.4599 207.232C61.0694 206.844 60.4363 206.843 60.0451 207.231L55.8004 211.443L51.5561 207.231C51.1656 206.844 50.5325 206.843 50.1413 207.231C49.75 207.619 49.7507 208.248 50.1412 208.635L54.3856 212.847L50.1409 217.059C49.7497 217.447 49.7504 218.076 50.1409 218.463C50.5313 218.851 51.1645 218.852 51.5557 218.463L55.8003 214.251L60.0447 218.464C60.4351 218.851 61.0683 218.852 61.4595 218.464C61.8507 218.075 61.85 217.447 61.4596 217.06Z" fill="white"/>
</mask>
<g mask="url(#mask1_1216_6704)">
<rect width="23.9189" height="23.9189" transform="matrix(0.709789 0.704415 -0.709839 0.704364 55.8008 196)" fill="#0071CE"/>
</g>
<circle cx="96.7071" cy="136.51" r="22.5098" fill="#FFEFF3" fill-opacity="0.1"/>
<path fill-rule="evenodd" clip-rule="evenodd" d="M101.657 141.491L97.4125 137.279L101.657 133.067C102.048 132.679 102.048 132.051 101.657 131.663C101.267 131.276 100.634 131.275 100.242 131.663L95.9977 135.875L91.7534 131.663C91.3629 131.275 90.7297 131.275 90.3385 131.663C89.9473 132.051 89.948 132.679 90.3385 133.067L94.5828 137.279L90.3382 141.491C89.947 141.879 89.9476 142.507 90.3381 142.895C90.7286 143.282 91.3617 143.283 91.753 142.895L95.9976 138.683L100.242 142.895C100.632 143.283 101.266 143.283 101.657 142.895C102.048 142.507 102.047 141.879 101.657 141.491Z" fill="#231F20"/>
<mask id="mask2_1216_6704" style="mask-type:luminance" maskUnits="userSpaceOnUse" x="90" y="131" width="12" height="13">
<path fill-rule="evenodd" clip-rule="evenodd" d="M101.657 141.491L97.4125 137.279L101.657 133.067C102.048 132.679 102.048 132.051 101.657 131.663C101.267 131.276 100.634 131.275 100.242 131.663L95.9977 135.875L91.7534 131.663C91.3629 131.275 90.7297 131.275 90.3385 131.663C89.9473 132.051 89.948 132.679 90.3385 133.067L94.5828 137.279L90.3382 141.491C89.947 141.879 89.9476 142.507 90.3381 142.895C90.7286 143.282 91.3617 143.283 91.753 142.895L95.9976 138.683L100.242 142.895C100.632 143.283 101.266 143.283 101.657 142.895C102.048 142.507 102.047 141.879 101.657 141.491Z" fill="white"/>
</mask>
<g mask="url(#mask2_1216_6704)">
<rect width="23.9189" height="23.9189" transform="matrix(0.709789 0.704415 -0.709839 0.704364 95.998 120.432)" fill="#FF5582"/>
</g>
</svg>
