<svg width="39" height="39" viewBox="0 0 39 39" fill="none" xmlns="http://www.w3.org/2000/svg">
<g clip-path="url(#clip0_1233_7809)">
<path d="M18.6393 26.5528H20.7343V20.7628H26.0036V18.7041H20.7343V12.9141H18.6393V18.7041H13.4336V20.7628H18.6393V26.5528Z" fill="#E8762D"/>
<path d="M8.92443 34.9173H10.702V29.7706H15.3999V28.1622H10.702V22.9512H8.92443V28.1622H4.22656V29.7706H8.92443V34.9173Z" fill="#C72037"/>
<path d="M28.6705 16.3236H30.4481V11.1769H35.2095V9.63292H30.4481V4.42188H28.6705V9.63292H23.9727V11.1769H28.6705V16.3236Z" fill="#5B879B"/>
<path d="M18.9594 38.9702H20.483V35.3032H23.7207V33.9522H20.483V30.2852H18.9594V33.9522H15.7852V35.3032H18.9594V38.9702Z" fill="#5C6692"/>
<path d="M8.98792 16.3236H10.6385V11.1126H15.3999V9.63292H10.6385V4.42188H8.98792V9.63292H4.22656V11.1126H8.98792V16.3236Z" fill="#EB9129"/>
<path d="M34.0649 24.0446H35.5885V20.4419H38.8262V19.0265H35.5885V15.4238H34.0649V19.0265H30.8906V20.4419H34.0649V24.0446Z" fill="#5C6692"/>
<path fill-rule="evenodd" clip-rule="evenodd" d="M28.6705 34.9173H30.4481V29.7706H35.2095V28.1622H30.4481V22.9512H28.6705V28.1622H23.9727V29.7706H28.6705V34.9173Z" fill="#1F457E"/>
<path d="M23.4649 5.32344V4.22977H20.2906V0.691406H19.1479V4.22977H15.9737V5.32344H19.1479V8.8618H20.2906V5.32344H23.4649ZM3.72111 23.7873H4.86384V20.2489H8.03807V19.1552H4.86384V15.6812H3.72111V19.1552H0.546875V20.3132L3.72111 20.2489V23.7873Z" fill="#7199A6"/>
</g>
<defs>
<clipPath id="clip0_1233_7809">
<rect width="38.2813" height="38.2812" fill="white" transform="translate(0.546875 0.689453)"/>
</clipPath>
</defs>
</svg>
