<svg width="28" height="28" viewBox="0 0 28 28" fill="none" xmlns="http://www.w3.org/2000/svg">
<path d="M23.3265 7.80347C24.3724 7.17824 25.1549 6.19374 25.528 5.0338C24.5453 5.6169 23.4701 6.02766 22.3489 6.2483C20.7944 4.60392 18.3315 4.20375 16.3363 5.2714C14.3412 6.33905 13.3078 8.61021 13.8135 10.8158C9.78809 10.6137 6.03767 8.7122 3.49554 5.58447C2.16885 7.87279 2.84682 10.798 5.04488 12.2695C4.25004 12.2439 3.47282 12.0287 2.77804 11.6418C2.77804 11.6628 2.77804 11.6838 2.77804 11.7048C2.7785 14.0885 4.45848 16.1417 6.79488 16.6141C6.05762 16.8147 5.28428 16.8442 4.53388 16.7005C5.19094 18.739 7.06968 20.1355 9.21104 20.1771C7.43751 21.5691 5.24726 22.324 2.99271 22.3203C2.59309 22.3209 2.19379 22.2979 1.79688 22.2515C4.08633 23.7227 6.75097 24.5036 9.47238 24.5008C13.2585 24.5268 16.8971 23.0342 19.5742 20.3568C22.2514 17.6795 23.7437 14.0408 23.7174 10.2546C23.7174 10.0376 23.7123 9.8218 23.7022 9.60713C24.6827 8.8985 25.529 8.02064 26.2012 7.0148C25.2877 7.41971 24.3188 7.68554 23.3265 7.80347Z" fill="white"/>
</svg>
