<svg width="98" height="35" viewBox="0 0 98 35" fill="none" xmlns="http://www.w3.org/2000/svg">
<path d="M0 0H4.97299V0.256915C4.97299 7.03819 4.97299 13.8195 4.97299 20.6007C4.9396 22.1274 5.24805 23.6419 5.87525 25.0308C7.05645 27.5338 8.9937 29.0404 11.7024 29.4841C13.8416 29.8326 15.8482 29.4511 17.6661 28.2151C19.2879 27.1076 20.3229 25.5621 20.8808 23.68C21.1664 22.6571 21.3013 21.5973 21.2809 20.5346C21.2809 13.787 21.2809 7.0395 21.2809 0.291961V0.017511H26.2443V33.5151H21.3367V30.4262C21.2675 30.4865 21.229 30.5177 21.1944 30.5508C19.4262 32.385 17.107 33.5746 14.5996 33.9336C11.9847 34.3686 9.30082 33.9884 6.90447 32.8436C4.28812 31.5863 2.42975 29.5756 1.22354 26.9285C0.524837 25.3775 0.123355 23.7065 0.0404037 22.0041C0.0404037 21.934 0.0192473 21.8659 0.00962832 21.7978L0 0Z" fill="#CACACA"/>
<path d="M34.7795 30.4866V33.5113H30.0527V0.0136719H34.8199V12.2099C34.9026 12.1339 34.9507 12.0911 34.9969 12.0463C36.4818 10.586 38.3077 9.52948 40.3046 8.97493C41.9179 8.54092 43.6026 8.44947 45.2526 8.70633C48.0009 9.09936 50.5444 10.3982 52.4892 12.4018C54.434 14.4054 55.6716 17.0019 56.0104 19.7891C56.389 22.8036 55.6842 25.8554 54.0244 28.3879C52.3646 30.9204 49.8605 32.765 46.9686 33.5853C42.44 34.8699 38.3904 33.8578 34.9218 30.6053C34.8949 30.5781 34.868 30.5508 34.8391 30.5255C34.8103 30.5002 34.8218 30.5119 34.7795 30.4866ZM43.0825 12.8872C41.9826 12.8862 40.8932 13.1044 39.8765 13.5293C38.8599 13.9543 37.9359 14.5776 37.1574 15.3639C36.3789 16.1501 35.7611 17.0837 35.3392 18.1115C34.9173 19.1393 34.6997 20.2412 34.6987 21.3541C34.6977 22.467 34.9133 23.5692 35.3333 24.5978C35.7533 25.6263 36.3695 26.5611 37.1466 27.3488C37.9236 28.1365 38.8464 28.7616 39.8623 29.1884C40.8782 29.6153 41.9672 29.8355 43.0671 29.8365C47.615 29.8365 51.3529 26.0352 51.3683 21.3755C51.3837 17.0175 48.0247 12.8853 43.0825 12.8872Z" fill="#CACACA"/>
<path d="M82.3575 22.8943H62.6772C63.3005 25.9677 64.9742 28.1243 67.8348 29.3175C71.8113 30.6021 75.076 29.5355 77.6943 26.2713L81.1301 28.8406C80.9628 29.0547 80.8108 29.263 80.6434 29.4596C78.6619 31.7952 76.1975 33.3309 73.1772 33.8467C69.9914 34.3898 66.9287 33.983 64.1008 32.3325C60.9208 30.4775 58.9065 27.702 58.1543 24.0816C57.2906 19.9066 58.2409 16.1267 60.9919 12.8742C62.8879 10.5902 65.5687 9.11785 68.4947 8.75369C71.188 8.38582 73.7793 8.78094 76.1898 10.1162C78.8581 11.5993 80.6145 13.8533 81.6245 16.734C82.0899 18.0964 82.3348 19.526 82.3498 20.9674C82.3671 21.5941 82.3575 22.2267 82.3575 22.8943ZM77.5019 19.0541C76.9594 15.9612 74.2603 12.8061 70.1395 12.8256C65.9072 12.8509 63.3428 16.1909 62.8292 19.0541H77.5019Z" fill="#CACACA"/>
<path d="M85.0234 9.10574H89.7367V12.039L89.7752 12.0545L89.8964 11.8794C90.764 10.5889 91.8991 9.6449 93.3977 9.21085C93.9136 9.06287 94.4438 8.97151 94.979 8.93835C95.7024 8.89164 96.4315 8.92668 97.1721 8.92668V13.4034H96.949C96.2276 13.4034 95.5042 13.382 94.7866 13.4307C92.682 13.5728 91.2238 14.6744 90.3619 16.5916C89.9752 17.4856 89.7848 18.4538 89.804 19.4295C89.7951 24.0347 89.7951 28.6412 89.804 33.249V33.5098H85.0234V9.10574Z" fill="#CACACA"/>
</svg>
