<svg width="201" height="316" viewBox="0 0 201 316" fill="none" xmlns="http://www.w3.org/2000/svg">
<rect width="200.965" height="316" rx="24.9474" fill="#122C37"/>
<path d="M42.7955 252.229V240.254H46.6125C46.7123 240.254 46.9091 240.257 47.2029 240.262C47.5023 240.268 47.7906 240.287 48.0678 240.32C49.0158 240.442 49.8168 240.78 50.471 241.335C51.1307 241.884 51.6297 242.585 51.9679 243.439C52.306 244.292 52.4751 245.227 52.4751 246.241C52.4751 247.256 52.306 248.19 51.9679 249.044C51.6297 249.897 51.1307 250.601 50.471 251.156C49.8168 251.705 49.0158 252.04 48.0678 252.162C47.7961 252.195 47.5106 252.215 47.2112 252.22C46.9119 252.226 46.7123 252.229 46.6125 252.229H42.7955ZM44.8329 250.341H46.6125C46.7788 250.341 46.9895 250.335 47.2445 250.324C47.5051 250.313 47.7351 250.288 47.9347 250.249C48.5002 250.144 48.9603 249.892 49.3151 249.493C49.6699 249.093 49.9305 248.608 50.0968 248.037C50.2687 247.466 50.3546 246.868 50.3546 246.241C50.3546 245.593 50.2687 244.983 50.0968 244.412C49.925 243.841 49.6588 243.361 49.2985 242.973C48.9437 242.585 48.4891 242.338 47.9347 242.233C47.7351 242.189 47.5051 242.164 47.2445 242.158C46.9895 242.147 46.7788 242.141 46.6125 242.141H44.8329V250.341ZM58.8566 252.478C57.9474 252.478 57.1491 252.281 56.4616 251.888C55.7742 251.494 55.2364 250.948 54.8484 250.249C54.4658 249.551 54.2746 248.747 54.2746 247.838C54.2746 246.857 54.4631 246.006 54.8401 245.285C55.217 244.559 55.7409 243.996 56.4117 243.597C57.0826 243.198 57.8587 242.998 58.7402 242.998C59.6715 242.998 60.4615 243.217 61.1102 243.655C61.7643 244.087 62.2494 244.7 62.5654 245.493C62.8814 246.285 63.0006 247.22 62.923 248.295H60.9355V247.563C60.93 246.588 60.7581 245.875 60.42 245.426C60.0818 244.977 59.5496 244.753 58.8233 244.753C58.0028 244.753 57.393 245.008 56.9938 245.518C56.5947 246.022 56.3951 246.762 56.3951 247.738C56.3951 248.647 56.5947 249.351 56.9938 249.85C57.393 250.349 57.9751 250.599 58.7402 250.599C59.2336 250.599 59.6577 250.491 60.0125 250.274C60.3728 250.053 60.65 249.734 60.8441 249.318L62.8232 249.917C62.4795 250.726 61.9473 251.355 61.2266 251.804C60.5114 252.253 59.7214 252.478 58.8566 252.478ZM55.7631 248.295V246.782H61.9417V248.295H55.7631ZM68.5788 252.478C67.47 252.478 66.5691 252.229 65.8762 251.73C65.1832 251.231 64.7618 250.529 64.6122 249.626L66.6578 249.31C66.7632 249.753 66.996 250.102 67.3564 250.357C67.7167 250.612 68.1713 250.74 68.7202 250.74C69.2025 250.74 69.5739 250.646 69.8345 250.457C70.1006 250.263 70.2336 250 70.2336 249.667C70.2336 249.462 70.1837 249.299 70.0839 249.177C69.9897 249.049 69.779 248.927 69.4519 248.811C69.1249 248.694 68.6231 248.547 67.9468 248.37C67.1928 248.17 66.5941 247.957 66.1506 247.73C65.7071 247.497 65.3883 247.222 65.1943 246.906C65.0002 246.59 64.9032 246.208 64.9032 245.759C64.9032 245.199 65.0501 244.711 65.3439 244.295C65.6378 243.879 66.048 243.561 66.5747 243.339C67.1013 243.112 67.7223 242.998 68.4374 242.998C69.1359 242.998 69.7541 243.106 70.2918 243.322C70.8351 243.539 71.2731 243.846 71.6057 244.245C71.9384 244.645 72.1435 245.113 72.2211 245.651L70.1754 246.017C70.1255 245.634 69.9509 245.332 69.6515 245.11C69.3577 244.888 68.9641 244.764 68.4707 244.736C67.9995 244.708 67.6197 244.78 67.3314 244.952C67.0431 245.119 66.899 245.354 66.899 245.659C66.899 245.831 66.9572 245.978 67.0736 246.1C67.1901 246.222 67.4229 246.344 67.7722 246.466C68.127 246.588 68.6536 246.737 69.3522 246.915C70.0673 247.098 70.6383 247.308 71.0652 247.547C71.4976 247.78 71.8081 248.06 71.9966 248.387C72.1906 248.714 72.2876 249.11 72.2876 249.576C72.2876 250.479 71.9578 251.189 71.2981 251.705C70.6439 252.22 69.7375 252.478 68.5788 252.478ZM74.608 241.884V240.046H76.6121V241.884H74.608ZM74.608 252.229V243.247H76.6121V252.229H74.608ZM83.2111 256.47C82.7121 256.47 82.2326 256.392 81.7724 256.237C81.3178 256.081 80.9076 255.857 80.5417 255.563C80.1758 255.275 79.8764 254.926 79.6436 254.515L81.4897 253.601C81.6616 253.928 81.9027 254.169 82.2132 254.324C82.5292 254.485 82.8646 254.565 83.2194 254.565C83.6352 254.565 84.0066 254.49 84.3337 254.341C84.6608 254.197 84.913 253.98 85.0904 253.692C85.2734 253.409 85.3593 253.055 85.3482 252.628V250.075H85.5977V243.247H87.3523V252.661C87.3523 252.888 87.3412 253.104 87.3191 253.31C87.3024 253.52 87.2719 253.725 87.2276 253.925C87.0945 254.507 86.8395 254.984 86.4625 255.355C86.0856 255.732 85.6171 256.012 85.0572 256.195C84.5028 256.378 83.8874 256.47 83.2111 256.47ZM83.0364 252.478C82.2104 252.478 81.4897 252.27 80.8743 251.854C80.259 251.439 79.7822 250.873 79.444 250.158C79.1058 249.443 78.9368 248.636 78.9368 247.738C78.9368 246.829 79.1058 246.019 79.444 245.31C79.7877 244.595 80.2728 244.032 80.8993 243.622C81.5257 243.206 82.2631 242.998 83.1113 242.998C83.965 242.998 84.6802 243.206 85.2568 243.622C85.8389 244.032 86.2796 244.595 86.579 245.31C86.8783 246.025 87.028 246.834 87.028 247.738C87.028 248.631 86.8783 249.437 86.579 250.158C86.2796 250.873 85.8333 251.439 85.2401 251.854C84.6469 252.27 83.9124 252.478 83.0364 252.478ZM83.3441 250.682C83.8819 250.682 84.3143 250.56 84.6414 250.316C84.974 250.066 85.2152 249.72 85.3649 249.276C85.5201 248.833 85.5977 248.32 85.5977 247.738C85.5977 247.15 85.5201 246.638 85.3649 246.2C85.2152 245.756 84.9796 245.412 84.658 245.168C84.3365 244.919 83.9207 244.794 83.4106 244.794C82.8729 244.794 82.4294 244.927 82.0801 245.193C81.7309 245.454 81.4731 245.809 81.3068 246.258C81.1404 246.701 81.0573 247.195 81.0573 247.738C81.0573 248.287 81.1377 248.786 81.2984 249.235C81.4648 249.678 81.717 250.03 82.0552 250.291C82.3933 250.551 82.823 250.682 83.3441 250.682ZM96.2288 252.229V247.904C96.2288 247.622 96.2094 247.308 96.1706 246.965C96.1318 246.621 96.0403 246.291 95.8962 245.975C95.7576 245.653 95.5469 245.39 95.2642 245.185C94.987 244.98 94.61 244.877 94.1332 244.877C93.8782 244.877 93.6259 244.919 93.3765 245.002C93.127 245.085 92.8997 245.229 92.6946 245.435C92.495 245.634 92.3342 245.911 92.2123 246.266C92.0903 246.615 92.0293 247.064 92.0293 247.613L90.8402 247.106C90.8402 246.341 90.9871 245.648 91.2809 245.027C91.5803 244.406 92.0182 243.913 92.5948 243.547C93.1713 243.175 93.881 242.99 94.7236 242.99C95.3889 242.99 95.9377 243.101 96.3702 243.322C96.8026 243.544 97.1463 243.827 97.4013 244.171C97.6563 244.514 97.8448 244.88 97.9668 245.268C98.0888 245.656 98.1664 246.025 98.1996 246.374C98.2384 246.718 98.2578 246.998 98.2578 247.214V252.229H96.2288ZM90.0003 252.229V243.247H91.7882V246.033H92.0293V252.229H90.0003ZM108.855 252.478C107.979 252.478 107.189 252.326 106.485 252.021C105.786 251.716 105.21 251.281 104.755 250.715C104.306 250.144 104.021 249.468 103.899 248.686L105.978 248.37C106.155 249.08 106.518 249.628 107.067 250.017C107.622 250.405 108.259 250.599 108.98 250.599C109.407 250.599 109.809 250.532 110.186 250.399C110.563 250.266 110.867 250.072 111.1 249.817C111.339 249.562 111.458 249.249 111.458 248.877C111.458 248.711 111.43 248.558 111.375 248.42C111.319 248.276 111.236 248.148 111.125 248.037C111.02 247.926 110.881 247.827 110.709 247.738C110.543 247.644 110.349 247.563 110.127 247.497L107.034 246.582C106.768 246.504 106.479 246.402 106.169 246.274C105.864 246.141 105.573 245.961 105.296 245.734C105.024 245.501 104.8 245.207 104.622 244.852C104.45 244.492 104.364 244.049 104.364 243.522C104.364 242.751 104.559 242.105 104.947 241.584C105.34 241.058 105.867 240.664 106.527 240.403C107.192 240.143 107.929 240.015 108.739 240.021C109.559 240.026 110.291 240.168 110.934 240.445C111.577 240.717 112.115 241.113 112.547 241.634C112.98 242.155 113.285 242.785 113.462 243.522L111.308 243.896C111.219 243.475 111.048 243.117 110.793 242.823C110.543 242.524 110.235 242.297 109.87 242.141C109.509 241.986 109.124 241.903 108.714 241.892C108.314 241.886 107.943 241.947 107.599 242.075C107.261 242.197 106.987 242.374 106.776 242.607C106.571 242.84 106.468 243.112 106.468 243.422C106.468 243.716 106.557 243.957 106.734 244.146C106.912 244.329 107.131 244.475 107.391 244.586C107.658 244.692 107.926 244.78 108.198 244.852L110.344 245.451C110.637 245.529 110.967 245.634 111.333 245.767C111.699 245.9 112.051 246.086 112.389 246.324C112.727 246.563 113.005 246.876 113.221 247.264C113.443 247.652 113.553 248.145 113.553 248.744C113.553 249.365 113.423 249.911 113.163 250.382C112.908 250.848 112.561 251.236 112.123 251.547C111.685 251.857 111.183 252.09 110.618 252.245C110.058 252.4 109.47 252.478 108.855 252.478ZM115.852 241.884V240.046H117.856V241.884H115.852ZM115.852 252.229V243.247H117.856V252.229H115.852ZM131.466 252.229V246.773C131.466 246.158 131.313 245.678 131.008 245.335C130.703 244.985 130.29 244.811 129.769 244.811C129.448 244.811 129.159 244.886 128.904 245.035C128.649 245.179 128.447 245.396 128.297 245.684C128.148 245.967 128.073 246.305 128.073 246.699L127.183 246.175C127.177 245.554 127.316 245.008 127.599 244.536C127.887 244.06 128.275 243.688 128.763 243.422C129.251 243.156 129.794 243.023 130.393 243.023C131.385 243.023 132.145 243.322 132.671 243.921C133.204 244.514 133.47 245.296 133.47 246.266V252.229H131.466ZM120.663 252.229V243.247H122.435V246.033H122.684V252.229H120.663ZM126.077 252.229V246.798C126.077 246.172 125.925 245.684 125.62 245.335C125.315 244.985 124.899 244.811 124.372 244.811C123.862 244.811 123.452 244.985 123.142 245.335C122.837 245.684 122.684 246.139 122.684 246.699L121.786 246.1C121.786 245.518 121.93 244.994 122.218 244.528C122.507 244.062 122.895 243.697 123.383 243.43C123.876 243.159 124.428 243.023 125.038 243.023C125.708 243.023 126.268 243.167 126.717 243.455C127.172 243.738 127.51 244.126 127.732 244.62C127.959 245.107 128.073 245.659 128.073 246.274V252.229H126.077ZM140.287 252.478C139.411 252.478 138.677 252.27 138.084 251.854C137.49 251.439 137.044 250.873 136.745 250.158C136.445 249.437 136.296 248.631 136.296 247.738C136.296 246.834 136.445 246.025 136.745 245.31C137.044 244.595 137.482 244.032 138.059 243.622C138.641 243.206 139.359 242.998 140.212 242.998C141.061 242.998 141.795 243.206 142.416 243.622C143.043 244.032 143.528 244.595 143.871 245.31C144.215 246.019 144.387 246.829 144.387 247.738C144.387 248.636 144.218 249.443 143.88 250.158C143.542 250.873 143.065 251.439 142.449 251.854C141.834 252.27 141.113 252.478 140.287 252.478ZM135.955 256.22V243.247H137.726V249.551H137.975V256.22H135.955ZM139.98 250.682C140.501 250.682 140.93 250.551 141.269 250.291C141.607 250.03 141.856 249.678 142.017 249.235C142.183 248.786 142.266 248.287 142.266 247.738C142.266 247.195 142.183 246.701 142.017 246.258C141.851 245.809 141.593 245.454 141.244 245.193C140.894 244.927 140.451 244.794 139.913 244.794C139.403 244.794 138.987 244.919 138.666 245.168C138.344 245.412 138.106 245.756 137.951 246.2C137.801 246.638 137.726 247.15 137.726 247.738C137.726 248.32 137.801 248.833 137.951 249.276C138.106 249.72 138.347 250.066 138.674 250.316C139.007 250.56 139.442 250.682 139.98 250.682ZM146.719 252.229V240.004H148.723V252.229H146.719ZM155.63 252.478C154.72 252.478 153.922 252.281 153.235 251.888C152.547 251.494 152.01 250.948 151.621 250.249C151.239 249.551 151.048 248.747 151.048 247.838C151.048 246.857 151.236 246.006 151.613 245.285C151.99 244.559 152.514 243.996 153.185 243.597C153.856 243.198 154.632 242.998 155.513 242.998C156.445 242.998 157.235 243.217 157.883 243.655C158.537 244.087 159.022 244.7 159.338 245.493C159.654 246.285 159.774 247.22 159.696 248.295H157.709V247.563C157.703 246.588 157.531 245.875 157.193 245.426C156.855 244.977 156.323 244.753 155.596 244.753C154.776 244.753 154.166 245.008 153.767 245.518C153.368 246.022 153.168 246.762 153.168 247.738C153.168 248.647 153.368 249.351 153.767 249.85C154.166 250.349 154.748 250.599 155.513 250.599C156.007 250.599 156.431 250.491 156.786 250.274C157.146 250.053 157.423 249.734 157.617 249.318L159.596 249.917C159.253 250.726 158.72 251.355 158 251.804C157.284 252.253 156.494 252.478 155.63 252.478ZM152.536 248.295V246.782H158.715V248.295H152.536ZM43.1564 275.478C42.2029 275.478 41.363 275.284 40.6368 274.896C39.9161 274.508 39.3506 273.962 38.9403 273.258C38.5356 272.554 38.3333 271.728 38.3333 270.78V263.27L40.3623 263.254V270.73C40.3623 271.179 40.4372 271.581 40.5869 271.935C40.7421 272.29 40.95 272.592 41.2105 272.842C41.4711 273.086 41.7705 273.272 42.1087 273.399C42.4468 273.527 42.7961 273.59 43.1564 273.59C43.5279 273.59 43.8799 273.527 44.2125 273.399C44.5507 273.266 44.8501 273.077 45.1107 272.834C45.3712 272.584 45.5763 272.282 45.726 271.927C45.8757 271.572 45.9505 271.173 45.9505 270.73V263.254H47.9796V270.78C47.9796 271.728 47.7745 272.554 47.3642 273.258C46.9595 273.962 46.3941 274.508 45.6678 274.896C44.9471 275.284 44.11 275.478 43.1564 275.478ZM54.1038 275.478C52.995 275.478 52.0941 275.229 51.4012 274.73C50.7082 274.231 50.2868 273.529 50.1372 272.626L52.1828 272.31C52.2882 272.753 52.521 273.102 52.8814 273.357C53.2417 273.612 53.6963 273.74 54.2452 273.74C54.7275 273.74 55.0989 273.646 55.3595 273.457C55.6256 273.263 55.7586 273 55.7586 272.667C55.7586 272.462 55.7087 272.299 55.609 272.177C55.5147 272.049 55.304 271.927 54.977 271.811C54.6499 271.694 54.1481 271.547 53.4718 271.37C52.7178 271.17 52.1191 270.957 51.6756 270.73C51.2321 270.497 50.9133 270.222 50.7193 269.906C50.5252 269.59 50.4282 269.208 50.4282 268.759C50.4282 268.199 50.5751 267.711 50.8689 267.295C51.1628 266.879 51.573 266.561 52.0997 266.339C52.6264 266.112 53.2473 265.998 53.9624 265.998C54.661 265.998 55.2791 266.106 55.8168 266.322C56.3601 266.539 56.7981 266.846 57.1307 267.245C57.4634 267.645 57.6685 268.113 57.7461 268.651L55.7004 269.017C55.6505 268.634 55.4759 268.332 55.1765 268.11C54.8827 267.888 54.4891 267.764 53.9957 267.736C53.5245 267.708 53.1447 267.78 52.8564 267.952C52.5681 268.119 52.424 268.354 52.424 268.659C52.424 268.831 52.4822 268.978 52.5986 269.1C52.7151 269.222 52.9479 269.344 53.2972 269.466C53.652 269.588 54.1786 269.737 54.8772 269.915C55.5923 270.098 56.1633 270.308 56.5902 270.547C57.0226 270.78 57.3331 271.06 57.5216 271.387C57.7156 271.714 57.8126 272.11 57.8126 272.576C57.8126 273.479 57.4828 274.189 56.8231 274.705C56.1689 275.22 55.2625 275.478 54.1038 275.478ZM64.0497 275.478C63.1405 275.478 62.3422 275.281 61.6548 274.888C60.9674 274.494 60.4296 273.948 60.0415 273.249C59.659 272.551 59.4677 271.747 59.4677 270.838C59.4677 269.857 59.6562 269.006 60.0332 268.285C60.4102 267.559 60.9341 266.996 61.6049 266.597C62.2757 266.198 63.0518 265.998 63.9333 265.998C64.8647 265.998 65.6547 266.217 66.3033 266.655C66.9575 267.087 67.4426 267.7 67.7586 268.493C68.0746 269.285 68.1938 270.22 68.1162 271.295H66.1287V270.563C66.1231 269.588 65.9513 268.875 65.6131 268.426C65.2749 267.977 64.7427 267.753 64.0165 267.753C63.196 267.753 62.5862 268.008 62.187 268.518C61.7878 269.022 61.5883 269.762 61.5883 270.738C61.5883 271.647 61.7878 272.351 62.187 272.85C62.5862 273.349 63.1683 273.599 63.9333 273.599C64.4267 273.599 64.8508 273.491 65.2056 273.274C65.566 273.053 65.8432 272.734 66.0372 272.318L68.0164 272.917C67.6726 273.726 67.1404 274.355 66.4197 274.804C65.7046 275.253 64.9146 275.478 64.0497 275.478ZM60.9563 271.295V269.782H67.1349V271.295H60.9563ZM70.3042 275.229V266.247H72.0755V268.435L71.8593 268.152C71.9702 267.852 72.1171 267.581 72.3 267.337C72.4885 267.087 72.7131 266.882 72.9736 266.721C73.1954 266.572 73.4393 266.455 73.7054 266.372C73.9771 266.283 74.2542 266.231 74.537 266.214C74.8197 266.192 75.0941 266.203 75.3602 266.247V268.119C75.0941 268.041 74.7865 268.016 74.4372 268.044C74.0935 268.071 73.783 268.168 73.5058 268.335C73.2286 268.484 73.0013 268.676 72.8239 268.909C72.6521 269.141 72.5246 269.407 72.4414 269.707C72.3582 270.001 72.3167 270.319 72.3167 270.663V275.229H70.3042ZM81.1083 275.229V263.254H83.1124V275.229H81.1083ZM92.1479 275.229V270.904C92.1479 270.622 92.1285 270.308 92.0897 269.965C92.0509 269.621 91.9594 269.291 91.8153 268.975C91.6767 268.653 91.466 268.39 91.1833 268.185C90.9061 267.98 90.5291 267.877 90.0523 267.877C89.7973 267.877 89.545 267.919 89.2956 268.002C89.0461 268.085 88.8188 268.229 88.6137 268.435C88.4141 268.634 88.2533 268.911 88.1314 269.266C88.0094 269.615 87.9484 270.064 87.9484 270.613L86.7593 270.106C86.7593 269.341 86.9062 268.648 87.2 268.027C87.4994 267.406 87.9373 266.913 88.5139 266.547C89.0904 266.175 89.8001 265.99 90.6427 265.99C91.308 265.99 91.8568 266.101 92.2893 266.322C92.7217 266.544 93.0654 266.827 93.3204 267.171C93.5754 267.514 93.7639 267.88 93.8859 268.268C94.0078 268.656 94.0855 269.025 94.1187 269.374C94.1575 269.718 94.1769 269.998 94.1769 270.214V275.229H92.1479ZM85.9194 275.229V266.247H87.7073V269.033H87.9484V275.229H85.9194ZM101.943 275.229C101.35 275.339 100.768 275.387 100.197 275.37C99.6317 275.359 99.1244 275.256 98.6754 275.062C98.2263 274.863 97.8854 274.549 97.6525 274.123C97.4474 273.734 97.3393 273.338 97.3282 272.933C97.3171 272.529 97.3116 272.071 97.3116 271.561V263.753H99.3074V271.445C99.3074 271.805 99.3102 272.121 99.3157 272.393C99.3268 272.664 99.385 272.886 99.4903 273.058C99.6899 273.391 100.009 273.576 100.447 273.615C100.885 273.654 101.384 273.632 101.943 273.549V275.229ZM95.6817 267.819V266.247H101.943V267.819H95.6817ZM107.836 275.478C106.926 275.478 106.128 275.281 105.441 274.888C104.753 274.494 104.215 273.948 103.827 273.249C103.445 272.551 103.254 271.747 103.254 270.838C103.254 269.857 103.442 269.006 103.819 268.285C104.196 267.559 104.72 266.996 105.391 266.597C106.062 266.198 106.838 265.998 107.719 265.998C108.651 265.998 109.441 266.217 110.089 266.655C110.743 267.087 111.228 267.7 111.544 268.493C111.86 269.285 111.98 270.22 111.902 271.295H109.915V270.563C109.909 269.588 109.737 268.875 109.399 268.426C109.061 267.977 108.529 267.753 107.802 267.753C106.982 267.753 106.372 268.008 105.973 268.518C105.574 269.022 105.374 269.762 105.374 270.738C105.374 271.647 105.574 272.351 105.973 272.85C106.372 273.349 106.954 273.599 107.719 273.599C108.213 273.599 108.637 273.491 108.992 273.274C109.352 273.053 109.629 272.734 109.823 272.318L111.802 272.917C111.459 273.726 110.926 274.355 110.206 274.804C109.49 275.253 108.7 275.478 107.836 275.478ZM104.742 271.295V269.782H110.921V271.295H104.742ZM114.09 275.229V266.247H115.861V268.435L115.645 268.152C115.756 267.852 115.903 267.581 116.086 267.337C116.274 267.087 116.499 266.882 116.76 266.721C116.981 266.572 117.225 266.455 117.491 266.372C117.763 266.283 118.04 266.231 118.323 266.214C118.606 266.192 118.88 266.203 119.146 266.247V268.119C118.88 268.041 118.572 268.016 118.223 268.044C117.879 268.071 117.569 268.168 117.292 268.335C117.015 268.484 116.787 268.676 116.61 268.909C116.438 269.141 116.31 269.407 116.227 269.707C116.144 270.001 116.103 270.319 116.103 270.663V275.229H114.09ZM121.847 275.229V266.106C121.847 265.879 121.856 265.629 121.872 265.358C121.889 265.08 121.936 264.806 122.014 264.534C122.091 264.263 122.233 264.016 122.438 263.794C122.693 263.512 122.967 263.318 123.261 263.212C123.56 263.101 123.854 263.04 124.142 263.029C124.431 263.013 124.683 263.004 124.899 263.004H126.022V264.634H124.982C124.6 264.634 124.314 264.731 124.126 264.925C123.943 265.114 123.851 265.363 123.851 265.674V275.229H121.847ZM120.4 267.819V266.247H126.022V267.819H120.4ZM129.952 275.478C129.303 275.478 128.754 275.356 128.305 275.112C127.856 274.863 127.515 274.533 127.282 274.123C127.055 273.712 126.941 273.26 126.941 272.767C126.941 272.335 127.013 271.947 127.157 271.603C127.302 271.254 127.523 270.954 127.823 270.705C128.122 270.45 128.51 270.242 128.987 270.081C129.347 269.965 129.769 269.859 130.251 269.765C130.739 269.671 131.265 269.585 131.831 269.507C132.402 269.424 132.998 269.335 133.619 269.241L132.904 269.649C132.909 269.028 132.771 268.57 132.488 268.277C132.205 267.983 131.728 267.836 131.058 267.836C130.653 267.836 130.262 267.93 129.885 268.119C129.508 268.307 129.245 268.631 129.095 269.091L127.266 268.518C127.487 267.758 127.909 267.148 128.53 266.688C129.156 266.228 129.999 265.998 131.058 265.998C131.856 265.998 132.557 266.128 133.161 266.389C133.771 266.649 134.223 267.076 134.517 267.669C134.678 267.985 134.775 268.31 134.808 268.642C134.841 268.969 134.858 269.327 134.858 269.715V275.229H133.103V273.283L133.394 273.599C132.99 274.247 132.516 274.724 131.972 275.029C131.435 275.328 130.761 275.478 129.952 275.478ZM130.351 273.881C130.805 273.881 131.193 273.801 131.515 273.64C131.837 273.479 132.092 273.283 132.28 273.05C132.474 272.817 132.604 272.598 132.671 272.393C132.776 272.138 132.834 271.847 132.845 271.52C132.862 271.187 132.87 270.918 132.87 270.713L133.486 270.896C132.882 270.99 132.363 271.073 131.931 271.145C131.498 271.218 131.127 271.287 130.816 271.353C130.506 271.414 130.232 271.484 129.993 271.561C129.76 271.644 129.564 271.741 129.403 271.852C129.242 271.963 129.117 272.091 129.029 272.235C128.945 272.379 128.904 272.548 128.904 272.742C128.904 272.964 128.959 273.161 129.07 273.333C129.181 273.499 129.342 273.632 129.552 273.732C129.769 273.831 130.035 273.881 130.351 273.881ZM141.256 275.478C140.33 275.478 139.54 275.273 138.886 274.863C138.231 274.447 137.73 273.881 137.38 273.166C137.037 272.451 136.862 271.642 136.857 270.738C136.862 269.818 137.042 269.003 137.397 268.293C137.757 267.578 138.267 267.018 138.927 266.613C139.587 266.203 140.371 265.998 141.281 265.998C142.301 265.998 143.163 266.256 143.867 266.771C144.576 267.281 145.039 267.98 145.256 268.867L143.26 269.407C143.104 268.925 142.847 268.551 142.486 268.285C142.126 268.013 141.716 267.877 141.256 267.877C140.734 267.877 140.305 268.002 139.967 268.252C139.628 268.495 139.379 268.834 139.218 269.266C139.057 269.699 138.977 270.189 138.977 270.738C138.977 271.592 139.168 272.282 139.551 272.809C139.933 273.335 140.502 273.599 141.256 273.599C141.788 273.599 142.206 273.477 142.511 273.233C142.822 272.989 143.055 272.637 143.21 272.177L145.256 272.634C144.978 273.549 144.493 274.253 143.8 274.746C143.107 275.234 142.259 275.478 141.256 275.478ZM151.094 275.478C150.185 275.478 149.386 275.281 148.699 274.888C148.012 274.494 147.474 273.948 147.086 273.249C146.703 272.551 146.512 271.747 146.512 270.838C146.512 269.857 146.7 269.006 147.077 268.285C147.454 267.559 147.978 266.996 148.649 266.597C149.32 266.198 150.096 265.998 150.978 265.998C151.909 265.998 152.699 266.217 153.348 266.655C154.002 267.087 154.487 267.7 154.803 268.493C155.119 269.285 155.238 270.22 155.16 271.295H153.173V270.563C153.167 269.588 152.996 268.875 152.657 268.426C152.319 267.977 151.787 267.753 151.061 267.753C150.24 267.753 149.63 268.008 149.231 268.518C148.832 269.022 148.632 269.762 148.632 270.738C148.632 271.647 148.832 272.351 149.231 272.85C149.63 273.349 150.213 273.599 150.978 273.599C151.471 273.599 151.895 273.491 152.25 273.274C152.61 273.053 152.887 272.734 153.081 272.318L155.061 272.917C154.717 273.726 154.185 274.355 153.464 274.804C152.749 275.253 151.959 275.478 151.094 275.478ZM148 271.295V269.782H154.179V271.295H148ZM160.816 275.478C159.707 275.478 158.807 275.229 158.114 274.73C157.421 274.231 156.999 273.529 156.85 272.626L158.895 272.31C159.001 272.753 159.233 273.102 159.594 273.357C159.954 273.612 160.409 273.74 160.958 273.74C161.44 273.74 161.811 273.646 162.072 273.457C162.338 273.263 162.471 273 162.471 272.667C162.471 272.462 162.421 272.299 162.321 272.177C162.227 272.049 162.016 271.927 161.689 271.811C161.362 271.694 160.861 271.547 160.184 271.37C159.43 271.17 158.831 270.957 158.388 270.73C157.944 270.497 157.626 270.222 157.432 269.906C157.238 269.59 157.141 269.208 157.141 268.759C157.141 268.199 157.288 267.711 157.581 267.295C157.875 266.879 158.285 266.561 158.812 266.339C159.339 266.112 159.96 265.998 160.675 265.998C161.373 265.998 161.991 266.106 162.529 266.322C163.073 266.539 163.51 266.846 163.843 267.245C164.176 267.645 164.381 268.113 164.458 268.651L162.413 269.017C162.363 268.634 162.188 268.332 161.889 268.11C161.595 267.888 161.201 267.764 160.708 267.736C160.237 267.708 159.857 267.78 159.569 267.952C159.281 268.119 159.136 268.354 159.136 268.659C159.136 268.831 159.195 268.978 159.311 269.1C159.427 269.222 159.66 269.344 160.01 269.466C160.364 269.588 160.891 269.737 161.59 269.915C162.305 270.098 162.876 270.308 163.303 270.547C163.735 270.78 164.045 271.06 164.234 271.387C164.428 271.714 164.525 272.11 164.525 272.576C164.525 273.479 164.195 274.189 163.535 274.705C162.881 275.22 161.975 275.478 160.816 275.478Z" fill="white"/>
<rect x="15.2461" y="19.4043" width="171.86" height="206.021" rx="15.7669" fill="#1F3E4B"/>
<circle cx="54.1376" cy="58.2958" r="23.1248" stroke="#2A4A57" stroke-width="6.30678"/>
<mask id="path-5-inside-1_1216_6758" fill="white">
<path d="M77.2639 58.2958C79.0047 58.2958 80.4353 59.7119 80.227 61.4402C79.902 64.1371 79.16 66.7738 78.0219 69.2542C76.4445 72.6922 74.1435 75.7491 71.2762 78.216C68.4088 80.683 65.0427 82.5019 61.4078 83.5483C58.7852 84.3034 56.0673 84.6435 53.3521 84.5623C51.6121 84.5103 50.4254 82.8842 50.6853 81.163C50.9451 79.4418 52.5558 78.2835 54.2965 78.2696C56.1078 78.2552 57.9137 77.9944 59.6638 77.4906C62.4267 76.6951 64.9853 75.3126 67.1648 73.4374C69.3444 71.5623 71.0934 69.2387 72.2923 66.6255C73.0518 64.9702 73.5792 63.2235 73.8639 61.4347C74.1374 59.7156 75.5232 58.2958 77.2639 58.2958Z"/>
</mask>
<path d="M77.2639 58.2958C79.0047 58.2958 80.4353 59.7119 80.227 61.4402C79.902 64.1371 79.16 66.7738 78.0219 69.2542C76.4445 72.6922 74.1435 75.7491 71.2762 78.216C68.4088 80.683 65.0427 82.5019 61.4078 83.5483C58.7852 84.3034 56.0673 84.6435 53.3521 84.5623C51.6121 84.5103 50.4254 82.8842 50.6853 81.163C50.9451 79.4418 52.5558 78.2835 54.2965 78.2696C56.1078 78.2552 57.9137 77.9944 59.6638 77.4906C62.4267 76.6951 64.9853 75.3126 67.1648 73.4374C69.3444 71.5623 71.0934 69.2387 72.2923 66.6255C73.0518 64.9702 73.5792 63.2235 73.8639 61.4347C74.1374 59.7156 75.5232 58.2958 77.2639 58.2958Z" stroke="#FFB900" stroke-width="11.5624" mask="url(#path-5-inside-1_1216_6758)"/>
<path d="M39.6283 62.8807V61.4254L43.8971 57.6209C44.2297 57.3253 44.4607 57.0458 44.5901 56.7824C44.7195 56.5191 44.7841 56.265 44.7841 56.0201C44.7841 55.6875 44.7125 55.3918 44.5693 55.1331C44.4261 54.8698 44.2274 54.6619 43.9733 54.5094C43.7239 54.357 43.4351 54.2808 43.1071 54.2808C42.7606 54.2808 42.4534 54.3616 42.1854 54.5233C41.9221 54.6804 41.7165 54.8906 41.5687 55.1539C41.4209 55.4172 41.3516 55.7014 41.3608 56.0063H39.6422C39.6422 55.341 39.79 54.7612 40.0857 54.2669C40.386 53.7726 40.7972 53.3891 41.3192 53.1165C41.8459 52.844 42.4534 52.7077 43.1418 52.7077C43.7793 52.7077 44.3522 52.8509 44.8604 53.1373C45.3685 53.4191 45.7682 53.8118 46.0592 54.3154C46.3503 54.8144 46.4958 55.3895 46.4958 56.0409C46.4958 56.5168 46.4311 56.9164 46.3018 57.2398C46.1724 57.5632 45.9784 57.8612 45.7197 58.1337C45.4656 58.4063 45.1491 58.7089 44.7703 59.0415L41.7419 61.7234L41.5895 61.3076H46.4958V62.8807H39.6283ZM51.4257 63.1024C50.7651 63.1024 50.1783 62.9684 49.6655 62.7005C49.1527 62.4325 48.7508 62.0606 48.4598 61.5848C48.1687 61.1089 48.0232 60.5638 48.0232 59.9494C48.0232 59.3996 48.1502 58.8891 48.4043 58.4179C48.6584 57.9466 49.0303 57.5701 49.52 57.2883L49.4854 57.8219C49.1019 57.5308 48.8039 57.1959 48.5914 56.8171C48.3835 56.4336 48.2796 56.004 48.2796 55.5281C48.2796 54.9553 48.4136 54.4586 48.6815 54.0382C48.9541 53.6178 49.326 53.2921 49.7972 53.0611C50.2684 52.8255 50.8113 52.7077 51.4257 52.7077C52.0402 52.7077 52.583 52.8255 53.0542 53.0611C53.5301 53.2921 53.902 53.6178 54.1699 54.0382C54.4425 54.4586 54.5788 54.9553 54.5788 55.5281C54.5788 56.004 54.4772 56.4313 54.2739 56.8101C54.0752 57.189 53.7726 57.5308 53.3661 57.8358L53.3591 57.2952C53.8396 57.5678 54.2069 57.942 54.461 58.4179C54.7197 58.8891 54.8491 59.3996 54.8491 59.9494C54.8491 60.5638 54.7012 61.1089 54.4055 61.5848C54.1145 62.0606 53.7103 62.4325 53.1928 62.7005C52.68 62.9684 52.091 63.1024 51.4257 63.1024ZM51.4257 61.5294C51.9154 61.5294 52.3127 61.3954 52.6176 61.1274C52.9272 60.8595 53.0819 60.4668 53.0819 59.9494C53.0819 59.4319 52.9295 59.0392 52.6246 58.7713C52.3197 58.4987 51.92 58.3624 51.4257 58.3624C50.936 58.3624 50.541 58.4987 50.2407 58.7713C49.9404 59.0392 49.7903 59.4319 49.7903 59.9494C49.7903 60.4668 49.9404 60.8595 50.2407 61.1274C50.541 61.3954 50.936 61.5294 51.4257 61.5294ZM51.4257 56.7755C51.8369 56.7755 52.1695 56.6739 52.4236 56.4706C52.6823 56.2627 52.8117 55.9485 52.8117 55.5281C52.8117 55.1077 52.6823 54.7959 52.4236 54.5926C52.1695 54.3847 51.8369 54.2808 51.4257 54.2808C51.0192 54.2808 50.6865 54.3847 50.4278 54.5926C50.1737 54.7959 50.0467 55.1077 50.0467 55.5281C50.0467 55.9485 50.1737 56.2627 50.4278 56.4706C50.6865 56.6739 51.0192 56.7755 51.4257 56.7755Z" fill="white"/>
<path d="M59.0489 62.3945L58.3837 61.7293L65.7126 54.4114L66.3779 55.0766L59.0489 62.3945ZM64.7147 62.5608C64.3488 62.5608 64.0144 62.4721 63.7113 62.2947C63.4119 62.1136 63.1717 61.8734 62.9906 61.574C62.8095 61.271 62.719 60.9346 62.719 60.5651C62.719 60.2029 62.8114 59.8702 62.9961 59.5672C63.1809 59.2641 63.4249 59.022 63.7279 58.8409C64.031 58.6598 64.3599 58.5693 64.7147 58.5693C65.0806 58.5693 65.4151 58.6598 65.7182 58.8409C66.0212 59.0183 66.2615 59.2586 66.4389 59.5616C66.62 59.861 66.7105 60.1955 66.7105 60.5651C66.7105 60.9346 66.62 61.271 66.4389 61.574C66.2615 61.8734 66.0212 62.1136 65.7182 62.2947C65.4151 62.4721 65.0806 62.5608 64.7147 62.5608ZM64.7147 61.6905C64.918 61.6905 65.1047 61.6387 65.2747 61.5352C65.4484 61.4317 65.5851 61.295 65.6849 61.125C65.7884 60.955 65.8401 60.7683 65.8401 60.5651C65.8401 60.3618 65.7884 60.1751 65.6849 60.0051C65.5851 59.8314 65.4484 59.6947 65.2747 59.5949C65.1047 59.4914 64.918 59.4397 64.7147 59.4397C64.5115 59.4397 64.3248 59.4914 64.1548 59.5949C63.9848 59.6947 63.8481 59.8314 63.7446 60.0051C63.6411 60.1751 63.5893 60.3618 63.5893 60.5651C63.5893 60.7683 63.6411 60.955 63.7446 61.125C63.8481 61.295 63.9848 61.4317 64.1548 61.5352C64.3248 61.6387 64.5115 61.6905 64.7147 61.6905ZM60.0468 58.2366C59.6809 58.2366 59.3464 58.1479 59.0434 57.9705C58.7403 57.7894 58.4982 57.5492 58.3171 57.2498C58.1397 56.9468 58.051 56.6104 58.051 56.2408C58.051 55.8786 58.1434 55.546 58.3282 55.243C58.513 54.9399 58.7569 54.6978 59.06 54.5167C59.3631 54.3356 59.692 54.2451 60.0468 54.2451C60.4127 54.2451 60.7453 54.3356 61.0447 54.5167C61.3478 54.6941 61.5899 54.9343 61.771 55.2374C61.9521 55.5368 62.0426 55.8713 62.0426 56.2408C62.0426 56.6104 61.9521 56.9468 61.771 57.2498C61.5899 57.5492 61.3478 57.7894 61.0447 57.9705C60.7453 58.1479 60.4127 58.2366 60.0468 58.2366ZM60.0468 57.3662C60.2501 57.3662 60.4367 57.3145 60.6067 57.211C60.7804 57.1075 60.9172 56.9708 61.017 56.8008C61.1205 56.6308 61.1722 56.4441 61.1722 56.2408C61.1722 56.0376 61.1205 55.8509 61.017 55.6809C60.9172 55.5072 60.7804 55.3705 60.6067 55.2707C60.4367 55.1672 60.2501 55.1154 60.0468 55.1154C59.8435 55.1154 59.6569 55.1672 59.4869 55.2707C59.3169 55.3705 59.1801 55.5072 59.0766 55.6809C58.9732 55.8509 58.9214 56.0376 58.9214 56.2408C58.9214 56.4441 58.9732 56.6308 59.0766 56.8008C59.1801 56.9708 59.3169 57.1075 59.4869 57.211C59.6569 57.3145 59.8435 57.3662 60.0468 57.3662Z" fill="white"/>
<rect x="90.4023" y="43.0547" width="68.3234" height="5.25565" rx="2.62782" fill="#2A4A57"/>
<rect x="90.4023" y="55.668" width="37.8407" height="5.25565" rx="2.62782" fill="#2A4A57"/>
<rect x="90.4023" y="68.2812" width="84.0903" height="5.25565" rx="2.62782" fill="#2A4A57"/>
<rect x="27.8594" y="107.174" width="68.3234" height="5.25565" rx="2.62782" fill="#2A4A57"/>
<rect x="27.8594" y="119.787" width="37.8407" height="5.25565" rx="2.62782" fill="#2A4A57"/>
<rect x="27.8594" y="132.4" width="84.0903" height="5.25565" rx="2.62782" fill="#2A4A57"/>
<circle cx="148.214" cy="122.415" r="23.1248" stroke="#2A4A57" stroke-width="6.30678"/>
<mask id="path-15-inside-2_1216_6758" fill="white">
<path d="M171.34 122.415C173.081 122.415 174.512 123.831 174.303 125.559C173.671 130.806 171.467 135.767 167.945 139.771C163.725 144.568 157.903 147.664 151.566 148.478C145.229 149.293 138.813 147.772 133.517 144.199C128.22 140.626 124.407 135.245 122.791 129.064C121.174 122.884 121.865 116.325 124.733 110.617C127.601 104.908 132.451 100.44 138.376 98.0479C144.3 95.656 150.892 95.5042 156.92 97.621C161.952 99.3879 166.303 102.634 169.423 106.899C170.45 108.304 169.896 110.24 168.379 111.092C166.861 111.944 164.957 111.385 163.877 110.02C161.546 107.074 158.416 104.827 154.832 103.569C150.25 101.96 145.239 102.075 140.736 103.893C136.233 105.711 132.546 109.108 130.366 113.447C128.185 117.786 127.661 122.771 128.889 127.469C130.118 132.168 133.017 136.257 137.042 138.973C141.068 141.689 145.945 142.846 150.762 142.226C155.578 141.607 160.004 139.254 163.212 135.607C165.721 132.755 167.35 129.264 167.94 125.554C168.214 123.835 169.599 122.415 171.34 122.415Z"/>
</mask>
<path d="M171.34 122.415C173.081 122.415 174.512 123.831 174.303 125.559C173.671 130.806 171.467 135.767 167.945 139.771C163.725 144.568 157.903 147.664 151.566 148.478C145.229 149.293 138.813 147.772 133.517 144.199C128.22 140.626 124.407 135.245 122.791 129.064C121.174 122.884 121.865 116.325 124.733 110.617C127.601 104.908 132.451 100.44 138.376 98.0479C144.3 95.656 150.892 95.5042 156.92 97.621C161.952 99.3879 166.303 102.634 169.423 106.899C170.45 108.304 169.896 110.24 168.379 111.092C166.861 111.944 164.957 111.385 163.877 110.02C161.546 107.074 158.416 104.827 154.832 103.569C150.25 101.96 145.239 102.075 140.736 103.893C136.233 105.711 132.546 109.108 130.366 113.447C128.185 117.786 127.661 122.771 128.889 127.469C130.118 132.168 133.017 136.257 137.042 138.973C141.068 141.689 145.945 142.846 150.762 142.226C155.578 141.607 160.004 139.254 163.212 135.607C165.721 132.755 167.35 129.264 167.94 125.554C168.214 123.835 169.599 122.415 171.34 122.415Z" stroke="#48BF84" stroke-width="11.5624" mask="url(#path-15-inside-2_1216_6758)"/>
<path d="M138.785 116.477C139.437 116.477 140.024 116.632 140.546 116.942C141.068 117.247 141.479 117.672 141.779 118.217C142.084 118.757 142.237 119.381 142.237 120.088V123.13C142.237 123.883 142.084 124.541 141.779 125.105C141.479 125.664 141.056 126.096 140.511 126.401C139.966 126.706 139.328 126.858 138.598 126.858C138.095 126.858 137.619 126.773 137.171 126.602C136.723 126.426 136.321 126.158 135.965 125.798L137.164 124.627C137.344 124.835 137.559 124.999 137.808 125.119C138.062 125.234 138.326 125.292 138.598 125.292C138.986 125.292 139.326 125.202 139.617 125.022C139.908 124.837 140.134 124.599 140.296 124.308C140.458 124.012 140.539 123.696 140.539 123.359V121.702L140.837 122.035C140.555 122.368 140.213 122.629 139.811 122.818C139.409 123.003 138.986 123.095 138.543 123.095C137.919 123.095 137.365 122.952 136.88 122.666C136.399 122.379 136.02 121.991 135.743 121.502C135.471 121.007 135.334 120.448 135.334 119.825C135.334 119.201 135.491 118.637 135.806 118.134C136.12 117.625 136.538 117.224 137.06 116.928C137.587 116.628 138.162 116.477 138.785 116.477ZM138.785 118.071C138.462 118.071 138.166 118.15 137.898 118.307C137.63 118.464 137.418 118.676 137.261 118.944C137.104 119.208 137.025 119.501 137.025 119.825C137.025 120.148 137.102 120.444 137.254 120.712C137.411 120.979 137.621 121.192 137.885 121.349C138.153 121.506 138.448 121.585 138.772 121.585C139.095 121.585 139.391 121.506 139.659 121.349C139.927 121.192 140.139 120.979 140.296 120.712C140.458 120.444 140.539 120.148 140.539 119.825C140.539 119.51 140.46 119.222 140.303 118.958C140.146 118.69 139.933 118.476 139.666 118.314C139.402 118.152 139.109 118.071 138.785 118.071ZM145.904 126.65V118.494L144.033 119.637V117.794L145.904 116.671H147.608V126.65H145.904Z" fill="white"/>
<path d="M152.485 126.15L151.82 125.485L159.149 118.167L159.814 118.832L152.485 126.15ZM158.151 126.317C157.785 126.317 157.451 126.228 157.148 126.051C156.848 125.87 156.608 125.629 156.427 125.33C156.246 125.027 156.155 124.691 156.155 124.321C156.155 123.959 156.248 123.626 156.433 123.323C156.617 123.02 156.861 122.778 157.164 122.597C157.468 122.416 157.796 122.325 158.151 122.325C158.517 122.325 158.852 122.416 159.155 122.597C159.458 122.774 159.698 123.014 159.875 123.317C160.056 123.617 160.147 123.951 160.147 124.321C160.147 124.691 160.056 125.027 159.875 125.33C159.698 125.629 159.458 125.87 159.155 126.051C158.852 126.228 158.517 126.317 158.151 126.317ZM158.151 125.446C158.355 125.446 158.541 125.395 158.711 125.291C158.885 125.188 159.022 125.051 159.121 124.881C159.225 124.711 159.277 124.524 159.277 124.321C159.277 124.118 159.225 123.931 159.121 123.761C159.022 123.587 158.885 123.451 158.711 123.351C158.541 123.247 158.355 123.196 158.151 123.196C157.948 123.196 157.761 123.247 157.591 123.351C157.421 123.451 157.285 123.587 157.181 123.761C157.078 123.931 157.026 124.118 157.026 124.321C157.026 124.524 157.078 124.711 157.181 124.881C157.285 125.051 157.421 125.188 157.591 125.291C157.761 125.395 157.948 125.446 158.151 125.446ZM153.483 121.992C153.117 121.992 152.783 121.904 152.48 121.726C152.177 121.545 151.935 121.305 151.754 121.006C151.576 120.703 151.488 120.366 151.488 119.997C151.488 119.635 151.58 119.302 151.765 118.999C151.95 118.696 152.193 118.454 152.497 118.273C152.8 118.091 153.129 118.001 153.483 118.001C153.849 118.001 154.182 118.091 154.481 118.273C154.784 118.45 155.026 118.69 155.207 118.993C155.389 119.293 155.479 119.627 155.479 119.997C155.479 120.366 155.389 120.703 155.207 121.006C155.026 121.305 154.784 121.545 154.481 121.726C154.182 121.904 153.849 121.992 153.483 121.992ZM153.483 121.122C153.687 121.122 153.873 121.07 154.043 120.967C154.217 120.863 154.354 120.727 154.453 120.557C154.557 120.387 154.609 120.2 154.609 119.997C154.609 119.793 154.557 119.607 154.453 119.437C154.354 119.263 154.217 119.126 154.043 119.027C153.873 118.923 153.687 118.871 153.483 118.871C153.28 118.871 153.093 118.923 152.923 119.027C152.753 119.126 152.617 119.263 152.513 119.437C152.41 119.607 152.358 119.793 152.358 119.997C152.358 120.2 152.41 120.387 152.513 120.557C152.617 120.727 152.753 120.863 152.923 120.967C153.093 121.07 153.28 121.122 153.483 121.122Z" fill="white"/>
<circle cx="54.1376" cy="186.534" r="23.1248" stroke="#2A4A57" stroke-width="6.30678"/>
<mask id="path-19-inside-3_1216_6758" fill="white">
<path d="M77.2639 186.534C79.0047 186.534 80.4353 187.95 80.227 189.678C79.8252 193.012 78.7868 196.249 77.1579 199.207C75.0208 203.089 71.9365 206.368 68.1921 208.738C64.4476 211.108 60.1646 212.493 55.7413 212.763C51.3181 213.034 46.8983 212.181 42.893 210.285C38.8876 208.389 35.4269 205.51 32.8327 201.917C30.2385 198.325 28.595 194.134 28.0551 189.736C27.5152 185.337 28.0965 180.873 29.7448 176.76C31.001 173.625 32.846 170.77 35.1702 168.347C36.3749 167.09 38.3771 167.299 39.4804 168.646C40.5836 169.992 40.3637 171.964 39.2074 173.265C37.6809 174.983 36.4569 176.957 35.5963 179.105C34.3434 182.231 33.9016 185.624 34.312 188.968C34.7223 192.311 35.9716 195.496 37.9435 198.227C39.9154 200.958 42.5459 203.146 45.5904 204.587C48.6349 206.029 51.9944 206.677 55.3566 206.471C58.7188 206.266 61.9744 205.213 64.8206 203.412C67.6668 201.61 70.0112 199.118 71.6357 196.167C72.7515 194.14 73.5028 191.942 73.8639 189.673C74.1374 187.954 75.5232 186.534 77.2639 186.534Z"/>
</mask>
<path d="M77.2639 186.534C79.0047 186.534 80.4353 187.95 80.227 189.678C79.8252 193.012 78.7868 196.249 77.1579 199.207C75.0208 203.089 71.9365 206.368 68.1921 208.738C64.4476 211.108 60.1646 212.493 55.7413 212.763C51.3181 213.034 46.8983 212.181 42.893 210.285C38.8876 208.389 35.4269 205.51 32.8327 201.917C30.2385 198.325 28.595 194.134 28.0551 189.736C27.5152 185.337 28.0965 180.873 29.7448 176.76C31.001 173.625 32.846 170.77 35.1702 168.347C36.3749 167.09 38.3771 167.299 39.4804 168.646C40.5836 169.992 40.3637 171.964 39.2074 173.265C37.6809 174.983 36.4569 176.957 35.5963 179.105C34.3434 182.231 33.9016 185.624 34.312 188.968C34.7223 192.311 35.9716 195.496 37.9435 198.227C39.9154 200.958 42.5459 203.146 45.5904 204.587C48.6349 206.029 51.9944 206.677 55.3566 206.471C58.7188 206.266 61.9744 205.213 64.8206 203.412C67.6668 201.61 70.0112 199.118 71.6357 196.167C72.7515 194.14 73.5028 191.942 73.8639 189.673C74.1374 187.954 75.5232 186.534 77.2639 186.534Z" stroke="#8749E8" stroke-width="11.5624" mask="url(#path-19-inside-3_1216_6758)"/>
<path d="M40.4596 192.404L43.8968 184.005H39.5379V182.425H45.6847V184.005L42.2613 192.404H40.4596ZM47.0665 192.39V190.935L51.3353 187.131C51.6679 186.835 51.8989 186.556 52.0283 186.292C52.1576 186.029 52.2223 185.775 52.2223 185.53C52.2223 185.197 52.1507 184.902 52.0075 184.643C51.8643 184.38 51.6656 184.172 51.4115 184.019C51.162 183.867 50.8733 183.791 50.5453 183.791C50.1988 183.791 49.8916 183.871 49.6236 184.033C49.3603 184.19 49.1547 184.4 49.0069 184.664C48.859 184.927 48.7897 185.211 48.799 185.516H47.0804C47.0804 184.851 47.2282 184.271 47.5239 183.777C47.8242 183.282 48.2353 182.899 48.7574 182.626C49.2841 182.354 49.8916 182.217 50.5799 182.217C51.2175 182.217 51.7903 182.361 52.2985 182.647C52.8067 182.929 53.2063 183.322 53.4974 183.825C53.7884 184.324 53.934 184.899 53.934 185.551C53.934 186.027 53.8693 186.426 53.7399 186.75C53.6106 187.073 53.4165 187.371 53.1578 187.644C52.9037 187.916 52.5873 188.219 52.2084 188.551L49.1801 191.233L49.0276 190.817H53.934V192.39H47.0665Z" fill="white"/>
<path d="M57.8565 191.404L57.1913 190.739L64.5202 183.421L65.1855 184.086L57.8565 191.404ZM63.5223 191.571C63.1564 191.571 62.822 191.482 62.5189 191.305C62.2195 191.123 61.9793 190.883 61.7982 190.584C61.6171 190.281 61.5266 189.944 61.5266 189.575C61.5266 189.213 61.619 188.88 61.8037 188.577C61.9885 188.274 62.2325 188.032 62.5355 187.851C62.8386 187.67 63.1675 187.579 63.5223 187.579C63.8882 187.579 64.2227 187.67 64.5258 187.851C64.8288 188.028 65.0691 188.268 65.2465 188.571C65.4276 188.871 65.5181 189.205 65.5181 189.575C65.5181 189.944 65.4276 190.281 65.2465 190.584C65.0691 190.883 64.8288 191.123 64.5258 191.305C64.2227 191.482 63.8882 191.571 63.5223 191.571ZM63.5223 190.7C63.7256 190.7 63.9123 190.648 64.0823 190.545C64.256 190.442 64.3927 190.305 64.4925 190.135C64.596 189.965 64.6477 189.778 64.6477 189.575C64.6477 189.372 64.596 189.185 64.4925 189.015C64.3927 188.841 64.256 188.704 64.0823 188.605C63.9123 188.501 63.7256 188.449 63.5223 188.449C63.3191 188.449 63.1324 188.501 62.9624 188.605C62.7924 188.704 62.6557 188.841 62.5522 189.015C62.4487 189.185 62.3969 189.372 62.3969 189.575C62.3969 189.778 62.4487 189.965 62.5522 190.135C62.6557 190.305 62.7924 190.442 62.9624 190.545C63.1324 190.648 63.3191 190.7 63.5223 190.7ZM58.8544 187.246C58.4885 187.246 58.154 187.158 57.851 186.98C57.5479 186.799 57.3058 186.559 57.1247 186.26C56.9473 185.957 56.8586 185.62 56.8586 185.251C56.8586 184.888 56.951 184.556 57.1358 184.253C57.3206 183.95 57.5645 183.708 57.8676 183.526C58.1707 183.345 58.4996 183.255 58.8544 183.255C59.2203 183.255 59.5529 183.345 59.8523 183.526C60.1554 183.704 60.3975 183.944 60.5786 184.247C60.7597 184.547 60.8502 184.881 60.8502 185.251C60.8502 185.62 60.7597 185.957 60.5786 186.26C60.3975 186.559 60.1554 186.799 59.8523 186.98C59.5529 187.158 59.2203 187.246 58.8544 187.246ZM58.8544 186.376C59.0577 186.376 59.2443 186.324 59.4143 186.221C59.588 186.117 59.7248 185.981 59.8246 185.811C59.9281 185.641 59.9798 185.454 59.9798 185.251C59.9798 185.047 59.9281 184.861 59.8246 184.691C59.7248 184.517 59.588 184.38 59.4143 184.28C59.2443 184.177 59.0577 184.125 58.8544 184.125C58.6511 184.125 58.4645 184.177 58.2945 184.28C58.1245 184.38 57.9877 184.517 57.8842 184.691C57.7808 184.861 57.729 185.047 57.729 185.251C57.729 185.454 57.7808 185.641 57.8842 185.811C57.9877 185.981 58.1245 186.117 58.2945 186.221C58.4645 186.324 58.6511 186.376 58.8544 186.376Z" fill="white"/>
<rect x="90.4023" y="171.293" width="68.3234" height="5.25565" rx="2.62782" fill="#2A4A57"/>
<rect x="90.4023" y="183.906" width="37.8407" height="5.25565" rx="2.62782" fill="#2A4A57"/>
<rect x="90.4023" y="196.52" width="84.0903" height="5.25565" rx="2.62782" fill="#2A4A57"/>
</svg>
