<svg width="81" height="8" viewBox="0 0 81 8" fill="none" xmlns="http://www.w3.org/2000/svg">
<mask id="mask0_1247_6060" style="mask-type:luminance" maskUnits="userSpaceOnUse" x="0" y="0" width="81" height="8">
<path fill-rule="evenodd" clip-rule="evenodd" d="M0 0H80.793V8H0V0Z" fill="white"/>
</mask>
<g mask="url(#mask0_1247_6060)">
<path fill-rule="evenodd" clip-rule="evenodd" d="M4.57316 6.64255C4.16758 6.70692 3.73924 6.76882 3.58594 6.8779C3.96692 6.80898 4.42289 6.75491 4.57316 6.64255M30.7774 2.9251C32.6516 2.79578 34.4224 2.6138 36.2496 2.46058C38.8694 2.24078 41.4844 2.01814 44.1956 1.84766C45.8613 1.74301 47.4627 1.5994 49.1524 1.50417C53.0931 1.28216 57.0019 1.03801 60.9987 0.857734C64.2069 0.713055 67.4054 0.559903 70.6317 0.432993C73.492 0.320563 76.3839 0.260618 79.2699 0.190491C79.6746 0.180627 80.0881 0.179678 80.4533 0.222994C80.4329 0.303743 79.9597 0.24032 79.9335 0.311268C80.2119 0.345414 80.8312 0.258278 80.7911 0.367166C80.7584 0.4562 80.4305 0.552441 79.8416 0.587852C79.0231 0.637048 78.1895 0.608403 77.3705 0.64002C73.737 0.780273 70.0856 0.89814 66.491 1.08278C64.2801 1.19635 62.0388 1.29114 59.8919 1.4465C58.7016 1.53256 57.4269 1.54034 56.2842 1.6529C56.0034 1.68053 55.6552 1.67092 55.4804 1.75243C55.4154 1.78265 55.032 1.85815 54.7864 1.75053C54.7345 1.72783 54.5426 1.75262 54.4124 1.76134C53.005 1.85563 51.5209 1.91658 50.2058 2.04988C48.9256 2.17964 47.5589 2.24824 46.2624 2.36225C45.3462 2.44275 44.2749 2.42694 43.3477 2.52407C42.9649 2.5641 42.5369 2.58534 42.2075 2.64738C42.0533 2.65686 41.8994 2.66641 41.7452 2.67589C40.6727 2.72629 39.6417 2.79876 38.7146 2.92567C37.5871 2.97809 36.5331 3.06737 35.5602 3.19757C34.4026 3.27725 33.2372 3.34775 32.2712 3.51981C31.8699 3.59127 31.2995 3.62048 30.8199 3.67416C29.186 3.85697 27.5619 4.04345 25.9259 4.22525C25.6233 4.25889 25.3431 4.31719 24.9424 4.29246C24.0146 4.34653 23.2241 4.45232 22.4804 4.57562C21.75 4.70646 20.8368 4.77285 20.0108 4.86846C18.9465 4.9917 17.9128 5.11027 17.0394 5.29643C16.3209 5.44958 15.2915 5.52489 14.4506 5.65496C12.613 5.93939 10.6683 6.20769 9.14044 6.55554C7.47868 6.93386 5.37704 7.21032 3.85796 7.61533C3.4706 7.71866 3.21802 7.84152 2.70347 7.92758C2.17889 8.01522 1.11911 8.03419 0.505591 7.92335C0.00378348 7.83267 -0.158932 7.70658 0.174696 7.56778C0.746325 7.33015 1.47915 7.11427 2.273 6.9087C5.68881 6.02425 9.80072 5.29674 14.2144 4.64031C18.526 3.999 23.0802 3.44077 27.8263 2.95045C30.2419 2.70093 32.7421 2.49264 35.2226 2.27373C37.7747 2.04849 40.3378 1.8309 42.9686 1.65031C45.3113 1.4895 47.6834 1.3478 50.0513 1.20394C52.8244 1.03536 55.6061 0.874807 58.4144 0.73936C65.1507 0.414465 71.9137 0.115243 78.8428 0.0289292C79.31 0.0231117 79.806 -0.042525 80.3006 0.0456861C79.9257 0.13396 79.4314 0.141801 78.946 0.149073C75.3927 0.201937 71.8834 0.314177 68.3735 0.442541C63.2003 0.631673 58.1482 0.923054 53.0609 1.18377C50.6004 1.30986 48.2095 1.4938 45.7736 1.64177C42.5776 1.83577 39.4751 2.08447 36.3813 2.3362C34.5311 2.48676 32.6944 2.65079 30.9692 2.86098C30.8438 2.87628 30.7428 2.89348 30.7895 2.9282C30.3612 2.89822 30.0546 2.96064 29.7203 2.99339C27.1175 3.2486 24.5802 3.52993 22.0681 3.82182C20.4914 4.00507 18.9805 4.21083 17.425 4.40116C15.7878 4.60142 14.2684 4.84652 12.7724 5.09174C12.3486 5.16117 11.6334 5.1907 11.5818 5.34303C10.7117 5.3596 10.3423 5.50908 9.85081 5.62587C10.4701 5.54278 11.0979 5.46178 11.5654 5.33905C11.7327 5.32052 11.9163 5.30648 12.0651 5.28283C16.4572 4.58163 21.1334 3.9737 26.0313 3.43875C27.6102 3.26624 29.1951 3.09627 30.7774 2.9251" fill="#48BF84"/>
<path d="M3.58594 6.8779L3.29607 6.4705L3.67495 7.36991L3.58594 6.8779ZM36.2496 2.46058L36.2914 2.95883L36.2914 2.95883L36.2496 2.46058ZM44.1956 1.84766L44.1643 1.34864L44.1642 1.34864L44.1956 1.84766ZM49.1524 1.50417L49.1243 1.00496L49.1242 1.00496L49.1524 1.50417ZM60.9987 0.857734L60.9762 0.358241L60.9762 0.358242L60.9987 0.857734ZM70.6317 0.432993L70.6121 -0.0666214L70.6121 -0.0666208L70.6317 0.432993ZM79.2699 0.190491L79.2821 0.690344L79.2821 0.690343L79.2699 0.190491ZM80.4533 0.222994L80.9381 0.345121L81.0771 -0.206523L80.5122 -0.273526L80.4533 0.222994ZM79.9335 0.311268L79.4643 0.138599L79.2464 0.730731L79.8727 0.807548L79.9335 0.311268ZM80.7911 0.367166L81.2603 0.539946L81.2604 0.539848L80.7911 0.367166ZM79.8416 0.587852L79.8716 1.08695L79.8716 1.08695L79.8416 0.587852ZM77.3705 0.64002L77.3898 1.13965L77.3705 0.64002ZM66.491 1.08278L66.4653 0.583441L66.491 1.08278ZM59.8919 1.4465L59.928 1.9452L59.928 1.9452L59.8919 1.4465ZM56.2842 1.6529L56.3332 2.15049L56.3333 2.15049L56.2842 1.6529ZM55.4804 1.75243L55.6913 2.20576L55.6916 2.20561L55.4804 1.75243ZM54.7864 1.75053L54.9871 1.29257L54.9867 1.29242L54.7864 1.75053ZM54.4124 1.76134L54.4458 2.26023L54.4458 2.26023L54.4124 1.76134ZM50.2058 2.04988L50.2562 2.54733V2.54733L50.2058 2.04988ZM46.2624 2.36225L46.3061 2.86034L46.3062 2.86033L46.2624 2.36225ZM43.3477 2.52407L43.3997 3.02136L43.3998 3.02135L43.3477 2.52407ZM42.2075 2.64738L42.2382 3.14643L42.2694 3.14452L42.3001 3.13874L42.2075 2.64738ZM41.7452 2.67589L41.7687 3.17539L41.7759 3.17495L41.7452 2.67589ZM38.7146 2.92567L38.7378 3.42513L38.7602 3.42409L38.7824 3.42105L38.7146 2.92567ZM35.5602 3.19757L35.5945 3.69639L35.6105 3.69529L35.6265 3.69315L35.5602 3.19757ZM32.2712 3.51981L32.3589 4.01207L32.3589 4.01206L32.2712 3.51981ZM30.8199 3.67416L30.8755 4.17106L30.8755 4.17106L30.8199 3.67416ZM25.9259 4.22525L25.8707 3.72831L25.8707 3.72831L25.9259 4.22525ZM24.9424 4.29246L24.9732 3.79341L24.9432 3.79157L24.9133 3.79331L24.9424 4.29246ZM22.4804 4.57562L22.3986 4.08232L22.3922 4.08346L22.4804 4.57562ZM20.0108 4.86846L19.9533 4.37178L19.9533 4.37178L20.0108 4.86846ZM17.0394 5.29643L17.1437 5.78544L17.1437 5.78544L17.0394 5.29643ZM14.4506 5.65496L14.3741 5.16084L14.3741 5.16085L14.4506 5.65496ZM9.14044 6.55554L9.25144 7.04306L9.14044 6.55554ZM3.85796 7.61533L3.72915 7.13221L3.72909 7.13223L3.85796 7.61533ZM2.70347 7.92758L2.78586 8.42075L2.78595 8.42073L2.70347 7.92758ZM0.505591 7.92335L0.41668 8.41538L0.416692 8.41538L0.505591 7.92335ZM0.174696 7.56778L-0.017236 7.10609L-0.0173605 7.10614L0.174696 7.56778ZM2.273 6.9087L2.14767 6.42466L2.14765 6.42466L2.273 6.9087ZM14.2144 4.64031L14.2879 5.13487L14.2879 5.13487L14.2144 4.64031ZM27.8263 2.95045L27.7749 2.4531L27.7749 2.4531L27.8263 2.95045ZM35.2226 2.27373L35.2666 2.77179L35.2226 2.27373ZM42.9686 1.65031L42.9343 1.15148L42.9343 1.15148L42.9686 1.65031ZM50.0513 1.20394L50.0816 1.70302L50.0816 1.70302L50.0513 1.20394ZM58.4144 0.73936L58.4385 1.23878L58.4144 0.73936ZM78.8428 0.0289292L78.8366 -0.471032L78.8366 -0.471032L78.8428 0.0289292ZM80.3006 0.0456861L80.4152 0.532378L80.3884 -0.446544L80.3006 0.0456861ZM78.946 0.149073L78.9535 0.649018L78.9535 0.649017L78.946 0.149073ZM68.3735 0.442541L68.3917 0.942207L68.3917 0.942207L68.3735 0.442541ZM53.0609 1.18377L53.0865 1.68311V1.68311L53.0609 1.18377ZM45.7736 1.64177L45.8039 2.14085L45.8039 2.14085L45.7736 1.64177ZM36.3813 2.3362L36.3408 1.83785L36.3813 2.3362ZM30.9692 2.86098L30.9088 2.36465L30.9086 2.36466L30.9692 2.86098ZM30.7895 2.9282L30.7546 3.42698L32.4606 3.54636L31.0876 2.52677L30.7895 2.9282ZM29.7203 2.99339L29.6716 2.49577L29.6715 2.49578L29.7203 2.99339ZM22.0681 3.82182L22.0104 3.32516L22.0104 3.32516L22.0681 3.82182ZM17.425 4.40116L17.4857 4.89746L17.4857 4.89746L17.425 4.40116ZM12.7724 5.09174L12.8532 5.58516L12.8533 5.58515L12.7724 5.09174ZM11.5818 5.34303L11.5913 5.84294L11.9426 5.83625L12.0553 5.50347L11.5818 5.34303ZM9.85081 5.62587L9.73521 5.13942L9.91729 6.12143L9.85081 5.62587ZM11.5654 5.33905L11.5103 4.84209L11.4739 4.84612L11.4384 4.85543L11.5654 5.33905ZM12.0651 5.28283L12.1436 5.77663L12.1439 5.77658L12.0651 5.28283ZM26.0313 3.43875L26.0856 3.93579L26.0856 3.93579L26.0313 3.43875ZM4.49478 6.14873C4.29933 6.17975 4.0746 6.21373 3.88219 6.25413C3.78497 6.27455 3.68504 6.29878 3.59309 6.32871C3.50809 6.35637 3.39595 6.39943 3.29607 6.4705L3.87581 7.2853C3.85257 7.30183 3.85147 7.29625 3.90257 7.27961C3.94673 7.26524 4.00798 7.24953 4.0877 7.23279C4.24919 7.19887 4.44142 7.16971 4.65154 7.13636L4.49478 6.14873ZM3.67495 7.36991C3.83605 7.34077 4.08373 7.30298 4.26438 7.26675C4.3619 7.2472 4.46462 7.22369 4.559 7.19403C4.64402 7.16731 4.76602 7.12266 4.87259 7.04297L4.27373 6.24212C4.30516 6.21861 4.31382 6.22286 4.25917 6.24003C4.21389 6.25427 4.15063 6.26965 4.06775 6.28627C3.8876 6.3224 3.71681 6.34611 3.49693 6.38589L3.67495 7.36991ZM30.8118 3.42391C32.6897 3.29435 34.4775 3.11093 36.2914 2.95883L36.2078 1.96233C34.3673 2.11666 32.6136 2.29722 30.7429 2.42628L30.8118 3.42391ZM36.2914 2.95883C38.9126 2.73892 41.522 2.51676 44.227 2.34667L44.1642 1.34864C41.4468 1.51951 38.8263 1.74265 36.2078 1.96233L36.2914 2.95883ZM44.227 2.34667C45.9234 2.24009 47.4796 2.09924 49.1805 2.00338L49.1242 1.00496C47.4458 1.09956 45.7993 1.24592 44.1643 1.34864L44.227 2.34667ZM49.1805 2.00338C53.1252 1.78114 57.0281 1.53734 61.0213 1.35723L60.9762 0.358242C56.9756 0.538689 53.061 0.783175 49.1243 1.00496L49.1805 2.00338ZM61.0213 1.35723C64.2313 1.21246 67.4269 1.05944 70.6514 0.932606L70.6121 -0.0666208C67.3838 0.0603646 64.1825 0.213645 60.9762 0.358241L61.0213 1.35723ZM70.6514 0.932607C73.5068 0.820367 76.3934 0.760533 79.2821 0.690344L79.2578 -0.309361C76.3743 -0.239298 73.4772 -0.179241 70.6121 -0.0666214L70.6514 0.932607ZM79.2821 0.690343C79.6846 0.680532 80.0673 0.680722 80.3944 0.719513L80.5122 -0.273526C80.1088 -0.321365 79.6646 -0.319279 79.2578 -0.30936L79.2821 0.690343ZM79.9684 0.100867C79.9977 -0.0153906 80.0631 -0.0945823 80.1164 -0.140905C80.1665 -0.184402 80.2133 -0.206031 80.2363 -0.215484C80.28 -0.233421 80.3091 -0.235846 80.2994 -0.234509C80.2846 -0.232482 80.2521 -0.230765 80.1831 -0.229037C80.1311 -0.227737 80.043 -0.226286 79.9685 -0.218133C79.9329 -0.214238 79.8698 -0.205959 79.8029 -0.18343C79.769 -0.171993 79.7138 -0.150312 79.6557 -0.109411C79.5968 -0.0679656 79.5116 0.0101378 79.4643 0.138599L80.4028 0.483937C80.3588 0.603529 80.2803 0.673814 80.2312 0.708355C80.1829 0.74235 80.1406 0.75804 80.1221 0.764263C80.0862 0.776366 80.0645 0.777329 80.0773 0.775931C80.0995 0.773499 80.1359 0.772456 80.2081 0.77065C80.2632 0.769271 80.3545 0.767269 80.4349 0.75626C80.4728 0.751079 80.5425 0.739807 80.616 0.709605C80.6667 0.688794 80.8747 0.596777 80.9381 0.345121L79.9684 0.100867ZM79.8727 0.807548C79.9798 0.820692 80.1011 0.820713 80.1992 0.819021C80.2806 0.817618 80.431 0.812375 80.4923 0.811077C80.5355 0.810165 80.5713 0.809921 80.6005 0.810525C80.6148 0.810822 80.626 0.811296 80.6345 0.811831C80.6432 0.812383 80.6467 0.81286 80.6462 0.812787C80.6458 0.812728 80.6434 0.812401 80.6394 0.811645C80.6356 0.810906 80.6289 0.80952 80.6202 0.807152C80.6066 0.80347 80.5682 0.792318 80.5218 0.764763C80.4768 0.738005 80.3894 0.67485 80.335 0.553754C80.2746 0.419033 80.2878 0.287171 80.3219 0.194485L81.2604 0.539848C81.2995 0.433551 81.3126 0.289609 81.2473 0.144185C81.1881 0.0123862 81.0913 -0.0600957 81.0326 -0.0949586C80.9269 -0.157734 80.8189 -0.172956 80.7802 -0.178194C80.6794 -0.191824 80.5599 -0.190575 80.4712 -0.188699C80.2439 -0.183892 80.0862 -0.173752 79.9944 -0.185013L79.8727 0.807548ZM80.3219 0.194387C80.3583 0.095669 80.4175 0.0398635 80.442 0.0191721C80.4693 -0.0039291 80.4892 -0.0134884 80.4896 -0.0136997C80.4902 -0.0140003 80.4663 -0.00299178 80.4045 0.0123297C80.2848 0.0420414 80.0883 0.0721121 79.8116 0.0887536L79.8716 1.08695C80.1837 1.06818 80.4457 1.03243 80.6453 0.982906C80.7432 0.958611 80.8442 0.926652 80.9339 0.882159C80.9789 0.859852 81.0344 0.82789 81.0882 0.782346C81.1391 0.739211 81.2158 0.660922 81.2603 0.539946L80.3219 0.194387ZM79.8116 0.0887531C79.4168 0.112482 79.0155 0.117603 78.6027 0.120541C78.1938 0.123452 77.7706 0.124201 77.3512 0.140392L77.3898 1.13965C77.7894 1.12422 78.1925 1.12349 78.6098 1.12052C79.0232 1.11757 79.4479 1.11242 79.8716 1.08695L79.8116 0.0887531ZM77.3512 0.140392C73.722 0.28048 70.0642 0.398581 66.4653 0.583441L66.5166 1.58212C70.107 1.3977 73.752 1.28007 77.3898 1.13965L77.3512 0.140392ZM66.4653 0.583441C64.2607 0.696685 62.0096 0.791939 59.8558 0.947807L59.928 1.9452C62.0679 1.79034 64.2994 1.69602 66.5166 1.58212L66.4653 0.583441ZM59.8559 0.947805C59.2697 0.990182 58.6631 1.01328 58.0483 1.04025C57.4379 1.06702 56.8215 1.09756 56.2352 1.15531L56.3333 2.15049C56.8897 2.09568 57.4819 2.06605 58.0921 2.03928C58.6979 2.01271 59.3238 1.98889 59.928 1.9452L59.8559 0.947805ZM56.2353 1.1553C56.087 1.16989 55.997 1.16889 55.8037 1.18398C55.6664 1.19469 55.4492 1.21529 55.2691 1.29924L55.6916 2.20561C55.6797 2.21116 55.6867 2.20599 55.7281 2.19861C55.7663 2.19178 55.8165 2.18602 55.8815 2.18094C55.9467 2.17585 56.0147 2.1723 56.0932 2.16784C56.1682 2.16357 56.2517 2.15851 56.3332 2.15049L56.2353 1.1553ZM55.2695 1.29909C55.2993 1.28521 55.3179 1.281 55.3088 1.2835C55.3058 1.28433 55.2969 1.28658 55.2823 1.28947C55.2531 1.29523 55.2123 1.30124 55.167 1.30434C55.1213 1.30746 55.0783 1.30711 55.0421 1.30327C55.0244 1.3014 55.0106 1.29893 55.0006 1.29652C54.9905 1.29409 54.9864 1.29228 54.9871 1.29257L54.5857 2.20849C54.8186 2.31052 55.072 2.31316 55.2352 2.30201C55.3246 2.2959 55.4072 2.28409 55.4758 2.27057C55.5285 2.26017 55.6161 2.24073 55.6913 2.20576L55.2695 1.29909ZM54.9867 1.29242C54.9207 1.26353 54.8613 1.25335 54.8307 1.24903C54.7952 1.24403 54.7628 1.24227 54.7378 1.2416C54.6881 1.24027 54.6378 1.2426 54.5974 1.24514C54.5554 1.24778 54.5121 1.25148 54.4756 1.25462C54.4365 1.25799 54.4057 1.26067 54.379 1.26246L54.4458 2.26023C54.4842 2.25765 54.5262 2.25397 54.5614 2.25094C54.5991 2.24769 54.6314 2.24498 54.6602 2.24317C54.6905 2.24126 54.706 2.2411 54.711 2.24124C54.7133 2.2413 54.7054 2.24126 54.6909 2.23921C54.6832 2.23813 54.6707 2.23607 54.6548 2.23212C54.6394 2.22832 54.6151 2.22134 54.5861 2.20864L54.9867 1.29242ZM54.379 1.26246C52.991 1.35545 51.4812 1.41805 50.1554 1.55243L50.2562 2.54733C51.5606 2.41512 53.0191 2.3558 54.4458 2.26023L54.379 1.26246ZM50.1554 1.55243C48.8667 1.68304 47.5538 1.74676 46.2186 1.86418L46.3062 2.86033C47.564 2.74972 48.9845 2.67623 50.2562 2.54733L50.1554 1.55243ZM46.2186 1.86417C45.7762 1.90305 45.2941 1.91882 44.7908 1.93726C44.2943 1.95545 43.7785 1.97621 43.2957 2.02679L43.3998 3.02135C43.8441 2.9748 44.3276 2.9549 44.8275 2.93659C45.3206 2.91852 45.8324 2.90196 46.3061 2.86034L46.2186 1.86417ZM43.2957 2.02678C42.9576 2.06214 42.47 2.08915 42.115 2.15601L42.3001 3.13874C42.6038 3.08154 42.9723 3.06606 43.3997 3.02136L43.2957 2.02678ZM42.1768 2.14832C42.0996 2.15307 42.0225 2.15783 41.9455 2.16259C41.8685 2.16734 41.7915 2.1721 41.7145 2.17684L41.7759 3.17495C41.8531 3.1702 41.9302 3.16544 42.0072 3.16068C42.0842 3.15592 42.1612 3.15117 42.2382 3.14643L42.1768 2.14832ZM41.7217 2.17644C40.6437 2.2271 39.5956 2.3004 38.6468 2.43029L38.7824 3.42105C39.6878 3.29711 40.7016 3.22548 41.7686 3.17534L41.7217 2.17644ZM38.6914 2.42621C37.5524 2.47916 36.4837 2.56953 35.4939 2.70199L35.6265 3.69315C36.5825 3.56522 37.6219 3.47701 38.7378 3.42513L38.6914 2.42621ZM35.5258 2.69875C34.3808 2.77757 33.1826 2.84961 32.1836 3.02756L32.3589 4.01206C33.2918 3.84589 34.4245 3.77693 35.5945 3.69639L35.5258 2.69875ZM32.1836 3.02755C31.7991 3.09601 31.2975 3.11758 30.7642 3.17727L30.8755 4.17106C31.3015 4.12338 31.9408 4.08652 32.3589 4.01207L32.1836 3.02755ZM30.7643 3.17727C29.1271 3.36044 27.5078 3.54638 25.8707 3.72831L25.9812 4.72219C27.616 4.54052 29.2449 4.35351 30.8755 4.17106L30.7643 3.17727ZM25.8707 3.72831C25.5258 3.76664 25.3169 3.81462 24.9732 3.79341L24.9116 4.79152C25.3692 4.81975 25.7208 4.75113 25.9812 4.72219L25.8707 3.72831ZM24.9133 3.79331C23.9631 3.84868 23.1543 3.95707 22.3986 4.08236L22.5622 5.06889C23.294 4.94757 24.0662 4.84437 24.9715 4.79162L24.9133 3.79331ZM22.3922 4.08346C21.6812 4.21081 20.8133 4.27223 19.9533 4.37178L20.0683 5.36514C20.8603 5.27347 21.8187 5.2021 22.5685 5.06779L22.3922 4.08346ZM19.9533 4.37178C18.8963 4.49417 17.8366 4.61527 16.9352 4.80741L17.1437 5.78544C17.989 5.60526 18.9967 5.48923 20.0683 5.36514L19.9533 4.37178ZM16.9352 4.80741C16.601 4.87864 16.1851 4.9335 15.7313 4.98791C15.2868 5.04121 14.8057 5.09409 14.3741 5.16084L14.527 6.14909C14.9363 6.08576 15.3904 6.03595 15.8504 5.98079C16.3012 5.92674 16.7593 5.86736 17.1437 5.78544L16.9352 4.80741ZM14.3741 5.16085C12.5519 5.44289 10.5798 5.71504 9.02945 6.06801L9.25144 7.04306C10.7568 6.70034 12.6741 6.43588 14.527 6.14908L14.3741 5.16085ZM9.02945 6.06801C8.21246 6.25401 7.2861 6.41523 6.35666 6.58342C5.43582 6.75006 4.51128 6.92368 3.72915 7.13221L3.98676 8.09846C4.72372 7.90197 5.60954 7.73486 6.53473 7.56744C7.45132 7.40157 8.40666 7.23539 9.25144 7.04306L9.02945 6.06801ZM3.72909 7.13223C3.25018 7.25997 3.11498 7.35181 2.62098 7.43443L2.78595 8.42073C3.32107 8.33123 3.69101 8.17735 3.98682 8.09844L3.72909 7.13223ZM2.62107 7.43442C2.14557 7.51386 1.14423 7.53064 0.59449 7.43131L0.416692 8.41538C1.09399 8.53775 2.21221 8.51659 2.78586 8.42075L2.62107 7.43442ZM0.594502 7.43131C0.481575 7.41091 0.402537 7.39102 0.352705 7.37448C0.328046 7.3663 0.318004 7.36138 0.318155 7.36146C0.318628 7.3617 0.324237 7.36453 0.333263 7.37058C0.342028 7.37646 0.357626 7.38777 0.376047 7.40575C0.410556 7.43942 0.479012 7.52099 0.496231 7.65242C0.51463 7.79287 0.46351 7.90264 0.419459 7.96322C0.380757 8.01644 0.343368 8.0395 0.341488 8.0407C0.336098 8.04414 0.342128 8.03967 0.366752 8.02943L-0.0173605 7.10614C-0.110213 7.14477 -0.277967 7.22198 -0.389295 7.37507C-0.457167 7.4684 -0.517826 7.61035 -0.495297 7.78232C-0.473949 7.94527 -0.387697 8.05769 -0.322336 8.12147C-0.205457 8.23552 -0.0553001 8.29272 0.0378393 8.32362C0.149224 8.36057 0.278703 8.39044 0.41668 8.41538L0.594502 7.43131ZM0.366627 8.02948C0.90435 7.80594 1.60907 7.59712 2.39834 7.39273L2.14765 6.42466C1.34924 6.63142 0.5883 6.85436 -0.0172359 7.10609L0.366627 8.02948ZM2.39833 7.39273C5.7883 6.51497 9.87954 5.79052 14.2879 5.13487L14.1408 4.14575C9.7219 4.80297 5.58932 5.53352 2.14767 6.42466L2.39833 7.39273ZM14.2879 5.13487C18.5909 4.49485 23.1375 3.93751 27.8777 3.44781L27.7749 2.4531C23.023 2.94403 18.4612 3.50314 14.1408 4.14575L14.2879 5.13487ZM27.8777 3.44781C30.2884 3.19879 32.7826 2.99101 35.2666 2.77179L35.1786 1.77566C32.7016 1.99427 30.1954 2.20308 27.7749 2.4531L27.8777 3.44781ZM35.2666 2.77179C37.8179 2.54663 40.377 2.32939 43.0028 2.14913L42.9343 1.15148C40.2986 1.33242 37.7316 1.55035 35.1786 1.77566L35.2666 2.77179ZM43.0028 2.14913C45.3431 1.9885 47.7128 1.84693 50.0816 1.70302L50.0209 0.704859C47.6539 0.848662 45.2795 0.990509 42.9343 1.15148L43.0028 2.14913ZM50.0816 1.70302C52.8538 1.53449 55.6331 1.37408 58.4385 1.23878L58.3903 0.239941C55.579 0.375532 52.795 0.536224 50.0209 0.70486L50.0816 1.70302ZM58.4385 1.23878C65.1742 0.913912 71.9296 0.615085 78.849 0.52889L78.8366 -0.471032C71.8979 -0.384598 65.1272 -0.0849816 58.3903 0.239941L58.4385 1.23878ZM78.849 0.52889C79.3967 0.522071 79.7799 0.460702 80.2128 0.537916L80.3884 -0.446544C79.8322 -0.545751 79.2233 -0.475848 78.8366 -0.471032L78.849 0.52889ZM80.186 -0.441005C79.8754 -0.367868 79.4424 -0.358418 78.9385 -0.350871L78.9535 0.649017C79.4205 0.642021 79.976 0.635789 80.4152 0.532378L80.186 -0.441005ZM78.9386 -0.350871C75.3799 -0.297928 71.8664 -0.185536 68.3552 -0.0571249L68.3917 0.942207C71.9004 0.813889 75.4055 0.701801 78.9535 0.649018L78.9386 -0.350871ZM68.3552 -0.0571251C63.1771 0.132185 58.1184 0.423923 53.0353 0.684422L53.0865 1.68311C58.1779 1.42219 63.2234 1.13116 68.3917 0.942207L68.3552 -0.0571251ZM53.0353 0.684422C50.5739 0.81056 48.1664 0.995495 45.7433 1.14269L45.8039 2.14085C48.2525 1.99211 50.627 1.80915 53.0865 1.68311L53.0353 0.684422ZM45.7433 1.14269C42.5415 1.33704 39.4343 1.58613 36.3408 1.83785L36.4219 2.83455C39.5158 2.58281 42.6136 2.3345 45.8039 2.14085L45.7433 1.14269ZM36.3408 1.83785C34.4888 1.98854 32.6442 2.15321 30.9088 2.36465L31.0297 3.35731C32.7447 3.14836 34.5733 2.98498 36.4219 2.83455L36.3408 1.83785ZM30.9086 2.36466C30.8554 2.37117 30.7544 2.38336 30.6709 2.40848C30.6467 2.41575 30.6084 2.42854 30.5661 2.45002C30.5324 2.46715 30.4457 2.51443 30.3749 2.6125C30.283 2.73973 30.2445 2.91926 30.3118 3.09492C30.3633 3.22923 30.4557 3.30313 30.4914 3.32962L31.0876 2.52677C31.1116 2.54459 31.197 2.61036 31.2455 2.73702C31.3099 2.90503 31.2726 3.0774 31.1856 3.1979C31.1197 3.28923 31.0414 3.33021 31.0194 3.34139C30.9888 3.35693 30.9654 3.36414 30.9588 3.36614C30.9454 3.37015 30.9577 3.36609 31.0298 3.3573L30.9086 2.36466ZM30.8244 2.42942C30.3403 2.39554 29.9569 2.46781 29.6716 2.49577L29.7691 3.49101C30.1522 3.45346 30.382 3.4009 30.7546 3.42698L30.8244 2.42942ZM29.6715 2.49578C27.0646 2.75138 24.5242 3.03308 22.0104 3.32516L22.1258 4.31847C24.6362 4.02678 27.1703 3.74582 29.7691 3.491L29.6715 2.49578ZM22.0104 3.32516C20.4345 3.50831 18.9081 3.71596 17.3642 3.90486L17.4857 4.89746C19.0529 4.7057 20.5482 4.50183 22.1259 4.31847L22.0104 3.32516ZM17.3643 3.90486C15.7159 4.10649 14.1876 4.35309 12.6915 4.59832L12.8533 5.58515C14.3492 5.33995 15.8596 5.09636 17.4857 4.89746L17.3643 3.90486ZM12.6916 4.59832C12.5988 4.61351 12.486 4.62713 12.3567 4.64226C12.2323 4.65682 12.0929 4.67274 11.9646 4.69164C11.8405 4.70993 11.701 4.73451 11.5809 4.772C11.5218 4.79046 11.4442 4.81899 11.3691 4.86505C11.3024 4.90589 11.1695 5.00186 11.1082 5.18259L12.0553 5.50347C12.007 5.64612 11.9077 5.70784 11.8917 5.71764C11.8672 5.73265 11.8572 5.73335 11.879 5.72653C11.9209 5.71347 11.9963 5.69777 12.1104 5.68096C12.2204 5.66475 12.3424 5.65075 12.4729 5.63548C12.5985 5.62079 12.7341 5.60468 12.8532 5.58516L12.6916 4.59832ZM11.5723 4.84312C10.6334 4.861 10.1935 5.03051 9.73521 5.13942L9.9664 6.11233C10.4911 5.98765 10.7901 5.8582 11.5913 5.84294L11.5723 4.84312ZM9.91729 6.12143C10.5227 6.04021 11.1877 5.95516 11.6924 5.82266L11.4384 4.85543C11.0081 4.96841 10.4175 5.04536 9.78432 5.13031L9.91729 6.12143ZM11.6204 5.83601C11.7607 5.82047 11.9801 5.80262 12.1436 5.77663L11.9866 4.78903C11.8525 4.81034 11.7046 4.82057 11.5103 4.84209L11.6204 5.83601ZM12.1439 5.77658C16.5261 5.07696 21.194 4.47006 26.0856 3.93579L25.977 2.9417C21.0729 3.47734 16.3882 4.08631 11.9862 4.78908L12.1439 5.77658ZM26.0856 3.93579C27.6642 3.76332 29.2483 3.59344 30.8311 3.4222L30.7236 2.428C29.142 2.5991 27.5562 2.76917 25.977 2.9417L26.0856 3.93579Z" fill="#48BF84"/>
</g>
</svg>
