<svg width="152" height="33" viewBox="0 0 152 33" fill="none" xmlns="http://www.w3.org/2000/svg">
<path d="M69.2522 31.3202C68.8672 31.4184 61.2765 31.4152 60.9103 31.3202C60.9948 30.88 61.0855 30.4366 61.1701 29.9964C61.2139 29.7589 61.2515 29.5213 61.2922 29.2838C61.3923 28.6884 61.5082 28.0994 61.6052 27.504C61.7148 26.7471 61.7961 25.987 61.8994 25.2301C61.9777 24.6569 62.0779 24.09 62.1624 23.5199C62.2406 23.0164 62.3064 22.5128 62.3815 22.0124C62.4785 21.379 62.5787 20.7456 62.6757 20.1122C62.7133 19.862 62.7446 19.6087 62.779 19.3553C62.898 18.5066 63.0357 17.6578 63.1327 16.8059C63.2397 16.1948 63.2259 15.5683 63.092 14.9627C63.0525 14.8109 62.9669 14.6755 62.8473 14.5755C62.7277 14.4755 62.58 14.416 62.4253 14.4053C62.0415 14.3382 61.6467 14.3855 61.289 14.5415C60.8552 14.7475 60.4559 15.0211 60.1058 15.3522C59.1807 16.2615 58.4284 17.335 57.8865 18.5192C57.4386 19.4496 57.1064 20.4325 56.8974 21.4455C56.791 21.9427 56.7659 22.4558 56.6939 22.9593C56.6062 23.5674 56.4998 24.1755 56.4122 24.7867C56.3277 25.3441 56.2588 25.9015 56.1806 26.4589C56.0961 27.0701 55.9959 27.6813 55.9176 28.2925C55.8394 28.9038 55.7674 29.5973 55.6922 30.2529C55.6516 30.6108 55.6078 30.9686 55.5671 31.3202C55.229 31.4089 47.7792 31.4184 47.3691 31.3202C47.3691 31.2347 47.391 31.1492 47.4067 31.0637C47.5507 30.1896 47.6978 29.3187 47.8387 28.4446C47.9514 27.7563 48.0557 27.068 48.1517 26.3797C48.2425 25.7463 48.3238 25.1319 48.4146 24.508C48.4866 24.0013 48.5648 23.4977 48.6399 22.9942L48.8935 21.3252C48.9937 20.677 49.0928 20.0278 49.1909 19.3775C49.2253 19.1526 49.2566 18.9278 49.2879 18.6997C49.4194 17.7972 49.5602 16.8977 49.6792 15.992C49.77 15.2889 49.8294 14.5763 49.9139 13.8701C50.1033 12.059 50.1692 10.2368 50.1112 8.41654C50.1178 8.37003 50.1293 8.32438 50.1456 8.28036C50.2018 8.25642 50.2607 8.23941 50.3209 8.22969C51.1066 8.18852 51.886 8.16002 52.6779 8.10935C53.1944 8.07451 53.7077 7.9985 54.2242 7.94783C54.5936 7.90666 54.9661 7.88132 55.3354 7.83381C56.0616 7.73881 56.7816 7.63113 57.5078 7.53612C57.6745 7.52489 57.8419 7.52489 58.0086 7.53612C58.3216 9.97786 58.0555 12.3689 57.7206 14.7315C57.9679 14.8677 58.0336 14.7125 58.1087 14.589C58.3216 14.2343 58.5219 13.8669 58.7348 13.5154C59.1804 12.8009 59.6686 12.1145 60.1966 11.46C60.7778 10.755 61.4109 10.0954 62.0904 9.48699C62.9001 8.74373 63.8338 8.15182 64.848 7.7388C65.769 7.33681 66.7706 7.15997 67.7716 7.22259C68.8015 7.31126 69.7687 7.58363 70.5168 8.36587C70.8698 8.7498 71.1357 9.20695 71.2962 9.7055C71.5122 10.273 71.6185 10.8773 71.6092 11.4854C71.6092 11.6817 71.6875 11.8844 71.6781 12.0807C71.6437 12.6698 71.5779 13.2589 71.5341 13.8479C71.5185 14.0474 71.5341 14.247 71.5341 14.4433C71.6719 14.5447 71.7595 14.5003 71.8471 14.3768C72.0068 14.1108 72.1602 13.8416 72.3292 13.5882C72.7424 12.977 73.165 12.3753 73.5813 11.7736C74.0587 11.1081 74.6031 10.4946 75.2058 9.94302C75.8553 9.32669 76.5678 8.78207 77.3312 8.31836C78.0395 7.88802 78.8077 7.56775 79.61 7.36827C80.779 7.05706 82.0172 7.14957 83.1283 7.63113C83.7656 7.92084 84.2897 8.41658 84.6183 9.04044C85.0622 9.84402 85.2888 10.7518 85.2756 11.6722C85.2756 11.9889 85.2944 12.3214 85.2756 12.6445C85.2318 13.2779 85.1848 13.9334 85.1034 14.57C84.9876 15.4758 84.8468 16.3783 84.6997 17.2778C84.5526 18.1772 84.3867 19.0418 84.2302 19.9285C84.1143 20.6158 84.0298 21.3062 83.9171 21.9934C83.8045 22.6807 83.6667 23.3901 83.5477 24.09C83.4413 24.7392 83.3505 25.3884 83.2347 26.0377C83.1596 26.5032 83.0782 26.9656 82.9999 27.428L82.7465 28.9259C82.6557 29.4548 82.5649 29.9805 82.471 30.5094C82.424 30.785 82.3771 31.0605 82.3238 31.3487H74.7394C74.7739 31.0827 74.8052 30.823 74.8396 30.5633C74.874 30.3036 74.9084 30.0851 74.9397 29.8444C75.018 29.2585 75.0837 28.6726 75.1682 28.0867C75.284 27.2759 75.4187 26.4715 75.5345 25.6608C75.6159 25.0907 75.6785 24.5143 75.7567 23.9443C75.8037 23.5991 75.8663 23.257 75.9226 22.9118C75.9633 22.6458 76.0071 22.3829 76.0416 22.1169C76.1104 21.5564 76.1668 20.9958 76.2482 20.4384C76.3671 19.615 76.5299 18.7979 76.6207 17.9713C76.7114 17.1448 76.9024 16.3878 76.846 15.5644C76.8406 15.4033 76.8143 15.2436 76.7678 15.0894C76.5831 14.5003 76.3891 14.38 75.7818 14.3515C75.1766 14.3414 74.5891 14.558 74.1322 14.9595C73.8479 15.1585 73.5864 15.389 73.3528 15.6468C72.9048 16.1954 72.4869 16.7685 72.1007 17.3633C71.5281 18.272 71.0884 19.2598 70.7954 20.2959C70.6131 20.8844 70.4852 21.4887 70.4135 22.1011C70.3665 22.6331 70.2351 23.1557 70.1599 23.6846C70.0848 24.2135 70.0191 24.8025 69.9408 25.3599C69.8626 25.9173 69.7656 26.5285 69.6779 27.1113C69.631 27.4026 69.584 27.694 69.5496 27.9885C69.5057 28.4002 69.4807 28.8183 69.4338 29.23C69.3868 29.6417 69.3148 30.0534 69.271 30.4651C69.271 30.766 69.2741 31.051 69.2522 31.3202Z" fill="#CACACA"/>
<path d="M128.145 21.6834C128.229 20.8252 128.267 19.9321 128.407 19.0612C128.64 17.7121 129.036 16.3973 129.588 15.1468C130.098 13.9934 130.748 12.9083 131.522 11.9165C131.991 11.3084 132.515 10.7454 133.087 10.2348C133.975 9.4201 134.972 8.73567 136.048 8.20158C137.851 7.31837 139.84 6.89229 141.842 6.96012C143.065 7.00078 144.274 7.2326 145.426 7.64736C146.193 7.91958 146.916 8.30598 147.57 8.79381C148.414 9.41274 149.139 10.181 149.712 11.0614C150.178 11.7978 150.55 12.5918 150.816 13.4239C151.074 14.1703 151.241 14.9456 151.314 15.7327C151.355 16.2932 151.468 16.8538 151.468 17.4144C151.454 18.1006 151.405 18.7856 151.32 19.4666C151.255 20.0654 151.16 20.6605 151.036 21.2496C150.808 22.2828 150.476 23.2898 150.046 24.255C149.664 25.1257 149.196 25.9554 148.65 26.7316C148.312 27.213 147.915 27.6469 147.545 28.1061C147.451 28.2169 147.367 28.3373 147.276 28.4513C147.231 28.5173 147.18 28.5788 147.123 28.635C146.603 29.0689 146.071 29.4932 145.558 29.9366C144.912 30.436 144.212 30.8609 143.473 31.2034C142.668 31.619 141.811 31.9205 140.925 32.0997C139.914 32.344 138.874 32.4442 137.836 32.3974C136.895 32.3456 135.963 32.1949 135.053 31.9476C134.076 31.6803 133.153 31.2442 132.323 30.6587C131.287 29.9452 130.417 29.0127 129.772 27.9256C129.357 27.2369 129.028 26.4986 128.793 25.7277C128.533 24.939 128.372 24.1211 128.31 23.2923C128.276 22.7571 128.201 22.2377 128.145 21.6834ZM136.18 21.3667H136.217C136.239 21.7975 136.252 22.2313 136.283 22.662C136.329 23.4157 136.518 24.1533 136.84 24.8346C136.992 25.1686 137.226 25.4575 137.52 25.6738C137.813 25.89 138.157 26.0264 138.518 26.0697C139.579 26.2154 140.396 25.753 141.05 24.9138C141.481 24.3482 141.826 23.7205 142.074 23.0516C142.448 22.0875 142.696 21.0783 142.813 20.0493C142.894 19.2433 142.932 18.4335 142.925 17.6234C142.944 16.6772 142.756 15.7385 142.374 14.8744C142.206 14.4362 141.901 14.0654 141.506 13.818C141.11 13.5706 140.646 13.4601 140.183 13.5031C139.795 13.5294 139.417 13.6403 139.075 13.8284C138.733 14.0164 138.435 14.2771 138.202 14.5926C137.312 15.7617 136.727 17.1381 136.499 18.5956C136.324 19.5236 136.28 20.4578 136.18 21.3794V21.3667Z" fill="#CACACA"/>
<path d="M23.6758 21.7495C23.7016 20.5346 23.858 19.3262 24.1422 18.1455C24.4337 16.9309 24.8655 15.7552 25.4287 14.6428C25.8614 13.7789 26.3784 12.9609 26.9719 12.201C27.5509 11.479 28.1943 10.8122 28.8938 10.209C29.7829 9.43294 30.7795 8.79275 31.8519 8.30881C32.8133 7.84512 33.8431 7.54345 34.9006 7.41573C35.5068 7.32997 36.117 7.27711 36.7287 7.25738C37.9406 7.23711 39.1474 7.4201 40.3002 7.79893C41.4506 8.17637 42.5148 8.78258 43.4304 9.58194C44.2459 10.312 44.9227 11.1868 45.4274 12.163C45.8533 13.0147 46.1689 13.9184 46.3665 14.8518C46.651 16.204 46.7354 17.5916 46.6169 18.9689C46.5092 20.6005 46.1447 22.2041 45.537 23.7194C45.0673 24.8744 44.4698 25.9719 43.7559 26.9909C43.148 27.8442 42.4431 28.6223 41.6556 29.3091C40.7469 30.1199 39.7195 30.7834 38.6099 31.2758C37.6178 31.7398 36.5628 32.0515 35.4798 32.2006C34.7854 32.3149 34.0828 32.371 33.3793 32.3684C31.6922 32.2702 30.0551 31.9725 28.5495 31.146C27.6096 30.6344 26.7713 29.9515 26.0767 29.1318C25.1687 28.0208 24.5088 26.7244 24.1422 25.3314C23.9969 24.7451 23.8923 24.1494 23.8292 23.5484C23.7697 22.9561 23.7321 22.3512 23.6758 21.7495ZM38.4972 18.022C38.4597 17.5881 38.4378 17.0465 38.3626 16.5145C38.287 15.8013 38.0549 15.1143 37.6833 14.5034C37.4712 14.1638 37.1686 13.8917 36.8103 13.7185C36.452 13.5454 36.0525 13.4783 35.6581 13.5248C35.2647 13.5654 34.8841 13.6892 34.5411 13.8884C34.1981 14.0875 33.9004 14.3575 33.6674 14.6808C32.9688 15.5996 32.4725 16.6589 32.2118 17.7876C31.9852 18.66 31.8468 19.5535 31.7987 20.4542C31.7705 20.9102 31.7297 21.3663 31.7329 21.8223C31.7329 22.158 31.8049 22.4937 31.8331 22.8294C31.8764 23.5677 32.0783 24.2875 32.4247 24.9387C32.5804 25.2465 32.8071 25.5119 33.0854 25.7125C33.3638 25.9131 33.6858 26.0431 34.0242 26.0914C34.4764 26.1598 34.9384 26.1049 35.3627 25.9323C35.7869 25.7597 36.158 25.4757 36.4375 25.1097C36.9855 24.4474 37.4098 23.6898 37.6896 22.8738C38.2437 21.341 38.4158 19.7448 38.4972 18.022Z" fill="#CACACA"/>
<path d="M91.2431 14.131C91.1054 13.7383 90.9677 13.3646 90.8393 12.9846C90.5493 12.1042 90.2613 11.2227 89.9754 10.3401C89.9034 10.1248 89.8534 9.90311 89.7845 9.68458C89.7156 9.46606 89.7124 9.39322 89.9535 9.27604C90.6484 8.934 91.3371 8.5793 92.0476 8.27527C93.3015 7.75186 94.6009 7.3479 95.929 7.06865C96.6521 6.9103 97.3971 6.84696 98.1201 6.72661C100.084 6.41947 102.089 6.51098 104.017 6.99581C104.878 7.23488 105.698 7.6009 106.453 8.08208C107.301 8.60279 107.991 9.3516 108.443 10.2451C108.892 11.0727 109.145 11.9941 109.182 12.9371C109.182 13.3266 109.285 13.7162 109.282 14.1057C109.282 14.6694 109.229 15.2331 109.192 15.7969C109.167 16.1579 109.132 16.5189 109.098 16.88C109.066 17.1967 109.029 17.4944 108.988 17.8016C108.863 18.7453 108.735 19.688 108.603 20.6297C108.512 21.2821 108.406 21.9282 108.318 22.5806C108.271 22.9384 108.259 23.3026 108.218 23.6637C108.168 24.1039 108.102 24.5409 108.046 24.9811C108.005 25.2978 107.965 25.6145 107.933 25.9312C107.889 26.3873 107.861 26.8433 107.817 27.2994C107.764 27.8346 107.683 28.3666 107.645 28.9019C107.614 29.3579 107.627 29.8203 107.623 30.2795C107.623 30.6564 107.623 31.0332 107.623 31.3943L107.58 31.4418C107.58 31.4418 107.561 31.4639 107.548 31.4671C107.497 31.4804 107.445 31.4889 107.392 31.4924H100.374C100.307 31.4863 100.242 31.4757 100.177 31.4608C100.164 31.3609 100.164 31.2598 100.177 31.1599C100.373 30.4925 100.497 29.8055 100.546 29.1109C100.565 28.7625 100.615 28.4141 100.634 28.0658C100.634 27.9866 100.577 27.9043 100.549 27.8219C100.47 27.8519 100.396 27.8947 100.33 27.9486C99.9889 28.3255 99.679 28.734 99.319 29.0887C98.5362 29.8583 97.6261 30.4832 96.6302 30.9351C95.8116 31.3188 94.9395 31.573 94.0446 31.6888C93.5461 31.7769 93.0418 31.8277 92.5359 31.8408C91.0741 31.7965 89.6686 31.5495 88.4666 30.574C87.7047 29.9434 87.1171 29.124 86.7607 28.1956C86.5524 27.674 86.3992 27.1315 86.3037 26.5773C86.1747 25.9435 86.1567 25.2918 86.2505 24.6518C86.3372 24.0157 86.4701 23.3869 86.648 22.7706C87.0556 21.436 87.8375 20.25 88.8986 19.3566C89.9619 18.4368 91.2058 17.7557 92.5484 17.3582C93.3122 17.1397 94.0853 16.956 94.8585 16.7786C95.145 16.7175 95.4361 16.6814 95.7287 16.671C96.649 16.6266 97.5692 16.5633 98.4863 16.5728C99.2157 16.5728 99.945 16.6773 100.677 16.7533C101.097 16.7976 101.513 16.8831 101.93 16.9497C102.152 16.9877 102.271 16.9148 102.308 16.7058C102.433 16.1526 102.477 15.5838 102.437 15.0178C102.398 14.5858 102.306 14.1602 102.164 13.751C101.851 12.9212 101.178 12.4842 100.364 12.2562C99.6027 12.0511 98.8106 11.9867 98.0262 12.0662C97.0203 12.1484 96.0239 12.3233 95.0494 12.5887C93.8569 12.9143 92.7026 13.3687 91.6062 13.9442C91.506 14.036 91.3902 14.0709 91.2431 14.131ZM101.673 20.5822C100.934 20.4808 100.186 20.3257 99.4348 20.2908C98.3572 20.2063 97.2733 20.2649 96.2107 20.465C94.9242 20.7469 93.7942 21.2631 93.0054 22.3905C92.6834 22.8213 92.4673 23.3234 92.3748 23.8553C92.2822 24.3872 92.316 24.9337 92.4733 25.4498C92.5977 25.843 92.8073 26.2031 93.0867 26.5038C93.3661 26.8046 93.7084 27.0385 94.0885 27.1885C95.0534 27.6108 96.1374 27.6626 97.1373 27.3342C98.3934 26.9412 99.4819 26.1312 100.227 25.035C100.979 23.9722 101.483 22.7508 101.701 21.4626C101.776 21.1725 101.766 20.8668 101.673 20.5822Z" fill="#CACACA"/>
<path d="M12.2195 24.7267C13.7846 24.7267 15.3497 24.7267 16.8897 24.7267C18.4298 24.7267 19.9761 24.6697 21.585 24.638C21.5412 24.923 21.5162 25.1542 21.4692 25.3823C21.2877 26.2468 21.0842 27.1051 20.9183 27.9697C20.7868 28.6411 20.696 29.3157 20.5896 29.9934C20.5207 30.4304 20.455 30.8675 20.3986 31.3045C20.3736 31.4977 20.2891 31.6054 20.0856 31.6022C19.8822 31.5991 19.6318 31.6022 19.4033 31.5864L16.9273 31.4787C13.1367 31.2919 9.34285 31.4344 5.54907 31.4027C4.53802 31.4027 3.52385 31.4629 2.51281 31.5135C1.99633 31.5357 1.47984 31.5927 0.947714 31.6371C0.947714 31.4945 0.925781 31.4059 0.925781 31.3204C0.925781 30.1011 0.944578 28.8849 0.941447 27.6688C0.938294 27.569 0.956166 27.4696 0.993948 27.3773C1.03173 27.285 1.08854 27.202 1.16054 27.1336C1.76467 26.5002 2.35627 25.8668 2.951 25.2334C3.33288 24.8217 3.70854 24.4037 4.0873 23.9888L5.3049 22.6555L6.50065 21.3539C7.32389 20.4544 8.15023 19.555 8.97034 18.6556C9.74036 17.811 10.5083 16.9665 11.2742 16.122C11.5622 15.8053 11.847 15.4886 12.1193 15.1719C12.1994 15.0413 12.2625 14.9008 12.3072 14.7538C12.1892 14.721 12.0688 14.6977 11.9471 14.6842C10.6951 14.6842 9.443 14.6683 8.19092 14.6842C6.80112 14.7032 5.41443 14.7539 4.02776 14.7887H3.6021L4.62881 7.86566C4.91366 7.86566 5.17654 7.86566 5.43948 7.86566L7.43658 7.948C11.4432 8.10951 15.4498 8.00184 19.4564 8.02401C20.4831 8.02401 21.5099 7.97333 22.5334 7.93216C22.8778 7.93216 23.2189 7.87199 23.6008 7.83398C23.6262 7.97949 23.642 8.12656 23.6478 8.2742C23.6165 9.44598 23.5789 10.6209 23.5507 11.7927C23.5501 11.8798 23.5317 11.9658 23.4966 12.0454C23.4616 12.1249 23.4108 12.1963 23.3473 12.2551C22.8371 12.803 22.3331 13.3572 21.826 13.9114C21.4441 14.3263 21.0623 14.738 20.6835 15.1529L18.3891 17.6865L16.1792 20.1282L13.8816 22.6618C13.5311 23.0482 13.1742 23.4314 12.8299 23.8209C12.6452 24.03 12.4699 24.2485 12.3009 24.4733C12.2352 24.505 12.2445 24.5968 12.2195 24.7267Z" fill="#CACACA"/>
<path d="M126.077 24.952C126.014 25.4207 125.964 25.8324 125.902 26.2409C125.817 26.7983 125.723 27.3526 125.633 27.9068C125.529 28.556 125.426 29.2052 125.319 29.8545C125.3 30.0211 125.235 30.1789 125.132 30.3108C125.029 30.4426 124.893 30.5433 124.737 30.6019C123.784 31.0751 122.784 31.4456 121.754 31.7072C121.247 31.8085 120.746 31.9415 120.239 32.0239C119.795 32.1063 119.347 32.1603 118.896 32.1854C118.363 32.2155 117.827 32.2155 117.294 32.1854C116.415 32.157 115.553 31.9309 114.771 31.5235C113.956 31.0753 113.337 30.3355 113.034 29.4491C112.745 28.6673 112.615 27.8347 112.652 27.001C112.67 26.6083 112.652 26.2156 112.652 25.8229C112.665 24.9723 112.752 24.1246 112.911 23.2893C112.968 22.9726 112.987 22.6242 113.034 22.2917C113.118 21.6583 113.215 21.0439 113.306 20.42C113.343 20.1667 113.384 19.9165 113.415 19.6631C113.487 19.0772 113.544 18.4913 113.625 17.9054C113.706 17.3195 113.813 16.7146 113.907 16.1192C113.938 15.9071 113.957 15.6917 113.985 15.4859C114.038 15.0615 114.104 14.6339 114.142 14.2191C114.17 13.9182 114.113 13.8644 113.804 13.8612C113.256 13.8612 112.708 13.8612 112.16 13.8612C112.016 13.8612 111.872 13.8612 111.672 13.839C111.728 12.8224 111.888 11.847 111.985 10.8652C112.082 9.88345 112.22 8.89535 112.339 7.88825C112.78 7.85025 113.187 7.80274 113.591 7.78058C113.994 7.75841 114.392 7.78058 114.793 7.75207C115.106 7.75207 115.128 7.70457 115.2 7.38154C115.303 6.90966 115.431 6.43144 115.541 5.97539C115.725 5.16464 115.907 4.35706 116.085 3.54314C116.105 3.43194 116.155 3.32851 116.23 3.24455C116.304 3.16059 116.401 3.09946 116.508 3.0681C117.942 2.53604 119.366 1.97866 120.793 1.43394L123.667 0.347656C123.698 0.347656 123.742 0.347656 123.811 0.347656C123.786 0.604182 123.767 0.854376 123.732 1.1014C123.686 1.45927 123.626 1.81714 123.573 2.17501C123.529 2.49171 123.482 2.78624 123.444 3.09343C123.376 3.67933 123.316 4.26839 123.241 4.85111C123.166 5.43384 123.069 6.04823 122.981 6.64679C122.944 6.91282 122.897 7.17568 122.862 7.44171C122.855 7.4753 122.855 7.51009 122.862 7.54368C122.87 7.57728 122.884 7.60887 122.904 7.63627C122.925 7.66368 122.951 7.68624 122.981 7.70241C123.011 7.71858 123.044 7.72795 123.078 7.7299C123.211 7.73937 123.343 7.73937 123.476 7.7299H127.727C127.883 7.7299 128.04 7.74891 128.234 7.76157C128.162 8.24612 128.096 8.69267 128.027 9.13922C127.939 9.70927 127.851 10.2783 127.761 10.8462C127.642 11.6031 127.52 12.3569 127.398 13.1138C127.398 13.1803 127.376 13.2468 127.37 13.3133C127.316 13.8359 127.317 13.8359 126.784 13.8359H122.537C122.365 13.8359 122.196 13.858 122.014 13.8707C121.97 14.1526 121.923 14.3996 121.892 14.6529C121.814 15.2642 121.748 15.8786 121.663 16.493C121.579 17.1074 121.482 17.6552 121.394 18.238C121.35 18.5547 121.316 18.8524 121.282 19.1596C121.184 19.9703 121.094 20.7842 120.99 21.5981C120.903 22.2632 120.765 22.9219 120.709 23.587C120.637 24.1232 120.668 24.6682 120.799 25.1927C120.836 25.3521 120.914 25.4991 121.023 25.6196C121.133 25.74 121.271 25.8296 121.425 25.8799C121.898 26.0246 122.398 26.056 122.884 25.9717C123.563 25.8556 124.229 25.671 124.872 25.4207C125.282 25.3004 125.629 25.1325 126.077 24.952Z" fill="#CACACA"/>
</svg>
